<?xml version="1.0" encoding="utf-8"?>
<!-- Generator: Adobe Illustrator 27.5.0, SVG Export Plug-In . SVG Version: 6.00 Build 0)  -->
<svg version="1.1" xmlns="http://www.w3.org/2000/svg" xmlns:xlink="http://www.w3.org/1999/xlink" x="0px" y="0px"
	 viewBox="0 0 750 500" style="enable-background:new 0 0 750 500;" xml:space="preserve">
<g id="BACKGROUND">
	<g>
		<rect style="fill:#00000000;" width="750" height="500"/>
	</g>
</g>
<g id="OBJECTS">
	<g>
		<g>
			<g>
				<path style="fill:#EEF6FF;" d="M697.817,441.258c0,0,35.404-277.326-18.338-343.149
					C616.27,20.691,459.943,23.512,383.638,78.608s-271.855-24.157-322.837,52.16c-50.982,76.317,5.88,318.492,5.88,318.492
					L697.817,441.258z"/>
			</g>
			<g>
				<path style="fill:#FFFFFF;" d="M514.503,93.544c8.526-1.318,4.557-6.945,10.982-9.349c5.65-2.114,13.053,0.226,18.657,1.539
					c11.772,2.758,7.942-4.683,18.463-6.583c8.536-1.542,14.174,4.468,20.001,6.847c8.581,3.503,7.165-3.215,16.638-3.146
					c7.654,0.056,13.302,5.403,16.524,8.209c4.762,4.146,9.942,4.159,18.469,4.599c7.847,0.405,15.229,3.465,3.322,4.168
					c-6.473,0.382-102.488-0.352-123.755-1.191c-9.525-0.376-13.981-1.043-14.925-3.682
					C497.625,91.446,509.428,94.329,514.503,93.544z"/>
			</g>
			<g>
				<path style="fill:#FFFFFF;" d="M610.574,199.704c8.546-1.225,4.636-6.899,11.092-9.234c5.677-2.053,13.058,0.371,18.651,1.746
					c11.749,2.889,7.999-4.598,18.548-6.384c8.558-1.448,14.133,4.627,19.938,7.072c8.548,3.6,7.205-3.138,16.683-2.964
					c7.658,0.141,13.251,5.553,16.444,8.396c4.719,4.202,9.902,4.271,18.43,4.806c7.848,0.492,15.201,3.636,3.278,4.208
					c-6.481,0.311-102.549-1.484-123.82-2.559c-9.527-0.481-13.979-1.198-14.893-3.849
					C593.708,197.418,605.487,200.433,610.574,199.704z"/>
			</g>
			<g>
				<path style="fill:#FFFFFF;" d="M28.175,199.924c9.809-1.752,5.227-9.246,12.615-12.444c6.497-2.813,15.021,0.307,21.473,2.058
					c13.553,3.677,9.128-6.232,21.231-8.758c9.819-2.049,16.321,5.955,23.033,9.126c9.883,4.669,8.238-4.278,19.139-4.181
					c8.808,0.078,15.32,7.2,19.035,10.937c5.49,5.523,11.45,5.542,21.264,6.132c9.031,0.542,17.534,4.621,3.833,5.552
					c-7.448,0.506-117.942-0.514-142.417-1.641c-10.962-0.505-16.092-1.395-17.184-4.91
					C8.746,197.122,22.337,200.966,28.175,199.924z"/>
			</g>
			<g>
				<path style="fill:#FFFFFF;" d="M242.616,157.293c16.788,0.266,7.411-7.194,14.537-8.576c7.154-1.387,11.93,3.663,18.703,1.016
					c7.186-2.809,10.562-7.77,19.5-5.913c3.056,0.635,7.61,6.096,10.97,6.119c3.983,0.027,4.115-4.66,8.077-4.203
					c8.139,0.939,8.612,4.459,13.295,7.936c3,2.228,9.436,4.77,13.497,4.54c2.654-0.151,5.835,4.419-3.988,4.425
					c-17.475,0.009-75.949-1.21-96.352-1.002C238.386,161.659,232.39,157.131,242.616,157.293z"/>
			</g>
		</g>
		<g>
			<g>
				<g>
					<g>
						<path style="fill:#B7CA79;" d="M112.007,315.792c1.58-3.549,5.526-11.978,2.558-16.039
							c-5.435-7.436-0.077-18.642,5.171-21.349c11.024-5.685,8.056-23.554,17.807-23.148c9.752,0.406,6.64,14.998,14.844,18.927
							c9.328,4.467,16.128,14.637,10.799,21.273c-4.24,5.279,6.799,24.001-3.376,34.56
							C153.988,336.058,99.712,343.407,112.007,315.792z"/>
					</g>
					<g>
						<path style="fill:#A86D65;" d="M132.371,432.853c0.193-0.698,2.757-150.925,2.757-150.925h0.967l2.708,32.877l1.161,3.602
							l2.66,114.446c0,0-4.154,1.38-5.868,1.245C135.403,433.991,132.371,432.853,132.371,432.853z"/>
					</g>
					<g>
						<polygon style="fill:#A86D65;" points="139.625,318.648 155.749,306.483 155.12,306.241 137.629,317.226 						"/>
					</g>
					<g>
						<polygon style="fill:#A86D65;" points="122.416,288.808 134.507,300.687 134.587,298.29 122.997,288.395 						"/>
					</g>
				</g>
				<g>
					<g>
						<path style="fill:#B7CA79;" d="M621.623,321.549c0,0,28.555-6.126,26.126-22.772c-2.303-15.788-12.147-8.386-11.69-19.349
							c0.457-10.963-3.654-25.123-14.16-23.296c-10.506,1.827-8.073,15.458-11.877,16.444
							c-12.333,3.198-21.398,15.754-17.358,26.037C597.689,311.403,605.635,333.882,621.623,321.549z"/>
					</g>
					<g>
						<path style="fill:#A86D65;" d="M623.036,424.333c-0.148-0.535-1.625-144.837-1.625-144.837h-0.742l-2.079,25.236l-0.891,2.765
							l-2.533,116.836c0,0,3.154,0.572,4.47,0.469C620.674,424.72,623.036,424.333,623.036,424.333z"/>
					</g>
					<g>
						<polygon style="fill:#A86D65;" points="617.664,308.446 600.931,292.981 601.399,292.611 619.101,305.669 						"/>
					</g>
					<g>
						<polygon style="fill:#A86D65;" points="628.781,287.102 621.684,296.866 621.623,295.026 628.335,286.784 						"/>
					</g>
				</g>
			</g>
			<g>
				<path style="fill:#B7CA79;" d="M644.767,417.448c-2.189-4.178-3.469-9.347-6.758-12.039c-4.766-3.9-10.941-0.649-16.3,1.681
					c-7.282,3.167-15.342,4.436-22.894,2.12c-4.637-1.422-5.245-1.329-9.648,0.893c-3.978,2.007-8.217,3.287-12.517,2.908
					c-17.822-1.569-30.021-29.901-47.806-27.751c-13.37,1.617-22.167,20.082-35.331,23.473
					c-15.183,3.911-28.212-13.084-42.606-20.387c-35.226-17.872-73.672,23.959-111.104,16.344
					c-21.545-4.383-40.984-24.987-62.622-21.433c-16.706,2.744-30.671,19.645-47.484,20.939c-19.316,1.486-48.68,2.973-82.419-8.154
					c-20.329-6.705-22.377,23.967-58.723,23.935c-10.205-0.009-26.646,9.436-30.087,21.706c12.927,1.57,29.429-5.187,42.393-4.252
					c77.798,5.609,156.909,7.446,234.815,9.442c42.217,1.082,81.346-1.102,123.572-1.082c33.535,0.016,67.913,1.607,101.448,1.623
					c28.695,0.013,51.441-1.141,80.125-2.163c11.878-0.423,19.394-3.567,41.193-0.603c0.677-0.355,1.36-0.733,1.915-1.342
					c1.689-1.857,1.663-5.3,0.765-7.905c-1.9-5.517-6.715-8.527-11.387-9.382c-4.671-0.855-9.424-0.019-14.141-0.2
					c-4.717-0.181-9.734-1.612-12.956-6.016C645.676,419.075,645.203,418.281,644.767,417.448z"/>
			</g>
		</g>
		<g>
			<g>
				<path style="fill:#677E52;" d="M671.424,411.881c0.121,0.213-4.857-0.172-7.024,1.896c-3.298,3.148-9.321,16.583-6.181,21.755
					C658.546,424.882,671.452,411.788,671.424,411.881z"/>
			</g>
			<g>
				<g>
					<path style="fill:#677E52;" d="M147.302,428.03c0,0,6.551-7.39,5.479-17.015C146.15,415.667,147.302,428.03,147.302,428.03z"/>
				</g>
				<g>
					<path style="fill:#677E52;" d="M132.35,411.872c-0.12,0.212,4.823-0.17,6.974,1.883c3.275,3.125,9.255,16.466,6.137,21.601
						C145.137,424.781,132.322,411.78,132.35,411.872z"/>
				</g>
			</g>
			<g>
				<path style="fill:#677E52;" d="M83.283,417.674c-0.102,0.179,4.082-0.144,5.903,1.594c2.772,2.645,7.834,13.938,5.195,18.284
					C94.107,428.601,83.26,417.596,83.283,417.674z"/>
			</g>
			<g>
				<ellipse style="fill:#677E52;" cx="379.295" cy="441.258" rx="322.382" ry="20.274"/>
			</g>
			<g>
				<path style="fill:#677E52;" d="M328.732,428.086c12.423-2.389,2.937,1.719,21.657,0.869c15.71-0.71,34.14-1.56,49.13-2.25
					c16.42-0.75,28.7-1.31,28.7-1.31c-0.57-0.85-18.38-17.41-25.14-13.53c-7.8,4.5-16.92,9.01-23.91,9.12
					c-17.47,0.27-26.64-2.51-32.19-5.83C339.138,410.466,327.347,428.353,328.732,428.086z"/>
			</g>
			<g>
				<path style="fill:#77614D;" d="M346.979,415.155c0.53,3.16,1.58,8.33,3.41,13.8c3.93,11.77,8.972,18.81,24.64,18.459
					c13.288-0.298,20.81-10.019,24.49-20.709c2.12-6.14,3.13-11.81,3.56-14.84c-7.8,4.5-16.92,9.01-23.91,9.12
					C361.698,421.255,352.529,418.475,346.979,415.155z"/>
			</g>
			<g>
				<path style="fill:#677E52;" d="M589.41,390.439c-0.148,0.261,5.95-0.21,8.603,2.322c4.04,3.856,11.417,20.313,7.571,26.648
					C605.184,406.363,589.376,390.325,589.41,390.439z"/>
			</g>
			<g>
				<path style="fill:#677E52;" d="M520.768,399.183c0.037,0.153-2.181,0.072-3.848,1.228c-7.62,5.283-10.53,13.483-9.499,17.214
					C509.705,410.625,520.804,399.124,520.768,399.183z"/>
			</g>
		</g>
		<g>
			<g>
				<g>
					<g>
						<path style="fill:#7B8E66;" d="M473.526,268.509c0,0,58.57-3.8,56.89-5.94c-0.82-1.04-2.81-11.03-2.82-28.94
							c-0.01-37.95,3.46-46.94-17.78-57.12c-1.46-0.22-10.46,1.39-18.15,2.86c-6.03,1.16-11.24,2.22-11.38,2.24
							c-2.24,0.24-5.45,1.53-8.82,3.28c-7.49,3.89-15.79,9.99-16.11,11.61C453.746,204.769,473.526,268.509,473.526,268.509z"/>
					</g>
					<g>
						<path style="fill:#B7CA79;" d="M477.456,197.12c-1.925,0-3.956-0.5-5.369-2.172c-0.091-0.107-0.077-0.268,0.03-0.358
							c0.107-0.091,0.267-0.077,0.358,0.03c3.199,3.788,10.203,0.955,10.274,0.925c0.128-0.054,0.277,0.008,0.331,0.138
							c0.054,0.13-0.008,0.278-0.137,0.332C482.766,196.089,480.22,197.12,477.456,197.12z"/>
					</g>
				</g>
				<g>
					<path style="fill:#FFAC70;" d="M471.466,184.889c1.27,3.69,4.19,9.44,9.8,8.37c6.05-1.16,9.19-9.61,10.4-13.89
						c-6.03,1.16-11.24,2.22-11.38,2.24C478.046,181.849,474.836,183.139,471.466,184.889z"/>
				</g>
			</g>
			<g>
				<g>
					<g>
						<g>
							<path style="fill:#FFAC70;" d="M469.512,172.657l4.406,16.288c0,0,13.129-2.334,15.423-7.124
								c0.522-1.09-6.143-17.751-6.143-17.751L469.512,172.657z"/>
						</g>
						<g>
							<path style="fill:#AA7D5E;" d="M470.648,176.945c2.563-0.916,8.266-5.536,8.266-5.536s-1.005,5.503-7.4,8.495
								C471.274,179.1,471.014,178.114,470.648,176.945z"/>
						</g>
					</g>
					<g>
						<path style="fill:#FFAC70;" d="M481.684,146.381l2.415,19.367c0,0-0.028,0.034-0.096,0.105
							c-0.145,0.195-0.466,0.608-0.934,1.166c-0.928,1.101-2.442,2.795-4.29,4.512c-0.031,0.022-0.06,0.056-0.103,0.081
							c-2.171,2.014-4.811,4.008-7.535,5.13c-0.166,0.076-0.324,0.143-0.472,0.197c-0.008,0.015-0.023,0.007-0.023,0.007
							c-1.539,0.585-3.11,0.849-4.627,0.654c-5.134-0.667-7.812-9.919-9.101-16.894c-0.039-0.217-0.071-0.41-0.107-0.615
							c-0.406-2.302-0.672-4.304-0.818-5.605c-0.106-0.996-0.153-1.579-0.153-1.579L481.684,146.381z"/>
					</g>
					<g>
						<path style="fill:#634F3F;" d="M460.159,162.043c0.222,0.609,0.032,1.238-0.425,1.404c-0.457,0.166-1.007-0.192-1.229-0.801
							c-0.222-0.609-0.031-1.238,0.425-1.404C459.387,161.075,459.937,161.434,460.159,162.043z"/>
					</g>
					<g>
						<path style="fill:#634F3F;" d="M467.922,159.937c0.222,0.609,0.032,1.238-0.425,1.404c-0.457,0.167-1.007-0.192-1.229-0.801
							c-0.222-0.609-0.032-1.238,0.425-1.404C467.15,158.969,467.7,159.328,467.922,159.937z"/>
					</g>
					<g>
						<path style="fill:#634F3F;" d="M463.453,168.019c-0.409,0-0.851-0.107-1.289-0.401c-0.813-0.548-0.664-1.174-0.11-3.503
							c0.117-0.495,0.255-1.073,0.408-1.752c0.029-0.131,0.157-0.21,0.291-0.184c0.131,0.03,0.213,0.16,0.184,0.291
							c-0.153,0.681-0.292,1.26-0.409,1.757c-0.536,2.253-0.61,2.638-0.092,2.987c1.284,0.861,2.586-0.261,2.642-0.31
							c0.101-0.088,0.255-0.078,0.343,0.022c0.089,0.101,0.079,0.254-0.021,0.343C465.386,167.28,464.53,168.019,463.453,168.019z"
							/>
					</g>
					<g>
						<path style="fill:#FFFFFF;" d="M467.015,168.428c-2.142,2.086-3.497,2.292-3.497,2.292s1.037,2.321,2.502,1.115
							C467.966,170.233,467.015,168.428,467.015,168.428z"/>
					</g>
					<g>
						<path style="fill:#77614D;" d="M479.12,141.738c-3.083-4.003-7.103-0.927-7.531-1.257c-2.173-1.677-6.997-1.616-8.822,0.434
							c-3.299,3.707-4.941,1.386-8.213,2.539c-7.611,2.683-1.199,11.51,3.091,11.364c2.148-0.073,3.97-1.613,5.975-2.386
							c2.005-0.773,4.407-1.1,6.2,0.083c0.972,0.642,2.062,3.421,3.137,3.869c1.732,0.721,3.811-0.313,5.559,0.366
							c1.497,0.582,2.265,2.217,2.783,3.737c0.512,1.501,0.921,3.038,1.224,4.595c0.153,0.787,0.289,1.603,0.723,2.277
							c0.434,0.674,1.262,1.17,2.033,0.949c1.157-0.33,1.379-1.868,1.245-3.064c-0.124-1.1-0.359-2.187-0.7-3.239
							C485.396,160.683,486.875,140.188,479.12,141.738z"/>
					</g>
					<g>
						<g>
							<path style="fill:#FFAC70;" d="M476.677,158.494c0.113-0.062,0.224-2.695,2.707-3.097c2.211-0.358,3.508,3.039,3.08,4.03
								c-1.325,3.068-3.519,3.685-3.519,3.685L476.677,158.494z"/>
						</g>
						<g>
							<path style="fill:#634F3F;" d="M481.262,159.315c-0.109,0-0.209-0.074-0.236-0.185c-0.181-0.735-0.468-1.163-0.854-1.271
								c-0.591-0.169-1.359,0.434-1.605,0.678c-0.096,0.095-0.249,0.095-0.345-0.001c-0.095-0.095-0.094-0.249,0.001-0.344
								c0.044-0.044,1.095-1.079,2.08-0.802c0.568,0.16,0.971,0.706,1.196,1.624c0.032,0.131-0.048,0.262-0.179,0.294
								C481.3,159.313,481.281,159.315,481.262,159.315z"/>
						</g>
						<g>
							<path style="fill:#634F3F;" d="M479.369,159.973c-0.029,0-0.059-0.005-0.088-0.016c-0.125-0.049-0.188-0.189-0.139-0.315
								c0.025-0.066,0.084-0.168,0.162-0.296c0.227-0.372,0.605-0.997,0.545-1.685c-0.012-0.134,0.087-0.252,0.221-0.263
								c0.163-0.019,0.253,0.088,0.264,0.221c0.073,0.848-0.373,1.584-0.613,1.98c-0.059,0.096-0.105,0.169-0.125,0.219
								C479.558,159.914,479.466,159.973,479.369,159.973z"/>
						</g>
					</g>
				</g>
				<g>
					<path style="fill:#77614D;" d="M464.541,158.77c0.321,0.284,1.165-0.286,2.25-0.632c1.088-0.389,2.151-0.266,2.229-0.454
						c0.103-0.171-1.035-0.897-2.556-0.631C464.929,157.32,464.205,158.513,464.541,158.77z"/>
				</g>
				<g>
					<path style="fill:#77614D;" d="M460.918,159.654c-0.148,0.399-1.168,0.297-2.286,0.503c-0.704,0.108-1.321,0.38-1.715,0.548
						c-0.039-0.217-0.071-0.41-0.107-0.615c0.32-0.374,0.853-0.799,1.592-1.045C459.881,158.555,461.093,159.26,460.918,159.654z"/>
				</g>
			</g>
			<g>
				<g>
					<path style="fill:#77614D;" d="M565.691,417.013l3.418,18.707l-41.73,0.541c0,0-4.47-3.391-1.909-6.034
						c2.561-2.643,16.436-7.268,15.775-10.571C540.585,416.352,565.691,417.013,565.691,417.013z"/>
				</g>
				<g>
					<path style="fill:#77614D;" d="M479.103,417.013l3.418,18.707l-41.73,0.541c0,0-4.47-3.391-1.909-6.034
						c2.561-2.643,16.436-7.268,15.775-10.571C453.996,416.352,479.103,417.013,479.103,417.013z"/>
				</g>
				<g>
					<path style="fill:#81A8D3;" d="M529.844,258.348c0,0,20.677,86.391,38.041,161.571c-11.631,8.252-34.925,2.043-34.925,2.043
						l-33.83-134.691l-5.342-0.445c0,0-12.816,41.764-15.03,55.178c-3.335,20.206,2.504,36.073,4.088,79.103
						c-8.835,7.064-35.982,1.022-35.982,1.022s-4.668-62.952-1.825-83.684c2.622-19.124,23.029-78.014,23.029-78.014
						L529.844,258.348z"/>
				</g>
				<g>
					<path style="fill:#AACBE8;" d="M545.519,414.038c-4.104,0-8.548-0.477-12.645-1.908c-0.135-0.047-0.206-0.194-0.159-0.329
						c0.047-0.135,0.196-0.205,0.329-0.159c11.217,3.921,25.114,0.582,27.128,0.061c-1.214-4.54-18.187-68.167-19-77.338
						c-0.834-9.413-18.953-69.539-19.136-70.146c-0.042-0.136,0.036-0.28,0.173-0.321c0.138-0.042,0.28,0.036,0.321,0.173
						c0.184,0.607,18.317,60.783,19.157,70.249c0.835,9.418,18.868,76.819,19.051,77.5c0.036,0.136-0.044,0.277-0.18,0.315
						C560.457,412.163,553.656,414.037,545.519,414.038z"/>
				</g>
				<g>
					<path style="fill:#AACBE8;" d="M497.444,280.139c-0.012,0-0.023-0.001-0.036-0.003l-4.584-0.648
						c-0.098-0.014-0.179-0.082-0.209-0.175l-4.651-14.161c-0.045-0.136,0.029-0.282,0.164-0.326
						c0.139-0.045,0.282,0.029,0.326,0.164l4.602,14.009l4.425,0.625c0.142,0.02,0.239,0.15,0.22,0.292
						C497.681,280.045,497.571,280.139,497.444,280.139z"/>
				</g>
				<g>
					<path style="fill:#AACBE8;" d="M465.681,413.895c-3.976,0-8.934-0.551-14.735-2.265c-0.137-0.041-0.215-0.185-0.175-0.321
						c0.04-0.137,0.187-0.214,0.321-0.175c14.806,4.375,23.998,1.109,25.314,0.585l-4.342-65.046c-0.002-0.023,0-0.047,0.005-0.07
						l12.815-61.55c0.029-0.14,0.168-0.234,0.306-0.2c0.14,0.029,0.229,0.166,0.2,0.306l-12.808,61.515l4.352,65.195
						c0.007,0.107-0.053,0.208-0.15,0.253C476.723,412.149,472.76,413.895,465.681,413.895z"/>
				</g>
			</g>
			<g>
				<g>
					
						<rect x="420.238" y="291.073" transform="matrix(0.8378 -0.546 0.546 0.8378 -80.0267 315.6175)" style="fill:#634F3F;" width="141.779" height="2.819"/>
				</g>
				<g>
					<path style="fill:#634F3F;" d="M441.064,317.13c2.607,2.447,7.796,7.3,10.667,9.984c0.963,0.901,0.697,2.487-0.51,3.019
						c-7.525,3.316-23.969,9.384-30.359,11.193c-11.223,3.177-19.606,1.5-17.788-1.482c7.452-12.222,26.784-20.257,34.402-23.377
						C438.7,315.965,440.099,316.224,441.064,317.13z"/>
				</g>
			</g>
			<g>
				<g>
					<g>
						<path style="fill:#FFAC70;" d="M478.262,279.88l8.079,3.388c0,0,7.745,5.941,7.865,10.388
							c0.121,4.447-7.503,9.108-10.036,9.955c-2.533,0.847-6.368-4.268-7.682-7.478c-0.503-1.23-7.208-9.265-7.208-9.265
							L478.262,279.88z"/>
					</g>
					<g>
						<g>
							<path style="fill:#7B8E66;" d="M468.212,293.656c0,0,15.618-8.55,16.925-15.575c-13.801-16.883-20.666-24.386-23.067-29.301
								c1.439-6.558,8.819-27.539,15.419-44.776l-22.133-7.504c-11.887,25.147-18.255,47.73-18.255,53.659
								c0,5.527,2.122,11.929,15.207,28.089C459.035,286.557,467.934,293.353,468.212,293.656z"/>
						</g>
					</g>
					<g>
						<path style="fill:#B7CA79;" d="M461.525,209.04c-0.09,0-0.177-0.048-0.223-0.132c-0.21-0.381-5.16-9.379-6.186-12.326
							c-0.046-0.132,0.024-0.277,0.156-0.324c0.14-0.045,0.277,0.025,0.324,0.157c1.013,2.906,6.1,12.154,6.151,12.248
							c0.067,0.123,0.023,0.277-0.1,0.345C461.609,209.03,461.567,209.04,461.525,209.04z"/>
					</g>
				</g>
				<g>
					<path style="fill:#634F3F;" d="M492.76,297.295c-0.095,0-0.186-0.053-0.23-0.143c-0.02-0.04-1.985-4.019-3.322-4.834
						c-0.121-0.074-0.159-0.232-0.086-0.353c0.076-0.121,0.233-0.158,0.353-0.086c1.464,0.894,3.433,4.878,3.516,5.047
						c0.063,0.127,0.01,0.281-0.117,0.344C492.837,297.287,492.798,297.295,492.76,297.295z"/>
				</g>
				<g>
					<path style="fill:#634F3F;" d="M489.341,300.37c-0.11,0-0.212-0.071-0.246-0.182c-0.364-1.19-1.595-4.392-2.889-4.904
						c-0.132-0.053-0.196-0.202-0.145-0.334c0.053-0.131,0.202-0.194,0.334-0.145c1.788,0.709,3.135,5.048,3.191,5.232
						c0.041,0.136-0.035,0.279-0.171,0.321C489.391,300.366,489.366,300.37,489.341,300.37z"/>
				</g>
				<g>
					<path style="fill:#634F3F;" d="M486.208,302.574c-0.114,0-0.219-0.076-0.249-0.191c-0.006-0.025-0.683-2.527-2.869-4.589
						c-0.102-0.097-0.107-0.26-0.01-0.363c0.096-0.102,0.26-0.106,0.363-0.01c2.297,2.166,2.985,4.724,3.014,4.832
						c0.035,0.137-0.047,0.277-0.184,0.313C486.251,302.571,486.229,302.574,486.208,302.574z"/>
				</g>
			</g>
			<g>
				<g>
					<path style="fill:#81A8D3;" d="M527.595,262.715c0,0-18.312-29.08-23.53-53.17c-5.344,0-30.164,2.963-39.717,4.605
						c-0.423,15.471,6.988,47.047,6.988,47.047S518.459,267.275,527.595,262.715z"/>
				</g>
				<g>
					<path style="fill:#81A8D3;" d="M492.581,212.68l7.688-0.982c-1.331-10.376-1.693-27.327,2.261-34.809
						c-2.404,0.052-8.18,0.517-8.503,0.556C489.854,190.509,492.232,209.928,492.581,212.68z"/>
				</g>
				<g>
					<path style="fill:#81A8D3;" d="M466.466,215.937l7.546-1.783c-1.525-6.5-5.586-19.934-2.988-29.845
						c-1.925,0.569-6.653,3.101-7.583,3.514C461.786,201.08,465.91,213.585,466.466,215.937z"/>
				</g>
				<g>
					<path style="fill:#77614D;" d="M494.615,212.393c-0.255,0.878,0.25,1.796,1.127,2.051c0.878,0.255,1.796-0.249,2.051-1.127
						c0.255-0.878-0.25-1.796-1.127-2.051C495.788,211.011,494.87,211.516,494.615,212.393z"/>
				</g>
				<g>
					<path style="fill:#77614D;" d="M468.291,215.061c-0.255,0.878,0.25,1.796,1.127,2.051s1.796-0.25,2.051-1.127
						s-0.25-1.796-1.127-2.051S468.546,214.184,468.291,215.061z"/>
				</g>
				<g>
					<path style="fill:#AACBE8;" d="M478.709,247.21c-0.111,0-0.211-0.071-0.246-0.178l-6.386-19.52
						c-0.024-0.075-0.013-0.157,0.03-0.223c0.043-0.066,0.114-0.108,0.192-0.115l28.094-2.554c0.121-0.018,0.234,0.065,0.271,0.182
						l5.943,19.519c0.022,0.074,0.011,0.155-0.032,0.219c-0.044,0.064-0.113,0.106-0.191,0.113l-27.651,2.554
						C478.724,247.21,478.716,247.21,478.709,247.21z M472.669,227.661l6.221,19.015l27.13-2.506l-5.789-19.015L472.669,227.661z"/>
				</g>
				<g>
					<path style="fill:#AACBE8;" d="M474.012,231.704c-0.134,0-0.247-0.103-0.258-0.238c-0.011-0.142,0.096-0.267,0.237-0.278
						l23.432-1.824c0.132-0.006,0.268,0.095,0.278,0.238c0.011,0.142-0.096,0.267-0.237,0.278l-23.432,1.824
						C474.026,231.704,474.019,231.704,474.012,231.704z"/>
				</g>
			</g>
			<g>
				<g>
					<g>
						<path style="fill:#FFAC70;" d="M546.894,249.86l-6.337,8.906c0,0,3.176,5.069,0,8.252c-3.177,3.183-9.796,5.036-11.647,3.183
							c-4.953-4.96-4.588-10.376-4.941-12.282c-0.353-1.906,7.059-15.247,7.059-15.247L546.894,249.86z"/>
					</g>
					<g>
						<g>
							<path style="fill:#7B8E66;" d="M550.397,256.333c0.25-0.465,6.174-11.548,11.293-24.378
								c8.509-21.319,9.959-35.052,4.703-44.528c-13.627-24.567-54.665-11.806-62.753-8.999l9.489,27.404
								c9.911-3.407,22.412-5.122,27.35-3.931c-0.572,7.33-10.028,22.977-15.639,40.725
								C526.935,249.568,550.397,256.333,550.397,256.333z"/>
						</g>
					</g>
					<g>
						<path style="fill:#B7CA79;" d="M509.383,195.269c-0.08,0-0.158-0.038-0.208-0.108c-3.055-4.344,0.251-18.127,0.393-18.712
							c0.033-0.136,0.166-0.219,0.308-0.187c0.136,0.033,0.22,0.171,0.187,0.307c-0.034,0.141-3.395,14.143-0.472,18.299
							c0.081,0.115,0.053,0.273-0.061,0.354C509.485,195.254,509.434,195.269,509.383,195.269z"/>
					</g>
				</g>
				<g>
					<path style="fill:#634F3F;" d="M533.203,270.654c-0.076,0-0.152-0.034-0.203-0.099l-2.752-3.539
						c-0.087-0.112-0.066-0.274,0.045-0.361c0.11-0.086,0.272-0.067,0.361,0.045l2.752,3.539c0.087,0.112,0.066,0.274-0.045,0.361
						C533.314,270.636,533.258,270.654,533.203,270.654z"/>
				</g>
				<g>
					<path style="fill:#634F3F;" d="M537.195,269.343c-0.074,0-0.147-0.032-0.198-0.094l-2.683-3.265
						c-0.091-0.109-0.074-0.272,0.035-0.361c0.11-0.092,0.273-0.074,0.361,0.035l2.683,3.265c0.091,0.109,0.074,0.271-0.035,0.361
						C537.31,269.324,537.253,269.343,537.195,269.343z"/>
				</g>
				<g>
					<path style="fill:#634F3F;" d="M540.557,267.275c-0.067,0-0.135-0.026-0.185-0.079l-3.045-3.173
						c-0.099-0.103-0.095-0.265,0.008-0.363c0.102-0.099,0.264-0.096,0.363,0.008l3.045,3.173c0.099,0.102,0.095,0.265-0.008,0.363
						C540.685,267.251,540.622,267.275,540.557,267.275z"/>
				</g>
			</g>
		</g>
		<g>
			<g>
				<g>
					<path style="fill:#FFAC70;" d="M349.585,308.076l-5.212,7.253l-8.253-7.767l5.861-10.591
						C341.981,296.97,350.035,301.262,349.585,308.076z"/>
				</g>
				<g>
					<polygon style="fill:#7B8E66;" points="312.185,329.324 303.144,294.084 283.947,313.308 290.368,334.893 					"/>
				</g>
				<g>
					<path style="fill:#FFAC70;" d="M336.412,307.273l-25.876,25.523l-4.482-8.865l-14.06,15.906c0,0,14.614,16.671,17.941,15.893
						c12.708-2.974,34.438-40.402,34.438-40.402L336.412,307.273z"/>
				</g>
				<g>
					<path style="fill:#FFAC70;" d="M337.306,297.923l-2.478,5.276l0.273,5.371l2.69-2.642l0.482-3.164
						C338.274,302.764,339.283,298.753,337.306,297.923z"/>
				</g>
			</g>
			<g>
				<g>
					<path style="fill:#EACA96;" d="M289.436,420.509l-2.931,11.883c-0.513,2.08,0.933,4.033,2.926,4.135
						c10.136,0.519,11.598-1.447,15.802-1.434c4.524,0.015,6.952,1.589,16.119,1.893c4.315,0.143,6.708-2.402,6.176-4.715
						c-0.797-3.463-3.258-7.577-10.506-7.176c-2.188,0.121-5.645-3.026-7.539-4.945c-0.735-0.744-1.866-0.798-2.635-0.093
						c-1.585,1.455-4.519,3.52-8.103,3.128c-1.75-0.191-4.806-2.24-6.79-3.698C291.016,418.799,289.728,419.324,289.436,420.509z"/>
				</g>
				<g>
					<path style="fill:#634F3F;" d="M313.216,334.931c-25.894,2.38-79.779,20.992-79.779,20.992l23.058,28.667l41.91-16.438
						l-17.551,57.041c0,0,28.188,4.461,35.068-0.978c9.903-29.608,13.109-49.113,15.135-66.137
						C331.921,350.823,331.058,333.291,313.216,334.931z"/>
				</g>
				<g>
					<path style="fill:#7F6854;" d="M291.263,412.934c-0.023,0-0.047-0.003-0.07-0.01c-0.137-0.039-0.216-0.182-0.177-0.317
						l15.385-53.732l-42.241,15.079c-0.132,0.047-0.279-0.022-0.328-0.156c-0.048-0.133,0.022-0.28,0.156-0.328l42.712-15.247
						c0.087-0.03,0.19-0.011,0.262,0.055c0.07,0.066,0.098,0.166,0.071,0.258l-15.522,54.212
						C291.478,412.861,291.376,412.934,291.263,412.934z"/>
				</g>
			</g>
			<g>
				<g>
					<path style="fill:#EACA96;" d="M205.237,403.746l-11.97-7.08c-2.095-1.239-4.672-0.543-5.413,1.342
						c-3.768,9.592-2.097,11.706-3.441,15.757c-1.446,4.359-3.924,6.138-7.152,14.872c-1.52,4.111,0.486,7.331,3.164,7.645
						c4.01,0.47,9.255-0.431,11.11-7.567c0.56-2.154,4.633-5.662,7.752-5.503c1.129,0.058,1.456-1.514,0.934-2.508
						c-1.078-2.05,0.001-6.298,1.559-9.616c0.761-1.62,1.558-3.156,3.768-4.548C206.594,405.882,206.431,404.452,205.237,403.746z"
						/>
				</g>
				<g>
					<path style="fill:#77614D;" d="M250.109,358.822c0,0,31.155,39.043,36.719,49.69c6.47,12.382,1.101,26.825-6.41,27.97
						c-20.54,3.132-54.815,0.588-85.097-10.994c-3.562-6.075,8.18-26.955,8.18-26.955l43.495,9.311c0,0-25.99-17.959-31.016-23.263
						c-7.197-7.595-11.173-18.72-4.835-30.418c2.074-3.828,9.255-9.665,9.255-9.665L250.109,358.822z"/>
				</g>
				<g>
					<path style="fill:#634F3F;" d="M201.391,424.472c-0.112,0-0.216-0.074-0.248-0.188c-1.613-5.814,6.458-19.993,6.803-20.594
						c0.056-0.098,0.171-0.145,0.278-0.123c0.372,0.083,37.031,8.263,49.684,9.077c-0.278-2.002-9.815-11.82-18.267-20.521
						c-9.008-9.273-18.321-18.862-19.57-21.985c-2.768-6.919,0.048-13.298,2.897-17.432c0.081-0.117,0.243-0.146,0.357-0.066
						c0.117,0.081,0.146,0.241,0.066,0.357c-2.778,4.03-5.527,10.242-2.845,16.949c1.212,3.029,10.489,12.581,19.462,21.818
						c11.778,12.127,18.893,19.606,18.38,21.228c-0.036,0.112-0.133,0.179-0.26,0.18c-11.996-0.695-46.952-8.422-49.831-9.063
						c-0.909,1.623-8.126,14.753-6.659,20.037c0.037,0.137-0.043,0.278-0.18,0.316C201.437,424.469,201.414,424.472,201.391,424.472
						z"/>
				</g>
			</g>
			<g>
				<g>
					<path style="fill:#FFAC70;" d="M296.745,276.384c-8.533,1.87-19.854-10.665-19.854-10.665l0.76-20.34l27.431,4.451
						c0,0,0.032,3.319-0.365,7.617c-0.022,0.352-0.056,0.701-0.09,1.05C303.863,265.804,301.899,275.261,296.745,276.384z"/>
				</g>
				<g>
					<path style="fill:#FFAC70;" d="M291.264,271.6l-4.097,16.555c0,0-13.064,0.509-15.701-4.262
						c-0.6-1.086,7.545-18.431,7.545-18.431L291.264,271.6z"/>
				</g>
				<g>
					<path style="fill:#634F3F;" d="M310.177,246.147c0.418,1.983,0.378,6.08-3.971,6.699c-4.35,0.62-14.376-5.698-15.395-3.728
						c-1.585,3.063-4.819,6.643-7.68,7.082c-2.203,4.661-2.187,4.887-2.187,4.887s0.738,8.493-4.053,12.221
						c-3.014,2.345-16.147-4.528-15.402-11.162c0.714-6.351,4.967-10.255,8.037-13.19c3.07-2.935,3.389-6.14,4.835-8.297
						c1.446-2.157,5.85-5.161,9.498-3.639c4.471,1.866,5.725-3.419,10.935,0.3C299.651,240.786,308.901,240.091,310.177,246.147z"/>
				</g>
				<g>
					<path style="fill:#AA7D5E;" d="M290.368,275.664c-2.566-0.723-7.067-5.654-7.067-5.654s1.84,6.633,6.286,8.449
						C289.958,277.14,290.113,276.911,290.368,275.664z"/>
				</g>
				<g>
					<path style="fill:#634F3F;" d="M293.168,258.219c-0.176,0.652,0.079,1.288,0.568,1.42c0.489,0.132,1.028-0.29,1.204-0.943
						c0.175-0.652-0.079-1.288-0.568-1.42C293.882,257.144,293.343,257.567,293.168,258.219z"/>
				</g>
				<g>
					<path style="fill:#634F3F;" d="M301.484,260.296c-0.176,0.652,0.079,1.288,0.568,1.42c0.489,0.132,1.028-0.29,1.204-0.943
						c0.175-0.652-0.079-1.288-0.568-1.42C302.199,259.221,301.66,259.643,301.484,260.296z"/>
				</g>
				<g>
					<path style="fill:#634F3F;" d="M297.825,265.779c-0.671,0-1.238-0.116-1.275-0.124c-0.139-0.029-0.228-0.166-0.198-0.305
						c0.029-0.139,0.172-0.22,0.304-0.199c0.014,0.003,1.354,0.279,2.247-0.039c0.404-0.143,0.277-2.501-0.272-5.044
						c-0.03-0.139,0.058-0.276,0.196-0.306c0.142-0.028,0.277,0.059,0.306,0.196c0.339,1.568,1.013,5.258-0.058,5.638
						C298.684,265.736,298.235,265.779,297.825,265.779z"/>
				</g>
				<g>
					<g>
						<path style="fill:#FFAC70;" d="M283.947,257.511c-0.124-0.054-0.476-2.778-3.091-2.972c-2.328-0.173-3.368,3.472-2.835,4.462
							c1.653,3.067,3.987,3.509,3.987,3.509L283.947,257.511z"/>
					</g>
					<g>
						<path style="fill:#634F3F;" d="M279.35,258.415c-0.011,0-0.021-0.001-0.033-0.002c-0.141-0.018-0.24-0.146-0.222-0.288
							c0.089-0.692,0.365-1.147,0.822-1.35c0.956-0.424,2.323,0.504,2.381,0.545c0.116,0.08,0.146,0.24,0.065,0.357
							c-0.081,0.115-0.241,0.145-0.358,0.064c-0.327-0.225-1.302-0.756-1.88-0.497c-0.281,0.125-0.456,0.443-0.521,0.946
							C279.589,258.321,279.478,258.415,279.35,258.415z"/>
					</g>
					<g>
						<path style="fill:#634F3F;" d="M280.941,259.445c-0.028,0-0.058-0.005-0.086-0.015c-0.114-0.041-0.183-0.154-0.17-0.27
							c-0.015-0.062-0.079-0.214-0.131-0.339c-0.194-0.464-0.487-1.166-0.487-1.89c0-0.142,0.115-0.257,0.257-0.257
							s0.257,0.115,0.257,0.257c0,0.62,0.27,1.265,0.448,1.691c0.143,0.343,0.208,0.499,0.154,0.65
							C281.146,259.379,281.047,259.445,280.941,259.445z"/>
					</g>
				</g>
				<g>
					<path style="fill:#634F3F;" d="M297.343,269.229c-1.179,0-3.323-0.368-3.913-2.94c-0.031-0.139,0.056-0.276,0.193-0.309
						c0.148-0.027,0.276,0.056,0.309,0.193c0.712,3.107,3.967,2.517,4.103,2.492c0.148-0.034,0.275,0.063,0.301,0.203
						c0.027,0.14-0.064,0.274-0.203,0.301C298.122,269.172,297.806,269.229,297.343,269.229z"/>
				</g>
				<g>
					<path style="fill:#77614D;" d="M296.838,256.225c-0.304,0.335-1.256-0.167-2.435-0.406c-1.187-0.284-2.29-0.033-2.394-0.221
						c-0.127-0.168,0.984-1.061,2.612-0.956C296.264,254.746,297.161,255.916,296.838,256.225z"/>
				</g>
				<g>
					<path style="fill:#77614D;" d="M304.627,258.498c-0.308-0.143-0.655-0.296-1.053-0.396c-1.16-0.342-2.232-0.345-2.347-0.785
						c-0.134-0.418,1.2-1.038,2.699-0.359c0.309,0.143,0.574,0.302,0.792,0.489C304.695,257.8,304.661,258.149,304.627,258.498z"/>
				</g>
			</g>
			<g>
				<g>
					<g>
						<g>
							<path style="fill:#677E52;" d="M389.323,301.931c0,0-3.914-0.067-8.355,0.283c-5.49,0.433-7.634,6.532-7.634,6.532
								s5.648,2.966,8.838,1.973C387.991,308.907,389.323,301.931,389.323,301.931z"/>
						</g>
						<g>
							<path style="fill:#B7CA79;" d="M388.998,301.973c-2.143,1.864-4.521,3.452-7.065,4.742c-1.277,0.637-2.609,1.166-3.98,1.591
								c-1.379,0.407-2.807,0.651-4.258,0.737c-0.206,0.012-0.382-0.145-0.394-0.35c-0.012-0.206,0.145-0.382,0.35-0.394
								c0.004,0,0.008,0,0.012,0l0.018,0c1.379-0.032,2.762-0.214,4.115-0.56c1.346-0.365,2.671-0.833,3.951-1.415
								c2.55-1.177,4.975-2.669,7.17-4.442c0.025-0.023,0.064-0.02,0.086,0.005C389.026,301.91,389.022,301.95,388.998,301.973z"/>
						</g>
						<g>
							<path style="fill:#B7CA79;" d="M384.113,302.115l-0.675,3.662l-0.002,0.011c-0.022,0.119-0.137,0.198-0.256,0.176
								c-0.119-0.022-0.199-0.137-0.176-0.256c0.001-0.006,0.003-0.012,0.004-0.018l0.987-3.603
								c0.009-0.033,0.043-0.052,0.075-0.043C384.1,302.052,384.118,302.084,384.113,302.115z"/>
						</g>
						<g>
							<path style="fill:#B7CA79;" d="M382.474,310.561c-1.356-0.889-2.709-1.773-3.987-2.794c-0.064-0.051-0.074-0.143-0.023-0.207
								s0.143-0.074,0.207-0.023c0.001,0.001,0.003,0.002,0.003,0.003l0.005,0.004c1.216,1.045,2.545,1.983,3.863,2.916
								c0.028,0.019,0.035,0.057,0.016,0.085C382.54,310.572,382.502,310.579,382.474,310.561z"/>
						</g>
					</g>
					<g>
						<g>
							<path style="fill:#677E52;" d="M373.875,256.722c0,0-2.499-1.411-5.484-2.737c-3.69-1.639-7.202,1.543-7.202,1.543
								s2.604,3.885,5.007,4.359C370.579,260.753,373.875,256.722,373.875,256.722z"/>
						</g>
						<g>
							<path style="fill:#B7CA79;" d="M373.651,256.636c-2.033,0.452-4.12,0.645-6.21,0.588c-2.086-0.074-4.197-0.45-6.123-1.378
								c-0.136-0.066-0.193-0.229-0.128-0.365c0.065-0.136,0.229-0.193,0.365-0.128c0.003,0.001,0.005,0.003,0.008,0.004
								l0.006,0.003c1.794,0.947,3.837,1.398,5.888,1.545c2.055,0.132,4.139,0.017,6.173-0.358c0.024-0.006,0.048,0.009,0.054,0.033
								C373.69,256.605,373.674,256.629,373.651,256.636z"/>
						</g>
						<g>
							<path style="fill:#B7CA79;" d="M370.453,255.021l-1.715,2.124l-0.005,0.006c-0.056,0.069-0.158,0.08-0.227,0.024
								c-0.069-0.056-0.08-0.157-0.024-0.227c0.003-0.004,0.006-0.007,0.009-0.01l1.895-1.978c0.017-0.018,0.045-0.019,0.063-0.001
								C370.466,254.976,370.467,255.003,370.453,255.021z"/>
						</g>
						<g>
							<path style="fill:#B7CA79;" d="M366.446,259.892c-0.563-1.047-1.126-2.09-1.593-3.194c-0.023-0.055,0.003-0.118,0.057-0.142
								c0.055-0.023,0.118,0.003,0.142,0.057c0,0.001,0.002,0.006,0.003,0.007c0.419,1.098,0.948,2.167,1.471,3.229
								c0.012,0.022,0.003,0.049-0.019,0.06C366.484,259.922,366.458,259.913,366.446,259.892z"/>
						</g>
					</g>
					<g>
						<g>
							<path style="fill:#677E52;" d="M359.287,274.736c0,0-3.528,1.697-7.339,4.003c-4.712,2.851-3.889,9.264-3.889,9.264
								s6.378,0.115,8.783-2.205C361.228,281.568,359.287,274.736,359.287,274.736z"/>
						</g>
						<g>
							<path style="fill:#B7CA79;" d="M359.015,274.92c-1.079,2.628-2.491,5.114-4.184,7.409c-0.854,1.142-1.808,2.213-2.842,3.209
								c-1.049,0.982-2.216,1.842-3.474,2.57c-0.178,0.103-0.406,0.042-0.51-0.136c-0.103-0.178-0.042-0.406,0.136-0.509
								c0.003-0.002,0.007-0.004,0.01-0.006l0.016-0.009c1.218-0.648,2.371-1.43,3.425-2.347c1.04-0.931,2.013-1.944,2.896-3.038
								c1.75-2.197,3.247-4.619,4.413-7.188c0.012-0.031,0.048-0.047,0.079-0.034C359.012,274.852,359.026,274.889,359.015,274.92z"
								/>
						</g>
						<g>
							<path style="fill:#B7CA79;" d="M354.714,277.24l1.041,3.576l0.003,0.01c0.034,0.117-0.033,0.239-0.15,0.273
								c-0.116,0.034-0.238-0.033-0.272-0.15c-0.002-0.006-0.003-0.012-0.004-0.018l-0.736-3.663
								c-0.007-0.033,0.015-0.065,0.048-0.072C354.674,277.19,354.705,277.21,354.714,277.24z"/>
						</g>
						<g>
							<path style="fill:#B7CA79;" d="M357.042,285.523c-1.611-0.186-3.217-0.368-4.817-0.707c-0.08-0.017-0.131-0.095-0.114-0.175
								c0.017-0.08,0.095-0.131,0.174-0.114c0.002,0,0.003,0.001,0.005,0.001l0.006,0.001c1.556,0.387,3.164,0.63,4.761,0.871
								c0.033,0.005,0.057,0.035,0.053,0.069C357.105,285.503,357.074,285.526,357.042,285.523z"/>
						</g>
					</g>
					<g>
						<g>
							<path style="fill:#677E52;" d="M318.88,276.419c0,0-1.257,1.953-2.467,4.302c-1.497,2.904,0.91,5.891,0.91,5.891
								s3.26-1.922,3.756-3.842C321.983,279.27,318.88,276.419,318.88,276.419z"/>
						</g>
						<g>
							<path style="fill:#B7CA79;" d="M318.8,276.596c0.271,1.663,0.329,3.359,0.185,5.045c-0.157,1.681-0.56,3.369-1.399,4.882
								c-0.059,0.107-0.194,0.145-0.301,0.086c-0.107-0.059-0.145-0.194-0.086-0.301c0.001-0.002,0.005-0.009,0.007-0.011
								c0.849-1.405,1.309-3.035,1.524-4.685c0.203-1.654,0.207-3.343-0.001-5.004c-0.004-0.02,0.009-0.039,0.029-0.042
								C318.777,276.563,318.796,276.577,318.8,276.596z"/>
						</g>
						<g>
							<path style="fill:#B7CA79;" d="M317.346,279.105l1.636,1.484l0.005,0.004c0.053,0.048,0.057,0.131,0.009,0.184
								c-0.048,0.053-0.131,0.057-0.184,0.009c-0.003-0.003-0.005-0.005-0.008-0.008l-1.509-1.623
								c-0.014-0.015-0.013-0.038,0.002-0.051C317.31,279.092,317.332,279.092,317.346,279.105z"/>
						</g>
						<g>
							<path style="fill:#B7CA79;" d="M321.094,282.569l-2.655,1.138c-0.044,0.019-0.095-0.001-0.115-0.046
								c-0.019-0.044,0.001-0.095,0.046-0.115c0.001,0,0.002-0.001,0.003-0.001l0.013-0.005l2.677-1.038
								c0.018-0.009,0.04-0.001,0.049,0.017C321.121,282.538,321.111,282.56,321.094,282.569z"/>
						</g>
					</g>
					<g>
						<g>
							<path style="fill:#677E52;" d="M308.845,285.898c0,0,2.258,0.545,4.755,1.409c3.088,1.068,3.409,4.89,3.409,4.89
								s-3.685,0.861-5.369-0.185C308.569,290.103,308.845,285.898,308.845,285.898z"/>
						</g>
						<g>
							<path style="fill:#B7CA79;" d="M309.086,285.93c0.996,1.345,2.166,2.564,3.455,3.62c1.295,1.045,2.753,1.906,4.337,2.337
								c0.118,0.029,0.191,0.15,0.161,0.268c-0.03,0.118-0.15,0.191-0.268,0.161c-0.002-0.001-0.01-0.003-0.012-0.004
								c-1.652-0.515-3.108-1.458-4.383-2.565c-1.268-1.12-2.397-2.387-3.35-3.777c-0.011-0.016-0.007-0.039,0.009-0.05
								C309.051,285.909,309.074,285.915,309.086,285.93z"/>
						</g>
						<g>
							<path style="fill:#B7CA79;" d="M311.882,286.783l0.029,2.216c0.001,0.072-0.057,0.131-0.129,0.132
								c-0.072,0.001-0.131-0.057-0.132-0.129c0-0.004,0-0.007,0-0.011l0-0.007l0.158-2.203c0.001-0.02,0.018-0.035,0.038-0.034
								C311.866,286.748,311.881,286.764,311.882,286.783z"/>
						</g>
						<g>
							<path style="fill:#B7CA79;" d="M311.467,291.807l2.653-1.098l0.013-0.005c0.044-0.018,0.095,0.003,0.114,0.047
								c0.018,0.045-0.003,0.096-0.047,0.114c-0.001,0-0.002,0.001-0.003,0.001l-2.706,1.01c-0.018,0.007-0.039-0.003-0.047-0.021
								C311.437,291.836,311.449,291.815,311.467,291.807z"/>
						</g>
					</g>
					<g>
						<g>
							<path style="fill:#677E52;" d="M329.943,238.428c0,0-1.257,1.953-2.467,4.302c-1.497,2.905,0.91,5.891,0.91,5.891
								s3.26-1.922,3.756-3.842C333.046,241.279,329.943,238.428,329.943,238.428z"/>
						</g>
						<g>
							<path style="fill:#B7CA79;" d="M329.863,238.605c0.271,1.663,0.329,3.359,0.185,5.045c-0.158,1.682-0.56,3.369-1.399,4.882
								c-0.059,0.107-0.194,0.145-0.301,0.086c-0.107-0.059-0.145-0.194-0.086-0.301c0.001-0.002,0.005-0.009,0.007-0.011
								c0.849-1.405,1.309-3.035,1.524-4.685c0.203-1.654,0.207-3.343-0.001-5.004c-0.004-0.02,0.009-0.039,0.029-0.042
								C329.84,238.572,329.859,238.586,329.863,238.605z"/>
						</g>
						<g>
							<path style="fill:#B7CA79;" d="M328.409,241.113l1.636,1.484l0.005,0.004c0.053,0.048,0.057,0.131,0.009,0.184
								c-0.049,0.053-0.131,0.057-0.184,0.009c-0.003-0.002-0.005-0.005-0.008-0.008l-1.509-1.623
								c-0.014-0.015-0.013-0.038,0.002-0.051C328.373,241.1,328.395,241.101,328.409,241.113z"/>
						</g>
						<g>
							<path style="fill:#B7CA79;" d="M332.157,244.578l-2.655,1.138c-0.044,0.019-0.095-0.001-0.115-0.046
								c-0.019-0.044,0.001-0.095,0.046-0.114c0.001,0,0.002-0.001,0.003-0.001l0.013-0.005l2.677-1.038
								c0.018-0.009,0.04-0.001,0.049,0.017C332.184,244.547,332.175,244.569,332.157,244.578z"/>
						</g>
					</g>
					<g>
						<g>
							<path style="fill:#677E52;" d="M345.644,230.011c0,0,1.257,1.953,2.467,4.302c1.497,2.904-0.91,5.891-0.91,5.891
								s-3.26-1.922-3.756-3.842C342.542,232.862,345.644,230.011,345.644,230.011z"/>
						</g>
						<g>
							<path style="fill:#B7CA79;" d="M345.796,230.2c-0.208,1.661-0.203,3.35-0.001,5.004c0.215,1.65,0.675,3.28,1.524,4.685
								c0.065,0.103,0.035,0.24-0.068,0.305c-0.103,0.065-0.24,0.035-0.305-0.068c-0.001-0.002-0.005-0.009-0.007-0.011
								c-0.839-1.513-1.242-3.201-1.399-4.882c-0.144-1.686-0.086-3.381,0.185-5.045c0.003-0.02,0.022-0.033,0.041-0.03
								C345.786,230.161,345.799,230.181,345.796,230.2z"/>
						</g>
						<g>
							<path style="fill:#B7CA79;" d="M347.23,232.748l-1.509,1.623c-0.049,0.053-0.132,0.056-0.184,0.007
								c-0.053-0.049-0.056-0.132-0.007-0.184c0.002-0.003,0.005-0.005,0.008-0.008l0.005-0.005l1.636-1.484
								c0.015-0.014,0.038-0.013,0.051,0.001C347.243,232.712,347.243,232.734,347.23,232.748z"/>
						</g>
						<g>
							<path style="fill:#B7CA79;" d="M343.461,236.095l2.677,1.038l0.013,0.005c0.045,0.017,0.067,0.068,0.05,0.113
								c-0.017,0.045-0.068,0.067-0.113,0.05c-0.001,0-0.002-0.001-0.003-0.001l-2.655-1.138c-0.018-0.008-0.027-0.029-0.019-0.048
								C343.419,236.096,343.443,236.088,343.461,236.095z"/>
						</g>
					</g>
					<g>
						<g>
							<path style="fill:#677E52;" d="M328.193,287.116c0,0-2.178,1.458-4.486,3.346c-2.854,2.335-1.704,6.508-1.704,6.508
								s4.239-0.526,5.614-2.29C330.125,291.462,328.193,287.116,328.193,287.116z"/>
						</g>
						<g>
							<path style="fill:#B7CA79;" d="M328.031,287.264c-0.467,1.844-1.168,3.625-2.074,5.306c-0.918,1.67-2.093,3.237-3.641,4.426
								c-0.109,0.084-0.266,0.063-0.35-0.046c-0.084-0.109-0.064-0.266,0.046-0.35c0.002-0.002,0.004-0.003,0.007-0.005l0.005-0.004
								c1.51-1.073,2.718-2.554,3.682-4.166c0.953-1.621,1.716-3.368,2.247-5.181c0.005-0.022,0.027-0.036,0.05-0.03
								C328.022,287.219,328.035,287.242,328.031,287.264z"/>
						</g>
						<g>
							<path style="fill:#B7CA79;" d="M325.398,289.208l1.027,2.272l0.003,0.007c0.034,0.074,0.001,0.161-0.073,0.195
								c-0.074,0.034-0.161,0.001-0.195-0.073c-0.002-0.004-0.003-0.008-0.005-0.012l-0.833-2.358
								c-0.008-0.021,0.004-0.045,0.025-0.052C325.367,289.178,325.39,289.189,325.398,289.208z"/>
						</g>
						<g>
							<path style="fill:#B7CA79;" d="M327.723,294.478c-1.085,0.029-2.167,0.059-3.26-0.014c-0.054-0.004-0.095-0.051-0.092-0.105
								c0.004-0.054,0.051-0.095,0.105-0.092c0.001,0,0.006,0.001,0.007,0.001c1.068,0.11,2.157,0.119,3.238,0.128
								c0.022,0,0.041,0.018,0.041,0.041C327.763,294.459,327.745,294.477,327.723,294.478z"/>
						</g>
					</g>
					<g>
						<g>
							<path style="fill:#677E52;" d="M374.242,324.868c0,0-2.37-1.119-5.176-2.129c-3.469-1.248-6.458,1.883-6.458,1.883
								s2.629,3.366,4.85,3.639C371.507,328.758,374.242,324.868,374.242,324.868z"/>
						</g>
						<g>
							<path style="fill:#B7CA79;" d="M374.032,324.804c-1.822,0.547-3.71,0.861-5.617,0.947c-1.904,0.07-3.852-0.132-5.668-0.849
								c-0.128-0.051-0.191-0.196-0.14-0.324c0.051-0.128,0.196-0.191,0.324-0.141c0.002,0.001,0.005,0.002,0.008,0.003l0.006,0.003
								c1.697,0.744,3.588,1.019,5.466,1.017c1.88-0.016,3.771-0.258,5.599-0.735c0.022-0.007,0.045,0.005,0.052,0.027
								C374.065,324.774,374.052,324.797,374.032,324.804z"/>
						</g>
						<g>
							<path style="fill:#B7CA79;" d="M371.011,323.546l-1.421,2.048l-0.004,0.006c-0.046,0.067-0.138,0.083-0.205,0.037
								c-0.067-0.046-0.083-0.138-0.037-0.205c0.003-0.003,0.005-0.007,0.008-0.01l1.595-1.927c0.014-0.017,0.04-0.02,0.058-0.005
								C371.021,323.504,371.023,323.528,371.011,323.546z"/>
						</g>
						<g>
							<path style="fill:#B7CA79;" d="M367.685,328.248c-0.582-0.916-1.164-1.828-1.663-2.803c-0.025-0.048-0.006-0.108,0.043-0.133
								c0.049-0.025,0.108-0.005,0.133,0.043c0,0.001,0.003,0.005,0.003,0.006c0.454,0.973,1.007,1.911,1.554,2.844
								c0.012,0.019,0.006,0.045-0.014,0.056C367.722,328.272,367.697,328.266,367.685,328.248z"/>
						</g>
					</g>
					<g>
						<g>
							<path style="fill:#677E52;" d="M378.554,245.826c0,0-1.721-0.591-3.736-1.074c-2.49-0.596-4.314,1.794-4.314,1.794
								s2.073,2.122,3.626,2.14C376.964,248.72,378.554,245.826,378.554,245.826z"/>
						</g>
						<g>
							<path style="fill:#B7CA79;" d="M378.404,245.798c-1.216,0.517-2.495,0.878-3.805,1.084c-1.309,0.194-2.669,0.204-3.977-0.152
								c-0.092-0.025-0.147-0.12-0.122-0.213c0.025-0.092,0.12-0.147,0.213-0.122c0.002,0,0.008,0.002,0.01,0.003
								c1.228,0.383,2.554,0.429,3.851,0.284c1.297-0.155,2.583-0.467,3.809-0.936c0.014-0.006,0.031,0,0.038,0.014
								C378.425,245.774,378.418,245.791,378.404,245.798z"/>
						</g>
						<g>
							<path style="fill:#B7CA79;" d="M376.223,245.16l-0.824,1.523l-0.003,0.004c-0.027,0.05-0.089,0.068-0.139,0.041
								c-0.049-0.027-0.068-0.089-0.041-0.139c0.001-0.003,0.003-0.005,0.005-0.007l0.953-1.452
								c0.009-0.013,0.026-0.017,0.039-0.008C376.226,245.13,376.23,245.147,376.223,245.16z"/>
						</g>
						<g>
							<path style="fill:#B7CA79;" d="M374.286,248.66l-1.363-1.808c-0.023-0.03-0.017-0.073,0.013-0.096
								c0.03-0.023,0.073-0.017,0.096,0.013c0.001,0.001,0.001,0.001,0.001,0.002l0.007,0.009l1.29,1.844
								c0.01,0.012,0.008,0.03-0.004,0.04C374.315,248.675,374.297,248.672,374.286,248.66z"/>
						</g>
					</g>
					<g>
						<g>
							<path style="fill:#677E52;" d="M355.912,296.52c0,0,2.862,2.67,5.813,6.007c3.649,4.125,0.954,10.002,0.954,10.002
								s-6.123-1.79-7.728-4.72C352.024,302.464,355.912,296.52,355.912,296.52z"/>
						</g>
						<g>
							<path style="fill:#B7CA79;" d="M356.238,296.766c0.348,2.8,1.056,5.558,2.073,8.176c0.517,1.307,1.144,2.565,1.86,3.762
								c0.733,1.189,1.601,2.28,2.571,3.261l0.012,0.012c0.145,0.146,0.143,0.382-0.003,0.527c-0.146,0.145-0.383,0.143-0.527-0.003
								c-0.003-0.003-0.007-0.007-0.009-0.01c-0.984-1.069-1.842-2.237-2.551-3.488c-0.691-1.259-1.282-2.564-1.758-3.909
								c-0.934-2.695-1.541-5.489-1.788-8.319c-0.003-0.034,0.022-0.063,0.055-0.066
								C356.205,296.707,356.234,296.734,356.238,296.766z"/>
						</g>
						<g>
							<path style="fill:#B7CA79;" d="M359.637,300.334l-1.793,3.277c-0.058,0.107-0.192,0.146-0.299,0.087
								c-0.106-0.058-0.146-0.192-0.087-0.298c0.003-0.005,0.006-0.011,0.009-0.016l0.006-0.009l2.058-3.103
								c0.018-0.029,0.056-0.037,0.084-0.019C359.643,300.27,359.651,300.306,359.637,300.334z"/>
						</g>
						<g>
							<path style="fill:#B7CA79;" d="M354.865,307.366c1.596,0.245,3.204,0.492,4.804,0.586l0.005,0
								c0.081,0.005,0.143,0.074,0.139,0.156c-0.005,0.081-0.074,0.143-0.156,0.138c-0.001,0-0.004,0-0.005,0
								c-1.628-0.154-3.216-0.458-4.809-0.76c-0.033-0.006-0.055-0.038-0.049-0.072
								C354.801,307.382,354.833,307.361,354.865,307.366z"/>
						</g>
					</g>
					<g>
						<g>
							<path style="fill:#677E52;" d="M305.94,301.41c0,0,3.883-0.494,8.336-0.631c5.505-0.169,8.301,5.66,8.301,5.66
								s-5.29,3.565-8.57,2.926C308.027,308.199,305.94,301.41,305.94,301.41z"/>
						</g>
						<g>
							<path style="fill:#B7CA79;" d="M306.339,301.316c2.376,1.522,4.949,2.741,7.612,3.633c1.336,0.438,2.704,0.759,4.082,0.975
								c1.383,0.196,2.777,0.226,4.151,0.107l0.017-0.001c0.205-0.018,0.386,0.134,0.404,0.339c0.018,0.205-0.134,0.386-0.339,0.403
								c-0.004,0-0.01,0.001-0.014,0.001c-1.451,0.073-2.898-0.013-4.313-0.267c-1.409-0.273-2.792-0.653-4.13-1.147
								c-2.669-1.005-5.206-2.324-7.54-3.942c-0.028-0.019-0.035-0.057-0.015-0.085
								C306.272,301.304,306.311,301.299,306.339,301.316z"/>
						</g>
						<g>
							<path style="fill:#B7CA79;" d="M311.255,300.983l1.374,3.474c0.045,0.113-0.011,0.241-0.124,0.285
								c-0.113,0.045-0.241-0.011-0.285-0.124c-0.002-0.006-0.004-0.011-0.006-0.017l-0.003-0.011l-1.071-3.566
								c-0.01-0.032,0.008-0.067,0.04-0.077C311.21,300.938,311.243,300.955,311.255,300.983z"/>
						</g>
						<g>
							<path style="fill:#B7CA79;" d="M313.612,309.148c1.208-1.071,2.427-2.149,3.522-3.32l0.004-0.004
								c0.056-0.059,0.149-0.063,0.208-0.007c0.059,0.056,0.063,0.149,0.007,0.208c-0.001,0.001-0.003,0.003-0.004,0.004
								c-1.159,1.154-2.408,2.181-3.659,3.213c-0.026,0.021-0.064,0.018-0.086-0.008
								C313.584,309.208,313.587,309.169,313.612,309.148z"/>
						</g>
					</g>
					<g>
						<g>
							<path style="fill:#677E52;" d="M371.586,284.196c0,0,2.06,1.922,4.183,4.322c2.626,2.968,0.686,7.197,0.686,7.197
								s-4.406-1.288-5.561-3.396C368.789,288.473,371.586,284.196,371.586,284.196z"/>
						</g>
						<g>
							<path style="fill:#B7CA79;" d="M371.821,284.373c0.25,2.015,0.76,3.999,1.491,5.883c0.745,1.876,1.771,3.655,3.188,5.053
								l0.004,0.004c0.105,0.104,0.107,0.274,0.002,0.379c-0.104,0.105-0.274,0.107-0.379,0.002
								c-0.002-0.002-0.005-0.005-0.007-0.007c-1.438-1.529-2.414-3.393-3.101-5.323c-0.672-1.939-1.109-3.95-1.287-5.986
								c-0.002-0.024,0.016-0.046,0.04-0.048C371.797,284.331,371.818,284.35,371.821,284.373z"/>
						</g>
						<g>
							<path style="fill:#B7CA79;" d="M374.266,286.94l-1.29,2.358c-0.042,0.077-0.138,0.105-0.215,0.063
								c-0.077-0.042-0.105-0.138-0.063-0.215c0.002-0.004,0.004-0.008,0.007-0.011l0.004-0.007l1.481-2.233
								c0.013-0.02,0.04-0.027,0.061-0.013C374.271,286.895,374.277,286.92,374.266,286.94z"/>
						</g>
						<g>
							<path style="fill:#B7CA79;" d="M370.833,292c1.148,0.176,2.306,0.354,3.457,0.422c0.059,0.001,0.105,0.05,0.104,0.108
								c-0.001,0.059-0.05,0.105-0.108,0.104c-0.001,0-0.007,0-0.007,0c-1.172-0.111-2.314-0.329-3.461-0.547
								c-0.024-0.005-0.039-0.028-0.035-0.051C370.787,292.012,370.81,291.996,370.833,292z"/>
						</g>
					</g>
					<g>
						<g>
							<path style="fill:#677E52;" d="M336.786,255.71c0,0,2.06,1.921,4.183,4.322c2.626,2.968,0.686,7.197,0.686,7.197
								s-4.406-1.288-5.561-3.396C333.989,259.987,336.786,255.71,336.786,255.71z"/>
						</g>
						<g>
							<path style="fill:#B7CA79;" d="M337.022,255.887c0.25,2.015,0.76,3.999,1.491,5.883c0.745,1.876,1.771,3.655,3.188,5.053
								l0.004,0.004c0.105,0.104,0.106,0.274,0.002,0.379c-0.104,0.105-0.274,0.107-0.379,0.003
								c-0.002-0.002-0.005-0.005-0.007-0.007c-1.438-1.529-2.414-3.393-3.101-5.323c-0.672-1.939-1.109-3.95-1.287-5.986
								c-0.002-0.024,0.016-0.046,0.04-0.048C336.997,255.844,337.019,255.864,337.022,255.887z"/>
						</g>
						<g>
							<path style="fill:#B7CA79;" d="M339.467,258.454l-1.29,2.358c-0.042,0.077-0.138,0.105-0.215,0.063
								c-0.077-0.042-0.105-0.138-0.063-0.215c0.002-0.004,0.004-0.008,0.007-0.011l0.005-0.007l1.481-2.233
								c0.013-0.02,0.04-0.027,0.061-0.013C339.471,258.408,339.477,258.434,339.467,258.454z"/>
						</g>
						<g>
							<path style="fill:#B7CA79;" d="M336.033,263.514c1.148,0.176,2.305,0.354,3.457,0.422c0.059,0.001,0.105,0.05,0.103,0.108
								c-0.001,0.059-0.05,0.105-0.108,0.104c-0.001,0-0.007,0-0.008,0c-1.172-0.111-2.314-0.329-3.46-0.547
								c-0.024-0.005-0.04-0.028-0.035-0.052C335.987,263.526,336.01,263.51,336.033,263.514z"/>
						</g>
					</g>
					<g>
						<g>
							<path style="fill:#677E52;" d="M354.024,242.66c0,0,2.06,1.921,4.183,4.322c2.625,2.968,0.686,7.197,0.686,7.197
								s-4.406-1.288-5.561-3.396C351.227,246.937,354.024,242.66,354.024,242.66z"/>
						</g>
						<g>
							<path style="fill:#B7CA79;" d="M354.259,242.837c0.25,2.015,0.76,3.999,1.491,5.883c0.744,1.876,1.771,3.655,3.188,5.054
								l0.004,0.004c0.105,0.104,0.106,0.274,0.002,0.379c-0.104,0.105-0.274,0.107-0.379,0.002
								c-0.002-0.002-0.005-0.005-0.007-0.007c-1.438-1.529-2.414-3.393-3.101-5.323c-0.672-1.939-1.109-3.95-1.287-5.986
								c-0.002-0.024,0.016-0.046,0.04-0.048C354.235,242.794,354.256,242.814,354.259,242.837z"/>
						</g>
						<g>
							<path style="fill:#B7CA79;" d="M356.704,245.404l-1.29,2.358c-0.042,0.077-0.138,0.105-0.215,0.063
								c-0.077-0.042-0.105-0.138-0.063-0.215c0.002-0.004,0.004-0.008,0.007-0.011l0.004-0.007l1.481-2.233
								c0.013-0.021,0.04-0.027,0.061-0.014C356.709,245.358,356.715,245.384,356.704,245.404z"/>
						</g>
						<g>
							<path style="fill:#B7CA79;" d="M353.271,250.464c1.148,0.176,2.305,0.354,3.457,0.422c0.059,0.001,0.105,0.05,0.104,0.109
								c-0.001,0.059-0.05,0.105-0.109,0.104c-0.001,0-0.006-0.001-0.007-0.001c-1.172-0.11-2.314-0.329-3.461-0.547
								c-0.024-0.005-0.039-0.027-0.035-0.051C353.224,250.475,353.247,250.46,353.271,250.464z"/>
						</g>
					</g>
					<g>
						<g>
							<path style="fill:#677E52;" d="M314.842,265.854c0,0,3.575-1.066,7.741-1.885c5.151-1.012,8.684,4.037,8.684,4.037
								s-4.423,4.172-7.606,4.079C317.855,271.916,314.842,265.854,314.842,265.854z"/>
						</g>
						<g>
							<path style="fill:#B7CA79;" d="M315.202,265.705c2.47,1.064,5.079,1.811,7.722,2.237c1.324,0.205,2.66,0.295,3.99,0.284
								c1.331-0.03,2.646-0.218,3.92-0.542l0.015-0.004c0.19-0.048,0.383,0.066,0.432,0.257c0.048,0.19-0.067,0.383-0.257,0.432
								c-0.004,0.001-0.009,0.002-0.012,0.003c-1.354,0.294-2.728,0.436-4.097,0.417c-1.368-0.039-2.726-0.182-4.062-0.439
								c-2.666-0.531-5.256-1.379-7.702-2.54c-0.029-0.014-0.042-0.048-0.027-0.078
								C315.137,265.704,315.173,265.693,315.202,265.705z"/>
						</g>
						<g>
							<path style="fill:#B7CA79;" d="M319.774,264.63l1.83,3.054c0.06,0.099,0.027,0.228-0.072,0.288
								c-0.099,0.059-0.228,0.027-0.287-0.072c-0.003-0.005-0.006-0.01-0.008-0.015l-0.005-0.01l-1.56-3.188
								c-0.015-0.029-0.003-0.064,0.025-0.079C319.724,264.594,319.758,264.605,319.774,264.63z"/>
						</g>
						<g>
							<path style="fill:#B7CA79;" d="M323.255,271.943c0.971-1.194,1.949-2.397,2.798-3.668l0.003-0.004
								c0.043-0.065,0.13-0.082,0.195-0.039c0.064,0.043,0.082,0.13,0.039,0.195c-0.001,0.001-0.002,0.003-0.003,0.004
								c-0.911,1.265-1.926,2.424-2.943,3.588c-0.021,0.024-0.058,0.027-0.082,0.006
								C323.238,272.004,323.235,271.967,323.255,271.943z"/>
						</g>
					</g>
					<g>
						<path style="fill:#77614D;" d="M347.461,383.353c-1.752-12.621-3.453-25.236-5.083-37.871
							c-0.814-6.317-1.609-12.637-2.359-18.967c-0.735-6.34-1.492-12.646-1.947-19.088c-0.046-0.812-0.086-1.633-0.089-2.494
							c0.023-0.887,0.097-1.711,0.181-2.52c0.167-1.62,0.393-3.201,0.612-4.79c0.457-3.167,0.964-6.316,1.489-9.461
							c1.059-6.288,2.192-12.556,3.385-18.814c1.193-6.257,2.44-12.503,3.785-18.729c0.675-3.112,1.372-6.22,2.128-9.314
							c0.374-1.548,0.777-3.089,1.201-4.624c0.453-1.524,0.864-3.077,1.574-4.505c-0.647,1.455-0.991,3.017-1.378,4.556
							c-0.357,1.549-0.694,3.102-1.002,4.662c-0.624,3.118-1.188,6.247-1.73,9.38c-1.079,6.268-2.059,12.552-2.985,18.843
							c-0.926,6.291-1.792,12.591-2.581,18.895c-0.39,3.152-0.762,6.305-1.081,9.454c-0.15,1.571-0.307,3.149-0.4,4.7
							c-0.049,0.776-0.08,1.54-0.071,2.245c0.028,0.73,0.089,1.496,0.159,2.271c0.647,6.237,1.612,12.547,2.55,18.821
							c0.955,6.281,1.956,12.56,2.976,18.837c2.042,12.551,4.157,25.1,6.319,37.629L347.461,383.353z"/>
					</g>
					<g>
						<path style="fill:#77614D;" d="M340.711,286.539c-1.28-3.757-2.655-7.511-4.07-11.237c-1.423-3.726-2.89-7.437-4.444-11.112
							c-3.115-7.343-6.448-14.615-10.562-21.475c4.438,6.658,8.132,13.794,11.606,21.006c1.734,3.611,3.382,7.262,4.989,10.933
							c1.601,3.676,3.154,7.361,4.633,11.106L340.711,286.539z"/>
					</g>
					<g>
						<path style="fill:#77614D;" d="M344.919,263.358c2.412-0.86,4.869-2.088,7.17-3.434c2.313-1.361,4.556-2.871,6.654-4.571
							c2.099-1.695,4.125-3.505,5.959-5.505c1.887-1.956,3.546-4.117,5.15-6.323c-1.444,2.31-2.958,4.598-4.72,6.7
							c-1.709,2.146-3.63,4.122-5.646,5.997c-2.015,1.88-4.198,3.584-6.48,5.152c-2.304,1.565-4.649,2.972-7.303,4.134
							L344.919,263.358z"/>
					</g>
					<g>
						<path style="fill:#77614D;" d="M342.737,337.682c7.461-8.467,14.85-17.039,22.096-25.711
							c3.626-4.336,7.219-8.701,10.739-13.123c3.517-4.425,7.002-8.879,10.272-13.498c-2.945,4.835-6.121,9.529-9.331,14.196
							c-3.214,4.666-6.505,9.278-9.831,13.865c-6.652,9.178-13.434,18.244-20.333,27.258L342.737,337.682z"/>
					</g>
					<g>
						<path style="fill:#77614D;" d="M340.644,324.116c-3.396-3.504-6.543-7.112-9.593-10.851c-3.039-3.734-5.92-7.599-8.578-11.613
							c-2.65-4.017-5.069-8.202-7.01-12.611c-1.871-4.409-3.377-9.114-3.279-13.926c0.182,4.805,1.939,9.34,4.028,13.574
							c2.162,4.229,4.779,8.207,7.616,12.011c2.845,3.801,5.901,7.441,9.104,10.944c3.199,3.492,6.548,6.907,9.996,10.075
							L340.644,324.116z"/>
					</g>
					<g>
						<g>
							<path style="fill:#677E52;" d="M321.88,314.352c0,0,2.762-0.967,5.996-1.761c3.999-0.982,6.952,2.844,6.952,2.844
								s-3.313,3.431-5.81,3.475C324.464,318.991,321.88,314.352,321.88,314.352z"/>
						</g>
						<g>
							<path style="fill:#B7CA79;" d="M322.157,314.222c1.974,0.743,4.046,1.233,6.132,1.47c2.086,0.221,4.217,0.136,6.189-0.492
								l0.006-0.002c0.147-0.047,0.303,0.034,0.35,0.181c0.047,0.147-0.034,0.303-0.181,0.35c-0.003,0.001-0.007,0.002-0.01,0.003
								c-2.101,0.584-4.287,0.582-6.394,0.282c-2.108-0.319-4.169-0.887-6.128-1.707c-0.023-0.01-0.034-0.036-0.025-0.06
								C322.106,314.223,322.134,314.213,322.157,314.222z"/>
						</g>
						<g>
							<path style="fill:#B7CA79;" d="M325.699,313.212l1.546,2.326c0.05,0.076,0.03,0.178-0.046,0.228
								c-0.076,0.05-0.177,0.03-0.228-0.046c-0.003-0.004-0.005-0.008-0.007-0.012l-0.004-0.007l-1.339-2.441
								c-0.013-0.022-0.005-0.05,0.017-0.063C325.659,313.186,325.686,313.193,325.699,313.212z"/>
						</g>
						<g>
							<path style="fill:#B7CA79;" d="M328.695,318.814c0.717-0.971,1.439-1.95,2.058-2.977c0.03-0.053,0.097-0.073,0.15-0.043
								c0.053,0.029,0.073,0.097,0.043,0.15c0,0.001-0.003,0.006-0.004,0.007c-0.668,1.025-1.421,1.97-2.174,2.919
								c-0.016,0.02-0.044,0.023-0.064,0.007C328.684,318.862,328.681,318.834,328.695,318.814z"/>
						</g>
					</g>
				</g>
				<g>
					<path style="fill:#77614D;" d="M362.374,374.86l-24.174,2.823c0,0,1.899,26.134,13.004,26.135
						C367.72,403.819,362.374,374.86,362.374,374.86z"/>
				</g>
			</g>
			<g>
				<g>
					<path style="fill:#FFAC70;" d="M339.372,304.422L339.372,304.422c0.734,0.424,1.673,0.172,2.096-0.562l2.881-4.99l-2.658-1.535
						l-2.881,4.99C338.387,303.059,338.638,303.998,339.372,304.422z"/>
				</g>
				<g>
					<path style="fill:#FFAC70;" d="M340.234,307.639L340.234,307.639c0.651,0.543,1.618,0.456,2.161-0.195l3.691-4.424
						l-2.357-1.966l-3.691,4.424C339.496,306.128,339.583,307.096,340.234,307.639z"/>
				</g>
				<g>
					<path style="fill:#FFAC70;" d="M341.485,310.658L341.485,310.658c0.651,0.543,1.618,0.455,2.161-0.195l3.691-4.424
						l-2.357-1.966l-3.691,4.424C340.747,309.147,340.834,310.115,341.485,310.658z"/>
				</g>
				<g>
					<path style="fill:#FFAC70;" d="M342.983,312.995L342.983,312.995c0.549,0.549,1.439,0.549,1.988,0l3.325-3.452l-1.988-1.988
						l-3.325,3.452C342.433,311.555,342.433,312.446,342.983,312.995z"/>
				</g>
				<g>
					<path style="fill:#634F3F;" d="M340.874,304.545c-0.066,0-0.133-0.025-0.183-0.076c-0.1-0.102-0.099-0.264,0.002-0.363
						l3.282-3.235c0.103-0.101,0.265-0.099,0.363,0.002c0.1,0.102,0.099,0.264-0.002,0.363l-3.282,3.235
						C341.004,304.521,340.939,304.545,340.874,304.545z"/>
				</g>
				<g>
					<path style="fill:#634F3F;" d="M341.594,308.356c-0.067,0-0.136-0.026-0.186-0.079c-0.098-0.104-0.094-0.266,0.009-0.364
						l3.752-3.575c0.103-0.097,0.266-0.094,0.364,0.009c0.098,0.103,0.094,0.266-0.009,0.364l-3.752,3.575
						C341.722,308.332,341.658,308.356,341.594,308.356z"/>
				</g>
				<g>
					<path style="fill:#634F3F;" d="M343.578,313.347c-0.317,0-0.65-0.059-0.952-0.227c-0.236-0.132-0.391-0.351-0.447-0.632
						c-0.117-0.59,0.219-1.355,0.482-1.688c0.811-1.02,3.366-3.339,3.475-3.438c0.106-0.097,0.268-0.087,0.363,0.018
						c0.096,0.105,0.087,0.268-0.018,0.363c-0.026,0.023-2.633,2.39-3.418,3.377c-0.206,0.259-0.457,0.882-0.38,1.267
						c0.026,0.135,0.088,0.225,0.192,0.283c0.737,0.411,1.827-0.082,1.838-0.088c0.131-0.057,0.282-0.003,0.341,0.126
						c0.06,0.129,0.003,0.281-0.126,0.341C344.891,313.068,344.273,313.347,343.578,313.347z"/>
				</g>
			</g>
			<g>
				<g>
					<path style="fill:#7B8E66;" d="M218.362,344.502c0,0,13.96,17.92,26.66,20.89c8.94,2.08,27.97-3.35,31.03-4.44
						c3.06-1.1,9.32-19.03,10.41-25.37c1.09-6.34,12.09-13.21,14.5-20.52c1.25-3.83,2.18-20.98,2.18-20.98s-7.36-5.6-13.44-8.79
						c-1.65-0.87-3.2-1.56-4.48-1.91c-4.31-1.18-11.58-2.75-18.16-3.74c-5.82-0.88-11.1-1.32-13.3-0.64
						c-14.21,4.38-17.92,36.5-22.07,44.36C227.542,331.232,218.362,344.502,218.362,344.502z"/>
				</g>
				<g>
					<path style="fill:#FFAC70;" d="M267.062,279.642c2.71,4.35,8.84,13.22,14.29,14.23c3.82,0.72,7.02-5.5,8.35-8.58
						c-1.65-0.87-3.2-1.56-4.48-1.91C280.912,282.202,273.642,280.632,267.062,279.642z"/>
				</g>
				<g>
					<path style="fill:#556842;" d="M298.084,322.259c-0.001,0-0.002,0-0.003,0c-0.142-0.002-0.256-0.118-0.254-0.26
						c0.028-2.313-1.465-15.906-1.48-16.043c-0.016-0.142,0.087-0.269,0.227-0.284c0.151-0.016,0.269,0.088,0.284,0.227
						c0.061,0.561,1.512,13.763,1.482,16.105C298.339,322.146,298.224,322.259,298.084,322.259z"/>
				</g>
				<g>
					<path style="fill:#556842;" d="M283.174,297.352c-3.353,0-9.467-0.754-11.973-5.925c-0.061-0.128-0.009-0.281,0.119-0.344
						c0.129-0.061,0.281-0.009,0.344,0.119c3.356,6.93,13.627,5.527,13.728,5.514c0.152-0.021,0.27,0.077,0.291,0.217
						c0.021,0.141-0.076,0.272-0.217,0.291C285.435,297.229,284.531,297.352,283.174,297.352z"/>
				</g>
				<g>
					<path style="fill:#556842;" d="M252.645,357.859c-2.975,0-5.703-0.354-7.77-1.276c-6.853-3.058-18.95-16.129-19.462-16.685
						c-0.096-0.103-0.089-0.267,0.016-0.362c0.102-0.097,0.268-0.091,0.362,0.015c0.125,0.135,12.537,13.549,19.293,16.563
						c8.578,3.824,29.678-2.593,29.891-2.659c0.132-0.037,0.279,0.033,0.321,0.171c0.041,0.136-0.035,0.279-0.171,0.321
						C274.459,354.152,262.266,357.859,252.645,357.859z"/>
				</g>
			</g>
			<g>
				<g>
					<path style="fill:#FFAC70;" d="M323.636,320.753l-46.128,6.497l-8.964-9.897l-8.287,16.936c0,0,5.926,10.607,9.517,11.851
						c13.715,4.75,56.564-13.087,56.564-13.087L323.636,320.753z"/>
				</g>
				<g>
					<g>
						<path style="fill:#FFAC70;" d="M324.878,333.693c0,0,10.577,0.67,16.661-0.825c2.729-0.671,6.748-2.387,6.132-3.878
							c-0.318-0.769-1.435-1.184-1.435-1.184s2.885-1.58,2.547-2.648c-0.436-1.379-2.394-1.628-2.394-1.628s1.995-1.598,1.655-2.311
							c-0.656-1.378-3.809-0.729-3.809-0.729s1.54-1.414,0.634-2.488c-0.53-0.628-12.493,1.556-12.493,1.556s5.759-5.75,3.85-6.302
							c-1.909-0.552-16.283,8.799-16.283,8.799L324.878,333.693z"/>
					</g>
					<g>
						<path style="fill:#634F3F;" d="M337.725,331.546c-0.114,0-0.219-0.077-0.249-0.192c-0.035-0.138,0.048-0.278,0.185-0.313
							c1.768-0.455,4.663-1.224,4.913-1.348c0.298-0.164,3.498-2.089,3.53-2.108c0.123-0.071,0.279-0.034,0.354,0.088
							c0.072,0.122,0.033,0.28-0.088,0.353c-0.133,0.079-3.241,1.948-3.55,2.118c-0.32,0.177-4.247,1.192-5.03,1.395
							C337.768,331.544,337.747,331.546,337.725,331.546z"/>
					</g>
					<g>
						<path style="fill:#634F3F;" d="M336.519,327.641c-0.119,0-0.227-0.083-0.252-0.205c-0.028-0.139,0.06-0.275,0.2-0.304
							l5.512-1.144l4.274-2.677c0.12-0.074,0.278-0.039,0.354,0.081c0.075,0.121,0.039,0.279-0.081,0.354l-4.313,2.701
							c-0.026,0.017-0.055,0.027-0.085,0.034l-5.558,1.153C336.553,327.639,336.536,327.641,336.519,327.641z"/>
					</g>
					<g>
						<path style="fill:#634F3F;" d="M335.582,323.772c-0.113,0-0.217-0.075-0.248-0.188c-0.037-0.138,0.043-0.278,0.18-0.316
							l4.738-1.3l3.881-1.713c0.126-0.058,0.28,0.001,0.339,0.132c0.057,0.13-0.002,0.281-0.132,0.339l-3.916,1.726l-4.773,1.313
							C335.626,323.769,335.604,323.772,335.582,323.772z"/>
					</g>
				</g>
				<g>
					<path style="fill:#7B8E66;" d="M258.275,340.336c-3.788-4.163-14.568-24.182-15.733-32.049
						c-1.165-7.867,2.622-24.455,7.867-24.901c5.244-0.447,13.111,1.302,15.442,9.168c1.575,5.315,8.054,21.71,12.82,29.448
						C283.326,329.564,262.063,344.499,258.275,340.336z"/>
				</g>
				<g>
					<path style="fill:#556842;" d="M259.953,341.275c-0.478,0-0.887-0.071-1.152-0.254c-7.684-5.296-16.66-29.329-16.727-31.571
						c-0.004-0.142,0.107-0.261,0.249-0.265c0.003,0,0.006,0,0.008,0c0.139,0,0.253,0.11,0.257,0.249
						c0.065,2.215,8.923,25.938,16.504,31.163c0.7,0.481,3.376-0.169,4.899-0.692c0.133-0.047,0.279,0.025,0.326,0.16
						c0.046,0.134-0.025,0.28-0.16,0.326C263.829,340.503,261.523,341.275,259.953,341.275z"/>
				</g>
				<g>
					<path style="fill:#556842;" d="M278.88,327.314c-0.018,0-0.037-0.002-0.057-0.006c-0.138-0.031-0.226-0.169-0.194-0.308
						l0.917-4.087c-0.653-1.524-10.706-24.948-13.916-30.226c-0.073-0.121-0.035-0.279,0.086-0.354
						c0.121-0.074,0.279-0.036,0.353,0.086c3.32,5.46,13.875,30.119,13.981,30.368c0.022,0.049,0.026,0.105,0.015,0.157
						l-0.935,4.168C279.104,327.233,278.999,327.314,278.88,327.314z"/>
				</g>
				<g>
					<path style="fill:#556842;" d="M262.007,286.87c-0.063,0-0.125-0.023-0.174-0.068c-0.083-0.074-8.154-7.463-12.253-5.205
						c-0.123,0.067-0.281,0.022-0.35-0.102c-0.068-0.124-0.022-0.28,0.102-0.35c4.413-2.43,12.506,4.964,12.85,5.279
						c0.104,0.096,0.11,0.259,0.014,0.362C262.146,286.842,262.077,286.87,262.007,286.87z"/>
				</g>
				<g>
					<path style="fill:#634F3F;" d="M319.944,335.828c-0.104,0-0.201-0.063-0.24-0.165c-0.051-0.133,0.017-0.281,0.148-0.332
						l4.934-1.879c0.031-0.011,0.046-0.019,0.099-0.017l6.833,0.17c0.142,0.004,0.254,0.121,0.25,0.264
						c-0.003,0.14-0.118,0.25-0.257,0.25c-0.002,0-0.004,0-0.007,0l-6.782-0.169l-4.886,1.861
						C320.005,335.824,319.974,335.828,319.944,335.828z"/>
				</g>
			</g>
		</g>
	</g>
</g>
</svg>
