<?xml version="1.0" encoding="utf-8"?>
<!-- Generator: Adobe Illustrator 27.5.0, SVG Export Plug-In . SVG Version: 6.00 Build 0)  -->
<svg version="1.1" xmlns="http://www.w3.org/2000/svg" xmlns:xlink="http://www.w3.org/1999/xlink" x="0px" y="0px"
	 viewBox="0 0 500 500" style="enable-background:new 0 0 500 500;" xml:space="preserve">
<g id="BACKGROUND">
	<rect style="fill:#00000000;" width="500" height="500"/>
</g>
<g id="OBJECTS">
	<g>
		<g>
			<path style="fill:none;stroke:#2A2A2A;stroke-linecap:round;stroke-linejoin:round;stroke-miterlimit:10;" d="M232.822,329.789
				c0,0-28.345-4.174-49.761-38.634"/>
			<path style="fill:#2A2A2A;" d="M227.028,328.473c0,0,6.943-10.859-10.509-28.499
				C214.422,322.516,227.028,328.473,227.028,328.473z"/>
			<path style="fill:#2A2A2A;" d="M217.476,324.432c0,0-12.057-7.997-32.325-3.353C203.586,332.785,217.476,324.432,217.476,324.432
				z"/>
			<path style="fill:#2A2A2A;" d="M205.419,316.436c0,0,4.976-12.456-7.008-26.705C194.383,306.203,205.419,316.436,205.419,316.436
				z"/>
			<path style="fill:#2A2A2A;" d="M195.533,307.439c0,0-6.726-9.867-25.25-7.075C181.607,309.393,195.533,307.439,195.533,307.439z"
				/>
			<path style="fill:#2A2A2A;" d="M186.745,296.7c0,0,4.973-14.096-13.211-24.23C174.619,289.538,186.745,296.7,186.745,296.7z"/>
		</g>
		<g>
			<path style="fill:none;stroke:#2A2A2A;stroke-linecap:round;stroke-linejoin:round;stroke-miterlimit:10;" d="M307.927,333.745
				c0,0,10.01-26.846,48.188-40.58"/>
			<path style="fill:#2A2A2A;" d="M310.426,328.355c0,0,9.167,9.061,30.067-4.315C318.887,317.273,310.426,328.355,310.426,328.355z
				"/>
			<path style="fill:#2A2A2A;" d="M316.375,319.859c0,0,10.342-10.118,10.04-30.909
				C311.112,304.529,316.375,319.859,316.375,319.859z"/>
			<path style="fill:#2A2A2A;" d="M326.717,309.741c0,0,11.14,7.471,27.58-1.267C339.031,301.089,326.717,309.741,326.717,309.741z"
				/>
			<path style="fill:#2A2A2A;" d="M337.582,301.955c0,0,11.055-4.513,12.2-23.212C338.584,287.929,337.582,301.955,337.582,301.955z
				"/>
			<path style="fill:#2A2A2A;" d="M349.921,295.608c0,0,12.743,7.811,26.457-7.851C359.461,285.248,349.921,295.608,349.921,295.608
				z"/>
		</g>
		<g>
			<path style="fill:none;stroke:#2A2A2A;stroke-linecap:round;stroke-linejoin:round;stroke-miterlimit:10;" d="M118.652,342.906
				c0,0-13.617,19.127-46.75,21.901"/>
			<path style="fill:#2A2A2A;" d="M115.531,346.643c0,0-5.334-9.116-24.715-2.961C106.483,353.619,115.531,346.643,115.531,346.643z
				"/>
			<path style="fill:#2A2A2A;" d="M109.02,352.106c0,0-10.332,5.815-14.503,22.337C109.935,365.356,109.02,352.106,109.02,352.106z"
				/>
			<path style="fill:#2A2A2A;" d="M98.688,357.921c0,0-7.233-8.276-22.1-4.846C87.105,362.157,98.688,357.921,98.688,357.921z"/>
			<path style="fill:#2A2A2A;" d="M88.436,361.78c0,0-9.708,1.228-14.58,15.786C84.668,372.67,88.436,361.78,88.436,361.78z"/>
			<path style="fill:#2A2A2A;" d="M77.323,364.187c0,0-8.43-8.886-22.607,0.603C67.574,370.364,77.323,364.187,77.323,364.187z"/>
		</g>
		<g>
			<path style="fill:none;stroke:#2A2A2A;stroke-linecap:round;stroke-linejoin:round;stroke-miterlimit:10;" d="M346.253,356.011
				c0,0,1.176,32.889-33.303,64.244"/>
			<path style="fill:#2A2A2A;" d="M345.97,362.829c0,0-13.71-5.587-30.011,17.794C341.861,378.308,345.97,362.829,345.97,362.829z"
				/>
			<path style="fill:#2A2A2A;" d="M343.391,374.46c0,0-6.528,15.283,2.93,37.214C355.714,388.415,343.391,374.46,343.391,374.46z"/>
			<path style="fill:#2A2A2A;" d="M336.863,389.743c0,0-15.106-3.032-28.712,13.467
				C327.596,404.336,336.863,389.743,336.863,389.743z"/>
			<path style="fill:#2A2A2A;" d="M328.754,402.781c0,0-9.749,9.649-2.745,29.995C333.855,418.107,328.754,402.781,328.754,402.781z
				"/>
			<path style="fill:#2A2A2A;" d="M318.449,414.94c0,0-16.957-2.689-24.626,19.96C312.878,430.127,318.449,414.94,318.449,414.94z"
				/>
		</g>
		<g>
			<path style="fill:none;stroke:#2A2A2A;stroke-linecap:round;stroke-linejoin:round;stroke-miterlimit:10;" d="M243.534,405.961
				c0,0,8.56,21.863-7.244,51.115"/>
			<path style="fill:#2A2A2A;" d="M244.955,410.618c0,0-10.549-0.522-16,19.068C245.845,422.008,244.955,410.618,244.955,410.618z"
				/>
			<path style="fill:#2A2A2A;" d="M245.966,419.057c0,0-0.785,11.83,10.763,24.36C257.557,425.54,245.966,419.057,245.966,419.057z"
				/>
			<path style="fill:#2A2A2A;" d="M245.181,430.887c0,0-10.885,1.527-16.148,15.848C242.39,442.9,245.181,430.887,245.181,430.887z"
				/>
			<path style="fill:#2A2A2A;" d="M242.802,441.579c0,0-4.283,8.798,5.237,20.841C249.856,450.692,242.802,441.579,242.802,441.579z
				"/>
			<path style="fill:#2A2A2A;" d="M238.736,452.199c0,0-12.05,2.195-11.863,19.254C238.574,463.739,238.736,452.199,238.736,452.199
				z"/>
		</g>
		<g>
			<path style="fill:#EBE8E5;stroke:#2A2A2A;stroke-linecap:round;stroke-linejoin:round;stroke-miterlimit:10;" d="
				M310.671,302.223c0,0,8.56,21.863-7.244,51.115"/>
			<path style="fill:#2A2A2A;" d="M312.091,306.88c0,0-10.549-0.522-16,19.068C312.981,318.27,312.091,306.88,312.091,306.88z"/>
			<path style="fill:#2A2A2A;" d="M313.102,315.319c0,0-0.785,11.83,10.763,24.36C324.694,321.803,313.102,315.319,313.102,315.319z
				"/>
			<path style="fill:#2A2A2A;" d="M312.317,327.149c0,0-10.885,1.527-16.148,15.848
				C309.526,339.162,312.317,327.149,312.317,327.149z"/>
			<path style="fill:#2A2A2A;" d="M309.938,337.841c0,0-4.283,8.798,5.237,20.841C316.992,346.954,309.938,337.841,309.938,337.841z
				"/>
			<path style="fill:#2A2A2A;" d="M305.873,348.461c0,0-12.05,2.195-11.863,19.254C305.71,360.001,305.873,348.461,305.873,348.461z
				"/>
		</g>
		<g>
			<path style="fill:none;stroke:#2A2A2A;stroke-linecap:round;stroke-linejoin:round;stroke-miterlimit:10;" d="M246.2,351.797
				c0,0-13.617,19.127-46.75,21.901"/>
			<path style="fill:#2A2A2A;" d="M243.078,355.534c0,0-5.334-9.116-24.715-2.961C234.03,362.511,243.078,355.534,243.078,355.534z"
				/>
			<path style="fill:#2A2A2A;" d="M236.567,360.997c0,0-10.332,5.815-14.503,22.337
				C237.482,374.248,236.567,360.997,236.567,360.997z"/>
			<path style="fill:#2A2A2A;" d="M226.235,366.813c0,0-7.233-8.276-22.1-4.846C214.653,371.049,226.235,366.813,226.235,366.813z"
				/>
			<path style="fill:#2A2A2A;" d="M215.983,370.671c0,0-9.708,1.228-14.58,15.786C212.215,381.561,215.983,370.671,215.983,370.671z
				"/>
			<path style="fill:#2A2A2A;" d="M204.87,373.078c0,0-8.43-8.886-22.607,0.603C195.121,379.255,204.87,373.078,204.87,373.078z"/>
		</g>
		<g>
			<path style="fill:none;stroke:#2A2A2A;stroke-linecap:round;stroke-linejoin:round;stroke-miterlimit:10;" d="M207.959,407.33
				c0,0-1.102,23.453-27.464,43.715"/>
			<path style="fill:#2A2A2A;" d="M207.356,412.161c0,0-9.419-4.78-22.386,10.883C203.522,422.924,207.356,412.161,207.356,412.161z
				"/>
			<path style="fill:#2A2A2A;" d="M204.837,420.279c0,0-5.542,10.481-0.11,26.632C212.776,430.927,204.837,420.279,204.837,420.279z
				"/>
			<path style="fill:#2A2A2A;" d="M199.295,430.76c0,0-10.562-3.046-21.208,7.883C191.846,440.589,199.295,430.76,199.295,430.76z"
				/>
			<path style="fill:#2A2A2A;" d="M192.761,439.552c0,0-7.5,6.286-3.719,21.164C195.485,450.749,192.761,439.552,192.761,439.552z"
				/>
			<path style="fill:#2A2A2A;" d="M184.718,447.589c0,0-11.898-2.911-18.685,12.74C179.862,458.059,184.718,447.589,184.718,447.589
				z"/>
		</g>
		<g>
			<path style="fill:none;stroke:#2A2A2A;stroke-linecap:round;stroke-linejoin:round;stroke-miterlimit:10;" d="M213.95,353.879
				c0,0-42.189,2.217-83.178-41.364"/>
			<path style="fill:#2A2A2A;" d="M205.192,353.662c0,0,6.876-17.718-23.486-38.138
				C185.236,348.721,205.192,353.662,205.192,353.662z"/>
			<path style="fill:#2A2A2A;" d="M190.207,350.602c0,0-19.757-8.05-47.704,4.562C172.56,366.719,190.207,350.602,190.207,350.602z"
				/>
			<path style="fill:#2A2A2A;" d="M170.45,342.552c0,0,3.567-19.454-17.903-36.564C151.52,330.972,170.45,342.552,170.45,342.552z"
				/>
			<path style="fill:#2A2A2A;" d="M153.541,332.424c0,0-12.595-12.305-38.56-2.878C133.979,339.302,153.541,332.424,153.541,332.424
				z"/>
			<path style="fill:#2A2A2A;" d="M137.713,319.458c0,0,3.086-21.823-26.15-31.18C118.099,312.635,137.713,319.458,137.713,319.458z
				"/>
		</g>
		<g>
			<path style="fill:none;stroke:#2A2A2A;stroke-linecap:round;stroke-linejoin:round;stroke-miterlimit:10;" d="M198.684,351.712
				c0,0-18.894,37.787-77.027,51.927"/>
			<path style="fill:#2A2A2A;" d="M194.173,359.222c0,0-12.016-14.725-44.761,1.603C180.027,374.14,194.173,359.222,194.173,359.222
				z"/>
			<path style="fill:#2A2A2A;" d="M184.116,370.744c0,0-16.752,13.21-19.576,43.74C189.424,394.047,184.116,370.744,184.116,370.744
				z"/>
			<path style="fill:#2A2A2A;" d="M167.363,383.954c0,0-15.16-12.704-40.636-2.475C147.949,394.703,167.363,383.954,167.363,383.954
				z"/>
			<path style="fill:#2A2A2A;" d="M150.21,393.662c0,0-16.918,4.881-21.534,32.116C146.537,414.07,150.21,393.662,150.21,393.662z"
				/>
			<path style="fill:#2A2A2A;" d="M131.121,401.029c0,0-17.457-13.455-40.024,7.354C115.507,414.72,131.121,401.029,131.121,401.029
				z"/>
		</g>
		<g>
			<path style="fill:none;stroke:#2A2A2A;stroke-linecap:round;stroke-linejoin:round;stroke-miterlimit:10;" d="M268.666,322.95
				c0,0-6.452,22.575,12.052,50.2"/>
			<path style="fill:#2A2A2A;" d="M267.693,327.721c0,0,10.452-1.519,17.734,17.467
				C267.886,339.145,267.693,327.721,267.693,327.721z"/>
			<path style="fill:#2A2A2A;" d="M267.486,336.218c0,0,1.901,11.703-8.408,25.27C256.56,343.77,267.486,336.218,267.486,336.218z"
				/>
			<path style="fill:#2A2A2A;" d="M269.387,347.921c0,0,10.981,0.489,17.576,14.248
				C273.303,359.615,269.387,347.921,269.387,347.921z"/>
			<path style="fill:#2A2A2A;" d="M272.768,358.339c0,0,5.097,8.353-3.24,21.243C266.609,368.079,272.768,358.339,272.768,358.339z"
				/>
			<path style="fill:#2A2A2A;" d="M277.821,368.526c0,0,12.204,1.044,13.633,18.044
				C279.076,379.999,277.821,368.526,277.821,368.526z"/>
		</g>
		
			<ellipse transform="matrix(0.8951 -0.4459 0.4459 0.8951 -153.4021 168.18)" style="fill:#2A2A2A;" cx="280.718" cy="410.103" rx="19.1" ry="19.1"/>
		
			<ellipse transform="matrix(0.8303 -0.5574 0.5574 0.8303 -126.8443 266.5581)" style="fill:#2A2A2A;" cx="374.245" cy="341.547" rx="19.1" ry="19.1"/>
		<path style="fill:#2A2A2A;" d="M102.814,381.303c0.324-3.702,3.588-6.441,7.29-6.117c3.702,0.324,6.441,3.588,6.117,7.29
			c-0.324,3.702-3.588,6.441-7.29,6.117C105.229,388.269,102.49,385.005,102.814,381.303z"/>
		<path style="fill:#2A2A2A;" d="M362.791,386.795c0.324-3.702,3.588-6.441,7.29-6.117c3.702,0.324,6.441,3.588,6.117,7.29
			c-0.324,3.702-3.588,6.441-7.29,6.117C365.205,393.761,362.467,390.497,362.791,386.795z"/>
		<path style="fill:#C4BDB7;" d="M427.715,229.061c-0.794-46.841-38.108-34.138-41.445-81.244
			c-3.337-47.106-44.298-60.072-44.298-60.072c-69.864-59.611-110.045-13.496-110.045-13.496s-35.241-26.199-65.41,0
			c-28.09,24.394-11.909,53.986-11.909,53.986s-36.078,22.791-12.35,70.658c12.053,24.314,28.695,26.212,55.311,26.72
			c-0.001,0.121-0.009,0.241-0.009,0.363c0,16.188,13.123,29.31,29.31,29.31c15.046,0,27.437-11.339,29.111-25.936
			c1.453,0.222,2.918,0.453,4.406,0.705c66.878,11.314,66.5,64.108,66.5,64.108s12.703-26.199,37.314-22.127
			C388.813,276.107,428.509,275.901,427.715,229.061z"/>
		<path style="fill:none;stroke:#C4BDB7;stroke-linecap:round;stroke-linejoin:round;stroke-miterlimit:10;" d="M433.176,238.037
			c-0.794-46.841-38.108-34.138-41.445-81.244c-3.337-47.106-44.298-60.072-44.298-60.072
			c-69.864-59.611-110.045-13.497-110.045-13.497s-35.241-26.199-65.41,0c-28.09,24.394-11.909,53.986-11.909,53.986
			s-36.078,22.791-12.35,70.658c12.053,24.314,28.695,26.212,55.311,26.72c-0.001,0.121-0.009,0.241-0.009,0.363
			c0,16.188,13.123,29.31,29.31,29.31c15.046,0,27.437-11.339,29.111-25.936c1.453,0.222,2.918,0.453,4.406,0.705
			c66.878,11.314,66.5,64.108,66.5,64.108s12.703-26.199,37.314-22.127C394.274,285.083,433.97,284.878,433.176,238.037z"/>
		<path style="fill:none;stroke:#C4BDB7;stroke-linecap:round;stroke-linejoin:round;stroke-miterlimit:10;" d="M421.074,225.74
			c-0.794-46.841-38.108-34.138-41.445-81.244c-3.337-47.106-44.298-60.072-44.298-60.072
			c-69.864-59.611-110.045-13.497-110.045-13.497s-35.241-26.199-65.41,0c-28.09,24.394-11.909,53.986-11.909,53.986
			s-36.078,22.791-12.35,70.658c12.052,24.314,28.695,26.212,55.311,26.72c-0.002,0.121-0.009,0.241-0.009,0.362
			c0,16.188,13.122,29.31,29.31,29.31c15.046,0,27.437-11.339,29.111-25.936c1.453,0.222,2.918,0.453,4.406,0.705
			c66.878,11.314,66.5,64.108,66.5,64.108s12.703-26.199,37.314-22.127C382.172,272.786,421.868,272.581,421.074,225.74z"/>
		<path style="fill:none;stroke:#C4BDB7;stroke-linecap:round;stroke-linejoin:round;stroke-miterlimit:10;" d="M445.273,228.501
			c-0.794-46.841-38.108-34.138-41.445-81.244c-3.337-47.106-44.298-60.072-44.298-60.072
			c-69.864-59.611-110.045-13.496-110.045-13.496s-35.241-26.199-65.41,0c-28.09,24.394-11.909,53.986-11.909,53.986
			s-36.078,22.791-12.35,70.658c12.053,24.314,28.695,26.212,55.311,26.72c-0.001,0.121-0.009,0.241-0.009,0.363
			c0,16.188,13.123,29.31,29.31,29.31c15.046,0,27.437-11.339,29.111-25.936c1.453,0.222,2.918,0.453,4.406,0.705
			c66.878,11.314,66.5,64.108,66.5,64.108s12.703-26.199,37.314-22.127C406.371,275.547,446.067,275.342,445.273,228.501z"/>
		<path style="fill:#2A2A2A;" d="M142.086,284.835c0.397-4.541,4.4-7.9,8.941-7.502c4.541,0.397,7.9,4.4,7.502,8.941
			c-0.397,4.541-4.4,7.9-8.941,7.502C145.047,293.379,141.688,289.376,142.086,284.835z"/>
		
			<ellipse transform="matrix(0.987 -0.1606 0.1606 0.987 -18.196 23.1596)" style="fill:#C4BDB7;" cx="134.178" cy="124.149" rx="8.253" ry="8.253"/>
		
			<ellipse transform="matrix(0.7071 -0.7071 0.7071 0.7071 -5.24 354.1315)" style="fill:#C4BDB7;" cx="424.855" cy="183.391" rx="8.253" ry="8.253"/>
		
			<circle style="fill:none;stroke:#C4BDB7;stroke-linecap:round;stroke-linejoin:round;stroke-miterlimit:10;" cx="427.727" cy="184.674" r="11.34"/>
		
			<circle style="fill:none;stroke:#C4BDB7;stroke-linecap:round;stroke-linejoin:round;stroke-miterlimit:10;" cx="133.809" cy="126.433" r="11.34"/>
		
			<ellipse transform="matrix(0.7071 -0.7071 0.7071 0.7071 -127.2385 217.2061)" style="fill:none;stroke:#C4BDB7;stroke-linecap:round;stroke-linejoin:round;stroke-miterlimit:10;" cx="198.572" cy="262.194" rx="9.881" ry="9.881"/>
		
			<ellipse transform="matrix(0.9999 -0.0123 0.0123 0.9999 -3.2068 2.4963)" style="fill:#C4BDB7;" cx="201.526" cy="262.193" rx="8.253" ry="8.253"/>
		
			<ellipse transform="matrix(0.6486 -0.7611 0.7611 0.6486 -188.2232 367.0748)" style="fill:#2A2A2A;" cx="303.427" cy="387.381" rx="8.253" ry="8.253"/>
		<path style="fill:#2A2A2A;" d="M266.387,438.402c0.251-2.873,2.784-4.998,5.657-4.746c2.873,0.251,4.998,2.784,4.746,5.657
			c-0.251,2.873-2.784,4.998-5.657,4.746S266.136,441.275,266.387,438.402z"/>
		<path style="fill:#2A2A2A;" d="M141.333,458.516c0.251-2.873,2.784-4.998,5.657-4.746c2.873,0.251,4.998,2.784,4.746,5.657
			c-0.251,2.873-2.784,4.998-5.657,4.746C143.207,463.922,141.082,461.389,141.333,458.516z"/>
		<path style="fill:#2A2A2A;" d="M355.177,425.75c-0.16,1.827-1.771,3.178-3.597,3.018c-1.827-0.16-3.178-1.77-3.018-3.597
			c0.16-1.827,1.77-3.178,3.597-3.019C353.986,422.313,355.337,423.923,355.177,425.75z"/>
		<path style="fill:#2A2A2A;" d="M222.627,440.433c-0.16,1.827-1.77,3.178-3.597,3.018c-1.827-0.16-3.178-1.77-3.019-3.597
			c0.16-1.827,1.771-3.178,3.597-3.019C221.436,436.996,222.787,438.606,222.627,440.433z"/>
		<path style="fill:#2A2A2A;" d="M384.067,370.19c-0.16,1.827-1.77,3.178-3.597,3.019c-1.827-0.16-3.178-1.771-3.019-3.597
			c0.16-1.827,1.771-3.178,3.597-3.019C382.875,366.752,384.227,368.363,384.067,370.19z"/>
		<path style="fill:#2A2A2A;" d="M119.323,422.43c-0.16,1.827-1.771,3.178-3.597,3.018c-1.827-0.16-3.178-1.77-3.019-3.597
			c0.16-1.827,1.77-3.178,3.597-3.018C118.131,418.992,119.483,420.603,119.323,422.43z"/>
		<path style="fill:#2A2A2A;" d="M97.233,391.828c-0.16,1.827-1.77,3.178-3.597,3.019c-1.827-0.16-3.178-1.77-3.019-3.597
			c0.16-1.827,1.77-3.178,3.597-3.018C96.042,388.391,97.393,390.001,97.233,391.828z"/>
		<path style="fill:#2A2A2A;" d="M130.035,465.98c-0.16,1.827-1.771,3.178-3.597,3.018c-1.827-0.16-3.178-1.77-3.019-3.597
			c0.16-1.827,1.771-3.178,3.597-3.018C128.843,462.542,130.195,464.153,130.035,465.98z"/>
		<path style="fill:#2A2A2A;" d="M206.98,473.914c-0.16,1.827-1.77,3.178-3.597,3.018c-1.827-0.16-3.178-1.77-3.019-3.597
			c0.16-1.827,1.771-3.178,3.597-3.018C205.789,470.476,207.14,472.087,206.98,473.914z"/>
		<path style="fill:#2A2A2A;" d="M312.285,441.144c-0.16,1.827-1.77,3.178-3.597,3.018c-1.827-0.16-3.178-1.771-3.019-3.597
			c0.16-1.827,1.77-3.178,3.597-3.018C311.094,437.706,312.445,439.317,312.285,441.144z"/>
		<path style="fill:#2A2A2A;" d="M315.598,370.354c-0.251,2.865-2.776,4.984-5.641,4.733c-2.865-0.251-4.984-2.776-4.733-5.641
			c0.251-2.865,2.776-4.984,5.641-4.733C313.73,364.964,315.849,367.49,315.598,370.354z"/>
		<path style="fill:#2A2A2A;" d="M137.31,283.017c-0.16,1.827-1.77,3.178-3.597,3.018c-1.827-0.16-3.178-1.77-3.018-3.597
			c0.16-1.827,1.77-3.178,3.597-3.018C136.118,279.58,137.47,281.19,137.31,283.017z"/>
		<circle style="fill:#C4BDB7;" cx="407.931" cy="175.698" r="3.321"/>
		
			<ellipse transform="matrix(0.9748 -0.223 0.223 0.9748 -49.5189 47.4396)" style="fill:#C4BDB7;" cx="185.288" cy="242.974" rx="7.984" ry="7.984"/>
		<circle style="fill:#C4BDB7;" cx="137.129" cy="104.144" r="3.321"/>
		<circle style="fill:#2A2A2A;" cx="185.184" cy="270.447" r="3.321"/>
		<g>
			<path style="fill:#EBE8E5;stroke:#2A2A2A;stroke-linecap:round;stroke-linejoin:round;stroke-miterlimit:10;" d="
				M257.776,246.745c0,0-8.82-22.749,3.312-68.105c-0.021,25.11,3.587,44.084,3.587,44.084s-1.859-39.753,5.007-56.821
				c13.7-26.081,28.949-41.566,28.949-41.566l2.78,34.169l4.07-42.981l11.749-16.778l-1.92,27.672l9.465-35.853
				c0,0,27.233-37.299,73.329-54.119c-13.088,25.141-13.088,25.141-13.088,25.141l24.944-31.609c0,0,31.412-19.753,35.003,7.47
				c3.591,27.224-32.709,71.451-32.709,71.451l-23.545,14.986l15.44-4.696c0,0-29.855,38.888-43.288,51.331
				c-27.601,7.405-27.601,7.405-27.601,7.405l20.201-0.956l-21.894,22.418l-26.318,6.269l20.545-1.672
				C325.793,203.986,291.412,244.773,257.776,246.745z"/>
			<path style="fill:#2A2A2A;" d="M225.332,301.587c0,0-1.39-17.084,8.432-31.642c2.37-3.512,14.004-17.227,30.295-36.017
				c51.234-59.096,148.525-168.392,148.525-168.392S292.063,211.998,277.12,227.902
				C237.236,270.351,229.798,288.842,225.332,301.587z"/>
			
				<line style="fill:#EBE8E5;stroke:#2A2A2A;stroke-linecap:round;stroke-linejoin:round;stroke-miterlimit:10;" x1="289.034" y1="135.678" x2="292.74" y2="181.23"/>
			
				<line style="fill:#EBE8E5;stroke:#2A2A2A;stroke-linecap:round;stroke-linejoin:round;stroke-miterlimit:10;" x1="281.47" y1="146.172" x2="283.961" y2="176.778"/>
			
				<line style="fill:#EBE8E5;stroke:#2A2A2A;stroke-linecap:round;stroke-linejoin:round;stroke-miterlimit:10;" x1="344.701" y1="69.32" x2="344.847" y2="124.656"/>
			
				<line style="fill:#EBE8E5;stroke:#2A2A2A;stroke-linecap:round;stroke-linejoin:round;stroke-miterlimit:10;" x1="358.044" y1="58.373" x2="361.676" y2="103.013"/>
			
				<line style="fill:#EBE8E5;stroke:#2A2A2A;stroke-linecap:round;stroke-linejoin:round;stroke-miterlimit:10;" x1="364.357" y1="53.889" x2="369.177" y2="87.594"/>
			
				<line style="fill:#EBE8E5;stroke:#2A2A2A;stroke-linecap:round;stroke-linejoin:round;stroke-miterlimit:10;" x1="378.343" y1="151.338" x2="351.725" y2="155.639"/>
			
				<line style="fill:#EBE8E5;stroke:#2A2A2A;stroke-linecap:round;stroke-linejoin:round;stroke-miterlimit:10;" x1="364.514" y1="147.101" x2="384.291" y2="144.177"/>
			
				<line style="fill:#EBE8E5;stroke:#2A2A2A;stroke-linecap:round;stroke-linejoin:round;stroke-miterlimit:10;" x1="406.385" y1="87.117" x2="432.442" y2="79.075"/>
			
				<line style="fill:#EBE8E5;stroke:#2A2A2A;stroke-linecap:round;stroke-linejoin:round;stroke-miterlimit:10;" x1="418.828" y1="75.895" x2="437.472" y2="69.375"/>
			
				<line style="fill:#EBE8E5;stroke:#2A2A2A;stroke-linecap:round;stroke-linejoin:round;stroke-miterlimit:10;" x1="288.075" y1="227.343" x2="304.422" y2="224.606"/>
		</g>
		<g>
			
				<rect x="272.694" y="221.707" style="fill:#EBE8E5;stroke:#2A2A2A;stroke-linecap:round;stroke-linejoin:round;stroke-miterlimit:10;" width="27.437" height="27.437"/>
			<path style="fill:#EBE8E5;stroke:#2A2A2A;stroke-linecap:round;stroke-linejoin:round;stroke-miterlimit:10;" d="
				M304.174,229.255h-35.521c-2.84,0-5.142-2.302-5.142-5.142v-20.226c0-2.84,2.302-5.142,5.142-5.142h35.521
				c2.84,0,5.142,2.302,5.142,5.142v20.226C309.316,226.953,307.013,229.255,304.174,229.255z"/>
			<path style="fill:#EBE8E5;stroke:#2A2A2A;stroke-linecap:round;stroke-linejoin:round;stroke-miterlimit:10;" d="
				M301.765,242.974h-30.703c-4.654,0-8.936,2.545-11.16,6.633l-29.976,55.096c-8.848,16.264,1.992,36.708,20.483,37.646
				c0.468,0.024,0.939,0.036,1.413,0.036h69.183c0.474,0,0.945-0.012,1.413-0.036c18.491-0.937,29.332-21.382,20.483-37.646
				l-29.976-55.096C310.7,245.519,306.419,242.974,301.765,242.974z"/>
			<path style="fill:#2A2A2A;" d="M320.572,275.878h-68.318l-17.114,29.58c-8.032,13.882,1.808,31.332,18.592,32.132
				c0.425,0.02,0.852,0.031,1.283,0.031h62.796c0.43,0,0.858-0.01,1.283-0.031c16.784-0.8,26.624-18.251,18.592-32.132
				L320.572,275.878z"/>
			
				<rect x="263.511" y="209.372" style="fill:#EBE8E5;stroke:#2A2A2A;stroke-linecap:round;stroke-linejoin:round;stroke-miterlimit:10;" width="45.805" height="9.256"/>
		</g>
		<g>
			<g>
				<path style="fill:#EBE8E5;stroke:#2A2A2A;stroke-linecap:round;stroke-linejoin:round;stroke-miterlimit:10;" d="
					M228.241,327.958c-7.535,1.329-13.376,3.924-13.045,5.798c0.33,1.874,6.706,2.315,14.242,0.987
					c7.535-1.329,13.376-3.924,13.045-5.798C242.152,327.071,235.776,326.629,228.241,327.958z"/>
				<path style="fill:#EBE8E5;stroke:#2A2A2A;stroke-linecap:round;stroke-linejoin:round;stroke-miterlimit:10;" d="
					M200.954,332.769c-7.535,1.328-13.375,3.924-13.045,5.798c0.33,1.874,6.706,2.315,14.242,0.987
					c7.535-1.329,13.376-3.924,13.045-5.798C214.865,331.882,208.489,331.44,200.954,332.769z"/>
				<path style="fill:#EBE8E5;stroke:#2A2A2A;stroke-linecap:round;stroke-linejoin:round;stroke-miterlimit:10;" d="
					M226.739,342.154c-4.918-5.861-10.086-9.621-11.544-8.399c-1.457,1.223,1.348,6.966,6.266,12.827
					c4.918,5.861,10.086,9.621,11.544,8.399C234.463,353.758,231.658,348.015,226.739,342.154z"/>
				<path style="fill:#EBE8E5;stroke:#2A2A2A;stroke-linecap:round;stroke-linejoin:round;stroke-miterlimit:10;" d="
					M208.93,320.929c-4.918-5.861-10.086-9.621-11.544-8.399c-1.457,1.223,1.348,6.966,6.266,12.827
					c4.918,5.861,10.086,9.621,11.544,8.399C216.653,332.533,213.848,326.79,208.93,320.929z"/>
				
					<ellipse transform="matrix(0.342 -0.9397 0.9397 0.342 -187.3851 425.9305)" style="fill:#EBE8E5;stroke:#2A2A2A;stroke-linecap:round;stroke-linejoin:round;stroke-miterlimit:10;" cx="210.457" cy="346.774" rx="13.854" ry="3.445"/>
				<path style="fill:#EBE8E5;stroke:#2A2A2A;stroke-linecap:round;stroke-linejoin:round;stroke-miterlimit:10;" d="
					M223.171,321.915c2.617-7.19,3.289-13.546,1.501-14.196c-1.788-0.651-5.358,4.65-7.975,11.84
					c-2.617,7.19-3.289,13.546-1.501,14.196S220.554,329.105,223.171,321.915z"/>
				<path style="fill:#EBE8E5;stroke:#2A2A2A;stroke-linecap:round;stroke-linejoin:round;stroke-miterlimit:10;" d="
					M223.594,322.212c-5.861,4.918-9.621,10.086-8.399,11.544c1.223,1.457,6.966-1.348,12.827-6.266
					c5.861-4.918,9.621-10.086,8.399-11.544C235.198,314.488,229.455,317.294,223.594,322.212z"/>
				<path style="fill:#EBE8E5;stroke:#2A2A2A;stroke-linecap:round;stroke-linejoin:round;stroke-miterlimit:10;" d="
					M202.369,340.022c-5.861,4.918-9.621,10.086-8.399,11.544c1.223,1.457,6.966-1.348,12.827-6.266
					c5.861-4.918,9.621-10.086,8.399-11.544C213.973,332.298,208.23,335.104,202.369,340.022z"/>
				
					<ellipse transform="matrix(0.342 -0.9397 0.9397 0.342 -167.9214 437.1683)" style="fill:#EBE8E5;stroke:#2A2A2A;stroke-linecap:round;stroke-linejoin:round;stroke-miterlimit:10;" cx="228.214" cy="338.494" rx="3.445" ry="13.854"/>
				<path style="fill:#EBE8E5;stroke:#2A2A2A;stroke-linecap:round;stroke-linejoin:round;stroke-miterlimit:10;" d="
					M203.356,325.78c-7.19-2.617-13.546-3.289-14.196-1.502c-0.651,1.788,4.65,5.358,11.84,7.975
					c7.19,2.617,13.546,3.289,14.196,1.501C215.846,331.968,210.545,328.397,203.356,325.78z"/>
				<path style="fill:#EBE8E5;stroke:#2A2A2A;stroke-linecap:round;stroke-linejoin:round;stroke-miterlimit:10;" d="
					M220.994,346.801c-1.329-7.535-3.924-13.375-5.798-13.045s-2.315,6.707-0.987,14.242c1.329,7.535,3.924,13.376,5.798,13.045
					C221.88,360.712,222.322,354.336,220.994,346.801z"/>
				<path style="fill:#EBE8E5;stroke:#2A2A2A;stroke-linecap:round;stroke-linejoin:round;stroke-miterlimit:10;" d="
					M216.182,319.514c-1.328-7.535-3.924-13.376-5.798-13.045c-1.874,0.33-2.315,6.706-0.987,14.241
					c1.329,7.535,3.924,13.375,5.798,13.045S217.511,327.049,216.182,319.514z"/>
			</g>
			<g>
				
					<ellipse transform="matrix(0.5736 -0.8191 0.8191 0.5736 -168.9476 320.264)" style="fill:#EBE8E5;stroke:#2A2A2A;stroke-linecap:round;stroke-linejoin:round;stroke-miterlimit:10;" cx="223.142" cy="322.407" rx="13.854" ry="3.445"/>
				<path style="fill:#EBE8E5;stroke:#2A2A2A;stroke-linecap:round;stroke-linejoin:round;stroke-miterlimit:10;" d="
					M204.428,343.128c-4.389,6.267-6.683,12.233-5.125,13.324c1.558,1.091,6.379-3.105,10.768-9.372
					c4.389-6.267,6.683-12.233,5.125-13.324C213.637,332.664,208.816,336.861,204.428,343.128z"/>
				<path style="fill:#EBE8E5;stroke:#2A2A2A;stroke-linecap:round;stroke-linejoin:round;stroke-miterlimit:10;" d="
					M229.297,331.532c-7.622-0.667-13.936,0.329-14.101,2.224c-0.166,1.895,5.879,3.972,13.501,4.639
					c7.622,0.667,13.935-0.329,14.101-2.224C242.964,334.276,236.919,332.199,229.297,331.532z"/>
				<path style="fill:#EBE8E5;stroke:#2A2A2A;stroke-linecap:round;stroke-linejoin:round;stroke-miterlimit:10;" d="
					M201.695,329.116c-7.622-0.667-13.936,0.329-14.101,2.224c-0.166,1.895,5.879,3.972,13.501,4.639
					c7.622,0.667,13.936-0.329,14.101-2.224C215.361,331.86,209.317,329.783,201.695,329.116z"/>
				<path style="fill:#EBE8E5;stroke:#2A2A2A;stroke-linecap:round;stroke-linejoin:round;stroke-miterlimit:10;" d="
					M224.172,344.856c-3.233-6.934-7.252-11.904-8.977-11.1c-1.724,0.804-0.501,7.077,2.733,14.012
					c3.233,6.934,7.252,11.904,8.977,11.1C228.629,358.063,227.406,351.79,224.172,344.856z"/>
				<path style="fill:#EBE8E5;stroke:#2A2A2A;stroke-linecap:round;stroke-linejoin:round;stroke-miterlimit:10;" d="
					M212.463,319.744c-3.233-6.934-7.252-11.904-8.977-11.1c-1.724,0.804-0.501,7.077,2.733,14.012
					c3.234,6.934,7.253,11.904,8.977,11.1C216.92,332.952,215.696,326.678,212.463,319.744z"/>
				
					<ellipse transform="matrix(0.0872 -0.9962 0.9962 0.0872 -121.1971 507.6438)" style="fill:#EBE8E5;stroke:#2A2A2A;stroke-linecap:round;stroke-linejoin:round;stroke-miterlimit:10;" cx="216.403" cy="319.955" rx="13.854" ry="3.445"/>
				<path style="fill:#EBE8E5;stroke:#2A2A2A;stroke-linecap:round;stroke-linejoin:round;stroke-miterlimit:10;" d="
					M210.557,347.256c-0.667,7.622,0.329,13.936,2.224,14.101c1.895,0.166,3.972-5.879,4.639-13.501
					c0.667-7.622-0.329-13.936-2.224-14.101S211.223,339.634,210.557,347.256z"/>
				<path style="fill:#EBE8E5;stroke:#2A2A2A;stroke-linecap:round;stroke-linejoin:round;stroke-miterlimit:10;" d="
					M226.296,324.779c-6.934,3.233-11.904,7.253-11.1,8.977c0.804,1.724,7.077,0.501,14.012-2.733
					c6.934-3.233,11.904-7.252,11.1-8.977C239.503,320.322,233.23,321.546,226.296,324.779z"/>
				<path style="fill:#EBE8E5;stroke:#2A2A2A;stroke-linecap:round;stroke-linejoin:round;stroke-miterlimit:10;" d="
					M201.184,336.488c-6.934,3.233-11.904,7.252-11.1,8.977c0.804,1.724,7.077,0.501,14.012-2.733
					c6.934-3.234,11.904-7.253,11.1-8.977C214.392,332.031,208.118,333.255,201.184,336.488z"/>
				<path style="fill:#EBE8E5;stroke:#2A2A2A;stroke-linecap:round;stroke-linejoin:round;stroke-miterlimit:10;" d="M228.52,338.88
					c-6.267-4.389-12.233-6.683-13.324-5.125c-1.091,1.558,3.105,6.379,9.372,10.768c6.268,4.389,12.233,6.683,13.324,5.125
					C238.983,348.09,234.787,343.269,228.52,338.88z"/>
				<path style="fill:#EBE8E5;stroke:#2A2A2A;stroke-linecap:round;stroke-linejoin:round;stroke-miterlimit:10;" d="
					M205.823,322.988c-6.268-4.389-12.233-6.683-13.324-5.125c-1.091,1.558,3.105,6.379,9.372,10.768
					c6.268,4.389,12.233,6.683,13.324,5.125C216.287,332.197,212.091,327.376,205.823,322.988z"/>
			</g>
			<path style="fill:#2A2A2A;" d="M218.929,338.205c-2.457,2.062-6.121,1.741-8.183-0.716c-2.062-2.457-1.741-6.121,0.716-8.183
				c2.457-2.062,6.121-1.741,8.183,0.716C221.707,332.479,221.387,336.143,218.929,338.205z"/>
		</g>
		<g>
			<g>
				<path style="fill:#EBE8E5;stroke:#2A2A2A;stroke-linecap:round;stroke-linejoin:round;stroke-miterlimit:10;" d="
					M137.242,332.068c-4.389,6.267-6.683,12.233-5.125,13.324c1.558,1.091,6.379-3.105,10.768-9.372
					c4.389-6.267,6.683-12.233,5.125-13.324C146.452,321.605,141.631,325.801,137.242,332.068z"/>
				<path style="fill:#EBE8E5;stroke:#2A2A2A;stroke-linecap:round;stroke-linejoin:round;stroke-miterlimit:10;" d="
					M121.35,354.765c-4.389,6.267-6.683,12.233-5.125,13.324c1.558,1.091,6.379-3.105,10.768-9.372
					c4.389-6.267,6.683-12.233,5.125-13.324C130.559,344.301,125.739,348.497,121.35,354.765z"/>
				
					<ellipse transform="matrix(0.0872 -0.9962 0.9962 0.0872 -212.0815 461.7506)" style="fill:#EBE8E5;stroke:#2A2A2A;stroke-linecap:round;stroke-linejoin:round;stroke-miterlimit:10;" cx="145.919" cy="346.6" rx="3.445" ry="13.854"/>
				<path style="fill:#EBE8E5;stroke:#2A2A2A;stroke-linecap:round;stroke-linejoin:round;stroke-miterlimit:10;" d="
					M118.617,340.753c-7.622-0.667-13.936,0.329-14.101,2.224c-0.166,1.895,5.879,3.972,13.501,4.639
					c7.622,0.667,13.936-0.329,14.101-2.224S126.239,341.42,118.617,340.753z"/>
				<path style="fill:#EBE8E5;stroke:#2A2A2A;stroke-linecap:round;stroke-linejoin:round;stroke-miterlimit:10;" d="
					M141.094,356.493c-3.233-6.934-7.252-11.904-8.977-11.1c-1.724,0.804-0.501,7.077,2.733,14.012
					c3.234,6.934,7.253,11.904,8.977,11.1S144.328,363.427,141.094,356.493z"/>
				<path style="fill:#EBE8E5;stroke:#2A2A2A;stroke-linecap:round;stroke-linejoin:round;stroke-miterlimit:10;" d="
					M129.385,331.381c-3.233-6.934-7.252-11.904-8.977-11.1c-1.724,0.804-0.501,7.077,2.733,14.012
					c3.234,6.934,7.253,11.904,8.977,11.1C133.842,344.589,132.619,338.315,129.385,331.381z"/>
				<path style="fill:#EBE8E5;stroke:#2A2A2A;stroke-linecap:round;stroke-linejoin:round;stroke-miterlimit:10;" d="
					M129.894,331.291c-0.667,7.622,0.329,13.935,2.224,14.101s3.972-5.879,4.639-13.501c0.667-7.622-0.329-13.936-2.224-14.101
					C132.638,317.624,130.561,323.669,129.894,331.291z"/>
				<path style="fill:#EBE8E5;stroke:#2A2A2A;stroke-linecap:round;stroke-linejoin:round;stroke-miterlimit:10;" d="
					M127.479,358.893c-0.667,7.622,0.329,13.936,2.224,14.101c1.895,0.166,3.972-5.879,4.639-13.501
					c0.667-7.622-0.329-13.936-2.224-14.101S128.146,351.271,127.479,358.893z"/>
				<path style="fill:#EBE8E5;stroke:#2A2A2A;stroke-linecap:round;stroke-linejoin:round;stroke-miterlimit:10;" d="
					M143.218,336.416c-6.934,3.233-11.904,7.253-11.1,8.977c0.804,1.724,7.077,0.501,14.012-2.733
					c6.934-3.233,11.904-7.252,11.1-8.977C156.426,331.959,150.152,333.182,143.218,336.416z"/>
				<path style="fill:#EBE8E5;stroke:#2A2A2A;stroke-linecap:round;stroke-linejoin:round;stroke-miterlimit:10;" d="
					M118.106,348.125c-6.935,3.233-11.904,7.252-11.1,8.977c0.804,1.724,7.077,0.501,14.012-2.733
					c6.934-3.233,11.904-7.252,11.1-8.977C131.314,343.668,125.041,344.892,118.106,348.125z"/>
				
					<ellipse transform="matrix(0.5736 -0.8191 0.8191 0.5736 -228.2597 268.1873)" style="fill:#EBE8E5;stroke:#2A2A2A;stroke-linecap:round;stroke-linejoin:round;stroke-miterlimit:10;" cx="143.466" cy="353.339" rx="3.445" ry="13.854"/>
				<path style="fill:#EBE8E5;stroke:#2A2A2A;stroke-linecap:round;stroke-linejoin:round;stroke-miterlimit:10;" d="
					M122.745,334.624c-6.267-4.389-12.233-6.683-13.324-5.125c-1.091,1.558,3.105,6.379,9.372,10.768
					c6.268,4.389,12.233,6.683,13.324,5.125S129.013,339.013,122.745,334.624z"/>
			</g>
			<g>
				<path style="fill:#EBE8E5;stroke:#2A2A2A;stroke-linecap:round;stroke-linejoin:round;stroke-miterlimit:10;" d="
					M126.32,332.347c1.329,7.535,3.924,13.375,5.798,13.045c1.873-0.33,2.315-6.706,0.987-14.241
					c-1.329-7.535-3.924-13.376-5.798-13.045C125.433,318.436,124.992,324.812,126.32,332.347z"/>
				<path style="fill:#EBE8E5;stroke:#2A2A2A;stroke-linecap:round;stroke-linejoin:round;stroke-miterlimit:10;" d="
					M131.131,359.634c1.328,7.535,3.924,13.376,5.798,13.045c1.874-0.33,2.315-6.706,0.987-14.241
					c-1.328-7.535-3.924-13.376-5.798-13.045C130.244,345.723,129.803,352.099,131.131,359.634z"/>
				<path style="fill:#EBE8E5;stroke:#2A2A2A;stroke-linecap:round;stroke-linejoin:round;stroke-miterlimit:10;" d="
					M140.516,333.849c-5.861,4.918-9.621,10.086-8.399,11.544c1.223,1.457,6.966-1.348,12.827-6.266
					c5.861-4.918,9.621-10.086,8.399-11.544C152.12,326.125,146.378,328.931,140.516,333.849z"/>
				<path style="fill:#EBE8E5;stroke:#2A2A2A;stroke-linecap:round;stroke-linejoin:round;stroke-miterlimit:10;" d="
					M119.291,351.659c-5.861,4.918-9.621,10.086-8.399,11.544c1.223,1.457,6.966-1.348,12.827-6.266
					c5.861-4.918,9.621-10.086,8.399-11.544C130.895,343.935,125.152,346.741,119.291,351.659z"/>
				<path style="fill:#EBE8E5;stroke:#2A2A2A;stroke-linecap:round;stroke-linejoin:round;stroke-miterlimit:10;" d="
					M146.314,346.894c-7.19-2.617-13.546-3.289-14.196-1.501c-0.651,1.788,4.65,5.358,11.84,7.975
					c7.19,2.617,13.546,3.289,14.197,1.502C158.805,353.082,153.504,349.511,146.314,346.894z"/>
				<path style="fill:#EBE8E5;stroke:#2A2A2A;stroke-linecap:round;stroke-linejoin:round;stroke-miterlimit:10;" d="
					M120.278,337.417c-7.19-2.617-13.546-3.289-14.196-1.501c-0.651,1.788,4.65,5.358,11.84,7.975
					c7.19,2.617,13.546,3.289,14.197,1.501C132.769,343.605,127.468,340.034,120.278,337.417z"/>
				<path style="fill:#EBE8E5;stroke:#2A2A2A;stroke-linecap:round;stroke-linejoin:round;stroke-miterlimit:10;" d="
					M120.574,336.994c4.918,5.861,10.086,9.621,11.544,8.399c1.457-1.223-1.348-6.966-6.266-12.827
					c-4.918-5.861-10.086-9.621-11.544-8.399C112.851,325.39,115.656,331.133,120.574,336.994z"/>
				<path style="fill:#EBE8E5;stroke:#2A2A2A;stroke-linecap:round;stroke-linejoin:round;stroke-miterlimit:10;" d="
					M138.384,358.219c4.918,5.861,10.086,9.621,11.544,8.399s-1.348-6.966-6.266-12.827c-4.918-5.861-10.086-9.621-11.544-8.399
					C130.661,346.615,133.466,352.358,138.384,358.219z"/>
				<path style="fill:#EBE8E5;stroke:#2A2A2A;stroke-linecap:round;stroke-linejoin:round;stroke-miterlimit:10;" d="
					M133.619,331.196c-2.617,7.19-3.289,13.546-1.501,14.196c1.788,0.651,5.358-4.65,7.975-11.84
					c2.617-7.19,3.289-13.546,1.502-14.196S136.236,324.006,133.619,331.196z"/>
				<path style="fill:#EBE8E5;stroke:#2A2A2A;stroke-linecap:round;stroke-linejoin:round;stroke-miterlimit:10;" d="
					M124.143,357.233c-2.617,7.19-3.289,13.546-1.502,14.196c1.788,0.651,5.358-4.65,7.975-11.84
					c2.617-7.19,3.289-13.546,1.502-14.196C130.33,344.742,126.759,350.043,124.143,357.233z"/>
				<path style="fill:#EBE8E5;stroke:#2A2A2A;stroke-linecap:round;stroke-linejoin:round;stroke-miterlimit:10;" d="
					M145.163,339.595c-7.535,1.329-13.376,3.924-13.045,5.798c0.33,1.874,6.706,2.315,14.242,0.987
					c7.535-1.329,13.375-3.924,13.045-5.798C159.074,338.708,152.698,338.266,145.163,339.595z"/>
				<path style="fill:#EBE8E5;stroke:#2A2A2A;stroke-linecap:round;stroke-linejoin:round;stroke-miterlimit:10;" d="
					M117.876,344.406c-7.535,1.328-13.376,3.924-13.045,5.798c0.33,1.874,6.706,2.315,14.241,0.987
					c7.535-1.329,13.376-3.924,13.045-5.798C131.788,343.519,125.411,343.077,117.876,344.406z"/>
			</g>
			<path style="fill:#2A2A2A;" d="M137.904,345.899c-0.28,3.196-3.097,5.56-6.292,5.28c-3.196-0.28-5.56-3.097-5.28-6.293
				c0.28-3.196,3.097-5.56,6.293-5.28C135.82,339.886,138.184,342.703,137.904,345.899z"/>
		</g>
		<g>
			<g>
				<path style="fill:#EBE8E5;stroke:#2A2A2A;stroke-linecap:round;stroke-linejoin:round;stroke-miterlimit:10;" d="
					M263.188,395.872c-7.643,0.345-13.77,2.165-13.685,4.065c0.086,1.9,6.351,3.162,13.995,2.817
					c7.643-0.345,13.77-2.165,13.685-4.065C277.097,396.789,270.831,395.527,263.188,395.872z"/>
				<path style="fill:#EBE8E5;stroke:#2A2A2A;stroke-linecap:round;stroke-linejoin:round;stroke-miterlimit:10;" d="
					M235.508,397.12c-7.643,0.345-13.77,2.165-13.685,4.065c0.086,1.9,6.351,3.162,13.995,2.817s13.77-2.165,13.685-4.065
					C249.417,398.037,243.152,396.775,235.508,397.12z"/>
				<path style="fill:#EBE8E5;stroke:#2A2A2A;stroke-linecap:round;stroke-linejoin:round;stroke-miterlimit:10;" d="
					M259.866,409.756c-4.12-6.447-8.76-10.843-10.363-9.819c-1.603,1.024,0.438,7.081,4.558,13.528
					c4.12,6.447,8.76,10.843,10.363,9.819C266.026,422.26,263.986,416.203,259.866,409.756z"/>
				<path style="fill:#EBE8E5;stroke:#2A2A2A;stroke-linecap:round;stroke-linejoin:round;stroke-miterlimit:10;" d="
					M244.945,386.409c-4.12-6.447-8.76-10.843-10.363-9.819c-1.603,1.024,0.438,7.081,4.558,13.528
					c4.12,6.447,8.76,10.843,10.363,9.819C251.106,398.913,249.066,392.856,244.945,386.409z"/>
				<path style="fill:#EBE8E5;stroke:#2A2A2A;stroke-linecap:round;stroke-linejoin:round;stroke-miterlimit:10;" d="
					M246.181,413.821c3.523-6.792,5.011-13.008,3.322-13.884s-5.914,3.919-9.437,10.711c-3.523,6.792-5.01,13.008-3.322,13.884
					C238.433,425.408,242.658,420.613,246.181,413.821z"/>
				<path style="fill:#EBE8E5;stroke:#2A2A2A;stroke-linecap:round;stroke-linejoin:round;stroke-miterlimit:10;" d="
					M258.94,389.226c3.523-6.792,5.01-13.008,3.322-13.884c-1.689-0.876-5.914,3.919-9.437,10.711
					c-3.523,6.792-5.011,13.008-3.322,13.884S255.417,396.017,258.94,389.226z"/>
				<path style="fill:#EBE8E5;stroke:#2A2A2A;stroke-linecap:round;stroke-linejoin:round;stroke-miterlimit:10;" d="
					M259.322,389.574c-6.447,4.12-10.843,8.76-9.819,10.363c1.024,1.603,7.081-0.438,13.528-4.558
					c6.447-4.12,10.843-8.76,9.819-10.363C271.826,383.414,265.769,385.454,259.322,389.574z"/>
				<path style="fill:#EBE8E5;stroke:#2A2A2A;stroke-linecap:round;stroke-linejoin:round;stroke-miterlimit:10;" d="
					M235.975,404.495c-6.447,4.12-10.843,8.76-9.819,10.363c1.024,1.603,7.081-0.438,13.529-4.558
					c6.447-4.12,10.843-8.76,9.819-10.363C248.479,398.334,242.422,400.375,235.975,404.495z"/>
				<path style="fill:#EBE8E5;stroke:#2A2A2A;stroke-linecap:round;stroke-linejoin:round;stroke-miterlimit:10;" d="
					M263.387,403.259c-6.792-3.523-13.008-5.01-13.884-3.322c-0.876,1.689,3.919,5.914,10.711,9.437
					c6.792,3.523,13.008,5.01,13.884,3.322C274.974,411.007,270.179,406.782,263.387,403.259z"/>
				<path style="fill:#EBE8E5;stroke:#2A2A2A;stroke-linecap:round;stroke-linejoin:round;stroke-miterlimit:10;" d="M238.792,390.5
					c-6.792-3.523-13.008-5.01-13.884-3.322c-0.876,1.689,3.919,5.914,10.711,9.437c6.792,3.523,13.008,5.01,13.884,3.322
					C250.379,398.248,245.583,394.023,238.792,390.5z"/>
				<path style="fill:#EBE8E5;stroke:#2A2A2A;stroke-linecap:round;stroke-linejoin:round;stroke-miterlimit:10;" d="
					M253.568,413.622c-0.345-7.644-2.165-13.77-4.065-13.685c-1.9,0.086-3.162,6.351-2.817,13.995
					c0.345,7.643,2.165,13.77,4.065,13.685C252.651,427.531,253.913,421.265,253.568,413.622z"/>
				<path style="fill:#EBE8E5;stroke:#2A2A2A;stroke-linecap:round;stroke-linejoin:round;stroke-miterlimit:10;" d="
					M252.32,385.942c-0.345-7.643-2.165-13.77-4.065-13.685s-3.162,6.351-2.817,13.995c0.345,7.643,2.165,13.77,4.065,13.685
					C251.404,399.851,252.665,393.586,252.32,385.942z"/>
			</g>
			<g>
				<path style="fill:#EBE8E5;stroke:#2A2A2A;stroke-linecap:round;stroke-linejoin:round;stroke-miterlimit:10;" d="
					M256.305,387.386c-5.161,5.648-8.206,11.268-6.802,12.551c1.404,1.283,6.727-2.255,11.888-7.904
					c5.161-5.648,8.206-11.268,6.802-12.551C266.789,378.199,261.466,381.738,256.305,387.386z"/>
				<path style="fill:#EBE8E5;stroke:#2A2A2A;stroke-linecap:round;stroke-linejoin:round;stroke-miterlimit:10;" d="
					M237.615,407.841c-5.161,5.648-8.206,11.268-6.802,12.551s6.727-2.255,11.888-7.904c5.161-5.648,8.206-11.268,6.802-12.551
					C248.099,398.654,242.776,402.192,237.615,407.841z"/>
				<path style="fill:#EBE8E5;stroke:#2A2A2A;stroke-linecap:round;stroke-linejoin:round;stroke-miterlimit:10;" d="
					M263.773,399.552c-7.472-1.646-13.861-1.473-14.27,0.385c-0.409,1.858,5.317,4.698,12.789,6.343
					c7.472,1.645,13.861,1.473,14.271-0.385C276.971,404.038,271.246,401.198,263.773,399.552z"/>
				<path style="fill:#EBE8E5;stroke:#2A2A2A;stroke-linecap:round;stroke-linejoin:round;stroke-miterlimit:10;" d="
					M236.714,393.594c-7.472-1.646-13.861-1.473-14.27,0.385c-0.409,1.858,5.317,4.698,12.789,6.343
					c7.472,1.646,13.861,1.473,14.27-0.385C249.912,398.079,244.186,395.239,236.714,393.594z"/>
				<path style="fill:#EBE8E5;stroke:#2A2A2A;stroke-linecap:round;stroke-linejoin:round;stroke-miterlimit:10;" d="
					M256.971,412.103c-2.311-7.294-5.655-12.741-7.468-12.166c-1.814,0.575-1.41,6.953,0.901,14.247
					c2.311,7.294,5.655,12.741,7.468,12.166C259.686,425.776,259.283,419.397,256.971,412.103z"/>
				<path style="fill:#EBE8E5;stroke:#2A2A2A;stroke-linecap:round;stroke-linejoin:round;stroke-miterlimit:10;" d="
					M248.602,385.69c-2.311-7.294-5.655-12.741-7.468-12.166c-1.814,0.575-1.41,6.953,0.901,14.247
					c2.311,7.294,5.655,12.741,7.468,12.166C251.317,399.362,250.913,392.984,248.602,385.69z"/>
				<path style="fill:#EBE8E5;stroke:#2A2A2A;stroke-linecap:round;stroke-linejoin:round;stroke-miterlimit:10;" d="
					M249.118,385.667c-1.645,7.472-1.473,13.861,0.385,14.27c1.858,0.409,4.698-5.317,6.343-12.789
					c1.645-7.472,1.473-13.861-0.385-14.271C253.604,372.469,250.764,378.194,249.118,385.667z"/>
				<path style="fill:#EBE8E5;stroke:#2A2A2A;stroke-linecap:round;stroke-linejoin:round;stroke-miterlimit:10;" d="
					M243.16,412.726c-1.646,7.472-1.473,13.861,0.385,14.271c1.858,0.409,4.698-5.317,6.343-12.789
					c1.645-7.472,1.473-13.861-0.385-14.27C247.645,399.528,244.805,405.254,243.16,412.726z"/>
				<path style="fill:#EBE8E5;stroke:#2A2A2A;stroke-linecap:round;stroke-linejoin:round;stroke-miterlimit:10;" d="
					M261.669,392.469c-7.294,2.311-12.741,5.655-12.166,7.468c0.575,1.814,6.953,1.41,14.247-0.901
					c7.294-2.311,12.741-5.655,12.166-7.468C275.342,389.754,268.963,390.158,261.669,392.469z"/>
				<path style="fill:#EBE8E5;stroke:#2A2A2A;stroke-linecap:round;stroke-linejoin:round;stroke-miterlimit:10;" d="
					M235.256,400.838c-7.294,2.311-12.741,5.655-12.166,7.468c0.575,1.814,6.953,1.41,14.247-0.901
					c7.294-2.311,12.741-5.655,12.166-7.468C248.928,398.124,242.55,398.527,235.256,400.838z"/>
				<path style="fill:#EBE8E5;stroke:#2A2A2A;stroke-linecap:round;stroke-linejoin:round;stroke-miterlimit:10;" d="
					M262.054,406.739c-5.648-5.161-11.268-8.207-12.551-6.802c-1.283,1.404,2.255,6.727,7.904,11.888
					c5.648,5.161,11.268,8.206,12.551,6.802C271.241,417.223,267.702,411.9,262.054,406.739z"/>
				<path style="fill:#EBE8E5;stroke:#2A2A2A;stroke-linecap:round;stroke-linejoin:round;stroke-miterlimit:10;" d="
					M241.599,388.049c-5.648-5.161-11.268-8.206-12.551-6.802c-1.283,1.404,2.255,6.727,7.904,11.888
					c5.648,5.161,11.268,8.206,12.551,6.802C250.786,398.533,247.248,393.21,241.599,388.049z"/>
			</g>
			<path style="fill:#2A2A2A;" d="M252.631,404.831c-2.703,1.727-6.295,0.936-8.022-1.767c-1.727-2.703-0.936-6.295,1.766-8.022
				c2.703-1.727,6.295-0.936,8.022,1.767C256.125,399.512,255.334,403.104,252.631,404.831z"/>
		</g>
		<g>
			<g>
				<path style="fill:#EBE8E5;stroke:#2A2A2A;stroke-linecap:round;stroke-linejoin:round;stroke-miterlimit:10;" d="
					M255.108,338.631c-3.291,4.701-5.012,9.175-3.843,9.993c1.169,0.818,4.785-2.329,8.076-7.029
					c3.291-4.701,5.012-9.175,3.844-9.993C262.016,330.783,258.4,333.931,255.108,338.631z"/>
				<path style="fill:#EBE8E5;stroke:#2A2A2A;stroke-linecap:round;stroke-linejoin:round;stroke-miterlimit:10;" d="
					M243.189,355.654c-3.292,4.701-5.012,9.175-3.844,9.993c1.169,0.818,4.785-2.329,8.076-7.029
					c3.292-4.701,5.012-9.175,3.844-9.993C250.096,347.806,246.48,350.953,243.189,355.654z"/>
				<path style="fill:#EBE8E5;stroke:#2A2A2A;stroke-linecap:round;stroke-linejoin:round;stroke-miterlimit:10;" d="
					M261.841,346.956c-5.717-0.5-10.452,0.246-10.576,1.668c-0.124,1.421,4.409,2.979,10.126,3.479
					c5.717,0.5,10.452-0.247,10.576-1.668C272.091,349.014,267.558,347.457,261.841,346.956z"/>
				<path style="fill:#EBE8E5;stroke:#2A2A2A;stroke-linecap:round;stroke-linejoin:round;stroke-miterlimit:10;" d="
					M241.139,345.145c-5.717-0.5-10.452,0.246-10.576,1.668c-0.124,1.421,4.409,2.979,10.126,3.479
					c5.717,0.5,10.452-0.247,10.576-1.668C251.389,347.203,246.856,345.645,241.139,345.145z"/>
				<path style="fill:#EBE8E5;stroke:#2A2A2A;stroke-linecap:round;stroke-linejoin:round;stroke-miterlimit:10;" d="
					M257.997,356.949c-2.425-5.201-5.439-8.928-6.732-8.325c-1.293,0.603-0.376,5.308,2.05,10.509
					c2.425,5.201,5.439,8.928,6.732,8.325C261.34,366.855,260.423,362.15,257.997,356.949z"/>
				<path style="fill:#EBE8E5;stroke:#2A2A2A;stroke-linecap:round;stroke-linejoin:round;stroke-miterlimit:10;" d="
					M249.215,338.116c-2.425-5.201-5.439-8.928-6.732-8.325c-1.293,0.603-0.376,5.308,2.049,10.509
					c2.425,5.201,5.439,8.928,6.732,8.325C252.558,348.021,251.641,343.316,249.215,338.116z"/>
				<path style="fill:#EBE8E5;stroke:#2A2A2A;stroke-linecap:round;stroke-linejoin:round;stroke-miterlimit:10;" d="
					M249.597,338.048c-0.5,5.717,0.247,10.452,1.668,10.576c1.421,0.124,2.979-4.409,3.479-10.126
					c0.5-5.716-0.247-10.452-1.668-10.576C251.655,327.798,250.097,332.332,249.597,338.048z"/>
				<path style="fill:#EBE8E5;stroke:#2A2A2A;stroke-linecap:round;stroke-linejoin:round;stroke-miterlimit:10;" d="
					M247.786,358.75c-0.5,5.717,0.247,10.452,1.668,10.576c1.421,0.124,2.979-4.409,3.479-10.126s-0.247-10.452-1.668-10.576
					C249.844,348.5,248.286,353.033,247.786,358.75z"/>
				<path style="fill:#EBE8E5;stroke:#2A2A2A;stroke-linecap:round;stroke-linejoin:round;stroke-miterlimit:10;" d="
					M259.59,341.892c-5.201,2.425-8.928,5.439-8.325,6.733c0.603,1.293,5.308,0.376,10.509-2.049
					c5.201-2.425,8.928-5.439,8.325-6.733C269.496,338.549,264.791,339.467,259.59,341.892z"/>
				<path style="fill:#EBE8E5;stroke:#2A2A2A;stroke-linecap:round;stroke-linejoin:round;stroke-miterlimit:10;" d="
					M240.756,350.674c-5.201,2.425-8.928,5.439-8.325,6.733s5.308,0.376,10.509-2.05c5.201-2.425,8.928-5.439,8.325-6.733
					C250.662,347.331,245.957,348.249,240.756,350.674z"/>
				<path style="fill:#EBE8E5;stroke:#2A2A2A;stroke-linecap:round;stroke-linejoin:round;stroke-miterlimit:10;" d="
					M261.258,352.468c-4.701-3.291-9.175-5.012-9.993-3.844c-0.818,1.169,2.329,4.785,7.029,8.076
					c4.701,3.292,9.175,5.012,9.993,3.844C269.106,359.375,265.959,355.759,261.258,352.468z"/>
				<path style="fill:#EBE8E5;stroke:#2A2A2A;stroke-linecap:round;stroke-linejoin:round;stroke-miterlimit:10;" d="
					M244.236,340.548c-4.701-3.291-9.175-5.012-9.993-3.843c-0.818,1.169,2.329,4.785,7.029,8.076
					c4.701,3.292,9.175,5.012,9.993,3.844C252.083,347.456,248.936,343.84,244.236,340.548z"/>
			</g>
			<path style="fill:#2A2A2A;" d="M255.605,349.004c-0.21,2.397-2.323,4.17-4.719,3.96s-4.17-2.323-3.96-4.719
				c0.21-2.397,2.323-4.17,4.719-3.96C254.041,344.494,255.814,346.607,255.605,349.004z"/>
		</g>
		<g>
			<g>
				<path style="fill:#EBE8E5;stroke:#2A2A2A;stroke-linecap:round;stroke-linejoin:round;stroke-miterlimit:10;" d="
					M360.342,339.379c-6.622,3.108-11.364,6.962-10.592,8.609c0.773,1.647,6.768,0.462,13.39-2.646
					c6.622-3.108,11.364-6.962,10.592-8.609C372.959,335.087,366.964,336.271,360.342,339.379z"/>
				<path style="fill:#EBE8E5;stroke:#2A2A2A;stroke-linecap:round;stroke-linejoin:round;stroke-miterlimit:10;" d="
					M336.36,350.633c-6.622,3.108-11.364,6.962-10.592,8.609c0.773,1.647,6.768,0.462,13.39-2.646
					c6.622-3.108,11.364-6.962,10.592-8.609C348.977,346.341,342.982,347.526,336.36,350.633z"/>
				<path style="fill:#EBE8E5;stroke:#2A2A2A;stroke-linecap:round;stroke-linejoin:round;stroke-miterlimit:10;" d="
					M362.501,352.856c-6.003-4.181-11.712-6.361-12.751-4.868c-1.04,1.492,2.984,6.092,8.986,10.273
					c6.003,4.181,11.712,6.361,12.751,4.868C372.527,361.637,368.504,357.037,362.501,352.856z"/>
				<path style="fill:#EBE8E5;stroke:#2A2A2A;stroke-linecap:round;stroke-linejoin:round;stroke-miterlimit:10;" d="
					M340.764,337.714c-6.003-4.181-11.712-6.361-12.751-4.868c-1.04,1.493,2.984,6.092,8.986,10.273
					c6.003,4.181,11.711,6.361,12.751,4.868C350.79,346.495,346.766,341.896,340.764,337.714z"/>
				<path style="fill:#EBE8E5;stroke:#2A2A2A;stroke-linecap:round;stroke-linejoin:round;stroke-miterlimit:10;" d="
					M351.91,361.465c0.62-7.289-0.347-13.323-2.16-13.477c-1.812-0.154-3.784,5.63-4.404,12.919s0.347,13.323,2.159,13.477
					C349.318,374.538,351.29,368.754,351.91,361.465z"/>
				<path style="fill:#EBE8E5;stroke:#2A2A2A;stroke-linecap:round;stroke-linejoin:round;stroke-miterlimit:10;" d="
					M354.154,335.069c0.62-7.289-0.347-13.323-2.159-13.477c-1.812-0.154-3.784,5.63-4.404,12.919
					c-0.62,7.289,0.347,13.323,2.16,13.477C351.563,348.142,353.534,342.358,354.154,335.069z"/>
				<path style="fill:#EBE8E5;stroke:#2A2A2A;stroke-linecap:round;stroke-linejoin:round;stroke-miterlimit:10;" d="
					M354.618,335.236c-4.181,6.003-6.361,11.712-4.868,12.751c1.493,1.04,6.092-2.984,10.273-8.986
					c4.181-6.003,6.361-11.712,4.868-12.751C363.399,325.21,358.8,329.234,354.618,335.236z"/>
				<path style="fill:#EBE8E5;stroke:#2A2A2A;stroke-linecap:round;stroke-linejoin:round;stroke-miterlimit:10;" d="
					M339.477,356.974c-4.181,6.003-6.361,11.712-4.868,12.751c1.492,1.04,6.092-2.984,10.273-8.986
					c4.181-6.003,6.361-11.712,4.868-12.751C348.258,346.948,343.658,350.971,339.477,356.974z"/>
				<path style="fill:#EBE8E5;stroke:#2A2A2A;stroke-linecap:round;stroke-linejoin:round;stroke-miterlimit:10;" d="
					M363.227,345.828c-7.289-0.62-13.323,0.347-13.477,2.16c-0.154,1.812,5.63,3.784,12.919,4.404
					c7.289,0.62,13.323-0.347,13.477-2.16C376.3,348.419,370.516,346.448,363.227,345.828z"/>
				<path style="fill:#EBE8E5;stroke:#2A2A2A;stroke-linecap:round;stroke-linejoin:round;stroke-miterlimit:10;" d="
					M336.831,343.584c-7.289-0.62-13.323,0.347-13.477,2.16c-0.154,1.812,5.63,3.784,12.919,4.404
					c7.289,0.62,13.323-0.347,13.477-2.16C349.904,346.175,344.12,344.204,336.831,343.584z"/>
				<path style="fill:#EBE8E5;stroke:#2A2A2A;stroke-linecap:round;stroke-linejoin:round;stroke-miterlimit:10;" d="
					M358.359,358.579c-3.108-6.622-6.962-11.364-8.609-10.592c-1.647,0.773-0.462,6.768,2.646,13.39
					c3.108,6.622,6.962,11.364,8.609,10.592C362.651,371.197,361.467,365.202,358.359,358.579z"/>
				<path style="fill:#EBE8E5;stroke:#2A2A2A;stroke-linecap:round;stroke-linejoin:round;stroke-miterlimit:10;" d="
					M347.104,334.598c-3.108-6.622-6.962-11.364-8.609-10.592c-1.647,0.773-0.462,6.768,2.646,13.39
					c3.108,6.622,6.962,11.364,8.609,10.592C351.397,347.215,350.212,341.22,347.104,334.598z"/>
			</g>
			<path style="fill:#2A2A2A;" d="M354.307,351.162c-1.753,2.517-5.214,3.136-7.731,1.383c-2.517-1.753-3.136-5.214-1.383-7.731
				s5.214-3.136,7.731-1.383C355.441,345.184,356.06,348.645,354.307,351.162z"/>
		</g>
		<g>
			<g>
				<path style="fill:#EBE8E5;stroke:#2A2A2A;stroke-linecap:round;stroke-linejoin:round;stroke-miterlimit:10;" d="
					M216.567,399.749c-3.292,4.701-5.012,9.175-3.843,9.993c1.169,0.819,4.785-2.329,8.076-7.029
					c3.292-4.701,5.012-9.175,3.844-9.993C223.474,391.901,219.858,395.049,216.567,399.749z"/>
				<path style="fill:#EBE8E5;stroke:#2A2A2A;stroke-linecap:round;stroke-linejoin:round;stroke-miterlimit:10;" d="
					M204.647,416.772c-3.292,4.701-5.012,9.175-3.844,9.993c1.169,0.819,4.785-2.329,8.076-7.029s5.012-9.175,3.844-9.993
					C211.555,408.924,207.939,412.071,204.647,416.772z"/>
				<path style="fill:#EBE8E5;stroke:#2A2A2A;stroke-linecap:round;stroke-linejoin:round;stroke-miterlimit:10;" d="
					M223.299,408.074c-5.717-0.5-10.452,0.247-10.576,1.668c-0.124,1.421,4.409,2.979,10.126,3.479
					c5.717,0.5,10.452-0.246,10.576-1.668C233.549,410.132,229.016,408.574,223.299,408.074z"/>
				<path style="fill:#EBE8E5;stroke:#2A2A2A;stroke-linecap:round;stroke-linejoin:round;stroke-miterlimit:10;" d="
					M202.598,406.263c-5.717-0.5-10.452,0.247-10.576,1.668c-0.124,1.421,4.409,2.979,10.126,3.479
					c5.717,0.5,10.452-0.247,10.576-1.668C212.848,408.321,208.314,406.763,202.598,406.263z"/>
				<path style="fill:#EBE8E5;stroke:#2A2A2A;stroke-linecap:round;stroke-linejoin:round;stroke-miterlimit:10;" d="
					M219.456,418.067c-2.425-5.201-5.439-8.928-6.732-8.325c-1.293,0.603-0.376,5.308,2.05,10.509
					c2.425,5.201,5.439,8.928,6.732,8.325C222.799,427.973,221.881,423.268,219.456,418.067z"/>
				<path style="fill:#EBE8E5;stroke:#2A2A2A;stroke-linecap:round;stroke-linejoin:round;stroke-miterlimit:10;" d="
					M210.674,399.233c-2.425-5.201-5.439-8.928-6.732-8.325c-1.293,0.603-0.376,5.308,2.05,10.509
					c2.425,5.201,5.439,8.928,6.732,8.325C214.016,409.139,213.099,404.434,210.674,399.233z"/>
				<path style="fill:#EBE8E5;stroke:#2A2A2A;stroke-linecap:round;stroke-linejoin:round;stroke-miterlimit:10;" d="
					M211.055,399.166c-0.5,5.716,0.247,10.452,1.668,10.576c1.421,0.124,2.979-4.409,3.479-10.125
					c0.5-5.717-0.247-10.452-1.668-10.576C213.113,388.916,211.556,393.45,211.055,399.166z"/>
				<path style="fill:#EBE8E5;stroke:#2A2A2A;stroke-linecap:round;stroke-linejoin:round;stroke-miterlimit:10;" d="
					M209.244,419.868c-0.5,5.717,0.247,10.452,1.668,10.576c1.421,0.124,2.979-4.409,3.479-10.126
					c0.5-5.716-0.247-10.452-1.668-10.576C211.302,409.618,209.744,414.151,209.244,419.868z"/>
				<path style="fill:#EBE8E5;stroke:#2A2A2A;stroke-linecap:round;stroke-linejoin:round;stroke-miterlimit:10;" d="
					M221.048,403.01c-5.201,2.425-8.928,5.439-8.325,6.732c0.603,1.293,5.308,0.376,10.509-2.049s8.928-5.439,8.325-6.732
					C230.954,399.667,226.249,400.585,221.048,403.01z"/>
				<path style="fill:#EBE8E5;stroke:#2A2A2A;stroke-linecap:round;stroke-linejoin:round;stroke-miterlimit:10;" d="
					M202.215,411.792c-5.201,2.425-8.928,5.439-8.325,6.733c0.603,1.293,5.308,0.375,10.509-2.05
					c5.201-2.425,8.928-5.439,8.325-6.733C212.12,408.449,207.415,409.367,202.215,411.792z"/>
				<path style="fill:#EBE8E5;stroke:#2A2A2A;stroke-linecap:round;stroke-linejoin:round;stroke-miterlimit:10;" d="
					M222.716,413.586c-4.701-3.291-9.175-5.012-9.993-3.844c-0.818,1.169,2.329,4.785,7.029,8.076
					c4.701,3.292,9.175,5.012,9.993,3.844C230.564,420.493,227.417,416.877,222.716,413.586z"/>
				<path style="fill:#EBE8E5;stroke:#2A2A2A;stroke-linecap:round;stroke-linejoin:round;stroke-miterlimit:10;" d="
					M205.694,401.666c-4.701-3.292-9.175-5.012-9.993-3.844c-0.818,1.169,2.329,4.785,7.029,8.076
					c4.701,3.292,9.175,5.012,9.993,3.844C213.542,408.573,210.395,404.958,205.694,401.666z"/>
			</g>
			<path style="fill:#2A2A2A;" d="M217.063,410.122c-0.21,2.397-2.323,4.17-4.719,3.96c-2.397-0.21-4.17-2.323-3.96-4.719
				c0.21-2.397,2.323-4.17,4.719-3.96C215.5,405.612,217.273,407.725,217.063,410.122z"/>
		</g>
		<g>
			<g>
				<path style="fill:#EBE8E5;stroke:#2A2A2A;stroke-linecap:round;stroke-linejoin:round;stroke-miterlimit:10;" d="
					M162.209,392.399c-3.291,4.701-5.012,9.175-3.843,9.993c1.169,0.818,4.785-2.329,8.076-7.029
					c3.291-4.701,5.012-9.175,3.843-9.993C169.116,384.552,165.5,387.699,162.209,392.399z"/>
				<path style="fill:#EBE8E5;stroke:#2A2A2A;stroke-linecap:round;stroke-linejoin:round;stroke-miterlimit:10;" d="
					M150.289,409.422c-3.291,4.701-5.012,9.175-3.844,9.993c1.169,0.818,4.785-2.329,8.076-7.029
					c3.291-4.701,5.012-9.175,3.844-9.993C157.197,401.574,153.581,404.721,150.289,409.422z"/>
				<path style="fill:#EBE8E5;stroke:#2A2A2A;stroke-linecap:round;stroke-linejoin:round;stroke-miterlimit:10;" d="
					M168.941,400.724c-5.717-0.5-10.452,0.247-10.576,1.668c-0.124,1.421,4.409,2.979,10.126,3.479
					c5.717,0.5,10.452-0.247,10.576-1.668C179.191,402.783,174.658,401.225,168.941,400.724z"/>
				<path style="fill:#EBE8E5;stroke:#2A2A2A;stroke-linecap:round;stroke-linejoin:round;stroke-miterlimit:10;" d="
					M148.24,398.913c-5.717-0.5-10.452,0.247-10.576,1.668c-0.124,1.421,4.409,2.979,10.126,3.479
					c5.717,0.5,10.452-0.246,10.576-1.668C158.49,400.971,153.956,399.413,148.24,398.913z"/>
				<path style="fill:#EBE8E5;stroke:#2A2A2A;stroke-linecap:round;stroke-linejoin:round;stroke-miterlimit:10;" d="
					M165.098,410.718c-2.425-5.201-5.439-8.928-6.732-8.325c-1.293,0.603-0.376,5.308,2.049,10.509s5.439,8.928,6.732,8.325
					C168.441,420.623,167.523,415.918,165.098,410.718z"/>
				<path style="fill:#EBE8E5;stroke:#2A2A2A;stroke-linecap:round;stroke-linejoin:round;stroke-miterlimit:10;" d="
					M156.316,391.884c-2.425-5.201-5.439-8.928-6.732-8.325s-0.376,5.308,2.05,10.509c2.425,5.201,5.439,8.928,6.732,8.325
					C159.658,401.789,158.741,397.085,156.316,391.884z"/>
				<path style="fill:#EBE8E5;stroke:#2A2A2A;stroke-linecap:round;stroke-linejoin:round;stroke-miterlimit:10;" d="
					M156.697,391.816c-0.5,5.717,0.247,10.452,1.668,10.576s2.979-4.409,3.479-10.126c0.5-5.717-0.246-10.452-1.668-10.576
					S157.198,386.1,156.697,391.816z"/>
				<path style="fill:#EBE8E5;stroke:#2A2A2A;stroke-linecap:round;stroke-linejoin:round;stroke-miterlimit:10;" d="
					M154.886,412.518c-0.5,5.717,0.247,10.452,1.668,10.576c1.421,0.124,2.979-4.409,3.479-10.126
					c0.5-5.717-0.246-10.452-1.668-10.576S155.386,406.801,154.886,412.518z"/>
				<path style="fill:#EBE8E5;stroke:#2A2A2A;stroke-linecap:round;stroke-linejoin:round;stroke-miterlimit:10;" d="
					M166.691,395.66c-5.201,2.425-8.928,5.439-8.325,6.732c0.603,1.293,5.308,0.376,10.509-2.05s8.928-5.439,8.325-6.733
					C176.596,392.317,171.891,393.235,166.691,395.66z"/>
				<path style="fill:#EBE8E5;stroke:#2A2A2A;stroke-linecap:round;stroke-linejoin:round;stroke-miterlimit:10;" d="
					M147.857,404.442c-5.201,2.425-8.928,5.439-8.325,6.732c0.603,1.293,5.308,0.376,10.509-2.049
					c5.201-2.425,8.928-5.439,8.325-6.733C157.762,401.099,153.057,402.017,147.857,404.442z"/>
				<path style="fill:#EBE8E5;stroke:#2A2A2A;stroke-linecap:round;stroke-linejoin:round;stroke-miterlimit:10;" d="
					M168.358,406.236c-4.701-3.292-9.175-5.012-9.993-3.844s2.329,4.785,7.029,8.076c4.701,3.291,9.175,5.012,9.993,3.843
					C176.206,413.143,173.059,409.527,168.358,406.236z"/>
				<path style="fill:#EBE8E5;stroke:#2A2A2A;stroke-linecap:round;stroke-linejoin:round;stroke-miterlimit:10;" d="
					M151.336,394.316c-4.701-3.292-9.175-5.012-9.993-3.844c-0.818,1.169,2.329,4.784,7.029,8.076
					c4.701,3.292,9.175,5.012,9.993,3.844S156.037,397.608,151.336,394.316z"/>
			</g>
			<path style="fill:#2A2A2A;" d="M162.705,402.772c-0.21,2.397-2.323,4.17-4.719,3.96c-2.397-0.21-4.17-2.323-3.96-4.719
				c0.21-2.397,2.323-4.17,4.719-3.96C161.142,398.262,162.915,400.375,162.705,402.772z"/>
		</g>
		<g>
			<g>
				<path style="fill:#C4BDB7;" d="M311.77,327.653c-3.291,4.701-5.012,9.175-3.843,9.993c1.169,0.818,4.784-2.329,8.076-7.029
					c3.292-4.701,5.012-9.175,3.844-9.993C318.678,319.806,315.062,322.953,311.77,327.653z"/>
				<path style="fill:#C4BDB7;" d="M299.851,344.676c-3.291,4.701-5.012,9.175-3.844,9.993c1.169,0.818,4.785-2.329,8.076-7.029
					c3.292-4.701,5.012-9.175,3.844-9.993C306.758,336.828,303.142,339.975,299.851,344.676z"/>
				<path style="fill:#C4BDB7;" d="M318.503,335.978c-5.717-0.5-10.452,0.247-10.576,1.668c-0.124,1.421,4.409,2.979,10.126,3.479
					c5.716,0.5,10.452-0.247,10.576-1.668C328.753,338.036,324.219,336.479,318.503,335.978z"/>
				<path style="fill:#C4BDB7;" d="M297.801,334.167c-5.717-0.5-10.452,0.247-10.576,1.668c-0.124,1.421,4.409,2.979,10.126,3.479
					c5.717,0.5,10.452-0.246,10.576-1.668C308.051,336.225,303.518,334.667,297.801,334.167z"/>
				<path style="fill:#C4BDB7;" d="M314.659,345.972c-2.425-5.201-5.439-8.928-6.732-8.325c-1.293,0.603-0.376,5.308,2.049,10.509
					c2.425,5.201,5.439,8.928,6.733,8.325C318.002,355.877,317.085,351.172,314.659,345.972z"/>
				<path style="fill:#C4BDB7;" d="M305.877,327.138c-2.425-5.201-5.439-8.928-6.732-8.325c-1.293,0.603-0.376,5.308,2.05,10.509
					c2.425,5.201,5.439,8.928,6.733,8.325C309.22,337.043,308.302,332.339,305.877,327.138z"/>
				<path style="fill:#C4BDB7;" d="M306.259,327.07c-0.5,5.717,0.247,10.452,1.668,10.576c1.421,0.124,2.979-4.409,3.479-10.126
					c0.5-5.717-0.246-10.452-1.668-10.576C308.317,316.82,306.759,321.354,306.259,327.07z"/>
				<path style="fill:#C4BDB7;" d="M304.448,347.772c-0.5,5.717,0.247,10.452,1.668,10.576c1.421,0.124,2.979-4.409,3.479-10.126
					c0.5-5.717-0.246-10.452-1.668-10.576C306.505,337.522,304.948,342.055,304.448,347.772z"/>
				<path style="fill:#C4BDB7;" d="M316.252,330.914c-5.201,2.425-8.928,5.439-8.325,6.732c0.603,1.293,5.308,0.376,10.509-2.05
					c5.201-2.425,8.928-5.439,8.325-6.733C326.158,327.571,321.453,328.489,316.252,330.914z"/>
				<path style="fill:#C4BDB7;" d="M297.418,339.696c-5.201,2.425-8.928,5.439-8.325,6.732c0.603,1.293,5.308,0.375,10.509-2.05
					c5.201-2.425,8.928-5.439,8.325-6.733C307.324,336.353,302.619,337.271,297.418,339.696z"/>
				<path style="fill:#C4BDB7;" d="M317.92,341.49c-4.701-3.292-9.175-5.012-9.993-3.844c-0.818,1.169,2.329,4.785,7.029,8.076
					c4.701,3.291,9.175,5.012,9.993,3.843C325.768,348.397,322.62,344.781,317.92,341.49z"/>
				<path style="fill:#C4BDB7;" d="M300.897,329.57c-4.701-3.292-9.175-5.012-9.993-3.844c-0.818,1.169,2.329,4.785,7.029,8.076
					c4.701,3.292,9.175,5.012,9.993,3.844C308.745,336.478,305.598,332.862,300.897,329.57z"/>
			</g>
			<path style="fill:#2A2A2A;" d="M312.267,338.026c-0.21,2.397-2.323,4.17-4.72,3.96c-2.397-0.21-4.17-2.323-3.96-4.719
				c0.21-2.397,2.323-4.17,4.719-3.96C310.703,333.516,312.476,335.629,312.267,338.026z"/>
		</g>
		<g>
			<g>
				<path style="fill:#C4BDB7;" d="M151.682,425.596c-2.469,3.525-3.759,6.881-2.883,7.495c0.877,0.614,3.588-1.746,6.057-5.272
					c2.469-3.525,3.759-6.881,2.883-7.495C156.863,419.711,154.151,422.071,151.682,425.596z"/>
				<path style="fill:#C4BDB7;" d="M142.742,438.363c-2.469,3.526-3.759,6.881-2.883,7.495c0.876,0.614,3.588-1.747,6.057-5.272
					c2.469-3.525,3.759-6.881,2.883-7.495C147.923,432.477,145.211,434.838,142.742,438.363z"/>
				<path style="fill:#C4BDB7;" d="M156.731,431.84c-4.287-0.375-7.839,0.185-7.932,1.251c-0.093,1.066,3.307,2.234,7.594,2.61
					c4.287,0.375,7.839-0.185,7.932-1.251C164.419,433.384,161.019,432.215,156.731,431.84z"/>
				<path style="fill:#C4BDB7;" d="M141.205,430.482c-4.287-0.375-7.839,0.185-7.932,1.251c-0.093,1.066,3.307,2.234,7.594,2.609
					c4.287,0.375,7.839-0.185,7.932-1.251C148.893,432.025,145.493,430.857,141.205,430.482z"/>
				<path style="fill:#C4BDB7;" d="M153.849,439.335c-1.819-3.901-4.079-6.696-5.049-6.244c-0.97,0.452-0.282,3.981,1.537,7.882
					c1.819,3.901,4.08,6.696,5.049,6.244C156.356,446.764,155.668,443.236,153.849,439.335z"/>
				<path style="fill:#C4BDB7;" d="M147.262,425.21c-1.819-3.901-4.08-6.696-5.049-6.244c-0.97,0.452-0.282,3.981,1.537,7.882
					c1.819,3.901,4.079,6.696,5.049,6.244C149.769,432.639,149.081,429.11,147.262,425.21z"/>
				<path style="fill:#C4BDB7;" d="M147.548,425.159c-0.375,4.288,0.185,7.839,1.251,7.932c1.066,0.093,2.234-3.307,2.61-7.594
					c0.375-4.287-0.185-7.839-1.251-7.932C149.092,417.472,147.924,420.872,147.548,425.159z"/>
				<path style="fill:#C4BDB7;" d="M146.19,440.685c-0.375,4.288,0.185,7.839,1.251,7.932c1.066,0.093,2.234-3.307,2.61-7.594
					c0.375-4.287-0.185-7.839-1.251-7.932C147.733,432.998,146.565,436.398,146.19,440.685z"/>
				<path style="fill:#C4BDB7;" d="M155.043,428.042c-3.901,1.819-6.696,4.079-6.244,5.049c0.452,0.97,3.981,0.282,7.882-1.537
					c3.901-1.819,6.696-4.079,6.244-5.049C162.473,425.535,158.944,426.223,155.043,428.042z"/>
				<path style="fill:#C4BDB7;" d="M140.918,434.628c-3.901,1.819-6.696,4.079-6.244,5.049c0.452,0.97,3.981,0.282,7.882-1.537
					c3.901-1.819,6.696-4.079,6.244-5.049C148.347,432.121,144.818,432.81,140.918,434.628z"/>
				<path style="fill:#C4BDB7;" d="M156.294,435.974c-3.525-2.469-6.881-3.759-7.495-2.883c-0.614,0.877,1.747,3.588,5.272,6.057
					c3.525,2.469,6.881,3.759,7.495,2.883C162.18,441.154,159.82,438.443,156.294,435.974z"/>
				<path style="fill:#C4BDB7;" d="M143.527,427.034c-3.525-2.469-6.881-3.759-7.495-2.883c-0.614,0.877,1.747,3.588,5.272,6.057
					s6.881,3.759,7.495,2.883C149.413,432.215,147.053,429.503,143.527,427.034z"/>
			</g>
			<path style="fill:#2A2A2A;" d="M152.054,433.376c-0.157,1.798-1.742,3.127-3.54,2.97c-1.798-0.157-3.127-1.742-2.97-3.54
				c0.157-1.798,1.742-3.127,3.54-2.97C150.882,429.994,152.212,431.578,152.054,433.376z"/>
		</g>
		<g>
			<g>
				<path style="fill:#C4BDB7;" d="M100.504,319.572c-2.469,3.525-3.759,6.881-2.883,7.495c0.877,0.614,3.588-1.747,6.057-5.272
					c2.469-3.526,3.759-6.881,2.883-7.495C105.685,313.686,102.973,316.047,100.504,319.572z"/>
				<path style="fill:#C4BDB7;" d="M91.564,332.339c-2.469,3.525-3.759,6.881-2.883,7.495c0.877,0.614,3.588-1.747,6.057-5.272
					c2.469-3.525,3.759-6.881,2.883-7.495C96.745,326.453,94.033,328.814,91.564,332.339z"/>
				<path style="fill:#C4BDB7;" d="M105.553,325.816c-4.287-0.375-7.839,0.185-7.932,1.251c-0.093,1.066,3.307,2.234,7.594,2.61
					c4.287,0.375,7.839-0.185,7.932-1.251C113.241,327.36,109.841,326.191,105.553,325.816z"/>
				<path style="fill:#C4BDB7;" d="M90.027,324.457c-4.287-0.375-7.839,0.185-7.932,1.251c-0.093,1.066,3.307,2.234,7.594,2.609
					c4.287,0.375,7.839-0.185,7.932-1.251C97.715,326.001,94.315,324.833,90.027,324.457z"/>
				<path style="fill:#C4BDB7;" d="M102.671,333.311c-1.819-3.901-4.08-6.696-5.049-6.244c-0.97,0.452-0.282,3.981,1.537,7.882
					c1.819,3.901,4.079,6.696,5.049,6.244C105.178,340.74,104.49,337.211,102.671,333.311z"/>
				<path style="fill:#C4BDB7;" d="M96.084,319.185c-1.819-3.901-4.08-6.696-5.049-6.244c-0.97,0.452-0.282,3.981,1.537,7.882
					c1.819,3.901,4.079,6.696,5.049,6.244C98.591,326.615,97.903,323.086,96.084,319.185z"/>
				<path style="fill:#C4BDB7;" d="M96.371,319.135c-0.375,4.287,0.185,7.839,1.251,7.932c1.066,0.093,2.234-3.307,2.61-7.594
					c0.375-4.288-0.185-7.839-1.251-7.932C97.914,311.448,96.746,314.848,96.371,319.135z"/>
				<path style="fill:#C4BDB7;" d="M95.012,334.661c-0.375,4.288,0.185,7.839,1.251,7.932c1.066,0.093,2.234-3.307,2.61-7.594
					c0.375-4.287-0.185-7.839-1.251-7.932C96.555,326.974,95.387,330.374,95.012,334.661z"/>
				<path style="fill:#C4BDB7;" d="M103.865,322.018c-3.901,1.819-6.696,4.079-6.244,5.049c0.452,0.97,3.981,0.282,7.882-1.537
					c3.901-1.819,6.696-4.079,6.244-5.049C111.295,319.511,107.766,320.199,103.865,322.018z"/>
				<path style="fill:#C4BDB7;" d="M89.74,328.604c-3.901,1.819-6.696,4.079-6.244,5.049s3.981,0.282,7.882-1.537
					c3.901-1.819,6.696-4.079,6.244-5.049C97.169,326.097,93.641,326.785,89.74,328.604z"/>
				<path style="fill:#C4BDB7;" d="M105.116,329.95c-3.525-2.469-6.881-3.759-7.495-2.883c-0.614,0.877,1.747,3.588,5.272,6.057
					c3.525,2.469,6.881,3.759,7.495,2.883C111.002,335.13,108.642,332.418,105.116,329.95z"/>
				<path style="fill:#C4BDB7;" d="M92.35,321.01c-3.525-2.469-6.881-3.759-7.495-2.883c-0.614,0.877,1.747,3.588,5.272,6.057
					c3.525,2.469,6.881,3.759,7.495,2.883C98.235,326.19,95.875,323.479,92.35,321.01z"/>
			</g>
			<path style="fill:#2A2A2A;" d="M100.876,327.352c-0.157,1.798-1.742,3.127-3.54,2.97c-1.798-0.157-3.127-1.742-2.97-3.539
				c0.157-1.798,1.742-3.127,3.54-2.97C99.704,323.97,101.034,325.554,100.876,327.352z"/>
		</g>
	</g>
</g>
</svg>
