<?xml version="1.0" encoding="utf-8"?>
<!-- Generator: Adobe Illustrator 27.5.0, SVG Export Plug-In . SVG Version: 6.00 Build 0)  -->
<svg version="1.1" xmlns="http://www.w3.org/2000/svg" xmlns:xlink="http://www.w3.org/1999/xlink" x="0px" y="0px"
	 viewBox="0 0 750 500" style="enable-background:new 0 0 750 500;" xml:space="preserve">
<g id="BACKGROUND">
	<rect style="fill:#526041;" width="750" height="500"/>
</g>
<g id="OBJECTS">
	<g>
		<defs>
			<rect id="SVGID_1_" width="750" height="500"/>
		</defs>
		<clipPath id="SVGID_00000140695494888110222820000016314688838125476020_">
			<use xlink:href="#SVGID_1_"  style="overflow:visible;"/>
		</clipPath>
		<path style="clip-path:url(#SVGID_00000140695494888110222820000016314688838125476020_);fill:#404A32;" d="M75.076,219.013
			c41.419-52.982,103.83-51.844,208.634-127.576c17.18-12.414,34.077-26.063,45.275-44.059
			c11.199-17.996,15.915-41.221,7.499-60.674c-11.411-26.376-41.83-37.903-69.2-46.665C2.767-144.636-15.377-116.928-19.392-55.168
			c-11.225,172.663-82.84,350.559-41.544,523.748c9.655,40.494,23.844,54.01,65.395,60.293
			c149.848,22.66,74.229-28.832,64.877-43.593C20.649,408.427,35.308,269.883,75.076,219.013z"/>
		<path style="clip-path:url(#SVGID_00000140695494888110222820000016314688838125476020_);fill:#404A32;" d="M446.085,491.88
			c-15.62-52.861,77.72-76.874,119.497-133.478c10.795-14.626,18.715-33.892,11.976-50.774
			c-12.097-30.303-62.091-33.384-69.477-65.166c-4.477-19.263,10.609-37.951,27.681-47.934
			c29.882-17.474,93.471-29.88,44.469-62.774c-81.718-54.855-82.415-148.613-27.389-186.362
			c40.784-27.979,159.986-33.333,209.297-31.926c77.669,2.216,65.012,21.571,103.107,506.976
			c3.351,42.698,0.412,61.382-30.424,86.012c-96.696,77.236-191.163,54.494-289.427,39.976
			C502.732,540.127,460.984,542.3,446.085,491.88z"/>
		<path style="clip-path:url(#SVGID_00000140695494888110222820000016314688838125476020_);fill:#718458;" d="M86.185,75.759
			c37.481-5.764,107.186,20.041,161.525-22.133c28.985-22.496,43.106-66.582,23.382-97.521
			C254.143-70.485,220-79.238,189.028-85.159c-40.633-7.769-82.733-14.394-123.077-5.241C-7.515-73.731-73.054-4.535-82.239,102.102
			c-1.692,19.643-8.973,86.111,16.986,90.093c20.959,3.215,53.519-52.201,67.303-65.298C25.668,104.457,52.857,80.884,86.185,75.759
			z"/>
		<path style="clip-path:url(#SVGID_00000140695494888110222820000016314688838125476020_);fill:#718458;" d="M689.727,398.841
			c7.342-32.052-15.528-62.148-33.954-89.382c-18.427-27.234-32.97-65.701-11.813-90.873c9.299-11.064,23.47-16.519,35.444-24.613
			c11.974-8.094,22.741-21.872,19.057-35.847c-2.923-11.087-13.689-17.892-23.231-24.251
			c-88.054-58.683-78.288-156.389,51.554-169.532c86.143-8.72,107.283,33.835,101.588,116.631
			c-36.717,533.854,63.539,452.44-211.776,470.317c-31.288,2.032-63.89,1.507-44.247-42.734
			C595.055,457.416,676.466,456.726,689.727,398.841z"/>
		<path style="clip-path:url(#SVGID_00000140695494888110222820000016314688838125476020_);fill:#5C6C48;" d="M702.305,293.69
			c-3.257-46.816,29.059-90.465,26.655-137.333c-2.436-47.489-40.436-89.389-33.161-137.406
			c8.143-53.746,70.184-66.173,93.356-12.184c11.744,27.363,8.431,27.814,10.911,440.842c0.274,45.733-9.618,57.339-40.506,71.097
			c-23.881,10.637-105.368,39.306-79.99-21.641c9.145-21.962,28.859-37.152,36.551-61.259
			C737.112,370.019,705.327,337.131,702.305,293.69z"/>
		<path style="clip-path:url(#SVGID_00000140695494888110222820000016314688838125476020_);fill:#404A32;" d="M111.362,447.023
			c1.531-47.188,42.054-79.956,53.918-74.704c7.692,3.405,12.398,26.222,45.813,59.921c47.387,47.791,70.631-71.296,128.457-55.107
			c38.417,10.755,181.698,211.693-166.029,148.424C133.476,518.27,109.947,490.64,111.362,447.023z"/>
		<path style="clip-path:url(#SVGID_00000140695494888110222820000016314688838125476020_);fill:#89A16D;" d="M762.483,173.093
			c5.882-6.573,17.982,6.67-28.661,51.034c38.929-8.239,58.666,15.021,18.111,70.259c-5.717-11.752,0.916-26.438-3.798-38.627
			c-2.576-6.661-8.185-4.446-9.8,2.038c-4.113,16.519,6.251,35.341,2.292,44.236c-3.307,7.43-22.732,18.016-40.242,20.433
			c36.668-39.682,27.375-62.128,20.573-55.579c-6.329,6.094-7.81,13.733-16.168,41.346c-5.029,16.614-10.272,26.963-45.975,28.135
			c18.996-13.311,39.451-28.743,44.269-51.432c0.504-2.372,0.151-5.736-2.258-6.017c-10.18-1.188-18.229,33.554-38.154,50.314
			c-10.312,8.674-25.126,13.245-37.574,8.083c52.91-23.376,57.349-53.41,45.363-49.898c-18.897,5.538-23.674,32.708-41.964,40.006
			c-11.127,4.44-23.62,0.051-34.774-4.318c13.347-15.613,41.267-7.479,58.104-39.908c6.964-13.411-22.855,0.229-44.742,23.499
			c-2.067-10.379,4.099-21.009,12.605-27.306c17.07-12.637,41.382-11.099,58.505-23.642c6.513-4.771,1.257-9.601-6.285-8.237
			c-16.506,2.984-32.3,9.833-45.759,19.843c5.904-11.834,12.812-24.624,25.099-29.517c16.182-6.445,45.683,5.094,51.562-5.872
			c2.319-4.326-0.149-14.556-16.909-12.666c-9.575,1.08-18.937,4.009-27.42,8.579c9.669-17.012,24.015-34.027,43.487-35.955
			c23.325-2.309,17.406,17.875,21.687,24.751C733.42,232.357,749.932,187.12,762.483,173.093z"/>
		<path style="opacity:0.75;clip-path:url(#SVGID_00000140695494888110222820000016314688838125476020_);fill:#839866;" d="
			M602.671,17.706c2.557,17.215-22.139,23.671-28.361,7.449c-1.289-3.361-2.054-19.395-11.098-16.843
			c-6.021,1.699-7.755,14.979-16.337,21.523c-10.145,7.737-25.052-0.942-14.339-14.965c2.772-3.628,6.338-6.742,8.21-10.906
			c1.871-4.165,1.278-10.012-2.794-12.077c-5.421-2.75-18.725,4.02-33.369-0.157c-25.816-7.362-18.135-35.67-2.594-33.802
			c11.954,1.437,15.766,18.967,28.467,20.885c4.127,0.623,8.793-1.117,10.658-4.851c2.922-5.85-1.919-13-0.207-19.311
			c2.775-10.228,17.899-8.866,18.806,1.69c0.379,4.409-2.278,8.54-2.568,12.956c-0.29,4.416,4.528,9.566,7.971,6.784
			c3.471-2.804,2.795-14.493,9.238-19.793c7.589-6.242,4.538,10.513,9.937,11.363c15.861-20.475,19.62-26.465,26.925-29.535
			c8.152-3.426,19.831,0.263,16.936,13.879c-6.061,28.51-29.231,20.84-35.531,28.477C580.623-4.985,600.991,6.395,602.671,17.706z"
			/>
		<path style="opacity:0.75;clip-path:url(#SVGID_00000140695494888110222820000016314688838125476020_);fill:#839866;" d="
			M705.992,62.457c-12.191-0.065-17.578,12.684-20.666,23.578c-5.597,19.743,1.869,28.384,16.46,28.705
			c6.257,0.138,12.392-1.533,18.581-2.459c20.11-3.01,40.705,1.856,60.904-0.48c46.864-5.42,24.511-75.066-7.232-47.055
			c-10.438,9.211-16.605,26.094-31.505,28.565C721.107,96.866,727.235,62.572,705.992,62.457z"/>
	</g>
	<path style="fill:#718458;" d="M16.522,256.697c-14.855,36.455,28.56,91.969,61.055,106.097
		c65.949,28.672,91.841-55.309,68.525-103.762C123.964,213.028,37.478,205.27,16.522,256.697z"/>
	<g>
		<defs>
			<rect id="SVGID_00000034062623387767797170000010646939649395152783_" width="750" height="500"/>
		</defs>
		<clipPath id="SVGID_00000028301140830378088360000011950291204803600768_">
			<use xlink:href="#SVGID_00000034062623387767797170000010646939649395152783_"  style="overflow:visible;"/>
		</clipPath>
		<g style="clip-path:url(#SVGID_00000028301140830378088360000011950291204803600768_);">
			<path style="fill:none;stroke:#89A16D;stroke-width:1.5;stroke-linecap:round;stroke-linejoin:round;stroke-miterlimit:10;" d="
				M209.042,368.367c-20.536-21.628-47.286-51.75-39.332-87.292c1.639,17.455,9.306,21.387,18.57,28.542
				c20.165,15.575,33.75,39.406,36.88,64.693C226.869,388.109,212.124,371.612,209.042,368.367z"/>
			<path style="fill:none;stroke:#89A16D;stroke-width:1.5;stroke-linecap:round;stroke-linejoin:round;stroke-miterlimit:10;" d="
				M305.817,308.038c-36.589,32.956-23.964,43.727-47.115,71.105c-7.546,8.924-20.961,17.516-23.731,16.534
				C227.264,392.945,240.821,329.009,305.817,308.038z"/>
			<path style="fill:none;stroke:#89A16D;stroke-width:1.5;stroke-linecap:round;stroke-linejoin:round;stroke-miterlimit:10;" d="
				M217.51,418.071c-9.211-4.368-54.787-16.427-67.051-66.452c10.098,12.891,13.364,13.218,23.402,15.324
				c41.051,8.616,63.914,45.454,61.054,56.054C233.097,429.733,221.629,420.025,217.51,418.071z"/>
			<path style="fill:none;stroke:#89A16D;stroke-width:1.5;stroke-linecap:round;stroke-linejoin:round;stroke-miterlimit:10;" d="
				M285.767,385.571c5.258-4.151,11.126-7.761,15.084-13.166c3.26-4.452,5.296-10.167,10.082-12.913
				c-6.456,18.968-0.151,67.31-39.303,94.485c-3.827,2.656-13.741,7.844-17.152,1.827
				C252.48,452.28,253.704,410.882,285.767,385.571z"/>
			<path style="fill:none;stroke:#89A16D;stroke-width:1.5;stroke-linecap:round;stroke-linejoin:round;stroke-miterlimit:10;" d="
				M223.379,475.348c-23.127,0.035-52.509,16.934-72.14,29.293c30.319-10.913,64.82,5.576,95.863-3.063
				C281.224,492.082,243.237,475.318,223.379,475.348z"/>
			<path style="fill:none;stroke:#89A16D;stroke-width:1.5;stroke-linecap:round;stroke-linejoin:round;stroke-miterlimit:10;" d="
				M174.268,302.7c8.913,19.997,26.173,34.943,38.029,53.348c16.557,25.704,21.826,56.79,31.033,85.946
				c9.894,31.332,31.955,85.173,63.798,96.741"/>
			<path style="fill:none;stroke:#89A16D;stroke-width:1.5;stroke-linecap:round;stroke-linejoin:round;stroke-miterlimit:10;" d="
				M290.589,320.202c-35.314,21.804-57.507,66.544-57.208,86.991"/>
			<path style="fill:none;stroke:#89A16D;stroke-width:1.5;stroke-linecap:round;stroke-linejoin:round;stroke-miterlimit:10;" d="
				M165.82,373.254c24.542,19.669,60.742,35.69,75.08,60.732"/>
			<path style="fill:none;stroke:#89A16D;stroke-width:1.5;stroke-linecap:round;stroke-linejoin:round;stroke-miterlimit:10;" d="
				M303.189,375.71c-4.328,39.694-57.178,62.48-46.474,101.663"/>
			<path style="fill:none;stroke:#89A16D;stroke-width:1.5;stroke-linecap:round;stroke-linejoin:round;stroke-miterlimit:10;" d="
				M178.495,495.009c19.224-4.023,38.841-6.164,58.48-6.383c10.74-0.12,22.991,0.357,30.281,9.604"/>
			<path style="fill:none;stroke:#89A16D;stroke-width:1.5;stroke-linecap:round;stroke-linejoin:round;stroke-miterlimit:10;" d="
				M299.524,402.012c-15.296,39.004-37.431,59.3-43.044,55.537c-3.092-18.788,25.855-57.582,38.096-72.061"/>
			<path style="fill:none;stroke:#89A16D;stroke-width:1.5;stroke-linecap:round;stroke-linejoin:round;stroke-miterlimit:10;" d="
				M275.646,338.214c-18.917,20.053-28.86,56.446-40.674,57.463c-1.632-9.376,9.664-47.292,42.536-70.658"/>
			<path style="fill:none;stroke:#89A16D;stroke-width:1.5;stroke-linecap:round;stroke-linejoin:round;stroke-miterlimit:10;" d="
				M188.094,315.647c5.507,14.001,13.433,11.251,31.884,48.402c6.512,13.112,5.98,20.038,0.236,12.597
				c-6.572-8.514-11.557-18.17-18.2-26.629c-8.809-11.217-20.799-20.654-25.117-34.247"/>
			<path style="fill:none;stroke:#89A16D;stroke-width:1.5;stroke-linecap:round;stroke-linejoin:round;stroke-miterlimit:10;" d="
				M185.329,377.896c8.287,8.375,17.927,6.805,42.759,33.701c6.201,6.717,6.265,13.055,6.033,12.993
				c-5.392-1.437-9.325-4.477-11.969-6.375c-26.846-19.276-39.883-20.714-48.854-32.845"/>
			<path style="fill:none;stroke:#89A16D;stroke-width:1.5;stroke-linecap:round;stroke-linejoin:round;stroke-miterlimit:10;" d="
				M197.433,497.248c18.713-7.913,42.413,3.515,61.665-2.976c7.693-3.177-18.355-15.554-39.299-12.131
				c-8.927,1.459-17.537,5.074-26.583,5.171"/>
		</g>
		<g style="clip-path:url(#SVGID_00000028301140830378088360000011950291204803600768_);">
			<path style="fill:none;stroke:#89A16D;stroke-width:1.5;stroke-linecap:round;stroke-linejoin:round;stroke-miterlimit:10;" d="
				M220.459,144.526c9.615-23.382,8.078-49.646,6.383-74.87c4.36,6.673,5.419,14.921,8.439,22.297
				c4.838,11.818,18.695,28.918,34.884,37.792c-16.758-42.279-23.198-45.726-36.694-60.622c-2.707-2.988-8.863-13.513-9.648-11.044
				C215.029,85.745,213.513,116.58,220.459,144.526z"/>
			<path style="fill:none;stroke:#89A16D;stroke-width:1.5;stroke-linecap:round;stroke-linejoin:round;stroke-miterlimit:10;" d="
				M193.035,138.389c4.698-18.227,32.551-77.662,24.18-94.2C213.325,44.706,185.143,99.812,193.035,138.389z"/>
			<path style="fill:none;stroke:#89A16D;stroke-width:1.5;stroke-linecap:round;stroke-linejoin:round;stroke-miterlimit:10;" d="
				M287.085,106.573c-12.162-27.228-17.846-40.106-66.516-70.285c-2.408-1.492,0.417,4.685,0.715,5.196
				C240.745,74.818,270.882,91.837,287.085,106.573z"/>
			<path style="fill:none;stroke:#89A16D;stroke-width:1.5;stroke-linecap:round;stroke-linejoin:round;stroke-miterlimit:10;" d="
				M197.129,43.619c-17.589,51.075-29.142,49.918-27,83.376c20.731-53.991,26.005-51.595,34.204-71.291
				c4.242-10.19,7.177-23.312,5.751-34.433C205.266,23.499,199.909,35.547,197.129,43.619z"/>
			<path style="fill:none;stroke:#89A16D;stroke-width:1.5;stroke-linecap:round;stroke-linejoin:round;stroke-miterlimit:10;" d="
				M279.711,68.449c7.106,2.91,14.486,5.241,21.19,8.986c-34.97-48.153-79.454-64.382-90.716-64.381
				C210.898,17.496,241.543,52.818,279.711,68.449z"/>
			<path style="fill:none;stroke:#89A16D;stroke-width:1.5;stroke-linecap:round;stroke-linejoin:round;stroke-miterlimit:10;" d="
				M164.396,61.461c-6.623,15.314-11.431,32.247-23.58,43.682c29.746-9.388,67.648-95.909,63.292-106.812
				C202.173-1.305,175.549,35.671,164.396,61.461z"/>
			<path style="fill:none;stroke:#89A16D;stroke-width:1.5;stroke-linecap:round;stroke-linejoin:round;stroke-miterlimit:10;" d="
				M219.421,7.233c8.566,7.801,41.375,22.986,52.326,26.966c9.776,3.553,9.983-0.076,35.528,12.361
				c-26.356-33.154-42.404-34.302-59.341-39.803C214.866-3.985,212.802-6.367,207.73-7.14c-1.874-0.286-3.304,2.49-0.036,3.955
				C212.435-1.06,215.642,3.791,219.421,7.233z"/>
			<path style="fill:none;stroke:#89A16D;stroke-width:1.5;stroke-linecap:round;stroke-linejoin:round;stroke-miterlimit:10;" d="
				M156.45,40.335c-6.503,15.968-11.119,33.356-22.726,46.104c11.901-6.654,18.946-19.257,26.112-30.857
				c8.399-13.595,38.992-55.809,35.173-75.552C190.479-16.711,168.447,10.874,156.45,40.335z"/>
			<path style="fill:none;stroke:#89A16D;stroke-width:1.5;stroke-linecap:round;stroke-linejoin:round;stroke-miterlimit:10;" d="
				M207.005-17.234c38.716,27.66,75.645,27.331,88.781,35.417c-26.956-39.244-79.43-37.423-96.16-44.799
				C192.222-29.879,205.48-18.323,207.005-17.234z"/>
			<path style="fill:none;stroke:#89A16D;stroke-width:1.5;stroke-linecap:round;stroke-linejoin:round;stroke-miterlimit:10;" d="
				M166.735-22.68c-16.608,16.402-15.317,16.549-40.522,67.315c21.296-17.146,60.577-57.109,59.676-81.999
				C185.669-43.435,182.535-38.285,166.735-22.68z"/>
			<path style="fill:none;stroke:#89A16D;stroke-width:1.5;stroke-linecap:round;stroke-linejoin:round;stroke-miterlimit:10;" d="
				M192.617-40.533c36.881,18.468,66.851,17.518,83.826,18.689c6.886,0.475,12.378,1.725,19.318-0.565
				c-12.568-2.806-23.789-9.4-35.522-14.43c-7.504-3.217-32.211-9.987-34.906-10.117c-8.9-0.43-16.4,2.03-32.889,1.04
				c-1.551-0.093-4.484-0.206-4.647,0.479C187.426-43.875,191.46-41.112,192.617-40.533z"/>
			<path style="fill:none;stroke:#89A16D;stroke-width:1.5;stroke-linecap:round;stroke-linejoin:round;stroke-miterlimit:10;" d="
				M160.979-47.42c-38.735,31.59-32.004,49.141-50.946,59.426c14.878-2.536,67.594-46.129,67.567-64.451
				C177.587-61.644,167.715-52.913,160.979-47.42z"/>
			<path style="fill:none;stroke:#89A16D;stroke-width:1.5;stroke-linecap:round;stroke-linejoin:round;stroke-miterlimit:10;" d="
				M248.16-61.857c-15.734-1.036-31.741,4.11-47.139,0.713c-6.695-1.477-13.023-4.534-19.83-5.358
				C163.449-68.647,189.663-38.115,248.16-61.857z"/>
			<path style="fill:none;stroke:#89A16D;stroke-width:1.5;stroke-linecap:round;stroke-linejoin:round;stroke-miterlimit:10;" d="
				M257.828,114.283c-15.684-30.486-25.184-40.196-30.595-50.169C215.527,42.538,207.64-25.76,162.34-76.433"/>
			<path style="fill:none;stroke:#89A16D;stroke-width:1.5;stroke-linecap:round;stroke-linejoin:round;stroke-miterlimit:10;" d="
				M231.392-59.259c-21.351,4.273-43.582,3.483-61.771-8.486"/>
			<path style="fill:none;stroke:#89A16D;stroke-width:1.5;stroke-linecap:round;stroke-linejoin:round;stroke-miterlimit:10;" d="
				M126.756-0.558c7.242-5.606,2.471-5.275,22.651-21.603c10.217-8.267,27.319-24.851,27.671-35.415"/>
			<path style="fill:none;stroke:#89A16D;stroke-width:1.5;stroke-linecap:round;stroke-linejoin:round;stroke-miterlimit:10;" d="
				M280.055-25.3c-0.133-0.038-78.04-13.408-96.306-21.861"/>
			<path style="fill:none;stroke:#89A16D;stroke-width:1.5;stroke-linecap:round;stroke-linejoin:round;stroke-miterlimit:10;" d="
				M136.288,31.677c8.516-8.587,39.422-49.987,41.03-52.556c4.321-6.905,8.308-14.466,8.586-22.607"/>
			<path style="fill:none;stroke:#89A16D;stroke-width:1.5;stroke-linecap:round;stroke-linejoin:round;stroke-miterlimit:10;" d="
				M281.86,9.457c-24.524-23.965-37.508-10.715-88.677-39.202"/>
			<path style="fill:none;stroke:#89A16D;stroke-width:1.5;stroke-linecap:round;stroke-linejoin:round;stroke-miterlimit:10;" d="
				M151.007,64.411c12.31-29.815,39.134-60.624,44.956-88.29"/>
			<path style="fill:none;stroke:#89A16D;stroke-width:1.5;stroke-linecap:round;stroke-linejoin:round;stroke-miterlimit:10;" d="
				M290.397,35.431c-52.648-23.183-64.58-35.191-87.162-42.011"/>
			<path style="fill:none;stroke:#89A16D;stroke-width:1.5;stroke-linecap:round;stroke-linejoin:round;stroke-miterlimit:10;" d="
				M160.596,81.693c20.942-28.558,25.348-49.984,31.11-61.284c4.037-7.916,10.184-14.559,13.048-22.971"/>
			<path style="fill:none;stroke:#89A16D;stroke-width:1.5;stroke-linecap:round;stroke-linejoin:round;stroke-miterlimit:10;" d="
				M288.988,67.664c-40.594-29.447-45.856-35.431-78.802-54.611"/>
			<path style="fill:none;stroke:#89A16D;stroke-width:1.5;stroke-linecap:round;stroke-linejoin:round;stroke-miterlimit:10;" d="
				M175.231,108.041c4.749-23.944,10.003-9.736,36.286-91.18"/>
			<path style="fill:none;stroke:#89A16D;stroke-width:1.5;stroke-linecap:round;stroke-linejoin:round;stroke-miterlimit:10;" d="
				M195.481,121.065c0.423-25.101,19.239-46.742,21.377-71.755c0.286-3.349,0.424-7.172,1.279-10.424"/>
			<path style="fill:none;stroke:#89A16D;stroke-width:1.5;stroke-linecap:round;stroke-linejoin:round;stroke-miterlimit:10;" d="
				M278.62,94.302c-11.256-7.371-37.744-40.774-61.896-60.122"/>
			<path style="fill:none;stroke:#89A16D;stroke-width:1.5;stroke-linecap:round;stroke-linejoin:round;stroke-miterlimit:10;" d="
				M221.621,127.154c-3.42-21.519-1.995-44.473,4.488-65.275"/>
		</g>
		
			<path style="opacity:0.5;clip-path:url(#SVGID_00000028301140830378088360000011950291204803600768_);fill:none;stroke:#89A16D;stroke-width:3;stroke-linecap:round;stroke-linejoin:round;stroke-miterlimit:10;" d="
			M447.602-128.534c-53.983,32.088-90.165,104.408-66.427,151.871c12.498,24.988,59.439,56.531,93.621-5.81
			c17.234-31.431,26.97-66.941,28.177-102.767"/>
		
			<path style="opacity:0.5;clip-path:url(#SVGID_00000028301140830378088360000011950291204803600768_);fill:none;stroke:#89A16D;stroke-width:3;stroke-linecap:round;stroke-linejoin:round;stroke-miterlimit:10;" d="
			M414.313-59.221c-26.001,25.339-40.701,47.943-19.137,77.354c8.969,12.233,25.424,22.789,38.573,15.224
			c11.432-6.577,32.426-45.202,38.495-57.896"/>
		
			<path style="opacity:0.5;clip-path:url(#SVGID_00000028301140830378088360000011950291204803600768_);fill:none;stroke:#89A16D;stroke-width:3;stroke-linecap:round;stroke-linejoin:round;stroke-miterlimit:10;" d="
			M62.661-72.091c5.41,3.389,10.859,6.807,15.508,11.182c19.007,17.881,20.591,48.941,9.672,72.642
			C70.704,48.93,5.529,97.552-35.19,87.715c-6.06-1.464-3.515-5.433-1.894-5.004"/>
		
			<path style="opacity:0.5;clip-path:url(#SVGID_00000028301140830378088360000011950291204803600768_);fill:none;stroke:#89A16D;stroke-width:3;stroke-linecap:round;stroke-linejoin:round;stroke-miterlimit:10;" d="
			M39.882-36.784C52.863,9.261,19.146,55.921-28.986,57.641c-4.396,0.157-10.587-3.176-8.092-6.799"/>
		
			<path style="opacity:0.5;clip-path:url(#SVGID_00000028301140830378088360000011950291204803600768_);fill:none;stroke:#89A16D;stroke-width:3;stroke-linecap:round;stroke-linejoin:round;stroke-miterlimit:10;" d="
			M111.578,514.259c-36.212,6.31-62.663-24.544-77.305-58.255c-36.718-84.538-9.63-143.54-8.873-182.396
			c1.303-66.884-54.58-78.323-74.203-54.91"/>
		
			<path style="opacity:0.5;clip-path:url(#SVGID_00000028301140830378088360000011950291204803600768_);fill:none;stroke:#89A16D;stroke-width:3;stroke-linecap:round;stroke-linejoin:round;stroke-miterlimit:10;" d="
			M44.299,516.736c-41.292-46.484-62.66-110.103-57.801-172.088"/>
		
			<path style="opacity:0.5;clip-path:url(#SVGID_00000028301140830378088360000011950291204803600768_);fill:none;stroke:#89A16D;stroke-width:3;stroke-linecap:round;stroke-linejoin:round;stroke-miterlimit:10;" d="
			M644.642,524.592c-9.323-13.188-4.974-32.231,5.123-44.836c10.097-12.605,24.687-20.577,38.182-29.45
			c44.38-29.182,30.637-48.077,38.422-72.659c9.859-31.129,49.449-40.953,72.719-18.059"/>
		
			<path style="opacity:0.5;clip-path:url(#SVGID_00000028301140830378088360000011950291204803600768_);fill:none;stroke:#89A16D;stroke-width:3;stroke-linecap:round;stroke-linejoin:round;stroke-miterlimit:10;" d="
			M704.202,521.05c-6.043-2.214-4.165-11.212-1.071-16.854c19.67-35.862,60.816-101.011,100.517-111.493"/>
	</g>
	<path style="opacity:0.75;fill:#839866;" d="M509.042,470.83c3.731,14.513-7.484,13.725,28.972,13.337
		c1.258-23.204,7.149-22.751,15.651-30.975c9.804-9.485,23.557-48.86-4.462-49.004c-11.177-0.058-22.139,1.475-33.256,1.525
		c-41.411,0.186-51.913-11.824-39.075,28.36C486.592,464.494,506.063,459.241,509.042,470.83z"/>
	<path style="opacity:0.75;fill:#839866;" d="M62.742,141.314c8.787,9.576-7.87,27.941,4.886,39.62
		c10.286,9.418,28.282-2.243,40.397,4.667c4.656,2.656,7.458,7.572,11.035,11.563c10.139,11.311,21.859,5.295,20.09-9.146
		c-1.636-13.36-8.721-14.27-20.301-13.893c-8.626,0.281-27.763-2.183-32.371-9.351c-3.312-5.152-0.532-11.833,0.14-17.922
		c1.622-14.723-11.247-26.511-25.062-27.596c-7.893-0.62-13.788,0.297-9.798-9.774c0.951-2.399,6.937-7.381,4.154-10.408
		c-7.44-8.093-45.338,24.406-26.814,38.829C38.689,145.371,53.966,131.749,62.742,141.314z"/>
	<g>
		<path style="opacity:0.5;fill:#839866;" d="M589.601,98.776c-19.671-11.87-39.351-15.342-18.46-46.742
			c0.605-0.91-0.789-1.999-1.521-1.174c-31.561,35.545,10.48,44.193,24.459,55.399c24.044,19.274,29.837,54.086,11.023,80.229
			c-16.895,23.477-36.827,19.875-47.446,33.319c-9.809,12.419-6.077,32.461,7.431,40.554c0.661,0.396,1.233-0.607,0.6-1.025
			c-15.582-10.303-14.432-34.628,1.427-43.884c8.207-4.789,17.545-6.96,25.437-12.408
			C630.625,176.757,626.689,121.156,589.601,98.776z"/>
		<path style="opacity:0.5;fill:#839866;" d="M650.962,135.088c-13.379-20.979-59.772-38.628-40.38-69.756
			c0.693-1.112-0.85-2.214-1.767-1.363c-8.351,7.752-6.033,21.417-1.458,30.486c6.295,12.478,18.546,19.77,28.905,28.494
			c31.034,26.136,23.031,63.26-2.872,76.618c-0.722,0.372-0.088,1.417,0.631,1.079C658.944,188.96,665.301,157.572,650.962,135.088z
			"/>
		<path style="opacity:0.5;fill:#839866;" d="M661.794,356.115c-0.615-0.641-1.571,0.323-0.972,0.972
			c12.069,13.087,12.724,33.093,5.15,48.634c-9.722,19.947-26.972,28.423-37.573,35.784c-9.248,6.419,27.711-5.43,40.648-36.834
			C675.642,388.662,674.102,368.948,661.794,356.115z"/>
		<path style="opacity:0.5;fill:#839866;" d="M638.248,383.482c-0.401-1.481-2.811-1.615-3.134,0
			c-3.806,19.001-6.112,22.348-28.296,43.73c-29.853,28.773-18.26,46.068-18.511,41.43
			C586.23,430.366,646.914,415.471,638.248,383.482z"/>
	</g>
	<g>
		<path style="opacity:0.75;fill:#839866;" d="M88.11,267.944c-6.601,13.043-25.172,13.53-30.22-1.164
			c-0.285-0.828-1.577-0.493-1.326,0.366c4.721,16.142,27.741,18.163,33.602,1.666C90.591,267.616,88.685,266.809,88.11,267.944z"/>
		<path style="opacity:0.75;fill:#839866;" d="M88.461,308.396c-8.36,2.062-19.368,10.817-22.915-3.746
			c-0.186-0.762-1.25-0.418-1.145,0.316c0.656,4.568,3.268,9.32,7.754,11.139c3.25,1.318,14.804-4.52,17.101-5.823
			C90.287,309.695,89.587,308.118,88.461,308.396z"/>
		<path style="opacity:0.75;fill:#839866;" d="M114.432,279.238c-1.706,5.236-9.871,7.174-13.15,2.342
			c-0.648-0.955-2.17-0.099-1.565,0.915c3.816,6.386,15.527,5.081,16.704-2.708C116.615,278.5,114.853,277.945,114.432,279.238z"/>
		<path style="opacity:0.75;fill:#839866;" d="M124.949,312.167c-5.848,6.468-13.947,3.915-15.446-1.171
			c-0.296-1.003-1.818-0.586-1.567,0.432c2.463,9.986,17.303,8.973,18.632,1.681C126.728,312.233,125.654,311.388,124.949,312.167z"
			/>
		<path style="opacity:0.75;fill:#839866;" d="M111.3,345.918c-8.732,6.356-17.234,0.98-17.805-5.518
			c-0.101-1.143-1.855-1.182-1.813,0c0.402,11.166,17.084,14.882,21.157,7.057C113.313,346.547,112.277,345.207,111.3,345.918z"/>
		<path style="opacity:0.75;fill:#839866;" d="M140.629,291.551c-4.244,2.963-10.544,2.405-13.768-1.819
			c-0.449-0.588-1.438-0.071-1.025,0.599c3.349,5.434,10.942,6.777,15.74,2.446C142.225,292.192,141.363,291.039,140.629,291.551z"
			/>
		<path style="opacity:0.75;fill:#839866;" d="M115.339,250.907c-4.307,1.345-8.932,0.458-11.79-3.21
			c-0.612-0.786-1.897,0.229-1.374,1.06c2.917,4.631,9.027,6.827,13.983,4.092C117.202,252.273,116.499,250.545,115.339,250.907z"/>
	</g>
</g>
</svg>
