<?xml version="1.0" encoding="utf-8"?>
<!-- Generator: Adobe Illustrator 27.5.0, SVG Export Plug-In . SVG Version: 6.00 Build 0)  -->
<svg version="1.1" xmlns="http://www.w3.org/2000/svg" xmlns:xlink="http://www.w3.org/1999/xlink" x="0px" y="0px"
	 viewBox="0 0 500 500" style="enable-background:new 0 0 500 500;" xml:space="preserve">
<g id="BACKGROUND">
</g>
<g id="OBJECTS">
	<path style="fill:#EAEAEA;" d="M373.426,109.887c-40.949-25.977-90.268-38.421-138.675-35.535
		c-48.408,2.886-96.958,19.955-132.716,52.711c-17.39,15.93-28.843,38.198-31.688,61.609c-2.845,23.411,1.49,51.082,17.335,68.549
		c13.937,15.364,19.101,37.662,21.959,58.208c2.728,19.609,13.136,38.046,28.515,50.514c15.379,12.468,35.57,18.836,55.319,17.449
		l147.771-15.187c34.774-9.197,64.733-34.209,81.336-66.117C439.186,270.18,463.718,167.167,373.426,109.887z"/>
	<g>
		<path style="fill:#FA6C3A;" d="M374.505,169.032c-0.393-2.407-1.997-4.309-4.085-5.202c-1.695,1.51-2.61,3.824-2.217,6.231
			c0.393,2.407,1.996,4.31,4.084,5.202C373.983,173.753,374.898,171.439,374.505,169.032z"/>
		<path style="fill:#88BAFF;" d="M119.225,146.783c-1.551-1.882-3.894-2.719-6.148-2.439c-0.705,2.159-0.33,4.618,1.221,6.5
			c1.551,1.882,3.894,2.719,6.148,2.439C121.151,151.124,120.777,148.665,119.225,146.783z"/>
		<path style="fill:#74CF80;" d="M444.779,348.265c1.632-1.813,2.112-4.254,1.502-6.441c-2.239-0.377-4.616,0.357-6.248,2.17
			c-1.632,1.813-2.113,4.254-1.502,6.441C440.77,350.812,443.147,350.078,444.779,348.265z"/>
		<polygon style="fill:#36241A;" points="309.278,117.845 314.652,112.549 307.379,110.542 		"/>
		<polygon style="fill:#88BAFF;" points="462.263,298.188 469.762,299.015 466.728,292.107 		"/>
		<polygon style="fill:#FFCA5E;" points="413.848,273.045 419.67,268.246 412.603,265.603 		"/>
		<polygon style="fill:#FA6C3A;" points="67.827,278.825 75.206,280.404 72.884,273.224 		"/>
		<polygon style="fill:#FFFFFF;" points="133.516,189.292 138.368,183.514 130.938,182.201 		"/>
		<circle style="fill:#FFFFFF;" cx="243.52" cy="114.769" r="2.03"/>
		<path style="fill:#FFCA5E;" d="M128.148,275.414c0-1.121-0.909-2.03-2.03-2.03c-1.121,0-2.03,0.909-2.03,2.03
			c0,1.121,0.909,2.03,2.03,2.03C127.239,277.444,128.148,276.536,128.148,275.414z"/>
		<path style="fill:#FFFFFF;" d="M156.422,336.822c0-1.121-0.909-2.03-2.03-2.03c-1.121,0-2.03,0.909-2.03,2.03
			c0,1.121,0.909,2.03,2.03,2.03C155.513,338.852,156.422,337.943,156.422,336.822z"/>
		<circle style="fill:#FFCA5E;" cx="264.56" cy="126.942" r="2.03"/>
		<path style="fill:#FA6C3A;" d="M216.171,231.499c0-1.121-0.909-2.03-2.03-2.03c-1.121,0-2.03,0.909-2.03,2.03
			s0.909,2.03,2.03,2.03C215.262,233.529,216.171,232.62,216.171,231.499z"/>
		<circle style="fill:#FFCA5E;" cx="196.349" cy="250.486" r="2.03"/>
		<path style="fill:#36241A;" d="M112.756,382.404c0-1.121-0.909-2.03-2.03-2.03c-1.121,0-2.03,0.909-2.03,2.03
			c0,1.121,0.909,2.03,2.03,2.03C111.847,384.434,112.756,383.525,112.756,382.404z"/>
		<path style="fill:#36241A;" d="M93.503,204.484c0-1.121-0.909-2.03-2.03-2.03c-1.121,0-2.03,0.909-2.03,2.03
			c0,1.121,0.909,2.03,2.03,2.03C92.594,206.514,93.503,205.605,93.503,204.484z"/>
		<circle style="fill:#FFFFFF;" cx="390.297" cy="234.27" r="2.03"/>
		<path style="fill:#88BAFF;" d="M419.195,199.011c0-1.121-0.909-2.03-2.03-2.03s-2.03,0.909-2.03,2.03
			c0,1.121,0.909,2.03,2.03,2.03S419.195,200.132,419.195,199.011z"/>
		<circle style="fill:#74CF80;" cx="233.227" cy="61.544" r="2.03"/>
	</g>
	<g>
		<g>
			<path style="fill:#FBA778;" d="M99.885,400.383l-26.278,2.851c-5.941,0.645-9.667,6.734-7.537,12.318l2.718,7.124h49.074
				l-5.621-14.733C110.32,402.908,105.244,399.802,99.885,400.383z"/>
			<path style="fill:#FBA778;" d="M84.05,411.036L58.331,331.49c-1.136-3.513,0.852-7.27,4.395-8.307v0
				c3.51-1.027,7.182,1.017,8.158,4.542L93.35,408.89L84.05,411.036z"/>
			<path style="fill:none;stroke:#36241A;stroke-linecap:round;stroke-linejoin:round;stroke-miterlimit:10;" d="M90.032,405.181
				c0.689,4.78,0.522,9.523,1.211,14.303c-2.174-4.446-4.349-8.892-6.523-13.337"/>
			<path style="fill:none;stroke:#FFFFFF;stroke-linecap:round;stroke-linejoin:round;stroke-miterlimit:10;" d="M61.152,331.34
				c-0.746-0.982-0.929-2.363-0.464-3.505c0.465-1.142,1.561-2.002,2.781-2.183"/>
			<path style="fill:none;stroke:#FFFFFF;stroke-linecap:round;stroke-linejoin:round;stroke-miterlimit:10;" d="M68.672,412.355
				c-0.118-2.834,1.574-5.662,4.127-6.898"/>
		</g>
		<g>
			<path style="fill:#85412E;" d="M132.012,422.676H72.813c0.793-3.677,3.237-6.426,6.93-7.138c3.693-0.712,7.737,0.966,9.84,4.084
				c0.994-3.916,3.939-6.838,7.815-7.978c3.876-1.14,8.32-0.091,11.276,2.664c3.374-4.637,10.244-6.936,15.601-4.891
				C129.632,411.461,132.584,416.97,132.012,422.676z"/>
			<path style="fill:#85412E;" d="M196.855,422.676h-40.434c-0.206-3.875,1.408-8.325,4.585-10.553
				c3.177-2.228,7.516-2.686,11.088-1.171c2.332-3.561,7.452-5.224,11.58-4.185c4.128,1.038,7.395,4.871,7.764,9.112
				c1.616-0.17,3.875,0.306,4.949,1.525S197.228,421.094,196.855,422.676z"/>
		</g>
	</g>
	<g>
		<polygon style="fill:#FBA778;" points="243.142,235.597 231.328,268.965 265.839,273.385 271.725,237.26 		"/>
		<g>
			<path style="fill:#85412E;" d="M257.447,189.057c-2.262,1.973-4.548,3.971-6.276,6.425c-1.728,2.454-2.871,5.447-2.553,8.431
				c0.33,3.095,2.311,5.965,5.087,7.371l13.359-17.868C263.814,192.024,260.696,190.45,257.447,189.057z"/>
			<path style="fill:none;stroke:#85412E;stroke-linecap:round;stroke-linejoin:round;stroke-miterlimit:10;" d="M293.865,167.87
				c8.692-2.778,18.194-2.967,26.989-0.535"/>
			<path style="fill:none;stroke:#85412E;stroke-linecap:round;stroke-linejoin:round;stroke-miterlimit:10;" d="M255.873,190.786
				c-6.118,3.807-9.86,11.134-9.357,18.322"/>
			<path style="fill:#85412E;" d="M327.018,183.296c-1.031-1.928-3.433-3.87-5.619-3.831c1.844-0.403,3.067-2.392,2.965-4.277
				c-0.102-1.885-1.302-3.582-2.832-4.687c-1.53-1.105-3.367-1.697-5.194-2.168c-7.059-1.818-14.532-1.933-21.693-0.57
				c-1.166-7.537-6.27-14.352-13.174-17.59c-6.904-3.239-15.408-2.808-21.949,1.114c-0.079,0.183,0.064,0.552,0.26,0.516
				c3.911,10.08,6.912,20.839,8.706,31.502l51.206,10.106c2.607-0.758,5.418-1.659,6.965-3.89
				C327.905,187.724,328.049,185.224,327.018,183.296z"/>
		</g>
		<g>
			<path style="fill:#88BAFF;" d="M377.996,327.085l-0.954-22.367l-48.039,3.509c0,0-63.206-4.161-111.732,6.836
				c-53.257,12.069-54.296,72.756-20.103,91.709c34.193,18.953,151.216,1.893,151.216,1.893l-3.582-46.114L377.996,327.085z"/>
			<g>
				<path style="fill:#FA6C3A;" d="M371.72,349.275l-66.775,19.132c1.861,15.918,3.723,31.836,5.584,47.754
					c12.186-1.709,24.246-3.217,36.432-4.926c12.956-1.817,26.805-2.064,37.896,4.876c4.602,2.88,9.284,6.801,14.68,6.205
					C390.161,397.93,381.098,373.659,371.72,349.275z"/>
				<path style="fill:none;stroke:#36241A;stroke-linecap:round;stroke-linejoin:round;stroke-miterlimit:10;" d="M315.267,382.438
					c2.088,10.679,4.175,21.359,6.263,32.038"/>
				<path style="fill:none;stroke:#36241A;stroke-linecap:round;stroke-linejoin:round;stroke-miterlimit:10;" d="M369.747,357.845
					c10.399,19.905,19.525,40.474,27.303,61.541"/>
			</g>
		</g>
		<g>
			<path style="fill:#FFFFFF;" d="M343.001,203.525c-14.141-15.833-35.382-25.291-56.605-25.738
				c-1.325,4.117-4.391,7.641-8.284,9.522c-3.893,1.882-9.654,2.617-13.702,1.099c-4.954,4.344-8.669,9.762-11.791,15.565
				c-6.665,12.388-12.726,24.689-19.391,37.077c9.168,2.418,18.336,4.837,27.504,7.255c-0.146,5.573-0.194,10.648-0.341,16.221
				L289.9,309.17l90.207,5.267C380.279,274.676,369.487,233.18,343.001,203.525z"/>
			<path style="fill:none;stroke:#36241A;stroke-linecap:round;stroke-linejoin:round;stroke-miterlimit:10;" d="M266.151,197.915
				c3.529,3.359,8.507,5.14,13.366,4.783c4.859-0.357,9.523-2.848,12.522-6.688c3-3.839,4.288-8.967,3.459-13.768"/>
			<path style="fill:none;stroke:#36241A;stroke-linecap:round;stroke-linejoin:round;stroke-miterlimit:10;" d="M263.872,196.252
				c-1.136,17.91-2.273,35.82-3.409,53.73"/>
			<path style="fill:none;stroke:#36241A;stroke-linecap:round;stroke-linejoin:round;stroke-miterlimit:10;" d="M285.538,244.688
				c5.211-15.088,10.423-30.176,15.634-45.264c2.484-7.192,11.438-8.666,18.893-7.148c7.456,1.518,13.754,6.854,17.736,13.337
				c3.982,6.483,5.877,14.041,6.93,21.577c1.496,10.711,1.393,21.644-0.304,32.326"/>
			<path style="fill:none;stroke:#36241A;stroke-linecap:round;stroke-linejoin:round;stroke-miterlimit:10;" d="M236.615,236.104
				c7.864,2.364,15.729,4.729,23.593,7.093"/>
			<path style="fill:none;stroke:#36241A;stroke-linecap:round;stroke-linejoin:round;stroke-miterlimit:10;" d="M288.389,238.21
				c19.02,4.879,38.04,9.758,57.061,14.637"/>
			<path style="fill:none;stroke:#36241A;stroke-linecap:round;stroke-linejoin:round;stroke-miterlimit:10;" d="M335.716,307.447
				c14.569,0.859,29.138,1.719,43.707,2.578"/>
		</g>
		<g>
			<g>
				<path style="fill:#88BAFF;" d="M351.144,318.377c-19.909-19.421-42.106-36.311-62.304-55.432
					c-12.578-11.907-32.026-15.969-48.319-10.092c-16.293,5.878-28.872,21.187-30.751,38.406
					c-3.605,33.034-8.743,98.709-8.743,98.709s44.699,0.87,69.855,1.181c0.972-9.623,2.176-26.253,3.147-35.875
					c32.638,49.235,105.78,35.875,103.967-28.189L351.144,318.377z"/>
				<path style="fill:none;stroke:#36241A;stroke-linecap:round;stroke-linejoin:round;stroke-miterlimit:10;" d="M278.453,323.517
					c-0.678,4.85-1.357,9.7-2.035,14.551"/>
				<path style="fill:none;stroke:#36241A;stroke-linecap:round;stroke-linejoin:round;stroke-miterlimit:10;" d="M206.298,324.467
					c-0.264,4.058-0.527,8.117-0.791,12.175"/>
				<path style="fill:none;stroke:#36241A;stroke-linecap:round;stroke-linejoin:round;stroke-miterlimit:10;" d="M275.872,358.31
					c8.535,11.073,19.828,20.003,32.57,25.754"/>
				<path style="fill:none;stroke:#36241A;stroke-linecap:round;stroke-linejoin:round;stroke-miterlimit:10;" d="M344.469,312.159
					c2.241,1.88,4.483,3.761,6.724,5.642"/>
				<path style="fill:none;stroke:#36241A;stroke-linecap:round;stroke-linejoin:round;stroke-miterlimit:10;" d="M377.751,331.231
					c-4.217-0.415-8.435-0.829-12.653-1.244c-1.86,10.834-0.743,22.451,3.656,32.525"/>
				<path style="fill:none;stroke:#36241A;stroke-linecap:round;stroke-linejoin:round;stroke-miterlimit:10;" d="M365.105,334.465
					c4.301,0.459,8.602,0.919,12.902,1.378"/>
			</g>
			<g>
				<path style="fill:#FA6C3A;" d="M202.863,335.704c-0.945,16.956-1.89,33.913-2.835,50.869
					c-0.662,11.878-8.556,21.989-18.551,28.441c-1.466,0.947-3.01,1.809-4.258,3.03s-2.187,2.892-2.064,4.633h94.857l8.894-89.291
					L202.863,335.704z"/>
				<path style="fill:none;stroke:#36241A;stroke-linecap:round;stroke-linejoin:round;stroke-miterlimit:10;" d="M202.464,346.78
					c24.997-0.543,49.994-1.085,74.991-1.628"/>
				<path style="fill:none;stroke:#36241A;stroke-linecap:round;stroke-linejoin:round;stroke-miterlimit:10;" d="M176.883,420.589
					c31.296-1.433,62.593-2.865,93.89-4.297"/>
			</g>
		</g>
		<g>
			<g>
				<g>
					<path style="fill:#74CF80;" d="M187.532,149.661c-6.56-4.89-11.297-12.171-13.109-20.151
						c-1.812-7.979-0.685-16.592,3.119-23.836c7.308,3.825,12.193,10.863,14.347,18.825S191.915,142.673,187.532,149.661z"/>
					<path style="fill:none;stroke:#36241A;stroke-linecap:round;stroke-linejoin:round;stroke-miterlimit:10;" d="M182.69,127.461
						c7.577,17.294,4.847,37.406-0.937,55.379c-5.784,17.973-14.456,35.017-18.765,53.4s-3.607,39.247,7.912,54.207"/>
				</g>
				<g>
					<circle style="fill:#FA6C3A;" cx="176.142" cy="240.11" r="4.348"/>
					<path style="fill:none;stroke:#36241A;stroke-linecap:round;stroke-linejoin:round;stroke-miterlimit:10;" d="M173.873,240.28
						c-6.85,3.945-11.854,10.959-13.353,18.721"/>
				</g>
				<g>
					<circle style="fill:#FA6C3A;" cx="153.122" cy="216.312" r="4.348"/>
					<path style="fill:none;stroke:#36241A;stroke-linecap:round;stroke-linejoin:round;stroke-miterlimit:10;" d="M154.094,218.333
						c4.843,5.513,7.853,12.609,8.452,19.922"/>
				</g>
				<g>
					<path style="fill:#419D4A;" d="M209.653,157.575c-7.234,3.532-13.169,9.657-16.472,16.998
						c-3.303,7.342-3.949,15.845-1.794,23.602c8.354-1.984,15.837-7.903,19.459-15.688
						C214.469,174.702,213.517,165.243,209.653,157.575z"/>
					<path style="fill:none;stroke:#36241A;stroke-linecap:round;stroke-linejoin:round;stroke-miterlimit:10;" d="M167.616,221.567
						c16.766-10.282,29.581-26.837,35.333-45.645"/>
				</g>
				<g>
					<path style="fill:#74CF80;" d="M172.343,178.483c-6.751-3.41-12.299-9.147-15.481-16.008
						c-3.182-6.861-3.977-14.802-2.219-22.158c8.363,0.758,15.392,5.859,19.033,13.426
						C177.318,161.31,176.969,171.475,172.343,178.483z"/>
					<path style="fill:none;stroke:#36241A;stroke-linecap:round;stroke-linejoin:round;stroke-miterlimit:10;" d="M164.089,155.697
						c7.397,14.401,10.87,30.793,9.947,46.956"/>
				</g>
				<g>
					<circle style="fill:#FA6C3A;" cx="197.277" cy="146.668" r="4.348"/>
					<path style="fill:none;stroke:#36241A;stroke-linecap:round;stroke-linejoin:round;stroke-miterlimit:10;" d="M195.711,147.778
						c-1.092,4.832-4.146,9.191-8.315,11.867"/>
				</g>
			</g>
			<path style="fill:#36241A;" d="M189.084,287.091c-8.696-2.752-18.606-1.362-26.21,3.674
				c-7.605,5.036-12.751,13.618-13.611,22.698l59.149-8.291C205.087,296.679,197.781,289.843,189.084,287.091z"/>
		</g>
		<g>
			<path style="fill:#FBA778;" d="M292.625,179.601c-2.906-1.459-5.692-3.156-8.598-4.615l-15.248,20.701
				c4.95,4.079,12.612,4.447,17.929,0.86C292.025,192.96,294.554,185.718,292.625,179.601z"/>
			<path style="fill:#85412E;" d="M287.292,174.567c-0.609,1.996-1.196,4.006-2.156,5.859c4.777,1.617,9.733,2.705,14.749,3.238
				c2.566,0.272,5.183,0.397,7.707-0.141c2.524-0.538,4.969-1.801,6.509-3.872L287.292,174.567z"/>
			<g>
				<path style="fill:#FBA778;" d="M271.245,196.936c-3.099,0.846-6.481,0.605-9.437-0.651c-2.956-1.256-5.565-3.243-7.005-6.114
					c-3.502-6.984-6.059-14.441-7.58-22.105c8.054-2.302,15.753-4.927,23.807-7.229c2.225,2.703,4.078,5.075,6.303,7.779
					c1.026-3.049,4.562-5.04,7.765-4.742c3.203,0.298,6.037,2.753,7.001,5.822c0.964,3.069,0.341,8.461-5.689,11.009
					C284.381,188.458,279.491,194.686,271.245,196.936z"/>
				<g>
					<circle style="fill:#36241A;" cx="269.424" cy="180.957" r="1.015"/>
					<circle style="fill:#36241A;" cx="255.503" cy="184.332" r="1.015"/>
					<path style="fill:none;stroke:#36241A;stroke-linecap:round;stroke-linejoin:round;stroke-miterlimit:10;" d="M251.337,179.429
						c0.268-1.119,1.084-2.092,2.139-2.551c1.055-0.459,2.324-0.392,3.324,0.175"/>
					<path style="fill:none;stroke:#36241A;stroke-linecap:round;stroke-linejoin:round;stroke-miterlimit:10;" d="M263.919,173.856
						c1.162-0.394,2.325-0.788,3.487-1.181"/>
					<path style="fill:none;stroke:#36241A;stroke-linecap:round;stroke-linejoin:round;stroke-miterlimit:10;" d="M262.014,183.1
						c0.2,2.028,0.401,4.056,0.601,6.084c0.439-0.172,0.878-0.343,1.317-0.515"/>
					<path style="fill:#FFFFFF;" d="M270.397,187.352l-3.292,1.059c0.23,0.916,1.311,1.516,2.211,1.227
						C270.215,189.349,270.744,188.231,270.397,187.352z"/>
				</g>
				<g>
					<path style="fill:none;stroke:#36241A;stroke-linecap:round;stroke-linejoin:round;stroke-miterlimit:10;" d="M285.322,167.256
						c-0.799,1.556-1.598,3.112-2.397,4.668"/>
					<path style="fill:none;stroke:#36241A;stroke-linecap:round;stroke-linejoin:round;stroke-miterlimit:10;" d="M270.191,197.191
						c5.086-0.581,9.832-3.627,12.478-8.009"/>
					<path style="fill:none;stroke:#36241A;stroke-linecap:round;stroke-linejoin:round;stroke-miterlimit:10;" d="M286.76,180.595
						c-0.451,0.325-0.901,0.649-1.351,0.974"/>
				</g>
			</g>
			<g>
				<path style="fill:#85412E;" d="M251.193,167.965c0.766,2.255,1.68,4.729,2.499,7.061l25.794-9.857
					c-2.422-4.867-4.693-9.853-7.115-14.72c-8.16-2.395-17.521-0.125-23.678,5.742c-6.157,5.867-8.875,15.107-6.876,23.374
					l9.569-3.657C250.655,173.333,250.58,170.572,251.193,167.965z"/>
				<path style="fill:none;stroke:#85412E;stroke-linecap:round;stroke-linejoin:round;stroke-miterlimit:10;" d="M263.553,149.281
					c-6.986,0.895-13.589,4.664-18.052,10.303s-6.736,13.086-6.214,20.358"/>
			</g>
		</g>
		<g>
			<path style="fill:#FBA778;" d="M288.239,245.428c-2.163,7.479-4.325,14.958-6.488,22.438
				c-19.909,6.985-40.007,14.105-59.916,21.09c-6.598-1.091-13.439-3.105-20.037-4.197c-8.323-1.376-17.089-1.734-25.486-2.543
				c-1.004,1.86-0.732,4.066,0.664,5.654c3.868,4.397,8.451,8.1,12.686,12.145c-6.939,1.614-14.224,3.141-21.163,4.755
				c-6.609-1.223-13.269-2.535-19.878-3.758c-2.093-0.387-4.467,0.458-5.543,2.294c5.01,2.645,9.977,5.834,14.987,8.479
				c-4.736-0.032-9.612-0.033-14.348-0.065c-1.672,0.27-3.367,1.563-3.815,3.196c9.58,2.75,28.518,8.169,28.518,8.169
				s36.388,2.829,54.835,3.8c21.413,1.128,42.838-1.881,64.249-3.068c10.106-0.561,19.881-4.588,27.509-11.241
				c7.627-6.652,12.941-15.638,16.542-25.096c3.601-9.459,5.59-19.443,7.434-29.394L288.239,245.428z"/>
			<path style="fill:none;stroke:#36241A;stroke-linecap:round;stroke-linejoin:round;stroke-miterlimit:10;" d="M281.992,267.002
				c1.194-0.008,2.388-0.017,3.582-0.025"/>
			<path style="fill:none;stroke:#36241A;stroke-linecap:round;stroke-linejoin:round;stroke-miterlimit:10;" d="M156.984,311.561
				c3.94,2.144,7.88,4.288,11.82,6.432"/>
			<path style="fill:none;stroke:#36241A;stroke-linecap:round;stroke-linejoin:round;stroke-miterlimit:10;" d="M155.663,318.923
				c5.094,0.805,10.187,1.61,15.28,2.415"/>
			<path style="fill:none;stroke:#36241A;stroke-linecap:round;stroke-linejoin:round;stroke-miterlimit:10;" d="M188.852,299.999
				c1.672-0.01,3.343-0.019,5.015-0.029"/>
		</g>
	</g>
	<g>
		
			<line style="fill:none;stroke:#36241A;stroke-linecap:round;stroke-linejoin:round;stroke-miterlimit:10;" x1="58.011" y1="422.676" x2="347.831" y2="422.676"/>
		
			<line style="fill:none;stroke:#36241A;stroke-linecap:round;stroke-linejoin:round;stroke-miterlimit:10;" x1="355.203" y1="422.676" x2="411.365" y2="422.676"/>
		
			<line style="fill:none;stroke:#36241A;stroke-linecap:round;stroke-linejoin:round;stroke-miterlimit:10;" x1="417.897" y1="422.676" x2="424.329" y2="422.676"/>
		
			<line style="fill:none;stroke:#36241A;stroke-linecap:round;stroke-linejoin:round;stroke-miterlimit:10;" x1="428.628" y1="422.676" x2="452.032" y2="422.676"/>
		
			<line style="fill:none;stroke:#36241A;stroke-linecap:round;stroke-linejoin:round;stroke-miterlimit:10;" x1="52.007" y1="422.676" x2="39.588" y2="422.676"/>
	</g>
</g>
</svg>
