<?xml version="1.0" encoding="utf-8"?>
<!-- Generator: Adobe Illustrator 27.5.0, SVG Export Plug-In . SVG Version: 6.00 Build 0)  -->
<svg version="1.1" xmlns="http://www.w3.org/2000/svg" xmlns:xlink="http://www.w3.org/1999/xlink" x="0px" y="0px"
	 viewBox="0 0 750 500" style="enable-background:new 0 0 750 500;" xml:space="preserve">
<g id="BACKGROUND">
	<g>
		<rect style="fill:#ececec;" width="750" height="500"/>
	</g>
</g>
<g id="OBJECTS">
	<g>
		<g>
			<g>
				<g style="opacity:0.6;">
					<path style="fill:#FDE2DF;" d="M73.116,461.213h605.244c10.393-13.925,18.935-27.99,22.522-44.992
						c3.587-17.002-2.014-37.262-17.435-45.27c-13.185-6.847-29.968-3.347-43.065-10.362c-14.526-7.78-20.024-26.432-18.301-42.82
						c1.723-16.387,9.04-31.571,14.116-47.247c5.076-15.676,7.791-33.386,0.565-48.195c-8.744-17.922-29.951-26.67-49.876-27.495
						c-19.924-0.825-39.497,4.632-59.22,7.57c-19.724,2.938-41.113,3.037-58.124-7.371c-23.542-14.404-31.772-43.866-41.286-69.772
						c-9.514-25.907-26.904-54.097-54.43-56.096c-21.598-1.568-40.678,14.215-53.558,31.623s-22.457,37.602-38.613,52.021
						c-20.291,18.11-48.239,24.695-75.186,28.381s-54.688,5.241-79.797,15.696c-25.108,10.455-47.708,32.397-49.509,59.535
						c-1.367,20.595,9.126,39.829,17.837,58.54c8.712,18.711,15.931,40.461,8.105,59.559c-6.402,15.623-21.437,25.78-31.445,39.379
						C61.652,427.495,58.359,453.008,73.116,461.213z"/>
				</g>
				<g style="opacity:0.6;">
					<g>
						<circle style="fill:#FDE2DF;" cx="278.774" cy="103.775" r="11.866"/>
					</g>
					<g>
						<circle style="fill:#FDE2DF;" cx="300.805" cy="84.772" r="5.708"/>
					</g>
					<g>
						
							<ellipse transform="matrix(0.2036 -0.979 0.979 0.2036 -253.9106 318.0107)" style="fill:#FDE2DF;" cx="68.524" cy="315.083" rx="13.113" ry="13.113"/>
					</g>
					<g>
						<circle style="fill:#FDE2DF;" cx="66.982" cy="284.353" r="4.678"/>
					</g>
					<g>
						
							<ellipse transform="matrix(0.2241 -0.9746 0.9746 0.2241 7.0367 328.5573)" style="fill:#FDE2DF;" cx="209.863" cy="159.859" rx="7.578" ry="7.578"/>
					</g>
					<g>
						<circle style="fill:#FDE2DF;" cx="567.452" cy="170.175" r="8.634"/>
					</g>
					<g>
						<circle style="fill:#FDE2DF;" cx="620.329" cy="179.923" r="11.121"/>
					</g>
					<g>
						<circle style="fill:#FDE2DF;" cx="652.509" cy="341.112" r="6.253"/>
					</g>
					<g>
						
							<ellipse transform="matrix(0.2637 -0.9646 0.9646 0.2637 165.7355 960.4134)" style="fill:#FDE2DF;" cx="711.962" cy="371.646" rx="12.904" ry="12.904"/>
					</g>
					<g>
						<circle style="fill:#FDE2DF;" cx="409.146" cy="64.932" r="9.641"/>
					</g>
				</g>
			</g>
			<g style="opacity:0.4;">
				<path style="fill:#FDE2DF;" d="M117.608,461.213h493.846c9.923,0,12.536-16.952,10.183-26.591
					c-2.353-9.64-9.512-17.294-16.72-24.113c-7.208-6.819-14.946-13.562-19.098-22.574c-6.365-13.819-3.061-29.87-1.366-44.99
					c1.696-15.12,0.65-32.674-11.198-42.219c-14.591-11.755-36.158-4.594-52.912,3.796c-16.754,8.39-36.666,17.668-53.214,8.878
					c-9.99-5.306-15.848-16.084-19.37-26.834c-3.522-10.75-5.314-22.104-10.068-32.369c-8.724-18.838-27.711-32.522-48.342-34.839
					c-20.63-2.318-42.18,6.812-54.867,23.245c-9.539,12.356-13.928,27.785-20.122,42.113c-6.194,14.329-15.389,28.723-29.947,34.358
					c-13.874,5.371-29.586,1.594-43.352-4.045c-13.767-5.639-27.026-13.16-41.72-15.483c-14.695-2.322-31.846,2.114-39.049,15.131
					c-6.45,11.657-3.081,26.313,2.561,38.381c5.642,12.069,13.465,23.397,15.978,36.481c2.513,13.083-2.491,29.078-15.125,33.306
					c-16.473,5.512-34.036-11.627-50.687-6.678c-8.955,2.661-15.312,12.208-14.315,21.496
					C99.701,446.95,108.292,460.513,117.608,461.213z"/>
			</g>
		</g>
		<g>
			<g>
				<g>
					<g>
						<path style="fill:#68B181;" d="M601.036,461.215H417.319c-5.349-4.269-11.409-10.364-12.644-17.093
							c-1.226-6.729,0.686-14.135,5.615-18.884c4.92-4.749,12.789-5.872,18.841-2.692c-2.957-8.015-2.417-17.376,1.989-24.705
							c4.397-7.321,12.73-12.275,21.267-12.061c8.546,0.214,17.05,5.426,19.827,13.509c1.011-11.967,4.466-24.113,12.267-33.242
							c7.801-9.121,20.539-14.607,32.137-11.512c8.186,2.186,14.975,8.375,18.901,15.884c3.926,7.501,4.586,15.053,4.063,23.505
							c9.969-5.7,23.65-3.909,31.811,4.175c8.169,8.083,11.067,22.27,5.46,32.299c8.135-4.115,19.021-1.68,24.636,5.503
							C607.096,443.085,607.002,454.323,601.036,461.215z"/>
					</g>
					<g>
						<g>
							<path style="fill:#68B181;" d="M554.036,378.224c-1.095-0.783-2.619,0.074-3.605,0.652c-0.817,0.479-1.564,1.066-2.24,1.725
								c0.065-0.718-0.306-1.447-0.987-1.789c-0.987-0.496-2.194-0.026-2.818,0.817c-0.76,1.025-0.729,2.358-0.468,3.549
								c0.234,1.068,0.556,2.323,1.473,3.016c2.155,1.627,5.064-0.81,6.581-2.268c0.863-0.829,1.701-1.789,2.299-2.832
								C554.776,380.212,554.992,378.908,554.036,378.224z"/>
						</g>
						<g>
							<path style="fill:#68B181;" d="M593.768,420.038c-0.926-1.029-2.759-0.854-3.984-0.699c-1.215,0.154-2.391,0.507-3.492,1.029
								c0.373-0.936,0.675-1.901,0.87-2.892c0.11-0.561,0.196-1.174-0.039-1.717c-0.241-0.557-0.796-0.863-1.398-0.765
								c-1.361,0.221-1.861,2.069-2.183,3.186c-0.431,1.494-0.59,3.082-0.444,4.631c0.116,1.231,0.499,2.552,1.775,3.018
								c1.319,0.482,2.926-0.112,4.161-0.591c1.385-0.538,2.708-1.257,3.881-2.173C593.807,422.369,594.713,421.088,593.768,420.038
								z"/>
						</g>
						<g>
							<path style="fill:#68B181;" d="M472.284,371.443c-0.393-1.237-1.296-2.797-2.846-2.335c-1.652,0.493-2.165,2.806-2.557,4.228
								c-0.441,1.603-0.728,3.246-0.871,4.902c-0.633-0.886-1.42-1.655-2.549-1.817c-1.406-0.202-2.759,0.716-2.667,2.229
								c0.095,1.569,1.403,2.943,2.525,3.915c1.217,1.055,2.719,1.827,4.364,1.798c3.77-0.065,4.974-4.183,5.23-7.293
								C473.069,375.184,472.857,373.248,472.284,371.443z"/>
						</g>
						<g>
							<path style="fill:#68B181;" d="M423.126,408.902c-0.137-0.739-0.307-1.471-0.499-2.198c-0.172-0.651-0.306-1.393-0.718-1.945
								c-0.702-0.938-1.815-0.529-2.245,0.42c-0.625,1.378-0.674,3.216-0.563,4.699c0.079,1.061,0.301,2.096,0.629,3.098
								c-0.917,0.165-1.801,0.451-2.519,1.087c-0.86,0.763-1.287,1.961-0.816,3.052c0.45,1.041,1.542,1.747,2.669,1.783
								c1.183,0.038,2.311-0.62,3.051-1.509C423.997,415.126,423.623,411.586,423.126,408.902z"/>
						</g>
					</g>
				</g>
				<g style="opacity:0.3;">
					<g>
						<path style="fill:#68B181;" d="M573.888,461.215H434.841c-0.137-0.506-0.257-1.012-0.369-1.517
							c-0.96-4.526-0.84-9.386,1.012-13.621c1.86-4.243,5.606-7.766,10.132-8.726c4.526-0.96,9.901,0.892,12.147,4.946
							c0-5.426,0.583-10.938,2.64-15.953s5.726-9.532,10.672-11.769c6.875-3.112,15.352-1.277,21.207,3.489
							c5.846,4.775,8.735,12.387,10.029,19.819c0.969-3.48,1.972-7.038,4.046-9.987c2.074-2.957,5.469-5.237,9.069-4.997
							c2.949,0.206,5.692,2.203,6.798,4.938c0.771,1.912,0.866,4.278,0.171,6.266c2.426-3.892,5.52-7.38,9.344-9.892
							c4.56-2.992,10.218-4.509,15.584-3.506c5.366,1.003,10.295,4.706,12.164,9.832c1.329,3.626,1.089,7.663,0.06,11.375
							c-1.037,3.712-2.435,7.166-4.209,10.595c2.837-2.58,6.746-4.072,10.535-3.557c3.789,0.514,7.312,3.232,8.358,6.909
							C574.728,457.615,574.565,459.535,573.888,461.215z"/>
					</g>
					<g>
						<g>
							<path style="fill:#68B181;" d="M506.78,404.854c-0.369-0.56-0.97-0.896-1.648-0.812c-0.799,0.099-1.445,0.691-1.979,1.249
								c-0.719,0.751-1.286,1.626-1.72,2.564c-0.582-1.071-0.962-2.282-1.97-3.038c-0.963-0.723-2.363-0.883-3.168,0.161
								c-0.758,0.983-0.564,2.392-0.224,3.496c0.408,1.328,1.122,2.557,2.064,3.578c0.954,1.033,2.234,2,3.657,2.212
								c1.402,0.209,2.634-0.519,3.511-1.566c0.942-1.125,1.582-2.509,1.849-3.951C507.381,407.524,507.501,405.948,506.78,404.854z
								"/>
						</g>
						<g>
							<path style="fill:#68B181;" d="M568.799,438.118c0.361-0.634,0.667-1.298,0.903-1.991c0.308-0.904,0.733-2.161,0.408-3.108
								c-0.315-0.916-1.3-1.174-2.074-0.642c-0.8,0.549-1.403,1.558-1.851,2.398c-0.926,1.734-1.48,3.895-1.201,5.866
								c0.118,0.832,0.529,1.675,1.42,1.875c0.974,0.218,1.898-0.492,2.605-1.065c0.744-0.602,1.477-1.609,0.952-2.597
								C569.701,438.366,569.273,438.163,568.799,438.118z"/>
						</g>
						<g>
							<path style="fill:#68B181;" d="M454.946,423.644c-0.056-0.641-0.134-1.287-0.261-1.919c-0.092-0.457-0.242-0.937-0.608-1.251
								c-0.853-0.735-1.842,0.074-2.254,0.866c-1.227,2.358-1.365,5.332-0.761,7.919c-1.074,0.073-2.238-0.138-3.109,0.62
								c-0.768,0.668-0.881,1.833-0.04,2.486c0.824,0.639,2.236,0.881,3.254,0.841c1.141-0.045,2.099-0.607,2.66-1.607
								c0.602-1.076,0.819-2.396,0.991-3.6C455.022,426.557,455.072,425.096,454.946,423.644z"/>
						</g>
					</g>
				</g>
			</g>
			<g>
				<g>
					<g>
						<path style="fill:#68B181;" d="M99.822,461.213h169.517c4.095-3.425,6.233-9.142,5.754-14.458
							c-0.479-5.317-4.069-10.332-9.09-12.145c-5.021-1.813-11.206-0.089-14.275,4.278c4.599-7.751,9.112-16.234,8.121-25.192
							c-1.018-9.196-8.823-17.202-17.99-18.452c-9.168-1.25-18.831,4.373-22.274,12.961c0.391-15.852-7.356-31.503-20.513-40.353
							c-9.408-6.328-21.539-9.098-32.392-5.818c-12.696,3.837-21.955,15.326-26.356,27.837c-4.401,12.512-4.655,26.059-4.48,39.321
							c-3.919-7.491-13.148-11.538-21.417-9.778s-15.03,8.577-17.573,16.64C94.312,444.116,95.713,453.824,99.822,461.213z"/>
					</g>
					<g>
						<g>
							<path style="fill:#68B181;" d="M236.289,382.394c-0.097-1.047-0.967-1.739-2.005-1.7c-1.29,0.049-2.601,0.842-3.716,1.424
								c-0.646,0.338-1.278,0.7-1.898,1.082c0.243-2.447,0.234-4.915-0.074-7.357c-0.166-1.313-0.402-2.616-0.721-3.901
								c-0.251-1.011-0.534-2.073-1.195-2.904c-1.417-1.78-3.847-1.051-4.914,0.707c-0.601,0.99-0.826,2.171-1.002,3.3
								c-0.191,1.225-0.291,2.464-0.288,3.704c0.011,4.692,1.392,9.704,4.209,13.507c0.6,0.81,1.353,1.559,2.362,1.807
								c1.098,0.269,2.212-0.114,3.123-0.726c1.039-0.698,1.863-1.646,2.649-2.608c0.811-0.992,1.57-2.026,2.268-3.1
								C235.706,384.679,236.4,383.58,236.289,382.394z"/>
						</g>
						<g>
							<path style="fill:#68B181;" d="M271.251,425.556c-0.352-0.68-1.134-0.795-1.821-0.681c-1.079,0.179-2.166,0.62-3.182,1.167
								c0.464-0.961,0.9-1.935,1.277-2.934c0.63-1.671,1.217-3.437,1.505-5.203c0.115-0.708,0.065-1.482-0.484-2.009
								c-0.487-0.466-1.199-0.479-1.749-0.125c-0.609,0.392-0.973,1.067-1.315,1.682c-0.412,0.74-0.779,1.504-1.106,2.286
								c-0.673,1.606-1.161,3.287-1.445,5.006c-0.227,1.378-0.572,3.091,0.067,4.408c0.673,1.389,2.283,1.452,3.571,0.978
								c0.764-0.281,1.487-0.686,2.176-1.116c0.698-0.435,1.486-0.919,2.031-1.544C271.22,426.96,271.596,426.223,271.251,425.556z"
								/>
						</g>
						<g>
							<path style="fill:#68B181;" d="M131.921,400.501c-0.143-1.081-0.358-2.152-0.675-3.197c-0.252-0.832-0.546-1.749-1.199-2.363
								c-0.568-0.533-1.375-0.711-2.092-0.378c-0.738,0.343-1.207,1.09-1.515,1.814c-0.928,2.185-1.19,4.83-1.184,7.182
								c0.006,2.075,0.314,4.139,0.881,6.132c-1.601-0.69-3.512-1.255-4.979,0.014c-1.491,1.29-0.777,3.449,0.573,4.527
								c0.776,0.62,1.71,0.994,2.623,1.361c0.935,0.376,1.9,0.704,2.911,0.785c1.928,0.154,3.384-0.977,3.992-2.759
								c0.292-0.856,0.394-1.768,0.481-2.664c0.112-1.162,0.217-2.326,0.295-3.491C132.189,405.145,132.226,402.81,131.921,400.501z
								"/>
						</g>
					</g>
				</g>
				<g style="opacity:0.3;">
					<g>
						<path style="fill:#68B181;" d="M123.293,461.215h121.862c1.998-2.953,3.574-5.914,2.874-9.41
							c-0.711-3.553-4.379-6.037-8.002-6.072c-3.623-0.036-7.038,1.992-9.402,4.738c3.362-5.724,1.469-14.153-2.236-19.661
							c-3.706-5.508-10.697-8.604-17.266-7.647c-4.535,0.661-8.687,3.083-12.008,6.241c-3.321,3.159-5.88,7.032-8.137,11.021
							c1.549-8.884-0.205-18.303-3.356-26.753c-1.032-2.769-2.333-5.488-4.304-7.689c-1.971-2.201-4.689-3.85-7.637-4.048
							c-5.709-0.383-10.44,4.611-12.699,9.869c-4.409,10.261-2.715,21.991-0.944,33.017c-0.514-3.861-4.714-7.654-8.595-7.981
							c-3.881-0.327-7.783,2.064-9.469,5.574c-1.687,3.511-1.186,7.907,1.051,11.096c-2.406-1.566-4.917-3.57-7.59-4.62
							c-2.672-1.05-5.608-1.59-8.435-1.086c-2.827,0.504-5.523,2.15-6.889,4.676C120.746,455.005,121.335,459.115,123.293,461.215z"
							/>
					</g>
					<g>
						<path style="fill:#68B181;" d="M243.211,435.274c-0.679-0.193-1.496,0.109-2.125,0.346c-0.155,0.059-0.297,0.141-0.447,0.207
							c0.368-0.919,0.709-1.848,0.994-2.797c0.229-0.764,0.433-1.536,0.604-2.315c0.129-0.586,0.241-1.208,0.1-1.803
							c-0.312-1.318-1.792-1.57-2.748-0.718c-0.479,0.426-0.786,1.028-1.076,1.589c-0.376,0.728-0.7,1.485-0.97,2.258
							c-0.506,1.452-0.813,2.972-0.923,4.505c-0.099,1.367-0.166,2.986,0.318,4.291c0.46,1.24,1.653,1.739,2.855,1.141
							c1.315-0.654,2.349-2.056,3.186-3.221C243.583,437.917,244.979,435.777,243.211,435.274z"/>
					</g>
					<g>
						<path style="fill:#68B181;" d="M206.446,410.931c-2.753,0.086-5.373,1.748-6.98,3.99c-0.331-1.059-0.9-2.024-2.046-2.377
							c-1.551-0.477-2.793,0.849-3.062,2.272c-0.16,0.844-0.122,1.729-0.064,2.583c0.048,0.714,0.141,1.445,0.399,2.117
							c0.532,1.384,1.731,2.199,3.228,2.112c1.595-0.093,3.206-0.854,4.606-1.577c1.453-0.75,2.822-1.692,3.993-2.836
							c1.042-1.018,2.242-2.345,2.443-3.847C209.174,411.79,207.91,410.884,206.446,410.931z"/>
					</g>
					<g>
						<path style="fill:#68B181;" d="M139.685,437.028c-0.136-0.664-0.393-1.451-1.066-1.75c-0.655-0.291-1.3,0.088-1.652,0.649
							c-0.45,0.718-0.616,1.655-0.726,2.481c-0.049,0.366-0.067,0.731-0.072,1.095c-0.588-0.745-1.251-1.428-2.003-2.014
							c-1.132-0.884-2.626-1.875-4.128-1.789c-1.375,0.079-2.443,1.11-2.37,2.52c0.073,1.418,0.975,2.684,1.905,3.693
							c0.994,1.079,2.223,1.953,3.568,2.537c1.284,0.558,2.774,0.974,4.173,0.644C140.666,444.306,140.202,439.551,139.685,437.028z
							"/>
					</g>
				</g>
			</g>
		</g>
		<g>
			<g>
				<path style="fill:#DEB5B2;" d="M77.097,141.366l-18.094,33.303c-0.208,0.382-0.663,0.556-1.073,0.41l-13.63-4.871
					c-0.584-0.209-1.196,0.234-1.18,0.854l1.14,44.865c0.025,0.987,1.404,1.195,1.72,0.26l8.043-23.874
					c0.169-0.501,0.737-0.743,1.215-0.516l10.024,4.745c0.511,0.242,1.114-0.052,1.239-0.603l12.233-53.956
					C78.961,140.983,77.586,140.465,77.097,141.366z"/>
			</g>
			<g>
				<g>
					<ellipse style="fill:#DEB5B2;" cx="277.913" cy="45.329" rx="28.601" ry="21.247"/>
				</g>
				<g>
					<g>
						<circle style="fill:#FDE2DF;" cx="277.913" cy="45.329" r="4.787"/>
					</g>
					<g>
						<circle style="fill:#FDE2DF;" cx="263.913" cy="45.329" r="4.787"/>
					</g>
					<g>
						<circle style="fill:#FDE2DF;" cx="291.913" cy="45.329" r="4.787"/>
					</g>
				</g>
				<g>
					<polygon style="fill:#DEB5B2;" points="278.774,65.685 254.523,76.585 264.663,62.812 					"/>
				</g>
			</g>
			<g>
				<g>
					<g>
						<path style="fill:#DEB5B2;" d="M97.684,60.32L56.145,79.046c-2.205,0.994-4.799,0.012-5.793-2.193l-11.82-26.22
							c-0.994-2.205-0.012-4.799,2.193-5.793l41.539-18.726c2.205-0.994,4.799-0.012,5.793,2.193l11.82,26.22
							C100.871,56.732,99.889,59.326,97.684,60.32z"/>
					</g>
				</g>
				<g>
					<g>
						<path style="fill:#FDE2DF;" d="M69.204,53.131c-0.012,0-0.023,0-0.035-0.001l-30.673-1.947
							c-0.304-0.019-0.535-0.281-0.515-0.585c0.019-0.304,0.284-0.532,0.585-0.515l30.382,1.929l18.673-24.043
							c0.187-0.24,0.534-0.284,0.774-0.097c0.241,0.187,0.284,0.533,0.097,0.774L69.64,52.918
							C69.535,53.053,69.374,53.131,69.204,53.131z"/>
					</g>
				</g>
				<g>
					<g>
						<path style="fill:#FDE2DF;" d="M50.351,77.404c-0.081,0-0.162-0.018-0.24-0.055c-0.273-0.133-0.388-0.463-0.255-0.737
							L61.83,51.902c0.097-0.201,0.292-0.324,0.531-0.31l6.587,0.418l4.048-5.213c0.138-0.177,0.367-0.254,0.584-0.193l26.445,7.39
							c0.293,0.082,0.464,0.386,0.382,0.679c-0.081,0.294-0.385,0.467-0.679,0.382L73.64,47.767l-4.001,5.151
							c-0.112,0.144-0.277,0.221-0.471,0.212l-6.509-0.413L50.848,77.093C50.752,77.29,50.555,77.404,50.351,77.404z"/>
					</g>
				</g>
			</g>
			<g>
				<path style="fill:#DEB5B2;" d="M705.785,84.584c-8.79-2.114-17.614,3.282-19.76,12.053c-2.685,11.099,6.997,32.019,7.429,32.884
					c0.41,0.907,1.477,1.308,2.384,0.897c0.134-0.063,0.259-0.139,0.376-0.23c0.768-0.574,18.941-14.757,21.626-25.856
					C719.952,95.553,714.558,86.718,705.785,84.584z M700.472,106.545c-3.984-0.964-6.426-4.964-5.465-8.936
					c0.964-3.984,4.964-6.426,8.947-5.462c3.973,0.961,6.414,4.961,5.451,8.945C708.445,105.065,704.445,107.506,700.472,106.545z"
					/>
			</g>
			<g>
				<path style="fill:#DEB5B2;" d="M652.956,58.658c-0.32-0.47-0.82-0.8-1.38-0.9l-2.95-0.57c-0.43-0.08-0.75-0.43-0.8-0.87
					c-0.17-1.51-0.48-3.01-0.92-4.47c-0.13-0.42,0.03-0.87,0.39-1.12l2.48-1.68c0.98-0.67,1.24-2,0.57-2.99l-5.44-8
					c-0.32-0.47-0.81-0.8-1.37-0.9c-0.56-0.11-1.14,0.01-1.62,0.33l-2.48,1.68c-0.36,0.25-0.84,0.22-1.18-0.05
					c-1.2-0.95-2.47-1.79-3.81-2.51c-0.39-0.2-0.61-0.63-0.52-1.06l0.56-2.94c0.23-1.17-0.54-2.3-1.71-2.52l-9.5-1.81
					c-0.56-0.11-1.14,0.01-1.61,0.33c-0.48,0.32-0.8,0.82-0.91,1.38l-0.56,2.94c-0.09,0.43-0.44,0.75-0.88,0.8
					c-1.51,0.17-3,0.48-4.45,0.93c-0.43,0.13-0.88-0.02-1.13-0.39l-1.68-2.48c-0.32-0.47-0.82-0.8-1.38-0.9
					c-0.56-0.11-1.14,0.01-1.61,0.33l-8.01,5.44c-0.47,0.32-0.79,0.82-0.9,1.38c-0.11,0.56,0.01,1.14,0.33,1.61l1.69,2.47
					c0.25,0.37,0.22,0.84-0.05,1.19c-0.96,1.2-1.79,2.47-2.51,3.81c-0.21,0.39-0.64,0.6-1.07,0.52l-2.94-0.56
					c-0.56-0.11-1.14,0.01-1.61,0.33c-0.47,0.32-0.8,0.82-0.9,1.38l-1.82,9.51c-0.22,1.16,0.55,2.29,1.71,2.51l2.94,0.56
					c0.43,0.08,0.75,0.43,0.8,0.87c0.18,1.51,0.49,3,0.93,4.46c0.13,0.42-0.02,0.87-0.38,1.12l-2.48,1.7
					c-0.48,0.32-0.8,0.81-0.91,1.37c-0.11,0.56,0.01,1.14,0.34,1.61l5.43,8.01c0.33,0.47,0.82,0.8,1.38,0.9
					c0.56,0.11,1.14-0.01,1.61-0.33l2.49-1.69c0.36-0.25,0.84-0.22,1.18,0.05c1.2,0.95,2.46,1.79,3.8,2.51
					c0.39,0.2,0.6,0.63,0.52,1.06l-0.56,2.95c-0.22,1.17,0.55,2.29,1.71,2.52l9.51,1.81c0.14,0.03,0.27,0.04,0.4,0.04
					c1.02,0,1.92-0.72,2.12-1.75l0.56-2.95c0.08-0.43,0.44-0.75,0.87-0.8c1.51-0.17,3-0.48,4.46-0.93c0.42-0.13,0.88,0.02,1.12,0.39
					l1.69,2.49c0.32,0.47,0.82,0.79,1.38,0.9s1.14-0.01,1.61-0.33l8-5.44c0.99-0.67,1.24-2.01,0.57-2.99l-1.69-2.48
					c-0.24-0.37-0.22-0.84,0.06-1.19c0.95-1.2,1.78-2.47,2.51-3.81c0.2-0.39,0.63-0.6,1.06-0.52l2.94,0.57
					c1.17,0.22,2.3-0.54,2.52-1.71l1.81-9.51C653.396,59.708,653.276,59.128,652.956,58.658z M622.276,74.538
					c-8.42,0-15.25-6.83-15.25-15.26s6.83-15.26,15.25-15.26c8.43,0,15.26,6.83,15.26,15.26S630.706,74.538,622.276,74.538z"/>
			</g>
		</g>
	</g>
	<g>
		<g>
			<g>
				<g>
					<g>
						<path style="fill:#68B181;" d="M324.255,422.608c3.699-18.493,14.094-35.571,28.821-47.351
							c14.727-11.78,33.672-18.17,52.526-17.716c-3.945,18.012-14.421,34.725-28.928,46.107
							C362.167,415.03,342.688,423.063,324.255,422.608z"/>
					</g>
					<g>
						<path style="fill:#68B181;" d="M356.82,372.445c-0.18,1.91-0.44,3.81-0.78,5.7c-2.93,16.29-12.81,30.41-25.85,40.61
							c-8.52-13.7-9.97-31.05-6.11-46.71c3.87-15.65,12.68-29.74,23.31-41.86c5.62,9.13,8.82,19.71,9.58,30.46
							C357.25,364.585,357.2,368.535,356.82,372.445z"/>
					</g>
					<g>
						<path style="fill:#4D9967;" d="M356.82,372.445c-1.27,0.9-2.52,1.83-3.74,2.81c-5.02,4.02-9.55,8.66-13.47,13.76l17.36-28.37
							C357.25,364.585,357.2,368.535,356.82,372.445z"/>
					</g>
				</g>
				<g>
					<g>
						<path style="fill:#68B181;" d="M281.969,199.037c-4.191-19.951-2.618-41.079,4.481-60.19s19.7-36.142,35.9-48.519
							c5.723,22.9,5.452,46.883-2.69,69.038c-3.273,8.906-7.671,17.494-13.856,24.689C299.62,191.25,291.12,196.533,281.969,199.037
							z"/>
					</g>
					<g>
						<path style="fill:#68B181;" d="M286.81,201.695c-16.03-7.12-29.57-19.7-37.85-35.16c-8.28-15.46-11.24-33.71-8.27-50.99
							c13.34,8.03,25.4,17.9,34.05,30.66c1.11,1.62,2.15,3.3,3.14,5.02c1.25,2.17,2.39,4.4,3.43,6.68
							C287.57,171.585,289.97,186.975,286.81,201.695z"/>
					</g>
					<g>
						<path style="fill:#68B181;" d="M276.68,199.745c-10.98,3.53-23.39,0.63-32.86-5.96c-9.46-6.59-16.22-16.5-20.79-27.09
							c6.81-0.35,13.92,0.49,20.59,2.52c3.19,0.97,6.27,2.2,9.18,3.71c1.06,0.55,2.09,1.13,3.1,1.75
							C265.48,180.565,272.13,189.465,276.68,199.745z"/>
					</g>
					<g>
						<path style="fill:#4D9967;" d="M281.31,157.905c-0.9,5.12-1.43,10.3-1.58,15.49l-4.99-27.19c1.11,1.62,2.15,3.3,3.14,5.02
							C279.13,153.395,280.27,155.625,281.31,157.905z"/>
					</g>
					<g>
						<path style="fill:#4D9967;" d="M258.22,180.155l-14.6-10.94c3.19,0.97,6.27,2.2,9.18,3.71
							C254.46,175.435,256.28,177.855,258.22,180.155z"/>
					</g>
				</g>
			</g>
			<g>
				<g>
					<g>
						<path style="fill:#4D9967;" d="M488.029,51.479c-0.515-0.703-1.344-1.08-2.194-1.178c-0.561-0.065-1.081-0.001-1.567,0.149
							c0.796-1.476,1.413-3.048,1.815-4.678c0.257-1.041,0.444-2.117,0.515-3.188c0.053-0.8-0.015-1.698-0.512-2.362
							c-1.375-1.837-3.504,0.061-4.406,1.329c-1.293,1.817-1.997,4.072-2.6,6.195c-0.667,2.345-1.107,4.769-1.192,7.209
							c-0.061,1.75-0.244,4.428,1.279,5.68c1.671,1.374,3.973-0.02,5.376-1.117c1.619-1.266,3.005-3.005,3.709-4.951
							C488.616,53.559,488.692,52.383,488.029,51.479z"/>
					</g>
					<g>
						<path style="fill:#4D9967;" d="M539.352,208.758c0.299-0.743,0.498-1.643-0.042-2.328c-1.06-1.346-3.055-0.211-4.149,0.465
							c-1.512,0.933-2.879,2.117-4.017,3.481c-1.131,1.357-2.043,2.868-2.707,4.505c-0.653,1.609-1.255,3.598-0.526,5.283
							c1.625,3.758,6.909,1.985,9.374,0.248c1.517-1.069,2.016-2.967,0.576-4.359c-0.715-0.691-1.546-0.967-2.414-1.001
							c0.977-1.117,1.848-2.326,2.59-3.612C538.534,210.578,538.98,209.681,539.352,208.758z"/>
					</g>
					<g>
						<path style="fill:#4D9967;" d="M562.832,283.119c-0.102-1.321-0.944-2.448-1.788-3.41c-0.95-1.082-2.004-2.071-3.136-2.96
							c-1.297-1.018-2.699-1.879-4.166-2.61c0.787-0.331,1.562-0.689,2.304-1.113c0.943-0.539,2.255-1.187,2.807-2.173
							c1.256-2.242-2.257-3.442-3.783-3.744c-4.307-0.852-11.195,0.882-10.655,6.455c0.221,2.285,1.334,4.534,2.662,6.377
							c1.291,1.791,2.912,3.329,4.776,4.514c1.915,1.217,4.255,2.229,6.547,2.337C560.54,286.892,563.021,285.56,562.832,283.119z"
							/>
					</g>
				</g>
				<g>
					<g>
						<path style="fill:#68B181;" d="M579.469,184.01c2.097-1.226,4.108-2.684,5.568-4.626c1.459-1.942,2.32-4.428,1.921-6.824
							c-0.446-2.677-2.454-4.952-4.927-6.069c-2.473-1.117-5.343-1.16-7.972-0.486c-2.629,0.673-5.041,2.023-7.251,3.598
							c-5.413,3.857-9.765,9.176-12.516,15.224c-0.343,0.754-0.661,1.518-0.953,2.293c-0.359,0.953-0.7,1.373,0.458,1.569
							c1.656,0.28,3.331,0.447,5.01,0.503c3.38,0.113,6.774-0.223,10.068-0.987C572.589,187.343,576.178,185.935,579.469,184.01z"/>
					</g>
					<g>
						<path style="fill:#4D9967;" d="M573.617,178.809c-9.378,4.233-18.503,9.018-27.316,14.327
							c-8.817,5.311-17.322,11.14-25.454,17.448c-4.565,3.541-9.01,7.234-13.331,11.069c-0.386,0.342-0.841-0.319-0.458-0.658
							c7.721-6.852,15.844-13.247,24.318-19.142c8.473-5.895,17.295-11.289,26.403-16.145c5.102-2.72,10.293-5.272,15.563-7.651
							C573.812,177.843,574.085,178.598,573.617,178.809z"/>
					</g>
				</g>
				<g>
					<g>
						<path style="fill:#68B181;" d="M553.212,117.339c-1.757-0.671-3.277-1.929-5.106-2.366c-1.704-0.406-3.532-0.042-5.087,0.764
							c-1.555,0.807-2.859,2.03-3.987,3.37c-1.421,1.689-2.627,3.693-2.745,5.896c-0.152,2.824,1.571,5.521,3.911,7.108
							c2.34,1.587,5.212,2.205,8.034,2.397c7.476,0.509,15.112-1.851,20.997-6.49c1.504-1.186,2.919-2.542,3.839-4.222
							c0.919-1.68,1.297-3.728,0.676-5.54c-0.74-2.159-2.842-3.692-5.091-4.078c-2.221-0.381-4.499,0.261-6.424,1.369
							c-1.798,1.035-3.256,2.113-5.412,2.287C555.598,117.934,554.356,117.776,553.212,117.339z"/>
					</g>
					<g>
						<path style="fill:#4D9967;" d="M556.719,124.929c-8.81-0.004-17.618,0.511-26.367,1.547
							c-8.723,1.033-17.386,2.576-25.928,4.623c-4.813,1.154-9.587,2.47-14.313,3.941c-0.479,0.149-0.261,0.898,0.22,0.748
							c8.383-2.61,16.919-4.726,25.551-6.331c8.599-1.599,17.292-2.688,26.019-3.265c4.939-0.326,9.888-0.486,14.838-0.484
							C557.241,125.709,557.222,124.929,556.719,124.929z"/>
					</g>
				</g>
				<g>
					<g>
						<path style="fill:#68B181;" d="M554.586,92.597c-0.507-1.018-1.395-1.92-2.526-2.199c-1.296-0.319-2.6,0.209-3.675,0.906
							c-2.401,1.557-4.314,3.843-5.508,6.438c-0.071,0.054-0.13,0.121-0.167,0.202c-2.218,0.232-4.428,0.533-6.63,0.888
							c-0.049-0.007-0.099-0.015-0.148-0.022c1.753-1.63,3.433-3.367,4.657-5.436c1.213-2.049,2.277-4.87,1.648-7.276
							c-0.249-0.954-0.896-1.801-1.921-1.949c-1.194-0.172-2.306,0.593-3.196,1.292c-1.857,1.457-3.248,3.503-3.922,5.766
							c-0.788,2.647-0.53,5.507,0.589,8.013c-3.218,0.584-6.41,1.311-9.569,2.16c0.469-0.59,0.975-1.157,1.44-1.74
							c1.197-1.498,2.018-3.169,2.258-5.087c0.193-1.546,0.159-3.775-1.286-4.763c-1.536-1.051-3.35,0.004-4.318,1.294
							c-2.345,3.124-2.423,7.634-0.474,10.965c-0.695,0.203-1.393,0.399-2.084,0.615c-4.032,1.258-7.996,2.736-11.874,4.414
							c0.023-0.045,0.043-0.091,0.066-0.136c0.743-1.466,1.604-2.914,2.01-4.522c0.382-1.513,0.4-3.439-0.785-4.619
							c-1.042-1.037-2.671-1.055-3.65,0.068c-1.124,1.289-1.231,3.255-1.156,4.877c0.085,1.841,0.57,3.627,1.369,5.281
							c-2.776,1.267-5.503,2.639-8.173,4.115c-3.981,2.202-7.83,4.636-11.529,7.284c-0.519,0.371-0.02,1.239,0.505,0.863
							c6.114-4.377,12.647-8.153,19.481-11.287c-0.256,0.838-0.418,1.702-0.442,2.604c-0.046,1.741,0.357,3.597,1.286,5.085
							c0.839,1.341,2.284,2.369,3.932,2.12c1.505-0.227,2.394-1.562,2.57-2.99c0.429-3.491-2.678-6.059-5.4-7.688
							c4.57-1.995,9.266-3.701,14.052-5.102c-0.049,0.114-0.103,0.226-0.146,0.344c-0.672,1.848-0.497,4.096-0.19,6.006
							c0.277,1.723,1.129,3.384,2.865,3.994c1.648,0.579,3.142-0.39,3.74-1.933c1.319-3.402-0.871-7.446-3.951-9.068
							c1.864-0.505,3.74-0.966,5.627-1.379c1.342-0.294,2.69-0.555,4.042-0.8c-0.101,2.054,0.196,4.126,0.947,6.044
							c0.723,1.845,1.901,4.118,4.125,4.33c1.891,0.18,3.129-1.505,3.426-3.196c0.354-2.02-0.31-4.182-1.564-5.776
							c-0.712-0.905-1.628-1.609-2.648-2.095c1.587-0.227,3.176-0.433,4.771-0.595c1.138,1.683,3.035,2.748,5.061,2.947
							c2.31,0.226,4.472-0.877,5.797-2.752C555.232,97.24,555.619,94.672,554.586,92.597z"/>
					</g>
					<g>
						<path style="fill:#4D9967;" d="M536.965,55.049c5.19-1.748,9.007-6.763,9.299-12.238c0.067-1.266-0.039-2.643-0.703-3.757
							c-0.668-1.119-1.896-1.696-3.181-1.378c-1.376,0.34-2.418,1.478-3.237,2.564c-0.915,1.212-1.644,2.544-2.207,3.952
							c-1.274,3.183-1.562,6.717-0.85,10.067c-1.655,2.584-3.378,5.122-5.132,7.639c-0.234,0.157-0.459,0.326-0.682,0.5
							c0.268-2.567,0.484-5.148,0.288-7.726c-0.154-2.016-0.365-5.187-2.38-6.316c-0.918-0.515-2.015-0.327-2.822,0.308
							c-0.999,0.786-1.353,2.036-1.486,3.25c-0.249,2.267,0.167,4.59,1.066,6.677c0.902,2.095,2.308,3.929,4.089,5.337
							c-0.034,0.142-0.006,0.296,0.142,0.426c0.011,0.009,0.023,0.018,0.034,0.027c-2.642,3.686-5.387,7.298-8.24,10.823
							c0.4-2.259,0.539-4.562,0.361-6.853c-0.106-1.358-0.3-2.722-0.62-4.046c-0.269-1.111-0.751-2.251-1.814-2.811
							c-0.943-0.496-2.035-0.316-2.751,0.476c-0.683,0.756-0.963,1.809-1.142,2.787c-0.391,2.131-0.228,4.351,0.443,6.41
							c0.736,2.26,2.062,4.309,3.864,5.861c0.011,0.03,0.013,0.059,0.031,0.089c0.01,0.017,0.023,0.031,0.033,0.047
							c-3.139,3.782-6.4,7.461-9.772,11.036c0.572-1.234,1.077-2.497,1.426-3.812c0.312-1.176,0.498-2.399,0.482-3.618
							c-0.016-1.141-0.142-2.428-0.79-3.403c-0.541-0.814-1.464-1.377-2.461-1.244c-0.94,0.125-1.647,0.831-2.13,1.602
							c-1.148,1.831-1.523,4.305-1.51,6.43c0.015,2.524,0.676,5.014,1.914,7.212c-2.255,2.302-4.54,4.574-6.889,6.779
							c-3.965,3.722-8.063,7.302-12.28,10.736c-0.499,0.407,0.212,1.11,0.707,0.707c6.707-5.462,13.088-11.316,19.143-17.492
							c0.508,1.764,1.513,3.367,2.894,4.581c1.331,1.17,3.159,2.2,4.977,2.214c1.892,0.014,3.096-1.58,2.614-3.41
							c-0.255-0.968-0.919-1.774-1.594-2.486c-0.711-0.75-1.505-1.44-2.392-1.975c-1.347-0.813-2.959-1.207-4.487-0.968
							c0.077-0.081,0.158-0.158,0.235-0.239c3.638-3.816,7.133-7.767,10.502-11.821c1.039,1.383,2.396,2.52,3.979,3.235
							c1.771,0.8,4.029,1.304,5.91,0.586c1.93-0.737,2.653-2.814,1.88-4.679c-0.811-1.955-2.951-2.854-4.933-3.052
							c-1.403-0.141-2.803,0.073-4.105,0.558c1.835-2.293,3.641-4.608,5.388-6.969c0.649-0.877,1.265-1.777,1.901-2.663
							c1.799,1.457,3.796,2.698,5.958,3.523c2.189,0.836,4.882,1.013,6.699-0.727c1.593-1.525,1.447-3.963,0.175-5.638
							c-1.417-1.868-3.933-2.439-6.167-2.263c-1.289,0.102-2.541,0.426-3.715,0.93c1.302-1.903,2.585-3.819,3.831-5.758
							C536.818,55.082,536.888,55.075,536.965,55.049z"/>
					</g>
					<g>
						<path style="fill:#68B181;" d="M507.929,49.558c1.627-0.78,3.353-2.148,3.806-3.982c0.403-1.634-0.4-3.52-2.158-3.87
							c-1.824-0.363-3.65,0.847-4.861,2.094c-0.431,0.443-0.805,0.929-1.134,1.441c0.232-3.406,0.311-6.821,0.231-10.235
							c1.342-1.494,2.258-3.348,2.601-5.332c0.34-1.967,0.264-4.356-0.845-6.089c-1.122-1.754-3.34-2.024-4.823-0.518
							c-1.457,1.479-1.589,3.948-1.264,5.881c0.374,2.226,1.557,4.296,3.279,5.753c-0.15,0.215-0.096,0.461,0.059,0.62
							c0.071,3.467-0.029,6.935-0.281,10.391c-0.282-1.067-0.653-2.111-1.128-3.117c-0.511-1.083-1.131-2.116-1.855-3.07
							c-0.591-0.778-1.367-1.575-2.383-1.715c-2.077-0.286-2.701,2.12-2.565,3.719c0.169,1.992,0.966,3.874,2.201,5.438
							c1.34,1.696,3.193,2.952,5.278,3.524c-0.337,2.881-0.788,5.749-1.35,8.597c-1.471-2.57-3.243-5.251-6.034-6.418
							c-1.255-0.525-2.953-0.656-3.929,0.475c-1.169,1.355-0.453,3.225,0.475,4.477c1.959,2.643,5.228,4.919,8.657,3.963
							c0.111-0.031,0.218-0.07,0.328-0.106c-0.894,4.049-2.014,8.048-3.346,11.975c-0.029-0.132-0.053-0.266-0.084-0.397
							c-0.819-3.457-2.279-7.378-5.521-9.275c-1.457-0.852-3.002-0.331-3.438,1.334c-0.376,1.436,0.041,3.072,0.59,4.408
							c1.313,3.197,4.174,5.7,7.554,6.467c-1.21,3.305-2.568,6.555-4.089,9.729c-2.161,4.511-4.63,8.871-7.381,13.048
							c-0.355,0.539,0.51,1.04,0.863,0.505c4.565-6.929,8.325-14.372,11.245-22.136c0.183,0.834,0.387,1.661,0.68,2.454
							c0.566,1.535,1.826,3.139,3.639,3.051c1.571-0.077,2.849-1.449,3.065-2.965c0.27-1.897-0.96-3.7-2.523-4.658
							c-1.129-0.692-2.461-0.992-3.772-0.911c1.375-4.006,2.526-8.086,3.441-12.22c0.684,0.925,1.513,1.738,2.474,2.384
							c1.257,0.845,2.846,1.543,4.392,1.447c1.485-0.092,2.782-1.055,2.729-2.656c-0.058-1.757-1.637-2.987-3.141-3.585
							c-1.671-0.665-3.499-0.618-5.167,0.025c-0.286,0.11-0.566,0.226-0.846,0.343c0.627-3.101,1.127-6.229,1.495-9.372
							C504.757,50.571,506.407,50.287,507.929,49.558z"/>
					</g>
				</g>
				<g>
					<g>
						<path style="fill:#68B181;" d="M588.821,201.455c-2.233-0.532-4.585,0.068-6.17,1.765c-1.389,1.488-2.109,3.541-1.852,5.556
							c-1.304,0.932-2.633,1.828-3.974,2.706c0.445-1.04,0.667-2.173,0.603-3.323c-0.112-2.025-1.042-4.087-2.643-5.368
							c-1.34-1.074-3.383-1.52-4.684-0.135c-1.529,1.628-0.911,4.114-0.235,5.976c0.704,1.936,1.85,3.687,3.283,5.163
							c-1.176,0.709-2.361,1.404-3.562,2.07c-1.689,0.936-3.401,1.83-5.134,2.683c1.24-3.253,0.211-7.735-3.026-9.417
							c-1.469-0.763-3.23-0.503-4.085,1.021c-0.9,1.604-0.442,3.414,0.489,4.891c1.031,1.636,2.385,3.439,4.111,4.382
							c0.11,0.06,0.224,0.109,0.336,0.162c-4.518,2.112-9.17,3.934-13.918,5.456c0.966-3.021,1.602-7.002-1.027-9.339
							c-1.076-0.956-2.625-1.37-3.905-0.546c-1.401,0.902-1.807,2.628-1.55,4.189c0.285,1.731,1.21,3.39,2.394,4.667
							c0.614,0.661,1.307,1.202,2.052,1.662c-7.2,2.164-14.599,3.647-22.08,4.401c-0.642,0.065-0.443,1.046,0.192,0.982
							c4.526-0.457,9.024-1.173,13.467-2.151c2.979-0.656,5.933-1.428,8.853-2.312c0.493,1.769,1.31,3.431,2.462,4.869
							c1.016,1.267,2.396,2.671,4.091,2.897c1.476,0.196,2.687-0.894,2.784-2.361c0.11-1.669-1.176-3.103-2.463-3.986
							c-1.367-0.938-2.97-1.456-4.497-2.066c-0.047-0.019-0.093-0.039-0.14-0.059c4.019-1.303,7.971-2.813,11.829-4.533
							c0.662-0.295,1.315-0.608,1.971-0.916c0.738,3.787,3.777,7.121,7.601,7.916c1.579,0.328,3.638-0.078,4.096-1.882
							c0.432-1.696-1.015-3.392-2.182-4.425c-1.448-1.281-3.168-1.993-5.056-2.326c-0.735-0.13-1.489-0.222-2.231-0.354
							c2.932-1.451,5.808-3.014,8.609-4.702c0.816,2.62,2.512,4.938,4.853,6.404c2.001,1.253,4.397,1.87,6.754,1.737
							c1.13-0.064,2.471-0.224,3.253-1.142c0.672-0.788,0.597-1.852,0.154-2.732c-1.118-2.222-3.781-3.636-6.045-4.372
							c-2.286-0.744-4.695-0.937-7.088-1.003c0.033-0.038,0.065-0.076,0.097-0.115c1.887-1.188,3.744-2.423,5.563-3.714
							c0.082,0.036,0.17,0.048,0.259,0.041c2.61,1.159,5.557,1.611,8.388,1.193c1.268-0.187,2.596-0.652,3.358-1.748
							c0.665-0.956,0.735-2.221,0.443-3.319C593.024,203.655,591.037,201.983,588.821,201.455z"/>
					</g>
					<g>
						<path style="fill:#4D9967;" d="M605.029,245.842c-2.217-0.632-4.446-1.223-6.68-1.791c1.214-0.398,2.368-0.981,3.403-1.757
							c1.793-1.344,3.304-3.434,3.133-5.773c-0.153-2.098-1.654-4.025-3.857-4.116c-2.513-0.104-4.417,1.808-5.508,3.882
							c-1.078,2.049-1.757,4.299-2.144,6.582c-1.063-0.245-2.12-0.513-3.186-0.742c-2.871-0.617-5.757-1.161-8.649-1.67
							c1.298-0.497,2.49-1.262,3.45-2.294c1.356-1.459,2.369-3.547,1.685-5.55c-0.652-1.911-2.567-2.992-4.502-2.27
							c-1.887,0.704-3.248,2.574-4.049,4.345c-0.716,1.582-0.983,3.332-0.849,5.057c-5.208-0.817-10.442-1.473-15.694-1.933
							c-0.111-0.01-0.223-0.014-0.334-0.024c1.305-0.83,2.255-2.191,2.729-3.692c0.312-0.988,0.452-2.03,0.49-3.063
							c0.036-0.981,0.002-2.024-0.446-2.919c-0.847-1.692-2.804-2.093-4.215-0.832c-1.355,1.212-2.047,3.193-2.273,4.951
							c-0.234,1.824,0.07,3.69,0.855,5.35c-8.626-0.635-17.284-0.813-25.927-0.48c-0.638,0.024-0.707,1.023-0.063,0.998
							c5.434-0.209,10.875-0.23,16.311-0.056c3.221,0.103,6.437,0.298,9.651,0.536c0.523,2.467,1.672,4.773,3.329,6.677
							c1.395,1.603,3.311,3.212,5.382,3.828c0.873,0.26,1.87,0.322,2.658-0.205c0.836-0.559,1.157-1.592,1.025-2.56
							c-0.158-1.16-0.914-2.21-1.656-3.077c-0.793-0.926-1.74-1.72-2.752-2.397c-1.131-0.757-2.344-1.371-3.59-1.919
							c4.893,0.456,9.773,1.062,14.627,1.826c0.003,0.019,0.003,0.038,0.006,0.057c0.006,0.035,0.024,0.058,0.035,0.087
							c-0.326,2.356,0.032,4.769,0.973,6.952c0.857,1.988,2.202,3.763,3.903,5.104c0.781,0.615,1.687,1.22,2.699,1.337
							c1.061,0.122,2-0.465,2.379-1.461c0.428-1.123,0.037-2.297-0.495-3.309c-0.635-1.206-1.391-2.358-2.208-3.447
							c-1.38-1.837-3.006-3.473-4.799-4.905c4.471,0.761,8.918,1.658,13.337,2.679c-0.002,0.014-0.005,0.029-0.007,0.043
							c-0.025,0.195,0.056,0.329,0.175,0.413c-0.407,2.234-0.249,4.54,0.458,6.708c0.704,2.16,1.927,4.179,3.612,5.716
							c0.902,0.823,1.994,1.527,3.263,1.458c1.025-0.057,1.973-0.641,2.322-1.634c0.766-2.179-1.171-4.699-2.387-6.313
							c-1.556-2.065-3.424-3.86-5.321-5.609c0.282-0.017,0.563-0.039,0.842-0.076c2.98,0.73,5.951,1.497,8.9,2.342
							c1.679,2.985,4.231,5.447,7.29,6.995c1.354,0.685,2.781,1.203,4.269,1.508c1.333,0.274,2.867,0.44,4.124-0.214
							c1.175-0.611,1.715-1.855,1.477-3.136c-0.237-1.275-1.067-2.378-1.954-3.284c-3.837-3.917-10.016-5.159-15.066-3.042
							C605.131,245.753,605.073,245.794,605.029,245.842z"/>
					</g>
					<g>
						<path style="fill:#68B181;" d="M582.804,271.536c-2.353-2.116-4.795-4.134-7.315-6.047c0.286-0.097,0.574-0.195,0.861-0.302
							c1.676-0.619,3.079-1.792,3.895-3.395c0.733-1.442,1.105-3.409-0.012-4.766c-1.018-1.237-2.628-1.102-3.803-0.19
							c-1.223,0.949-1.955,2.523-2.34,3.988c-0.295,1.12-0.38,2.278-0.282,3.425c-3.419-2.498-6.979-4.8-10.657-6.898
							c1.037-0.805,1.839-1.911,2.229-3.176c0.54-1.752,0.272-3.918-1.184-5.163c-1.164-0.995-3.029-1.18-4.26-0.2
							c-1.419,1.131-1.305,3.168-0.715,4.694c0.305,0.789,0.698,1.544,1.112,2.292c-7.322-3.899-15.063-7-23.067-9.185
							c-0.619-0.169-0.937,0.779-0.315,0.949c4.825,1.317,9.559,2.958,14.162,4.916c3.239,1.378,6.406,2.92,9.498,4.601
							c-2.03,2.809-2.523,6.578-1.397,9.845c0.471,1.365,1.239,2.869,2.47,3.698c1.427,0.961,2.931,0.332,3.462-1.271
							c1.18-3.566-0.315-7.475-1.984-10.61c-0.063-0.118-0.134-0.235-0.2-0.353c3.595,2.067,7.077,4.329,10.424,6.777
							c-0.105,0.046-0.212,0.087-0.316,0.137c-3.205,1.548-4.155,5.417-3.879,8.695c0.131,1.553,0.829,3.431,2.602,3.675
							c1.48,0.204,2.667-1.016,3.263-2.24c1.324-2.72,0.882-5.903,0.288-8.804c2.303,1.766,4.537,3.62,6.694,5.561
							c-1.188,1.807-1.749,3.974-1.633,6.132c0.106,1.99,0.752,3.929,1.941,5.536c0.955,1.29,3.013,2.683,4.383,1.096
							c0.67-0.776,0.726-1.887,0.655-2.861c-0.087-1.194-0.304-2.38-0.636-3.53c-0.308-1.069-0.72-2.098-1.213-3.085
							c2.474,2.427,4.84,4.964,7.078,7.613c-0.011,0.222,0.112,0.443,0.366,0.505c-0.329,2.231,0.151,4.567,1.34,6.485
							c1.033,1.665,2.763,3.432,4.835,3.579c2.109,0.15,3.595-1.518,3.278-3.576c-0.313-2.034-1.834-3.877-3.389-5.129
							c-1.568-1.262-3.481-2.048-5.476-2.283c-2.195-2.615-4.511-5.127-6.936-7.53c0.585,0.167,1.187,0.284,1.803,0.333
							c1.732,0.135,3.902-0.163,5.032-1.641c1.088-1.424,0.445-3.371-0.938-4.331c-1.552-1.077-3.752-0.964-5.488-0.474
							C585.416,269.488,583.99,270.365,582.804,271.536z"/>
					</g>
				</g>
			</g>
		</g>
		<g>
			<g>
				<path style="fill:#DC4955;" d="M339.438,291.114l-70.078,22.003c-7.904,2.482-16.323-1.914-18.805-9.818l-30.013-95.592
					c-2.482-7.904,1.914-16.323,9.818-18.805l70.079-22.003c4.215-1.324,8.706,1.021,10.029,5.236l34.207,108.949
					C345.998,285.3,343.653,289.79,339.438,291.114z"/>
			</g>
			<g>
				<path style="fill:#FFFFFF;" d="M221.291,210.108l28.506,90.79c-3.625,1.138-7.314,1.342-10.814,0.743
					c-8.325-1.411-15.581-7.329-18.283-15.935l-14.6-46.502c-1.92-6.116-1.177-12.428,1.572-17.693
					C210.421,216.246,215.176,212.028,221.291,210.108z"/>
			</g>
			<g>
				<path style="fill:#DC4955;" d="M207.406,243.365l11.991,38.192c-3.044,0.956-6.167,0.857-8.981-0.094l-0.003-0.01
					c-4.242-1.425-7.775-4.801-9.222-9.41l-3.289-10.476c-1.201-3.826-0.743-7.774,0.978-11.071
					C200.605,247.208,203.58,244.566,207.406,243.365z"/>
			</g>
			<g>
				<path style="fill:#FFFFFF;" d="M444.382,50.291l79.823,254.233l-16.622-8.008l-8.854-4.263
					c-6.592-3.171-13.519-5.535-20.644-7.029c-5.026-1.053-10.139-1.68-15.291-1.865c-0.521-0.025-1.04-0.04-1.555-0.046
					l-9.131-0.173l-14.794-0.281l-10.671-0.203l-14.797-0.291l-10.68-0.2l-14.794-0.281l-41.693-0.797L310.47,172.13l33.755-24.486
					l11.978-8.687l8.649-6.269l11.975-8.697l8.64-6.266l11.978-8.687l7.394-5.361c0.42-0.299,0.836-0.608,1.25-0.927
					c4.122-3.097,7.958-6.534,11.481-10.271c4.992-5.299,9.327-11.188,12.924-17.558l4.896-8.675L444.382,50.291z"/>
			</g>
			<g>
				<path style="fill:#DC4955;" d="M543.98,317.428l-0.002,0.001c-7.904,2.482-16.323-1.914-18.805-9.818L443.41,47.197
					c-2.482-7.904,1.914-16.323,9.818-18.805l0.002-0.001c3.435-1.079,7.095,0.832,8.174,4.267l86.844,276.595
					C549.326,312.69,547.416,316.349,543.98,317.428z"/>
			</g>
			<g>
				<path style="fill:#DC4955;" d="M551.746,293.965c-1.24,2.63-3.53,4.74-6.52,5.68l-63.82-203.27v-0.01l-16.49-52.52
					c2.78-0.87,5.66-0.56,8.06,0.65c0.05,0.02,0.09,0.05,0.14,0.07c2.44,1.27,4.4,3.49,5.29,6.32l73.86,235.27
					C553.116,288.835,552.856,291.605,551.746,293.965z"/>
			</g>
			<g>
				<path style="fill:#FFFFFF;" d="M550.361,156.658c3.496,11.134-0.743,23.072-10.086,29.569c-1.028,0.732-2.121,1.389-3.273,1.961
					l-2.281,1.146l-11.104,5.562l-17.054-54.316l14.817-2.147c1.275-0.18,2.544-0.275,3.803-0.272
					c5.061-0.006,9.912,1.458,14.038,4.051C544.381,145.455,548.42,150.476,550.361,156.658z"/>
			</g>
			<g>
				<polygon style="fill:#E1DEE2;" points="534.721,189.334 523.617,194.895 513.145,161.541 				"/>
			</g>
			<g>
				<path style="fill:#BD313C;" d="M551.738,293.94l0.009,0.029c-1.242,2.622-3.534,4.736-6.52,5.674l-25.63-81.631L551.738,293.94z
					"/>
			</g>
			<g>
				<polygon style="fill:#E1DEE2;" points="323.387,213.285 344.674,281.085 365.462,281.482 				"/>
			</g>
			<g>
				<path style="fill:#E1DEE2;" d="M231.359,242.174l18.438,58.724c-3.625,1.138-7.314,1.342-10.814,0.743L231.359,242.174z"/>
			</g>
			<g>
				<path style="fill:#BD313C;" d="M210.722,253.926l8.675,27.63c-3.044,0.956-6.167,0.857-8.981-0.094l-0.003-0.01L210.722,253.926
					z"/>
			</g>
			<g>
				<path style="fill:#DC4955;" d="M269.359,313.117l30.636,108.39c0.698,2.469,0.281,5.121-1.14,7.257l0,0
					c-1.471,2.21-1.863,4.967-1.068,7.499l1.801,5.738c1.3,4.139,5.426,6.71,9.714,6.053l52.796-8.094
					c4.529-0.694,8.352-3.735,10.048-7.993l0,0c1.466-3.681,1.162-7.831-0.824-11.259l-0.529-0.913
					c-1.629-2.811-4.256-4.906-7.36-5.867l-11.682-3.617c-7.16-2.217-13.028-7.395-16.119-14.223l0,0
					c-5.159-11.397-8.369-23.58-9.496-36.039l-2.526-27.923c-0.198-2.187,1.58-4.045,3.773-3.944l4.577,0.211
					c2.62,0.121,4.764-2.063,4.594-4.681l-0.905-13.958c-0.111-1.715,0.964-3.284,2.604-3.799l0,0
					c1.965-0.617,3.058-2.71,2.441-4.675l-3.018-9.613L269.359,313.117z"/>
			</g>
			<g>
				<polygon style="fill:#BD313C;" points="337.674,291.668 269.359,313.117 273.698,328.468 				"/>
			</g>
			<g>
				<g>
					<polygon style="fill:#DC4955;" points="397.444,109.039 452.108,283.139 437.314,282.858 385.467,117.726 					"/>
				</g>
				<g>
					<path style="fill:#DC4955;" d="M417.568,92.48l60.516,192.743c-5.026-1.053-10.139-1.68-15.291-1.865l-56.706-180.607
						C410.21,99.654,414.046,96.217,417.568,92.48z"/>
				</g>
			</g>
			<g>
				<polygon style="fill:#E1DEE2;" points="444.382,50.291 458.485,95.209 435.388,66.247 				"/>
			</g>
			<g>
				<path style="fill:#BD313C;" d="M481.406,96.365l-16.49-52.52c2.78-0.87,5.66-0.56,8.06,0.65L481.406,96.365z"/>
			</g>
		</g>
	</g>
	<g>
		<g>
			<g>
				<g>
					<g>
						<g>
							<g>
								<g>
									<g>
										<polygon style="fill:#ED7B5F;" points="201.12,447.497 196.143,437.479 209.731,437.479 212.279,448.469 210.424,454.72 
											204.888,455.84 201.922,453.27 										"/>
									</g>
								</g>
							</g>
						</g>
						<g>
							<g>
								<g>
									<g>
										<path style="fill:#444145;" d="M199.738,461.213h30.447c1.116,0,2.021-0.905,2.021-2.021v-1.524
											c0-0.787-0.457-1.502-1.17-1.833l-16.568-7.685c-0.728-0.337-1.587-0.212-2.188,0.318l-3.836,3.388
											c-0.781,0.69-1.96,0.672-2.72-0.041l-4.602-4.318c-0.374-0.352-0.869-0.547-1.383-0.547l0,0
											c-1.116,0-2.021,0.905-2.021,2.021v10.221C197.717,460.308,198.622,461.213,199.738,461.213z"/>
									</g>
								</g>
							</g>
						</g>
					</g>
				</g>
				<g>
					<g>
						<g>
							<g>
								<g>
									<g>
										<polygon style="fill:#ED7B5F;" points="48.707,426.957 54.899,419.022 64.749,428.382 56.126,435.348 50.475,438.602 
											45.69,435.6 45.311,431.694 										"/>
									</g>
								</g>
							</g>
						</g>
						<g>
							<g>
								<g>
									<g>
										<path style="fill:#444145;" d="M38.256,435.947l22.071,20.974c0.809,0.769,2.088,0.736,2.857-0.073l1.05-1.105
											c0.542-0.57,0.704-1.403,0.414-2.135l-6.716-16.983c-0.295-0.746-1.004-1.247-1.805-1.276l-5.114-0.187
											c-1.042-0.038-1.884-0.862-1.944-1.904l-0.362-6.301c-0.029-0.513-0.253-0.995-0.625-1.349l0,0
											c-0.809-0.769-2.088-0.736-2.857,0.073l-7.041,7.409C37.415,433.899,37.447,435.178,38.256,435.947z"/>
									</g>
								</g>
							</g>
						</g>
					</g>
				</g>
			</g>
			<g>
				<g>
					<g>
						<path style="fill:#5A86CC;" d="M117.602,279.498l37.8-1.148c30.603,49.826,51.466,106.417,60.919,164.122h-22.275
							c-11.523-10.818-16.818-26.974-20.981-42.221c-4.163-15.247-7.627-31.105-16.433-44.23
							c-5.768-8.597-13.575-15.612-20.005-23.725C124.944,317.556,118.577,298.281,117.602,279.498z"/>
					</g>
					<g>
						<path style="fill:#5A86CC;" d="M134.14,328.965c-0.81,4.79-1.83,9.56-3.07,14.26c-2.28,8.67-5.28,17.15-8.99,25.32
							c-12.49,27.5-32.95,51.33-58.24,67.84l-14.56-15.9c9.5-13.61,18.02-28.2,27.52-41.81c5.16-7.38,10.37-14.88,13.32-23.39
							c4.41-12.75,3.38-26.62,2.84-40.1c-0.55-13.47-0.77-28.4,5.61-40.28l36.29,5.15C137.14,296.265,136.86,312.815,134.14,328.965
							z"/>
					</g>
				</g>
				<g>
					<g>
						<g>
							<path style="fill:#3E6AB0;" d="M134.449,328.703c-5.991-9.3-10.61-19.456-13.665-30.089c-0.858-2.987-1.59-6.009-2.201-9.056
								c-0.126-0.631-1.09-0.364-0.964,0.266c2.184,10.89,5.965,21.451,11.188,31.254c1.479,2.776,3.075,5.487,4.778,8.131
								C133.933,329.747,134.799,329.246,134.449,328.703z"/>
						</g>
					</g>
					<g>
						<g>
							<path style="fill:#3E6AB0;" d="M155.553,281.282c-14.687,3.943-30.248,4.499-45.183,1.637
								c-4.205-0.806-8.355-1.883-12.424-3.217c-0.613-0.201-0.876,0.764-0.266,0.964c7.273,2.385,14.809,3.931,22.431,4.628
								c7.621,0.697,15.316,0.534,22.9-0.483c4.32-0.579,8.598-1.435,12.808-2.565C156.439,282.08,156.176,281.115,155.553,281.282z
								"/>
						</g>
					</g>
					<g>
						<g>
							<path style="fill:#3E6AB0;" d="M134.14,328.965c-0.81,4.79-1.83,9.56-3.07,14.26l-5.9-30.46
								C127.58,318.495,130.57,323.945,134.14,328.965z"/>
						</g>
					</g>
					<g>
						<g>
							<path style="fill:#3E6AB0;" d="M62.679,432.903c-0.108,0-0.216-0.047-0.29-0.138c-0.131-0.16-0.108-0.397,0.052-0.527
								c31.866-26.088,54.69-62.515,64.266-102.569c0.048-0.202,0.25-0.332,0.452-0.277c0.201,0.048,0.326,0.25,0.277,0.451
								c-9.614,40.214-32.528,76.784-64.52,102.976C62.847,432.875,62.763,432.903,62.679,432.903z"/>
						</g>
					</g>
					<g>
						<g>
							<path style="fill:#3E6AB0;" d="M206.786,439.643c-0.181,0-0.341-0.132-0.37-0.316c-8.509-53.94-27.873-107.19-55.999-153.995
								c-0.107-0.178-0.049-0.408,0.128-0.515c0.178-0.107,0.409-0.049,0.515,0.128c28.176,46.887,47.574,100.23,56.098,154.265
								c0.032,0.205-0.107,0.397-0.312,0.429C206.825,439.642,206.805,439.643,206.786,439.643z"/>
						</g>
					</g>
				</g>
			</g>
		</g>
		<g>
			<g>
				<path style="fill:#ED7B5F;" d="M154.701,144.556c0.128-1.827,0.256-3.662,0.664-5.447c0.408-1.785,1.11-3.533,2.275-4.946
					c1.426-1.729,3.442-2.848,5.407-3.926c0.411-0.225,0.955-0.44,1.308-0.133c0.37,0.321,0.2,0.923-0.021,1.36
					c-0.838,1.658-2.019,3.133-3.423,4.351c0.314,0.808,0.494,1.703,0.471,2.57c2.715-2.554,5.43-5.108,8.145-7.661
					c0.315-0.296,0.641-0.6,1.046-0.752c0.404-0.152,0.912-0.117,1.205,0.2c0.265,0.287,0.292,0.734,0.167,1.104
					c-0.124,0.37-0.375,0.683-0.621,0.986c-1.931,2.383-3.667,4.881-5.598,7.264c2.57-2.197,5.176-4.352,7.815-6.465
					c0.32-0.256,0.654-0.519,1.05-0.623c0.397-0.104,0.877-0.008,1.102,0.335c0.187,0.284,0.155,0.67,0.007,0.976
					c-0.148,0.307-0.396,0.551-0.639,0.79c-2.508,2.459-4.97,4.95-7.479,7.409c3.038-2.011,6.075-4.022,9.113-6.033
					c0.409-0.27,0.949-0.544,1.354-0.269c0.305,0.207,0.365,0.652,0.236,0.997c-0.129,0.345-0.402,0.612-0.669,0.867
					c-2.504,2.395-5.091,4.745-7.76,6.954c2.306-1.281,4.612-2.562,6.918-3.843c0.349-0.194,0.805-0.382,1.118-0.135
					c0.234,0.184,0.261,0.545,0.142,0.818c-0.119,0.273-0.35,0.478-0.574,0.674c-4.383,3.812-9.079,7.262-14.026,10.305
					C160.481,149.68,157.655,147.157,154.701,144.556z"/>
			</g>
			<g>
				<path style="fill:#8CC951;" d="M102.531,217.556c1.575-15.745,9.842-32.804,19.814-45.401
					c9.973-12.597,32.28-29.525,32.28-29.525c3.59,2.414,7.108,5.756,9.203,9.946c-6.227,12.144-17.045,23.655-29.054,30.139
					c-3.006,11.074-9.126,21.04-17.701,28.665C113.193,214.833,107.674,216.834,102.531,217.556z"/>
			</g>
		</g>
		<g>
			<g>
				<g>
					
						<ellipse transform="matrix(0.26 -0.9656 0.9656 0.26 24.8111 215.9357)" style="fill:#EBB34C;" cx="153.283" cy="91.781" rx="40" ry="40"/>
				</g>
				<g>
					<path style="fill:#B57A10;" d="M166.613,122.951c-2.542-6.859-7.05-14.468-12.351-21.028c-3.219,0.475-6.656-0.329-9.2-2.342
						c-0.911-0.721-1.487-1.417-1.813-2.19c-0.443-1.048-0.348-2.194,0.248-2.992c0.868-1.163,2.477-1.272,3.601-0.88
						c1.15,0.399,2.044,1.241,2.861,2.069c1.614,1.637,3.193,3.402,4.711,5.255c1.183-0.238,2.321-0.668,3.348-1.295
						c0.88-0.537,1.668-1.212,2.348-1.987c-0.893-2.41-1.663-4.862-2.304-7.344c-0.282-1.095-0.52-2.169-0.327-3.272
						c0.196-1.115,0.98-2.358,2.289-2.624c0.972-0.197,2.075,0.233,2.81,1.096c0.546,0.642,0.906,1.474,1.133,2.621
						c0.666,3.37-0.331,7.01-2.463,9.711c2.908,7.665,7.08,14.878,12.282,21.182l-0.771,0.637
						c-5.158-6.25-9.316-13.383-12.254-20.963c-0.661,0.69-1.406,1.298-2.222,1.797c-0.981,0.599-2.054,1.033-3.17,1.306
						c5.225,6.55,9.657,14.086,12.181,20.897L166.613,122.951z M145.872,94.314c-0.607,0-1.215,0.203-1.573,0.683
						c-0.378,0.507-0.429,1.294-0.128,2.006c0.258,0.612,0.739,1.183,1.513,1.795c2.174,1.721,5.061,2.477,7.832,2.215
						c-1.38-1.659-2.81-3.243-4.268-4.722c-0.734-0.744-1.53-1.499-2.477-1.827C146.493,94.367,146.183,94.314,145.872,94.314z
						 M160.512,85.273c-0.098,0-0.194,0.009-0.289,0.028c-0.843,0.17-1.369,1.061-1.502,1.816c-0.159,0.906,0.056,1.865,0.31,2.849
						c0.581,2.251,1.27,4.478,2.062,6.67c1.7-2.413,2.464-5.517,1.893-8.405c-0.192-0.972-0.482-1.661-0.914-2.166
						C161.647,85.564,161.059,85.273,160.512,85.273z"/>
				</g>
			</g>
			<g>
				<path style="fill:#DC4955;" d="M193.698,116.847l-39.8,22.224c-2.165,1.209-4.899,0.434-6.108-1.731l0,0
					c-1.209-2.165-0.434-4.899,1.731-6.108l39.8-22.224c2.165-1.209,4.899-0.434,6.108,1.731l0,0
					C196.638,112.904,195.863,115.638,193.698,116.847z"/>
			</g>
			<g>
				<path style="fill:#DC4955;" d="M195.232,143.952l-19.539,10.911c-2.411,1.346-5.457,0.483-6.803-1.928l-9.465-16.949
					l28.27-15.786l9.465,16.949C198.506,139.56,197.643,142.605,195.232,143.952z"/>
			</g>
			<g>
				<path style="fill:#DC4955;" d="M192.085,161.267L192.085,161.267c-5.253,2.934-11.89,1.053-14.824-4.201l-1.311-2.348
					l19.024-10.623l1.311,2.348C199.219,151.697,197.338,158.334,192.085,161.267z"/>
			</g>
			<g>
				<polygon style="fill:#BD313C;" points="166.764,131.887 187.695,120.199 190.407,125.056 				"/>
			</g>
			<g>
				<polygon style="fill:#BD313C;" points="182.268,151.191 194.974,144.096 196.285,146.443 				"/>
			</g>
		</g>
		<g>
			<g>
				<path style="fill:#ED7B5F;" d="M132.361,181.22c0.659,3.595,1.881,7.085,3.606,10.307c0.534,0.996,1.134,1.989,2.012,2.7
					s2.092,1.1,3.164,0.742c0.931-0.311,1.619-1.136,1.996-2.042c0.377-0.906,0.485-1.898,0.583-2.875
					c0.937-9.42,1.187-18.908,0.747-28.365l-4.653,2.488C139.815,164.174,135.152,175.771,132.361,181.22z"/>
			</g>
			<g>
				<path style="fill:#ED7B5F;" d="M137.656,176.334c0,2.738-2.219,4.957-4.957,4.957s-4.957-2.219-4.957-4.957
					c0-2.737,2.219-4.957,4.957-4.957S137.656,173.596,137.656,176.334z"/>
			</g>
			<g>
				<polygon style="fill:#ED7B5F;" points="141.05,203.305 121.03,203.305 122.71,179.645 135.16,178.845 139.45,193.405 
					139.72,195.055 140.44,199.525 				"/>
			</g>
			<g>
				<path style="fill:#CC6147;" d="M140.44,199.525c-1.9-0.33-3.63-1.51-4.78-3.07c-1.37-1.85-2-4.16-2.16-6.46
					c-0.09-1.31-0.02-2.63,0.11-3.95c0.63,1.89,1.42,3.72,2.36,5.48c0.53,1,1.13,1.99,2.01,2.7c0.5,0.41,1.11,0.71,1.74,0.83
					L140.44,199.525z"/>
			</g>
			<g>
				<path style="fill:#664646;" d="M147.24,159.995c-1.51,2.07-3.53,3.54-5.63,5.02c-0.15,3.42-1.89,6.76-4.66,8.77
					c-0.86-1.44-2.44-2.41-4.25-2.41c-2.74,0-4.96,2.22-4.96,4.96c0,2.63,2.04,4.77,4.62,4.94c0.06,2.79-1.05,5.36-3.44,6.78
					c-2.41,1.43-5.6,1.44-8.02,0.03c-2.15-1.26-3.58-3.45-4.65-5.7c-2.49-5.19-3.46-10.98-4.01-16.71c-0.13-1.29-0.23-2.61,0-3.89
					c0.23-1.28,0.84-2.54,1.89-3.3c1.06-0.76,2.92-1.05,3.97-0.28c-0.41-2.17,1.03-4.36,2.94-5.47c1.9-1.11,4.18-1.36,6.38-1.45
					c2.21-0.09,4.45-0.05,6.57-0.69c1.81-0.55,3.43-1.57,5.15-2.36c1.71-0.8,3.64-1.37,5.48-0.95c2.5,0.56,4.34,2.96,4.7,5.5
					C149.68,155.325,148.74,157.915,147.24,159.995z"/>
			</g>
		</g>
		<g>
			<g>
				<path style="fill:#8CC951;" d="M155.4,278.345c-18.88,3.76-38.64,2.88-56.83-3.44c0.19-2.9,0.48-5.8,0.86-8.69
					c0.22-1.67,0.48-3.34,0.77-5c0.45-2.68,1-5.35,1.63-8c0.39-1.68,0.82-3.34,1.29-5c0.57-2.09,1.21-4.15,1.89-6.2
					c-0.07-0.27-0.14-0.54-0.21-0.8c-0.45-1.74-0.87-3.38-1.25-5c-1.31-5.69-2-11.04-1.02-18.66c2.56-5.14,6.29-9.9,10.23-14.08
					c10.64-2.12,21.69-2.21,32.37-0.27c2.5,5.62,5.23,11.18,7.72,16.81c0.43,4.58,0.94,10.13,1.41,16.2c0.13,1.63,0.25,3.3,0.37,5
					c0.16,2.29,0.31,4.63,0.43,7c0.1,1.66,0.18,3.32,0.26,5c0.12,2.66,0.21,5.33,0.26,8c0.04,1.67,0.07,3.34,0.07,5
					C155.68,270.365,155.61,274.455,155.4,278.345z"/>
			</g>
			<g>
				<g>
					<path style="fill:#ED7B5F;" d="M179.009,150.491c-1.109-1.457-2.222-2.922-3.093-4.533c-0.87-1.611-1.495-3.388-1.551-5.219
						c-0.068-2.241,0.709-4.41,1.476-6.517c0.16-0.44,0.427-0.96,0.896-0.963c0.49-0.003,0.758,0.562,0.881,1.036
						c0.464,1.799,0.548,3.687,0.296,5.528c0.769,0.4,1.494,0.955,2.048,1.621c0.357-3.71,0.714-7.42,1.072-11.131
						c0.041-0.43,0.087-0.873,0.29-1.255c0.204-0.381,0.608-0.689,1.038-0.644c0.389,0.041,0.703,0.359,0.854,0.72
						c0.151,0.361,0.168,0.761,0.183,1.151c0.12,3.065,0.462,6.088,0.582,9.152c0.484-3.346,1.021-6.685,1.612-10.014
						c0.072-0.404,0.149-0.821,0.379-1.161c0.229-0.34,0.654-0.584,1.05-0.475c0.328,0.09,0.558,0.401,0.649,0.729
						c0.091,0.328,0.066,0.676,0.04,1.015c-0.264,3.502-0.473,6.999-0.737,10.501c0.958-3.515,1.915-7.03,2.873-10.545
						c0.129-0.473,0.355-1.035,0.841-1.095c0.365-0.045,0.704,0.249,0.834,0.594c0.13,0.344,0.101,0.726,0.069,1.092
						c-0.303,3.451-0.699,6.924-1.248,10.345c0.889-2.484,1.778-4.967,2.666-7.451c0.135-0.376,0.353-0.818,0.752-0.839
						c0.297-0.016,0.555,0.238,0.646,0.521s0.053,0.59,0.013,0.885c-0.781,5.755-2.037,11.446-3.749,16.996
						C186.733,150.531,182.945,150.498,179.009,150.491z"/>
				</g>
				<g>
					<path style="fill:#8CC951;" d="M140.927,202.545l12.198,20.386c16.333,0,28.701-16.663,34.648-31.874
						c5.031-12.868,4.893-27.091,4.685-40.906c-5.095-0.59-10.43-0.632-15.52-0.005c-3.64,11.806-6.472,23.697-8.305,35.915
						C159.414,191.338,150.82,196.038,140.927,202.545z"/>
				</g>
			</g>
			<g>
				<g>
					<path style="fill:#A9E074;" d="M155.65,266.215H99.43c0.22-1.67,0.48-3.34,0.77-5h55.38
						C155.62,262.885,155.65,264.555,155.65,266.215z"/>
				</g>
				<g>
					<path style="fill:#A9E074;" d="M154.63,241.215H104.8c-0.45-1.74-0.87-3.38-1.25-5h50.71
						C154.39,237.845,154.51,239.515,154.63,241.215z"/>
				</g>
				<g>
					<path style="fill:#A9E074;" d="M155.32,253.215h-53.49c0.39-1.68,0.82-3.34,1.29-5h51.94
						C155.16,249.875,155.24,251.535,155.32,253.215z"/>
				</g>
			</g>
			<g>
				<g>
					<g>
						<path style="fill:#6FAB35;" d="M144.331,203.809c-0.03,0-0.06-0.003-0.09-0.011c-8.855-2.189-18.232-2.262-27.119-0.216
							c-0.202,0.047-0.403-0.079-0.449-0.281c-0.047-0.202,0.079-0.403,0.281-0.449c9-2.073,18.5-1.998,27.466,0.218
							c0.201,0.05,0.324,0.254,0.275,0.454C144.652,203.695,144.499,203.809,144.331,203.809z"/>
					</g>
				</g>
				<g>
					<g>
						<g>
							<path style="fill:#6FAB35;" d="M150.753,227.529c-0.195,0-0.36-0.151-0.374-0.349c-0.058-0.831-0.118-1.662-0.18-2.492
								c-0.015-0.207,0.14-0.386,0.346-0.402c0.206-0.006,0.387,0.14,0.402,0.346c0.062,0.832,0.122,1.663,0.18,2.495
								c0.015,0.207-0.141,0.386-0.348,0.4C150.771,227.528,150.762,227.529,150.753,227.529z"/>
						</g>
					</g>
					<g>
						<g>
							<path style="fill:#6FAB35;" d="M152.024,270.324c-0.001,0-0.002,0-0.004,0c-0.207-0.002-0.373-0.172-0.371-0.379
								c0.019-1.784,0.028-3.566,0.029-5.35c0-0.207,0.168-0.375,0.375-0.375l0,0c0.207,0,0.375,0.168,0.375,0.375
								c-0.001,1.785-0.011,3.571-0.029,5.357C152.397,270.159,152.23,270.324,152.024,270.324z M152.029,259.618
								c-0.206,0-0.373-0.166-0.375-0.371c-0.017-1.784-0.043-3.567-0.078-5.35c-0.004-0.207,0.161-0.379,0.368-0.383
								c0.181,0.006,0.378,0.16,0.382,0.367c0.035,1.786,0.061,3.571,0.078,5.357c0.002,0.207-0.165,0.377-0.372,0.379
								C152.031,259.618,152.03,259.618,152.029,259.618z M151.818,248.914c-0.202,0-0.369-0.161-0.375-0.364
								c-0.053-1.783-0.114-3.564-0.185-5.347c-0.008-0.206,0.153-0.381,0.36-0.389c0.197-0.011,0.381,0.152,0.389,0.36
								c0.071,1.784,0.133,3.569,0.186,5.354c0.006,0.207-0.157,0.38-0.364,0.386C151.825,248.914,151.821,248.914,151.818,248.914z
								 M151.393,238.216c-0.198,0-0.364-0.156-0.374-0.356c-0.089-1.781-0.187-3.561-0.293-5.341
								c-0.012-0.207,0.146-0.384,0.352-0.397c0.203-0.021,0.384,0.145,0.397,0.352c0.107,1.783,0.204,3.565,0.293,5.349
								c0.01,0.206-0.149,0.383-0.356,0.393C151.405,238.216,151.399,238.216,151.393,238.216z"/>
						</g>
					</g>
					<g>
						<g>
							<path style="fill:#6FAB35;" d="M151.884,278.177c-0.003,0-0.006,0-0.009,0c-0.207-0.005-0.371-0.178-0.366-0.385
								c0.021-0.832,0.04-1.664,0.057-2.497c0.004-0.206,0.148-0.384,0.383-0.367c0.207,0.004,0.372,0.176,0.367,0.383
								c-0.017,0.833-0.036,1.667-0.057,2.501C152.254,278.015,152.087,278.177,151.884,278.177z"/>
						</g>
					</g>
				</g>
				<g>
					<g>
						<path style="fill:#6FAB35;" d="M133.135,275.393c-10.955,0-21.892-1.718-32.378-5.131c-0.197-0.063-0.305-0.275-0.24-0.473
							c0.064-0.196,0.276-0.304,0.473-0.24c17.396,5.661,36.046,6.623,53.934,2.783c0.199-0.045,0.401,0.085,0.445,0.287
							c0.044,0.203-0.085,0.402-0.288,0.445C147.846,274.618,140.486,275.393,133.135,275.393z"/>
					</g>
				</g>
				<g>
					<g>
						<path style="fill:#6FAB35;" d="M177.957,189.297c-0.054,0-0.109-0.012-0.161-0.037c-2.91-1.386-6.005-2.295-9.2-2.703
							c-0.206-0.026-0.351-0.214-0.325-0.419c0.026-0.206,0.211-0.355,0.419-0.325c3.274,0.418,6.446,1.35,9.427,2.77
							c0.187,0.089,0.267,0.313,0.177,0.499C178.232,189.218,178.097,189.297,177.957,189.297z"/>
					</g>
				</g>
				<g>
					<g>
						<path style="fill:#6FAB35;" d="M136.204,255.472c-0.043,0-0.086-0.007-0.129-0.023c-13.935-5.092-25.261-17.076-29.559-31.277
							c-0.06-0.198,0.052-0.407,0.25-0.467c0.199-0.063,0.407,0.052,0.467,0.251c4.231,13.979,15.381,25.777,29.099,30.789
							c0.194,0.071,0.294,0.287,0.223,0.481C136.501,255.377,136.357,255.472,136.204,255.472z"/>
					</g>
				</g>
			</g>
		</g>
	</g>
	<g>
		<g>
			<g>
				<g>
					<g>
						<g>
							<g>
								<g>
									<polygon style="fill:#ED7B5F;" points="684.457,447.497 685.435,437.479 671.847,437.479 673.299,448.469 675.154,454.72 
										680.69,455.84 683.656,453.27 									"/>
								</g>
							</g>
						</g>
					</g>
					<g>
						<g>
							<g>
								<g>
									<path style="fill:#444145;" d="M685.84,461.213h-30.447c-1.116,0-2.021-0.905-2.021-2.021v-1.524
										c0-0.787,0.457-1.502,1.171-1.833l16.568-7.685c0.728-0.337,1.587-0.212,2.188,0.318l3.836,3.388
										c0.781,0.69,1.96,0.672,2.72-0.041l4.602-4.318c0.375-0.352,0.869-0.547,1.383-0.547l0,0c1.116,0,2.021,0.905,2.021,2.021
										v10.221C687.861,460.308,686.956,461.213,685.84,461.213z"/>
								</g>
							</g>
						</g>
					</g>
				</g>
			</g>
			<g>
				<g>
					<g>
						<g>
							<g>
								<g>
									<polygon style="fill:#ED7B5F;" points="650.057,408.145 647.387,398.44 634.698,403.301 639.984,413.044 643.953,418.218 
										649.523,417.284 651.374,413.823 									"/>
								</g>
							</g>
						</g>
					</g>
					<g>
						<g>
							<g>
								<g>
									<path style="fill:#444145;" d="M656.254,420.459l-28.432,10.891c-1.042,0.399-2.211-0.122-2.61-1.164l-0.545-1.423
										c-0.282-0.735-0.111-1.566,0.437-2.13l12.723-13.103c0.559-0.575,1.406-0.766,2.157-0.485l4.794,1.791
										c0.977,0.365,2.07-0.073,2.525-1.011l2.753-5.679c0.224-0.462,0.616-0.822,1.096-1.006l0,0
										c1.042-0.399,2.211,0.122,2.61,1.164l3.656,9.545C657.818,418.891,657.297,420.06,656.254,420.459z"/>
								</g>
							</g>
						</g>
					</g>
				</g>
			</g>
		</g>
		<g>
			<g>
				<g>
					<polygon style="fill:#5A86CC;" points="697.364,276.131 640.996,274.616 645.242,309.931 680.893,311.421 					"/>
				</g>
				<g>
					<path style="fill:#5A86CC;" d="M664.079,283.013c-5.821,53.229-3.443,107.251,6.347,159.895h16.256
						c4.062-19.858,8.123-40.447,3.629-60.212c-1.608-7.072-4.311-14.052-4.027-21.3c0.29-7.403,3.661-14.273,6.327-21.185
						c7.901-20.491,9.007-42.534,4.753-64.08L664.079,283.013z"/>
				</g>
				<g>
					<path style="fill:#5A86CC;" d="M640.996,274.616c-8.579,7.569-17.145,16.458-23.942,25.66
						c-6.797,9.202-12.888,19.143-12.902,30.584c-0.014,11.261,5.813,23.008,10.358,33.311c6.557,14.863,13.114,29.725,19.67,44.588
						l16.094-5.746c-1.086-22.982-7.575-45.672-18.968-65.661c15.012-9.225,27.7-21.735,37.77-36.194
						C660.695,291.771,650.994,282.259,640.996,274.616z"/>
				</g>
			</g>
			<g>
				<g>
					<path style="fill:#3E6AB0;" d="M661.774,312.57c-0.009,0-0.018,0-0.026-0.001c-0.207-0.015-0.362-0.194-0.348-0.4l2.102-29.393
						c0.015-0.207,0.2-0.368,0.4-0.348c0.207,0.015,0.362,0.194,0.348,0.4l-2.102,29.393
						C662.134,312.419,661.969,312.57,661.774,312.57z"/>
				</g>
				<g>
					<path style="fill:#3E6AB0;" d="M670.041,288.443c-1.017,0-2.033-0.027-3.051-0.083c-10.146-0.553-19.956-3.854-28.371-9.545
						c-0.172-0.116-0.217-0.349-0.101-0.52c0.115-0.172,0.349-0.218,0.521-0.101c8.303,5.615,17.982,8.872,27.992,9.418
						c10.012,0.548,19.984-1.64,28.849-6.32c0.183-0.095,0.41-0.027,0.507,0.157c0.097,0.183,0.026,0.41-0.157,0.507
						C688.146,286.222,679.15,288.443,670.041,288.443z"/>
				</g>
				<g>
					<path style="fill:#3E6AB0;" d="M695.92,296.118c-0.064,0-0.13-0.017-0.189-0.052c-5.253-3.079-8.592-9.004-8.508-15.092
						c0.003-0.206,0.17-0.37,0.375-0.37c0.002,0,0.003,0,0.005,0c0.207,0.003,0.373,0.173,0.37,0.38
						c-0.081,5.823,3.113,11.489,8.137,14.435c0.179,0.104,0.239,0.334,0.134,0.513C696.173,296.052,696.047,296.118,695.92,296.118
						z"/>
				</g>
				<g>
					<path style="fill:#3E6AB0;" d="M631.45,286.076c-0.181,0-0.339-0.13-0.37-0.313c-0.034-0.204,0.103-0.397,0.308-0.433
						c5.333-0.898,10.251-3.894,13.495-8.219c0.124-0.166,0.358-0.2,0.524-0.075c0.166,0.124,0.199,0.359,0.075,0.525
						c-3.357,4.478-8.449,7.579-13.97,8.51C631.491,286.074,631.47,286.076,631.45,286.076z"/>
				</g>
				<g>
					<path style="fill:#3E6AB0;" d="M666.89,305.395c-0.008,0-0.017,0-0.025-0.001c-1.865-0.127-3.794-0.258-5.63-0.847
						c-2.084-0.668-3.731-1.882-4.637-3.419c-1.217-2.063-1.112-4.619-1.029-6.674l0.54-13.311c0.009-0.206,0.153-0.361,0.391-0.359
						c0.206,0.009,0.367,0.184,0.359,0.391l-0.54,13.311c-0.08,1.955-0.179,4.389,0.926,6.262c0.813,1.378,2.31,2.474,4.219,3.085
						c1.75,0.562,3.632,0.689,5.452,0.814c0.207,0.014,0.362,0.192,0.349,0.399C667.251,305.243,667.087,305.395,666.89,305.395z"/>
				</g>
				<g>
					<path style="fill:#3E6AB0;" d="M662.513,364.365c-0.205,0-0.373-0.165-0.375-0.371c-0.002-0.207,0.164-0.377,0.371-0.379
						l10.984-0.124c0.001,0,0.003,0,0.004,0c0.205,0,0.373,0.165,0.375,0.371c0.002,0.207-0.164,0.377-0.371,0.379l-10.984,0.124
						C662.516,364.365,662.514,364.365,662.513,364.365z"/>
				</g>
				<g>
					<path style="fill:#3E6AB0;" d="M616.629,325.542c-0.012,0-0.023-0.001-0.036-0.002c-3.753-0.359-7.392-1.661-10.522-3.764
						c-0.172-0.115-0.218-0.349-0.103-0.521c0.115-0.172,0.348-0.218,0.521-0.103c3.028,2.033,6.547,3.292,10.177,3.641
						c0.206,0.02,0.356,0.203,0.337,0.409C616.983,325.397,616.82,325.542,616.629,325.542z"/>
				</g>
				<g>
					<path style="fill:#3E6AB0;" d="M684.977,440.233c-0.033,0-0.067-0.004-0.101-0.014c-0.199-0.056-0.316-0.263-0.261-0.462
						c4.97-17.856,6.193-35.636,3.446-50.063c-0.459-2.407-1.01-4.848-1.543-7.208c-1.313-5.807-2.669-11.811-2.77-17.865
						c-0.168-10.217,3.218-20.163,6.493-29.782c3.459-10.159,7.035-20.664,6.336-31.38c-0.014-0.207,0.143-0.385,0.35-0.398
						c0.201-0.025,0.386,0.143,0.398,0.35c0.71,10.865-2.892,21.442-6.374,31.671c-3.255,9.558-6.619,19.441-6.453,29.528
						c0.1,5.977,1.447,11.942,2.751,17.711c0.534,2.367,1.087,4.815,1.548,7.233c2.769,14.538,1.54,32.439-3.46,50.404
						C685.293,440.124,685.141,440.233,684.977,440.233z"/>
				</g>
				<g>
					<path style="fill:#3E6AB0;" d="M647.72,401.571c-0.188,0-0.349-0.139-0.372-0.329c-3.178-25.782-9.048-45.494-19.033-63.912
						c-0.092-0.17-0.04-0.382,0.121-0.49c11.4-7.661,21.848-16.713,31.054-26.901c0.139-0.154,0.376-0.166,0.529-0.027
						c0.154,0.139,0.166,0.376,0.027,0.529c-9.171,10.15-19.568,19.177-30.909,26.832c9.934,18.419,15.783,38.137,18.955,63.878
						c0.025,0.206-0.121,0.393-0.326,0.418C647.751,401.57,647.735,401.571,647.72,401.571z"/>
				</g>
			</g>
		</g>
		<g>
			<g>
				<g>
					<path style="fill:#ED7B5F;" d="M703.394,284.344c-1.226,1.36-2.458,2.727-3.46,4.26c-1.002,1.533-1.772,3.252-1.98,5.071
						c-0.255,2.227,0.339,4.454,0.927,6.617c0.123,0.452,0.346,0.993,0.812,1.034c0.488,0.044,0.803-0.497,0.964-0.96
						c0.612-1.754,0.854-3.629,0.756-5.484c0.799-0.334,1.569-0.827,2.176-1.445c0.047,3.727,0.093,7.454,0.14,11.181
						c0.005,0.432,0.013,0.878,0.185,1.275c0.171,0.397,0.549,0.737,0.981,0.728c0.391-0.008,0.731-0.299,0.911-0.646
						c0.18-0.347,0.231-0.744,0.279-1.132c0.375-3.044,0.968-6.028,1.343-9.072c0.203,3.375,0.46,6.747,0.772,10.114
						c0.038,0.408,0.08,0.83,0.281,1.188s0.603,0.637,1.006,0.561c0.335-0.063,0.59-0.353,0.708-0.673
						c0.117-0.319,0.122-0.668,0.124-1.008c0.029-3.512,0.113-7.014,0.141-10.526c0.661,3.583,1.323,7.165,1.984,10.747
						c0.089,0.482,0.267,1.061,0.747,1.161c0.36,0.076,0.722-0.19,0.881-0.522c0.159-0.332,0.161-0.715,0.16-1.083
						c-0.015-3.464-0.119-6.958-0.382-10.413c0.679,2.549,1.357,5.098,2.036,7.647c0.103,0.386,0.283,0.845,0.679,0.899
						c0.295,0.04,0.573-0.191,0.687-0.466c0.114-0.275,0.102-0.584,0.086-0.881c-0.299-5.8-1.075-11.576-2.319-17.25
						C711.095,284.948,707.318,284.665,703.394,284.344z"/>
				</g>
				<g>
					<path style="fill:#ED7B5F;" d="M604.169,165.041c0.171-1.823,0.342-3.655,0.229-5.483c-0.113-1.828-0.522-3.666-1.443-5.249
						c-1.127-1.938-2.934-3.369-4.698-4.752c-0.369-0.289-0.87-0.589-1.269-0.344c-0.418,0.257-0.347,0.878-0.2,1.346
						c0.558,1.772,1.484,3.42,2.671,4.849c-0.441,0.746-0.764,1.6-0.881,2.459c-2.265-2.961-4.529-5.921-6.794-8.882
						c-0.263-0.343-0.535-0.696-0.91-0.911c-0.375-0.216-0.881-0.263-1.222,0.002c-0.308,0.24-0.407,0.677-0.344,1.062
						c0.063,0.386,0.26,0.735,0.453,1.074c1.519,2.665,2.826,5.412,4.344,8.076c-2.18-2.585-4.401-5.135-6.662-7.648
						c-0.274-0.305-0.561-0.618-0.935-0.785c-0.375-0.167-0.864-0.15-1.142,0.151c-0.231,0.25-0.262,0.636-0.165,0.962
						c0.097,0.326,0.302,0.608,0.503,0.883c2.076,2.833,4.101,5.691,6.177,8.525c-2.671-2.477-5.342-4.954-8.013-7.432
						c-0.359-0.333-0.848-0.691-1.293-0.485c-0.334,0.154-0.466,0.584-0.394,0.945c0.071,0.361,0.298,0.67,0.519,0.964
						c2.082,2.769,4.253,5.508,6.528,8.121c-2.067-1.638-4.135-3.276-6.202-4.915c-0.313-0.248-0.732-0.508-1.082-0.315
						c-0.261,0.144-0.346,0.495-0.272,0.784s0.267,0.529,0.457,0.758c3.706,4.472,7.78,8.639,12.168,12.445
						C597.633,169.158,600.831,167.128,604.169,165.041z"/>
				</g>
			</g>
			<g>
				<g>
					<g>
						<path style="fill:#DC4955;" d="M699.86,206.535l-2,24.75l-0.45,2.68l-2.49,14.85l-0.13,0.74l-0.58,3.49l3.15,23.09
							c-14.49,5.99-30.88,6.94-45.83,2.57h-0.01c-0.24-0.07-0.48-0.14-0.72-0.22c-3.36-1.01-6.64-2.31-9.8-3.87l3.04-9.38l0.23-0.72
							l7.7-23.77c-3.66-0.76-6.73-3.84-7.46-7.5c-0.41-1.99-0.17-3.98,0.43-5.93c0.07-0.25,0.15-0.51,0.24-0.76
							c0.4-1.14,0.9-2.27,1.45-3.36c0.37-0.74,0.75-1.46,1.14-2.16c1.79-3.25,3.74-6.58,4.03-10.2c0.02-0.26,0.04-0.52,0.04-0.79
							c0-0.31-0.01-0.63-0.03-0.95l9.1-5.99h20.98l9.22,1.76l0.76,0.14L699.86,206.535z"/>
					</g>
					<g>
						<path style="fill:#DC4955;" d="M719.05,263.365l-0.57,4.72l-0.09,0.75l-2.04,17.01l-14.67-0.91l2.85-33.12l-7.12-17.85
							l-2.36-5.91l4.81-21.52c2.16,1.09,4,2.7,5.36,4.66c0.15,0.21,0.29,0.42,0.42,0.63c0.43,0.67,0.79,1.38,1.1,2.11l8.18,19.63
							C718.84,242.975,720.26,253.245,719.05,263.365z"/>
					</g>
					<g>
						<path style="fill:#DC4955;" d="M660.91,203.105l-5.58,8.69l-0.4,0.63l-7.28,11.34l-1.02-0.57l-11.74-6.49
							c-5.83-3.23-11.27-7.06-16.23-11.41c-0.21-0.18-0.42-0.36-0.62-0.55c-7.41-6.61-13.74-14.4-18.72-23.1l-6.21-10.86l11.95-7.24
							l7.59,9.62l0.48,0.6v0.01l11.8,14.93l13.43,5.37l0.74,0.3L660.91,203.105z"/>
					</g>
				</g>
				<g>
					<g>
						<g>
							<path style="fill:#F06E79;" d="M718.48,268.085l-0.09,0.75c-3.74-1.13-6.77-4.37-7.61-8.2c-0.79-3.61,0.26-7.27,1.29-10.81
								l0.25-0.86c1.08-3.8,1.86-7.79,0.27-11.2c-1.04-2.23-2.9-3.82-4.88-5.5c-1.4-1.2-2.84-2.43-3.97-3.91
								c-2.76-3.63-3.37-8.87-1.51-13.04c0.7-1.56,1.73-2.95,2.99-4.12c0.15,0.21,0.29,0.42,0.42,0.63c-1.15,1.08-2.1,2.37-2.73,3.8
								c-1.74,3.92-1.17,8.86,1.43,12.28c1.08,1.41,2.49,2.62,3.86,3.79c1.95,1.66,3.96,3.38,5.07,5.75
								c1.7,3.64,0.89,7.79-0.23,11.73l-0.25,0.86c-1,3.45-2.03,7.01-1.27,10.44C712.3,264.005,715.06,266.995,718.48,268.085z"/>
						</g>
					</g>
					<g>
						<g>
							<path style="fill:#F06E79;" d="M694.92,248.815l-0.13,0.74c-3.14-0.83-6.53-0.69-9.58,0.44c-4.26,1.58-7.74,5.06-9.32,9.31
								c-0.23,0.62-0.43,1.27-0.64,1.92c-0.67,2.19-1.38,4.45-3.25,5.82c-1.69,1.24-3.82,1.36-5.88,1.47
								c-0.51,0.03-1.02,0.06-1.52,0.1c-3.82,0.35-7.27,1.88-9.73,4.3c-1.63,1.61-2.79,3.66-3.34,5.79h-0.01
								c-0.24-0.07-0.48-0.14-0.72-0.22c0.58-2.24,1.79-4.37,3.54-6.1c2.58-2.55,6.2-4.15,10.19-4.51c0.51-0.05,1.03-0.08,1.55-0.11
								c1.95-0.1,3.97-0.22,5.48-1.33c1.67-1.22,2.34-3.36,2.98-5.43c0.2-0.66,0.41-1.33,0.65-1.96c1.65-4.45,5.3-8.1,9.75-9.75
								C688.12,248.115,691.65,247.965,694.92,248.815z"/>
						</g>
					</g>
					<g>
						<g>
							<path style="fill:#F06E79;" d="M691.87,205.005c-0.84,1.97-1.45,4.05-2.04,6.09c-0.75,2.6-1.53,5.3-2.78,7.75
								c-3.15,6.19-9.37,10.69-16.24,11.73c-0.94,0.14-1.84,0.21-2.7,0.21c-1.61,0-3.08-0.25-4.4-0.74
								c-2.44-0.92-4.35-2.77-5.1-4.95c-0.52-1.54-0.49-3.19-0.46-4.78c0.04-1.77,0.08-3.43-0.59-4.94c-0.5-1.11-1.38-2.1-2.63-2.95
								c-0.58-0.41-1.24-0.77-1.98-1.11c-0.38-0.17-0.76-0.33-1.15-0.48c-0.51-0.2-1.02-0.39-1.52-0.57
								c-1.13-0.42-2.3-0.85-3.4-1.41c-3.71-1.88-6.56-5.24-7.82-9.2c-0.57-1.81-0.81-3.71-0.7-5.58l0.74,0.3
								c-0.08,1.7,0.15,3.41,0.67,5.05c1.2,3.77,3.92,6.97,7.45,8.76c1.06,0.54,2.21,0.97,3.32,1.37c0.43,0.16,0.87,0.32,1.3,0.49
								c0.48,0.18,0.96,0.38,1.43,0.59c0.77,0.35,1.45,0.73,2.06,1.16c1.38,0.92,2.35,2.02,2.91,3.27c0.74,1.66,0.7,3.5,0.66,5.27
								c-0.03,1.52-0.06,3.11,0.42,4.52c0.68,1.97,2.42,3.64,4.65,4.48c1.9,0.72,4.16,0.88,6.73,0.5
								c6.63-1.01,12.64-5.35,15.68-11.33c1.22-2.39,1.99-5.05,2.73-7.62c0.59-2.01,1.18-4.06,2-6.02L691.87,205.005z"/>
						</g>
					</g>
					<g>
						<g>
							<path style="fill:#F06E79;" d="M663.47,260.305c-3.18,3.42-8.22,5.41-13.81,5.45h-0.18c-1.84,0-3.66-0.19-5.44-0.52
								l0.23-0.72c1.71,0.31,3.46,0.49,5.21,0.49h0.17c5.39-0.04,10.23-1.94,13.27-5.21c3.45-3.72,4.29-9.46,1.96-13.36
								c-0.82-1.38-2-2.55-3.15-3.68c-0.95-0.94-1.93-1.91-2.73-3.02c-0.94-1.3-1.63-2.78-2.29-4.2c-0.87-1.86-1.68-3.6-3.01-5.03
								c-2.05-2.19-5.36-3.39-8.76-3.19c0.07-0.25,0.15-0.51,0.24-0.76c3.53-0.13,6.92,1.15,9.07,3.44c1.41,1.51,2.29,3.4,3.14,5.22
								c0.65,1.4,1.32,2.84,2.22,4.08c0.76,1.06,1.72,2.01,2.65,2.93c1.18,1.16,2.39,2.37,3.27,3.83
								C668.06,250.285,667.19,256.285,663.47,260.305z"/>
						</g>
					</g>
					<g>
						<g>
							<path style="fill:#F06E79;" d="M618.66,205.295c-0.21-0.18-0.42-0.36-0.62-0.55c0.73-2.9,0.45-6.13-0.79-9.18
								c-1.2-2.92-3.32-5.72-6.12-8.07l-0.5-0.42c-1.44-1.19-2.94-2.42-3.39-4.27c-0.58-2.33,0.84-4.52,1.74-5.62
								c0.54-0.65,1.14-1.27,1.73-1.86c0.68-0.68,1.37-1.39,1.94-2.16l0.48,0.6v0.01c-0.57,0.75-1.24,1.42-1.89,2.08
								c-0.57,0.58-1.16,1.18-1.68,1.81c-0.81,0.99-2.09,2.95-1.59,4.96c0.39,1.61,1.79,2.76,3.14,3.88l0.5,0.41
								c2.9,2.44,5.09,5.33,6.33,8.36C619.3,198.605,619.56,202.145,618.66,205.295z"/>
						</g>
					</g>
				</g>
				<g>
					<g>
						<path style="fill:#BD313C;" d="M646.256,224.072c-0.075,0-0.151-0.022-0.218-0.069c-0.168-0.12-0.208-0.354-0.088-0.523
							c2.992-4.206,4.92-9.138,5.575-14.259c0.026-0.206,0.201-0.355,0.42-0.325c0.205,0.026,0.351,0.214,0.324,0.42
							c-0.671,5.244-2.645,10.292-5.708,14.599C646.489,224.017,646.374,224.072,646.256,224.072z"/>
					</g>
					<g>
						<path style="fill:#BD313C;" d="M680.348,244.462c-2.721,0-5.426-0.688-7.805-1.358l-0.967-0.275
							c-2.61-0.745-5.309-1.515-8.029-1.611c-1.517-0.057-3.101,0.103-4.625,0.256c-2.481,0.248-5.049,0.504-7.519-0.133
							c-0.2-0.052-0.321-0.256-0.27-0.457c0.052-0.2,0.252-0.32,0.457-0.27c2.342,0.604,4.729,0.365,7.258,0.113
							c1.548-0.154,3.147-0.31,4.727-0.259c2.811,0.1,5.555,0.882,8.207,1.64l0.965,0.274c2.874,0.809,5.942,1.573,9.021,1.26
							c3.285-0.333,6.099-2.029,7.342-4.424c0.097-0.184,0.322-0.253,0.506-0.16c0.184,0.096,0.256,0.322,0.16,0.506
							c-1.359,2.617-4.398,4.465-7.932,4.824C681.346,244.439,680.847,244.462,680.348,244.462z"/>
					</g>
					<g>
						<path style="fill:#BD313C;" d="M670.327,211.601c-1.574,0-3.106-0.24-4.535-0.723c-3.502-1.185-6.263-3.82-7.384-7.049
							c-0.067-0.196,0.036-0.409,0.231-0.478c0.197-0.065,0.41,0.036,0.477,0.231c1.029,2.967,3.68,5.49,6.915,6.585
							c2.986,1.01,6.459,0.9,9.783-0.311c2.902-1.057,5.694-2.922,8.3-5.546c0.147-0.147,0.384-0.148,0.53-0.002
							c0.146,0.146,0.147,0.383,0.001,0.53c-2.683,2.702-5.567,4.627-8.575,5.722C674.17,211.254,672.218,211.601,670.327,211.601z"
							/>
					</g>
					<g>
						<path style="fill:#BD313C;" d="M620.067,194.648c-0.122,0-0.242-0.06-0.314-0.17c-0.112-0.173-0.064-0.406,0.109-0.519
							c1.939-1.266,3.528-3.127,4.475-5.241c0.084-0.19,0.309-0.274,0.495-0.189c0.189,0.085,0.273,0.307,0.188,0.496
							c-1.005,2.243-2.691,4.218-4.749,5.562C620.209,194.628,620.137,194.648,620.067,194.648z"/>
					</g>
					<g>
						<path style="fill:#BD313C;" d="M698.146,235.723c-0.139,0-0.273-0.078-0.338-0.212c-1.952-4.041-3.201-8.348-3.713-12.803
							c-0.025-0.206,0.123-0.392,0.329-0.415c0.218-0.023,0.393,0.124,0.415,0.33c0.503,4.371,1.729,8.598,3.645,12.563
							c0.09,0.187,0.012,0.411-0.175,0.501C698.256,235.712,698.201,235.723,698.146,235.723z"/>
					</g>
					<g>
						<path style="fill:#BD313C;" d="M704.694,252.268c-0.186,0-0.348-0.138-0.372-0.327c-0.026-0.205,0.119-0.394,0.324-0.42
							l7.268-0.934c0.217-0.022,0.394,0.12,0.42,0.324c0.026,0.205-0.119,0.394-0.324,0.42l-7.268,0.934
							C704.725,252.267,704.71,252.268,704.694,252.268z"/>
					</g>
					<g>
						<path style="fill:#BD313C;" d="M697.517,234.66c-0.044,0-0.088-0.008-0.132-0.024c-1.573-0.59-3.035-1.42-4.346-2.469
							c-0.162-0.13-0.188-0.366-0.059-0.527c0.131-0.161,0.366-0.187,0.527-0.059c1.248,0.999,2.642,1.791,4.141,2.353
							c0.193,0.073,0.292,0.289,0.22,0.483C697.812,234.567,697.669,234.66,697.517,234.66z"/>
					</g>
					<g>
						<path style="fill:#BD313C;" d="M693.913,270.067c-0.168,0-0.32-0.113-0.363-0.283c-0.408-1.613-0.757-3.27-1.036-4.922
							c-0.034-0.204,0.103-0.397,0.308-0.433c0.212-0.026,0.398,0.105,0.433,0.308c0.275,1.633,0.619,3.269,1.022,4.863
							c0.051,0.2-0.07,0.404-0.272,0.455C693.974,270.063,693.943,270.067,693.913,270.067z M692.252,260.216
							c-0.192,0-0.356-0.147-0.374-0.343c-0.144-1.657-0.224-3.348-0.236-5.023c-0.002-0.207,0.165-0.376,0.372-0.378
							c0.001,0,0.002,0,0.003,0c0.206,0,0.373,0.166,0.375,0.372c0.013,1.655,0.091,3.325,0.234,4.964
							c0.018,0.206-0.135,0.388-0.342,0.406C692.273,260.216,692.262,260.216,692.252,260.216z M692.177,250.226
							c-0.009,0-0.018-0.001-0.027-0.001c-0.206-0.015-0.361-0.194-0.347-0.401c0.12-1.664,0.309-3.345,0.561-4.997
							c0.031-0.205,0.215-0.349,0.428-0.314c0.205,0.031,0.346,0.223,0.314,0.427c-0.25,1.632-0.437,3.293-0.556,4.938
							C692.537,250.076,692.373,250.226,692.177,250.226z M693.693,240.352c-0.028,0-0.058-0.003-0.086-0.01
							c-0.202-0.047-0.327-0.249-0.279-0.451c0.386-1.627,0.844-3.256,1.361-4.841c0.065-0.196,0.276-0.306,0.473-0.24
							c0.197,0.064,0.305,0.276,0.24,0.473c-0.512,1.565-0.964,3.174-1.344,4.782C694.017,240.236,693.863,240.352,693.693,240.352z
							"/>
					</g>
					<g>
						<path style="fill:#BD313C;" d="M675.077,272.514c-9.292,0-18.458-3.727-25.066-10.315c-0.146-0.146-0.147-0.384-0.001-0.53
							c0.146-0.147,0.384-0.148,0.53-0.001c7.278,7.256,17.729,10.965,27.955,9.922c0.201-0.02,0.391,0.129,0.411,0.335
							c0.021,0.206-0.129,0.39-0.335,0.411C677.408,272.455,676.241,272.514,675.077,272.514z"/>
					</g>
				</g>
			</g>
		</g>
		<g>
			<g>
				<path style="fill:#444145;" d="M698.941,198.147c2.438-2.702,2.842-7.037,0.944-10.143c-1.131-1.852-2.97-3.279-3.694-5.324
					c-1.402-3.957,1.87-8.644-0.042-12.382c-1.259-2.462-4.325-3.493-5.836-5.809c-2.102-3.222-0.697-8.101-3.395-10.844
					c-2.508-2.549-6.865-1.566-10.105-3.082c-1.367-0.64-2.513-1.721-3.94-2.213c-2.569-0.885-6.014,0.667-6.92,3.228
					c-0.262-1.769-2.507-2.681-4.204-2.117s-2.861,2.126-3.671,3.719c-0.81,1.594-1.394,3.324-2.485,4.741
					c-1.169,1.519-2.832,2.564-4.26,3.842c-1.428,1.278-2.697,2.988-2.628,4.903c0.096,2.635,2.672,4.764,2.528,7.396
					c-0.106,1.928-1.638,3.439-3.106,4.694c-1.468,1.255-3.074,2.623-3.426,4.522c-0.261,1.41,0.234,2.848,0.849,4.143
					c0.615,1.295,1.365,2.551,1.664,3.953c0.298,1.402,0.041,3.037-1.068,3.945c2.588,2.144,6.419,2.87,9.598,1.779
					c1.634-0.561,3.129-1.553,4.833-1.836c4.121-0.683,8.006,2.927,12.151,2.409c3.372-0.422,6.189-3.519,9.568-3.154
					c2.708,0.293,4.828,2.775,7.545,2.96c1.55,0.106,3.035-0.56,4.557-0.872C695.92,196.294,698.086,196.85,698.941,198.147z"/>
			</g>
			<g>
				<path style="fill:#ED7B5F;" d="M680.75,163.575v21.22l-10.87,9.36c-1.29,1.1-2.93,1.71-4.62,1.71c-3.91,0-7.09-3.17-7.09-7.08
					v-25.89l9.53-5.32L680.75,163.575z"/>
			</g>
			<g>
				<path style="fill:#ED7B5F;" d="M681.89,203.105c-2.77,3.17-6.63,4.76-10.49,4.76c-3.86,0-7.72-1.59-10.49-4.76l0.5-1.96
					l1.71-6.73l4.55-2.48l13.08-7.14L681.89,203.105z"/>
			</g>
			<g>
				<circle style="fill:#ED7B5F;" cx="680.753" cy="176.081" r="4.585"/>
			</g>
			<g>
				<path style="fill:#444145;" d="M664.093,182.362c-0.007,0-0.015-0.001-0.023-0.001c-0.67-0.06-1.298-0.549-1.598-1.247
					c-0.237-0.552-0.287-1.215-0.146-1.972c0.086-0.455,0.227-0.895,0.362-1.321c0.053-0.164,0.104-0.328,0.154-0.493
					c0.476-1.594,0.653-3.312,0.514-4.97c-0.012-0.138,0.091-0.258,0.228-0.27c0.153-0.004,0.26,0.091,0.271,0.228
					c0.147,1.744-0.032,3.478-0.533,5.155c-0.05,0.167-0.104,0.335-0.156,0.501c-0.138,0.431-0.268,0.837-0.347,1.261
					c-0.122,0.657-0.084,1.224,0.113,1.683c0.228,0.531,0.693,0.902,1.184,0.946c0.138,0.012,0.239,0.134,0.227,0.271
					C664.331,182.264,664.221,182.362,664.093,182.362z"/>
			</g>
			<g>
				<path style="fill:#444145;" d="M662.326,187.508c-0.56,0-1.12-0.04-1.678-0.122c-0.137-0.02-0.232-0.147-0.211-0.284
					c0.02-0.137,0.15-0.229,0.283-0.212c3.314,0.488,6.894-0.632,9.342-2.918c0.102-0.094,0.26-0.089,0.354,0.012
					c0.095,0.101,0.089,0.259-0.012,0.354C668.221,186.378,665.294,187.508,662.326,187.508z"/>
			</g>
			<g>
				<path style="fill:#444145;" d="M667.854,175.135L667.854,175.135c-0.438,0-0.797-0.358-0.797-0.797v-1.204
					c0-0.438,0.358-0.797,0.797-0.797l0,0c0.438,0,0.797,0.359,0.797,0.797v1.204C668.651,174.777,668.292,175.135,667.854,175.135z
					"/>
			</g>
			<g>
				<path style="fill:#444145;" d="M660.684,175.135L660.684,175.135c-0.438,0-0.797-0.358-0.797-0.797v-1.204
					c0-0.438,0.359-0.797,0.797-0.797l0,0c0.438,0,0.797,0.359,0.797,0.797v1.204C661.481,174.777,661.122,175.135,660.684,175.135z
					"/>
			</g>
			<g>
				<path style="fill:#444145;" d="M672.24,169.764c-0.185,0.502-1.504,0.478-2.946-0.054c-1.442-0.531-2.461-1.368-2.277-1.87
					c0.185-0.502,1.504-0.478,2.946,0.054C671.405,168.425,672.424,169.262,672.24,169.764z"/>
			</g>
			<g>
				<path style="fill:#444145;" d="M658.539,169.764c0.185,0.502,1.504,0.478,2.946-0.054c1.442-0.531,2.461-1.368,2.277-1.87
					c-0.185-0.502-1.504-0.478-2.946,0.054C659.373,168.425,658.354,169.262,658.539,169.764z"/>
			</g>
			<g>
				<path style="fill:#CC6147;" d="M678.09,187.085c-1.19,3.83-2.97,7.59-5.95,10.26c-2.89,2.61-6.85,3.98-10.73,3.8l1.45-5.7
					c0.75,0.27,1.56,0.42,2.4,0.42c1.69,0,3.33-0.61,4.62-1.71L678.09,187.085z"/>
			</g>
			<g>
				<path style="fill:#CC6147;" d="M675.279,179.057c0,0.889-1.484,1.609-3.314,1.609c-1.83,0-3.314-0.72-3.314-1.609
					c0-0.889,1.484-1.609,3.314-1.609C673.795,177.448,675.279,178.169,675.279,179.057z"/>
			</g>
			<g>
				<path style="fill:#CC6147;" d="M661.28,179.055c0,0.86-1.38,1.55-3.11,1.6v-3.2C659.9,177.505,661.28,178.195,661.28,179.055z"
					/>
			</g>
			<g>
				<g>
					<path style="fill:#444145;" d="M678.364,179.327c-0.134,0-0.244-0.105-0.25-0.24c-0.059-1.437,0.421-2.907,1.316-4.033
						c0.894-1.126,2.218-1.927,3.631-2.195c0.136-0.024,0.267,0.063,0.293,0.199c0.025,0.135-0.063,0.266-0.199,0.292
						c-1.298,0.246-2.513,0.98-3.333,2.014c-0.822,1.035-1.262,2.384-1.208,3.702c0.006,0.138-0.102,0.254-0.24,0.26
						C678.371,179.327,678.367,179.327,678.364,179.327z"/>
				</g>
				<g>
					<path style="fill:#444145;" d="M678.483,177.911c-0.05,0-0.1-0.015-0.143-0.046c-0.113-0.079-0.141-0.235-0.061-0.348
						c0.503-0.717,1.238-1.213,2.068-1.398c0.838-0.186,1.745-0.05,2.488,0.378c0.12,0.068,0.161,0.221,0.093,0.341
						c-0.068,0.12-0.222,0.162-0.341,0.093c-0.638-0.365-1.417-0.483-2.131-0.323c-0.709,0.158-1.338,0.583-1.77,1.197
						C678.639,177.874,678.561,177.911,678.483,177.911z"/>
				</g>
			</g>
			<g>
				<path style="fill:#444145;" d="M682.46,162.375c-0.28,3.07-0.48,6.15-0.74,9.22c-0.31-0.07-0.64-0.1-0.97-0.1
					c-1.48,0-2.8,0.7-3.63,1.79c-1.03-1.87-1.59-3.98-1.62-6.11c-3.85-0.27-7.53-2.26-9.89-5.33c-1.95,3.08-5.21,5.15-8.84,5.52
					c-0.14-2.89,0.16-5.92,0.97-8.7c3.29-2.71,7.32-4.42,11.57-4.86C674.06,155.935,678.62,158.865,682.46,162.375z"/>
			</g>
		</g>
	</g>
	<g>
		<path style="fill:#444145;" d="M727.134,461.587H22.866c-0.207,0-0.375-0.168-0.375-0.375c0-0.207,0.168-0.375,0.375-0.375
			h704.268c0.207,0,0.375,0.168,0.375,0.375C727.509,461.419,727.341,461.587,727.134,461.587z"/>
	</g>
</g>
</svg>
