<?xml version="1.0" encoding="utf-8"?>
<!-- Generator: Adobe Illustrator 27.5.0, SVG Export Plug-In . SVG Version: 6.00 Build 0)  -->
<svg version="1.1" xmlns="http://www.w3.org/2000/svg" xmlns:xlink="http://www.w3.org/1999/xlink" x="0px" y="0px"
	 viewBox="0 0 700 500" style="enable-background:new 0 0 700 500;" xml:space="preserve">
<g id="BACKGROUND">
	<rect style="fill:#00000000;" width="700" height="500"/>
</g>
<g id="OBJECTS">
	<g>
		<path style="fill:#F5F7FC;" d="M300.014,190.553c0.575,0.091,1.15,0.183,1.724,0.278"/>
		<g>
			<g>
				<path style="fill:#33BDA6;" d="M250.238,114.073l-7.192,6.363l5.278-9.551c-3.732-6-7.69-11.241-11.304-15.542l-3.789,3.579
					l1.511-6.222c-5.969-6.76-10.499-10.598-10.499-10.598c-3.384,7.685-5.755,15.521-7.35,23.27l9.358,4.294l-9.926-1.341
					c-1.628,8.974-2.253,17.792-2.231,26.081l13.253,7.754l-13.185-3.48c0.269,9.317,1.303,17.843,2.542,25.021
					c6.31,0,16.485,0,16.485,0l-15.921,3.109c2.252,11.826,4.875,19.261,4.875,19.261l41.167-26.204
					C263.61,142.513,257.613,126.784,250.238,114.073z"/>
				<path style="fill:#48586E;" d="M246.963,171.884c-2.877-6.211-5.363-13.662-7.489-21.484c-0.033-0.923-0.177-10.461,7.347-15.81
					c0.195-0.139,0.241-0.409,0.102-0.605c-0.14-0.195-0.41-0.242-0.605-0.102c-5.61,3.988-7.154,10.189-7.568,13.796
					c-2.469-9.538-4.417-19.47-5.899-28.277c0.229-1.036,2.013-8.493,6.431-11.604c0.196-0.138,0.243-0.408,0.105-0.604
					c-0.137-0.195-0.408-0.243-0.604-0.105c-3.55,2.5-5.447,7.429-6.279,10.22c-2.36-14.438-3.425-25.368-3.448-25.606
					c-0.023-0.238-0.23-0.406-0.473-0.391c-0.238,0.023-0.413,0.235-0.391,0.473c0.014,0.145,0.412,4.228,1.249,10.64
					c-0.948-0.796-2.634-1.858-5.146-2.167c-0.238-0.03-0.453,0.14-0.483,0.377c-0.029,0.238,0.139,0.454,0.377,0.483
					c3.414,0.42,5.17,2.377,5.436,2.695c0.588,4.399,1.366,9.746,2.349,15.595c-0.005,0.07,0.007,0.135,0.033,0.196
					c0.586,3.477,1.245,7.128,1.979,10.862c-1.59-1.606-4.928-4.356-9.684-5.017c-0.24-0.033-0.456,0.133-0.489,0.37
					c-0.033,0.237,0.133,0.456,0.37,0.489c6.079,0.844,9.835,5.442,10.135,5.821c1.226,6.084,2.652,12.345,4.293,18.391
					c0,0.004,0.001,0.023,0.001,0.025c0.004,0.065,0.025,0.124,0.054,0.178c0.537,1.973,1.097,3.921,1.68,5.833
					c-2.227-2.113-7.354-5.768-16.112-5.614c-0.239,0.005-0.429,0.203-0.424,0.442c0.005,0.238,0.159,0.402,0.442,0.425
					c11.283-0.234,16.424,6.314,16.693,6.669c1.578,4.964,3.318,9.639,5.231,13.769c0.073,0.158,0.23,0.251,0.394,0.251
					c0.061,0,0.123-0.013,0.182-0.04C246.969,172.359,247.064,172.102,246.963,171.884z"/>
				<path style="fill:#249081;" d="M278.156,139.908l10.075-3.672c0.438-4.546,0.42-9.531,0.189-14.217h-5.396l5.211-3.108
					c-0.594-8.575-1.742-15.443-1.742-15.443c-8.984,4.903-15.71,11.141-20.748,17.735l2.311,6.779l-3.522-5.123
					c-4.455,6.219-7.48,12.67-9.523,18.567l5.53,5.008l-6.16-3.133c-3.666,11.485-3.667,20.399-3.667,20.399
					s26.835-3.833,34.136-15.151c1.492-2.312,2.436-5.569,3.004-9.275L278.156,139.908z"/>
				<path style="fill:#48586E;" d="M285.236,116.869c-1.974-0.129-3.892,0.885-5.167,1.768c1.926-3.999,3.286-6.525,3.33-6.605
					c0.114-0.21,0.036-0.474-0.174-0.588c-0.212-0.115-0.474-0.036-0.588,0.174c-0.067,0.123-3.252,6.039-6.832,14.23
					c-0.204-1.642-0.798-4.062-2.504-5.967c-0.16-0.179-0.435-0.194-0.612-0.034c-0.178,0.16-0.194,0.434-0.034,0.612
					c2.453,2.739,2.394,6.816,2.384,7.166c-1.404,3.295-2.837,6.891-4.143,10.593c-0.022,0.042-0.038,0.085-0.046,0.131
					c-0.758,2.153-1.469,4.337-2.107,6.517c-0.977-7.687-4.619-10.783-4.789-10.922c-0.185-0.151-0.458-0.124-0.61,0.06
					c-0.152,0.185-0.125,0.458,0.06,0.61c0.042,0.035,4.244,3.583,4.681,12.588c-0.87,3.251-1.549,6.456-1.927,9.477
					c-0.03,0.238,0.139,0.454,0.376,0.484c0.018,0.002,0.036,0.003,0.054,0.003c0.216,0,0.402-0.16,0.43-0.38
					c0.713-5.706,2.508-12.075,4.657-18.179c0.497-0.598,3.996-4.654,8.745-6.291c0.226-0.078,0.347-0.325,0.269-0.551
					c-0.078-0.225-0.322-0.346-0.551-0.269c-3.401,1.172-6.13,3.458-7.711,5.022c2.233-6.062,4.74-11.74,6.796-16.104
					c0.454-0.418,3.203-2.836,5.958-2.68c0.223,0.016,0.444-0.166,0.46-0.405C285.657,117.09,285.475,116.884,285.236,116.869z"/>
			</g>
			<g>
				<path style="fill:#33BDA6;" d="M209.274,173.132c0,0-46.245-6.207-45.748-31.885c0,0-0.376-6.208,10.456-3.713
					C184.813,140.029,207.449,150.252,209.274,173.132z"/>
				<path style="fill:#48586E;" d="M218.627,186.649c-0.207,0-0.408-0.112-0.512-0.308c-10.284-19.418-38.287-34.819-38.569-34.973
					c-0.28-0.152-0.384-0.503-0.231-0.784c0.152-0.28,0.502-0.385,0.784-0.231c0.285,0.155,28.592,15.724,39.038,35.447
					c0.15,0.282,0.042,0.632-0.241,0.781C218.811,186.627,218.718,186.649,218.627,186.649z"/>
			</g>
			<g>
				<path style="fill:#33D2B3;" d="M199.225,192.116c0,0-16.846-21.541-8.57-25.388
					C200.176,162.302,201.259,183.719,199.225,192.116z"/>
				<path style="fill:#48586E;" d="M203.19,202.407c-0.142,0-0.28-0.069-0.363-0.196c-4.378-6.688-8.296-27.392-8.46-28.27
					c-0.044-0.235,0.111-0.462,0.346-0.506c0.235-0.043,0.462,0.111,0.506,0.346c0.04,0.213,4.05,21.41,8.334,27.954
					c0.131,0.2,0.075,0.469-0.125,0.601C203.354,202.384,203.271,202.407,203.19,202.407z"/>
			</g>
			<g>
				<path style="fill:#33BDA6;" d="M148.547,170.697c0,0,6.677,38.217,45.811,55.496l5.728-13.133
					C200.087,213.061,181.892,174.592,148.547,170.697z"/>
				<path style="fill:#48586E;" d="M196.447,219.289c-2.297-2.666-4.863-5.512-7.56-8.417l-4.409-15.513
					c-0.087-0.308-0.408-0.486-0.714-0.398c-0.307,0.088-0.485,0.407-0.398,0.714l3.794,13.347
					c-7.132-7.597-14.942-15.42-20.991-21.363l-0.739-7.646c-0.03-0.318-0.305-0.546-0.631-0.519
					c-0.317,0.031-0.55,0.313-0.519,0.631l0.607,6.276c-5.344-5.233-9.03-8.728-9.126-8.82c-0.232-0.218-0.597-0.211-0.817,0.023
					c-0.219,0.232-0.209,0.598,0.023,0.817c0.145,0.137,8.362,7.93,18.131,17.751l-8.77-1.226c-0.319-0.044-0.609,0.176-0.653,0.492
					c-0.044,0.316,0.176,0.609,0.492,0.653l10.274,1.436c7.22,7.291,15.107,15.524,21.131,22.517
					c0.115,0.133,0.276,0.201,0.438,0.201c0.134,0,0.268-0.046,0.377-0.14C196.628,219.896,196.656,219.531,196.447,219.289z"/>
			</g>
			<g>
				<path style="fill:#48586E;" d="M304.426,147.615c-0.21,0-0.394-0.152-0.428-0.366c-0.04-0.255-3.891-25.773,5.255-53.415
					c0.075-0.228,0.321-0.353,0.547-0.275c0.228,0.075,0.351,0.321,0.276,0.548c-9.076,27.436-5.26,52.757-5.221,53.009
					c0.037,0.237-0.125,0.458-0.361,0.496C304.471,147.613,304.448,147.615,304.426,147.615z"/>
				<path style="fill:#33BDA6;" d="M303.593,135.454c0,0-9.571-1.471-9.502-8.594C294.161,119.737,303.593,135.454,303.593,135.454z
					"/>
				<path style="fill:#33BDA6;" d="M303.822,125.008c0,0,3.328-6.528,8.426-5.34C317.345,120.855,303.822,125.008,303.822,125.008z"
					/>
				<path style="fill:#249081;" d="M304.867,114.662c0,0-6.023-1.28-6.025-6.238C298.84,103.466,304.121,110.705,304.867,114.662z"
					/>
				<path style="fill:#249081;" d="M306.454,105.771c0,0,3.908-4.749,6.492-3.911C315.53,102.698,309.389,105.702,306.454,105.771z"
					/>
				<path style="fill:#33BDA6;" d="M309.071,95.818c0,0-1.153-6.318-3.806-5.061C302.611,92.014,307.989,95.711,309.071,95.818z"/>
			</g>
			<g>
				<path style="fill:#249081;" d="M311.136,141.977l17.525-1.217c26.53-24.34,39.674-70.829,39.674-70.829
					C339.127,77.233,311.136,141.977,311.136,141.977z"/>
				<path style="fill:#48586E;" d="M323.305,140.463c-0.062,0-0.125-0.014-0.185-0.042c-0.216-0.103-0.309-0.361-0.206-0.577
					c13.251-27.945,34.39-57.697,34.601-57.994c0.139-0.194,0.41-0.242,0.605-0.101c0.195,0.139,0.241,0.41,0.102,0.605
					c-0.212,0.296-21.308,29.987-34.524,57.862C323.623,140.372,323.468,140.463,323.305,140.463z"/>
			</g>
			<g>
				<path style="fill:#33BDA6;" d="M426.263,73.339c-13.387,35.293,7.059,99.306,7.059,99.306h1.54
					C448.655,119.523,426.263,73.339,426.263,73.339z"/>
				<path style="fill:#48586E;" d="M434.861,157.501c-0.234,0-0.426-0.185-0.434-0.42c-0.642-20.191-6.83-68.355-6.892-68.839
					c-0.03-0.237,0.138-0.454,0.375-0.485c0.247-0.027,0.455,0.138,0.485,0.375c0.062,0.484,6.255,48.69,6.898,68.923
					c0.008,0.239-0.181,0.439-0.42,0.447C434.87,157.501,434.865,157.501,434.861,157.501z"/>
			</g>
			<g>
				<path style="fill:#33BDA6;" d="M331.581,79.18c-26.043-3.894-26.44,30.442,43.811,65.23h1.704
					C377.096,144.411,357.625,83.075,331.581,79.18z"/>
				<path style="fill:#48586E;" d="M373.932,144.844c-0.147,0-0.29-0.074-0.371-0.21c-12.002-19.923-48.968-55.777-49.34-56.136
					c-0.172-0.167-0.177-0.441-0.01-0.613c0.167-0.171,0.441-0.176,0.613-0.01c0.373,0.361,37.42,36.294,49.48,56.313
					c0.123,0.205,0.058,0.471-0.148,0.595C374.086,144.824,374.009,144.844,373.932,144.844z"/>
				<path style="fill:#249081;" d="M371.708,142.553c0,0,14.881-40.737,45.549-44.631c30.668-3.894,17.281,23.241-9.736,32.309
					c-27.017,9.068-35.813,15.397-35.813,15.397V142.553z"/>
				<path style="fill:#48586E;" d="M375.149,142.41c-0.097,0-0.194-0.032-0.274-0.098c-0.185-0.152-0.212-0.425-0.061-0.61
					c13.753-16.781,26.975-25.503,35.646-29.866c9.422-4.741,15.498-5.489,15.752-5.518c0.246-0.025,0.452,0.143,0.48,0.381
					c0.028,0.238-0.142,0.453-0.379,0.481c-0.245,0.029-24.734,3.232-50.828,35.072C375.399,142.356,375.275,142.41,375.149,142.41z
					"/>
			</g>
			<g>
				<path style="fill:#249081;" d="M479.566,130.05c-31.642,7.545-31.642,35.536-31.642,35.536
					c73.262-4.868,78.924-59.632,78.924-59.632S511.208,122.505,479.566,130.05z"/>
				<path style="fill:#48586E;" d="M516.162,119.724c-0.193-0.143-0.464-0.106-0.607,0.086c-0.057,0.076-3.199,4.18-9.692,9.335
					c0.319-1.662,1.183-4.895,3.352-7.268c0.163-0.177,0.15-0.451-0.027-0.613c-0.177-0.161-0.451-0.15-0.612,0.028
					c-2.901,3.174-3.597,7.62-3.722,8.642c-5.47,4.206-13.107,8.987-23.035,12.822c1.711-2.133,5.42-6.469,8.671-8.313
					c0.208-0.118,0.281-0.383,0.163-0.591c-0.12-0.209-0.385-0.279-0.592-0.163c-4.378,2.485-9.321,9.009-9.847,9.712
					c-4.044,1.582-7.802,3.397-11.252,5.376c-0.017,0.009-0.034,0.016-0.05,0.027c-2.652,1.523-5.125,3.136-7.432,4.792
					c0.882-2.788,3.5-9.782,8.404-12.959c0.201-0.13,0.259-0.399,0.128-0.6c-0.13-0.202-0.399-0.256-0.599-0.128
					c-6.207,4.022-8.809,13.453-9.095,14.554c-11.202,8.323-18.203,17.555-21.328,22.26c-0.132,0.199-0.078,0.469,0.122,0.601
					c0.073,0.049,0.157,0.072,0.239,0.072c0.14,0,0.278-0.068,0.361-0.194c3.814-5.742,13.414-18.302,29.511-27.58
					c0.738,0.17,3.698,0.792,7.42,0.792c2.152,0,4.557-0.209,6.928-0.834c0.232-0.062,0.369-0.299,0.308-0.53
					c-0.06-0.231-0.295-0.367-0.53-0.309c-5.159,1.361-10.615,0.651-12.934,0.233c3.396-1.887,7.047-3.636,11.008-5.132
					c4.749-1.793,8.981-3.807,12.726-5.881c0.713-0.052,8.147-0.639,12.939-2.894c0.216-0.102,0.309-0.36,0.207-0.577
					c-0.102-0.217-0.36-0.309-0.577-0.208c-3.299,1.553-8.051,2.302-10.705,2.619c3.666-2.142,6.822-4.318,9.469-6.36
					c0.036-0.023,0.065-0.041,0.093-0.073c7.154-5.535,10.612-10.057,10.673-10.137C516.391,120.14,516.353,119.868,516.162,119.724
					z"/>
			</g>
			<g>
				<path style="fill:#48586E;" d="M439.92,185.67c-0.239,0-0.434-0.194-0.434-0.434c-0.001-39.949,23.989-91.846,24.231-92.366
					c0.102-0.217,0.364-0.309,0.576-0.209c0.218,0.101,0.312,0.359,0.21,0.576c-0.242,0.518-24.151,52.245-24.15,91.999
					C440.354,185.476,440.159,185.67,439.92,185.67z"/>
				<path style="fill:#249081;" d="M445.787,144.076c-3.135-6.632-3.674-14.45-1.481-21.45c1.743,3.974,1.793,8.438,1.936,12.775
					C446.336,138.256,445.693,141.222,445.787,144.076z"/>
				<path style="fill:#33BDA6;" d="M464.842,123.571c-5.42-0.088-10.841,2.091-14.691,5.906c3.32,0.808,6.636-0.358,9.674-1.922
					C461.72,126.578,463.75,125.402,464.842,123.571z"/>
				<path style="fill:#33BDA6;" d="M453.07,120.586c-2.556-3.849-3.158-8.927-1.573-13.267c1.732,1.578,2.381,3.994,2.43,6.337
					C453.976,115.999,453.696,118.328,453.07,120.586z"/>
				<path style="fill:#249081;" d="M456.667,110.708c0.769-1.135,2.086-1.804,3.429-2.079c1.343-0.275,2.73-0.199,4.099-0.122
					c1.015,0.057,2.119,0.15,2.866,0.839C464.027,111.991,460.313,112.41,456.667,110.708z"/>
				<path style="fill:#249081;" d="M459.778,103.053c-1.293-1.119-2.222-2.652-2.614-4.316c-0.393-1.664-0.247-3.451,0.41-5.029
					c0.743,0.712,1.33,1.532,1.691,2.496C460.081,98.38,460.119,100.753,459.778,103.053z"/>
				<path style="fill:#33BDA6;" d="M463.281,94.771c1.153-0.067,2.229-0.602,3.374-0.757c1.42-0.192,2.913,0.237,4.013,1.156
					c-0.924,1-2.385,1.337-3.744,1.245C465.565,96.324,464.478,95.42,463.281,94.771z"/>
			</g>
			<g>
				<path style="fill:#249081;" d="M474.942,216.99l4.685,6.22c29.268-30.087,37.352-77.742,37.352-77.742
					C494.697,160.731,474.942,216.99,474.942,216.99z"/>
				<path style="fill:#48586E;" d="M483.46,212.873c-0.068,0-0.137-0.016-0.201-0.049c-0.212-0.111-0.295-0.373-0.183-0.585
					c4.146-7.931,26.674-56.407,26.9-56.896c0.101-0.217,0.357-0.309,0.576-0.211c0.217,0.101,0.312,0.359,0.21,0.576
					c-0.227,0.489-22.763,48.983-26.919,56.932C483.768,212.789,483.616,212.873,483.46,212.873z"/>
			</g>
			<g>
				<path style="fill:#249081;" d="M395.493,149.647c3.591-3.958,9.699-11.997,14.698-13.888c2.424-0.917,5.022-1.294,7.461-2.168
					c1.202,7.457-2.812,19.314-7.08,25.546c-0.406,0.593-0.875,1.203-1.552,1.444c-0.551,0.196-1.158,0.117-1.732,0.005
					C401.976,159.549,397.61,154.628,395.493,149.647z"/>
				<path style="fill:#48586E;" d="M403.284,157.501c-0.055,0-0.112-0.011-0.166-0.033c-0.221-0.092-0.326-0.345-0.235-0.567
					c2.806-6.774,9.321-16.766,9.387-16.866c0.13-0.202,0.399-0.257,0.6-0.126c0.201,0.131,0.256,0.4,0.125,0.6
					c-0.064,0.1-6.536,10.025-9.31,16.723C403.616,157.4,403.454,157.501,403.284,157.501z"/>
			</g>
			<g>
				<path style="fill:#33BDA6;" d="M505.261,165.586c-16.413-6.572-30.319,5.684-30.319,5.684
					c46.496,41.864,76.427,10.703,76.427,10.703C534.574,183.756,521.674,172.158,505.261,165.586z"/>
				<path style="fill:#48586E;" d="M537.919,184.951c-0.052-0.233-0.276-0.379-0.517-0.33c-2.162,0.479-4.36,0.616-6.607,0.489
					c-0.009,0-0.017-0.002-0.026-0.001c-2.486-0.142-5.036-0.616-7.661-1.302c1.744-0.689,5.052-1.884,7.224-1.967
					c0.239-0.009,0.426-0.211,0.417-0.449c-0.01-0.24-0.229-0.444-0.45-0.417c-2.966,0.114-7.692,2.083-8.568,2.459
					c-4.099-1.173-8.393-2.824-12.953-4.582c-3.513-1.354-7.099-2.729-10.824-3.984c-0.013-0.005-0.026-0.009-0.039-0.013
					c-2.176-0.732-4.399-1.422-6.689-2.038c1.434-0.972,4.994-3.042,10.184-3.758c0.238-0.033,0.403-0.252,0.37-0.489
					c-0.032-0.237-0.254-0.404-0.488-0.37c-6.412,0.884-10.336,3.693-11.165,4.335c-0.404-0.103-0.802-0.213-1.21-0.311
					c-24.612-5.938-45.981,9.245-46.195,9.399c-0.194,0.14-0.237,0.411-0.097,0.605c0.14,0.194,0.411,0.237,0.605,0.097
					c0.21-0.151,21.266-15.104,45.483-9.258c3,0.724,5.883,1.593,8.689,2.531c0.18,1.243,1.203,6.278,6.338,10.815
					c0.082,0.073,0.184,0.109,0.287,0.109c0.12,0,0.239-0.05,0.325-0.146c0.158-0.179,0.141-0.454-0.038-0.612
					c-4.386-3.876-5.638-8.21-5.971-9.849c3.473,1.188,6.829,2.477,10.121,3.747c8.033,3.096,15.253,5.872,22.088,6.3
					c0.343,0.521,1.425,1.865,3.996,2.791c0.049,0.018,0.098,0.025,0.147,0.025c0.177,0,0.344-0.11,0.408-0.287
					c0.081-0.225-0.035-0.474-0.261-0.555c-1.657-0.597-2.614-1.378-3.133-1.927c0.21,0.005,0.421,0.016,0.63,0.016
					c1.772-0.001,3.518-0.173,5.249-0.557C537.823,185.416,537.971,185.184,537.919,184.951z"/>
			</g>
			<path style="fill:#33BDA6;" d="M453.425,191.46c0.622-0.285,1.244-0.57,1.867-0.851c9.634-4.334,19.75-7.596,30.102-9.706
				c-9.245,8.272-21.013,13.092-32.689,17.283C452.518,196.192,453.611,193.454,453.425,191.46z"/>
			<g>
				<path style="fill:#33BDA6;" d="M501.552,200.785c0,0-2.725,9.189-8.849,21.328c-6.125,12.139-3.989,24.287-3.989,24.287
					l2.821,4.901C509.186,232.744,501.552,200.785,501.552,200.785z"/>
				<path style="fill:#48586E;" d="M502.288,214.258c0.097-0.165,0.041-0.378-0.124-0.475c-0.166-0.094-0.377-0.041-0.474,0.125
					c-0.348,0.596-1.021,1.258-1.53,1.716c0.303-2.57,0.391-4.206,0.394-4.262c0.009-0.191-0.138-0.354-0.33-0.364
					c-0.184,0.007-0.355,0.138-0.364,0.33c-0.004,0.09-0.233,4.328-1.239,9.964c-0.514-1.104-1.28-2.949-1.36-4.322
					c-0.011-0.191-0.177-0.347-0.367-0.326c-0.191,0.011-0.338,0.175-0.326,0.366c0.119,2.014,1.519,4.811,1.841,5.43
					c-0.788,4.12-1.988,8.847-3.793,13.213c-0.687-3.412-0.588-8.725-0.587-8.785c0.005-0.191-0.148-0.35-0.34-0.354
					c-0.002,0-0.005,0-0.007,0c-0.189,0-0.343,0.15-0.347,0.339c-0.006,0.267-0.123,6.499,0.82,9.874
					c-0.86,1.939-1.843,3.789-2.975,5.456c-0.107,0.159-0.067,0.374,0.091,0.482c0.06,0.041,0.128,0.06,0.195,0.06
					c0.111,0,0.22-0.053,0.287-0.152c1.167-1.719,2.18-3.628,3.062-5.627c0.007-0.012,0.01-0.023,0.016-0.036
					c0.8-1.817,1.489-3.708,2.085-5.605c0.334-0.344,3.234-3.381,4.473-6.126c0.079-0.174,0.001-0.38-0.174-0.459
					c-0.176-0.078-0.38-0.001-0.458,0.173c-0.794,1.757-2.353,3.697-3.379,4.872c0.718-2.494,1.279-4.96,1.715-7.24
					c0.009-0.024,0.009-0.045,0.013-0.071c0.409-2.152,0.708-4.131,0.923-5.806C500.408,216.344,501.71,215.249,502.288,214.258z"/>
			</g>
		</g>
		<path style="fill:#E0F0ED;" d="M643.629,382.256c-0.944,16.911-5.832,20.797-21.396,20.703c-12.258-0.074-24.52,0-36.778,0
			c-40.143,0-80.287,0-120.43,0c-93.958,0-187.916,0-281.874,0c-27.987,0-55.975,0-83.962,0c-9.13,0.591-24.394,0.401-33.374-0.867
			c-11.414-1.612-16.99-13.521-23.331-22.332c-4.124-5.731-7.898-11.969-9.075-18.931c-1.564-9.251,1.754-18.898,7.562-26.267
			c12.141-15.401,27.426-18.767,46.018-17.41c15.848,1.157,32.468,0.52,46.54-6.861c4.706-2.468,9.009-5.634,13.168-8.942
			c13.147-10.458,25.244-22.727,33.584-37.424c3.191-5.623,4.893-11.963,8.69-17.128c3.612-4.913,7.575-9.589,11.699-14.078
			c8.956-9.749,18.917-18.647,29.798-26.201c20.453-14.199,46.508-24.992,71.583-17.831c39.41,11.257,77.903,25.366,116.626,39.208
			c39.683,14.185,82.683,18.988,124.504,13.715c10.645-1.342,21.424,2.224,28.822,10.127c6.2,6.623,9.716,15.468,10.89,24.463
			c1.11,8.507,0.256,17.28,2.427,25.579c4.834,18.481,21.466,27.435,36.301,36.974C636.357,348.23,644.618,364.547,643.629,382.256z
			 M127.746,303.749c3.922-1.627,7.187-4.616,9.584-8.122c1.084-1.585,2.025-3.345,2.186-5.258c0.327-3.883-2.726-7.409-6.32-8.916
			c-9.849-4.129-24.973,0.006-31.994,7.768c-1.821,2.013-3.329,4.554-3.177,7.265c0.413,7.353,9.815,9.405,18.259,9.191
			C120.963,305.559,125.349,304.744,127.746,303.749z M601.276,305.832c4.119,7.475,10.356,14.684,18.774,16.092
			c4.105,0.686,8.792-0.349,11.279-3.686c1.386-1.859,1.944-4.208,2.195-6.514c1.174-10.752-3.624-21.303-9.716-30.24
			c-4.755-6.975-17.396-19.577-26.288-11.061C589.262,278.334,596.912,297.911,601.276,305.832z"/>
		<g>
			<path style="fill:#9DCDD3;" d="M479.056,402.959c17.605-26.954,27.848-59.153,27.848-93.749
				c0-94.814-76.862-171.676-171.676-171.676S163.553,214.396,163.553,309.21c0,34.596,10.243,66.795,27.848,93.749H479.056z"/>
			<g>
				<path style="fill:#C4E1D9;" d="M470.549,330.947c2.932-2.235,6.578-3.576,9.007-6.349c4.283-4.891,3.365-12.324,5.422-18.492
					c0.855-2.563,2.264-5.021,2.325-7.723c0.098-4.347-4.944-9.362-4.519-13.69c0.392-3.989,0.777-8.073-0.213-11.957
					c-0.71-2.784-2.124-5.479-1.941-8.347c0.174-2.717,1.772-5.485,0.762-8.013c-0.607-1.521-2.038-2.551-2.887-3.951
					c-0.989-1.63-1.117-3.622-1.678-5.445c-1.117-3.637-4.121-6.636-7.76-7.748c-2.005-0.613-4.16-0.682-6.116-1.436
					c-3.128-1.204-5.395-4.007-8.439-5.409c-3.544-1.631-7.796-1.211-11.268-2.989c-2.104-1.077-3.752-2.882-5.796-4.07
					c-3.068-1.784-7.217-2.178-10.294-0.409c-2.634,1.514-5.929,1.028-8.879,0.303c-2.95-0.725-6.031-1.647-8.967-0.867
					c-2.274,0.605-4.151,2.157-6.077,3.51c-1.926,1.353-4.598,1.77-6.84,2.484c-2.483,0.791-4.79,1.068-7.127,2.222
					c-4.854,2.396-8.895,6.406-11.329,11.241c-1.572,3.124-2.531,6.636-4.841,9.263c-1.765,2.008-4.17,3.319-6.522,4.59
					c-1.7,0.918-3.502,1.862-5.434,1.808c-2.134-0.059-4.018-1.318-6.017-2.07c-3.202-1.205-6.882-1.08-9.995,0.34
					c-2.608,1.19-4.967,3.278-7.833,3.337c-5.161,0.106-7.927-6.003-12.311-8.728c-2.902-1.803-7.205-2.821-7.587-6.216
					c-0.197-1.747,0.794-3.789-0.346-5.128c-1.32-1.549-3.822-0.367-5.419,0.894c-1.597,1.262-4.033,2.517-5.431,1.038
					c-0.551-2.452,3.182-4.366,2.579-6.806c-0.517-2.094-3.455-2.135-5.567-1.697c-0.209-1.137,0.611-2.169,1.121-3.206
					c0.51-1.037,0.501-2.641-0.605-2.98c-0.398-0.122-0.83-0.028-1.223,0.108c-2.465,0.853-4.09,3.232-5.034,5.664
					c-0.943,2.432-1.385,5.044-2.446,7.427c-1.061,2.383-2.955,4.625-5.518,5.109c-2.563,0.485-5.577-1.596-5.255-4.185
					c0.134-1.079,0.778-2.018,1.164-3.035c1.712-4.504-1.781-9.648-0.407-14.267c1.324-4.449,6.527-6.543,8.843-10.566
					c0.78-1.355,1.204-2.886,1.923-4.273c2.506-4.834,8.884-7.235,13.956-5.255c1.676,0.654,3.178,1.708,4.873,2.311
					c1.695,0.603,3.764,0.666,5.118-0.518c0.613-1.673-0.554-3.484-1.922-4.625c-1.368-1.141-3.035-2.008-3.988-3.514
					c-2.356-3.721,0.875-8.283,2.504-12.376c1.458-3.664,1.575-7.846,0.323-11.585c-0.807-2.409-2.15-4.615-2.908-7.039
					c-0.758-2.425-0.833-5.285,0.729-7.288c1.631-2.092,4.496-2.652,6.865-3.843c2.369-1.192,4.511-4.096,3.082-6.33
					c-0.66-1.032-1.885-1.542-2.758-2.402c-1.652-1.626-1.807-4.178-2.17-6.467c-0.158-0.995-0.451-2.041-0.904-2.961
					c-38.43,3.7-73.151,20.069-99.948,44.882c3.877,7.206,9.375,13.968,9.631,22.089c0.154,4.867,1.132,10.464,0.285,15.26
					c-0.74,4.189,0.869,8.553,3.56,11.848c2.692,3.294,6.371,5.64,10.18,7.535c2.632,1.309,5.45,2.499,7.367,4.727
					c2.316,2.691,3.002,6.554,5.529,9.048c1.134,1.119,2.571,1.887,3.75,2.959c2.548,2.318,3.854,6.008,6.937,7.544
					c0.228,0.113,0.497,0.214,0.73,0.111c0.453-0.201,0.315-0.878,0.078-1.313c-1.534-2.819-4.161-5.093-4.928-8.21
					c-0.508-2.063-0.201-4.467-1.576-6.087c-0.473-0.557-1.111-0.965-1.535-1.56c-0.424-0.595-0.555-1.518-0.004-1.997
					c0.428-0.372,1.075-0.321,1.622-0.174c1.626,0.438,2.996,1.51,4.289,2.588c2.052,1.71,4.037,3.499,5.95,5.364
					c1.514,1.477,3.002,3.015,4.8,4.128c3.547,2.196,8.443,2.759,12.379,1.376c4.131-1.451,8.577-2.919,12.803-1.775
					c1.27,0.344,2.469,0.914,3.737,1.261c3.058,0.836,6.469,0.274,9.098-1.499c0.999-0.674,1.97-1.544,3.172-1.634
					c2.038-0.152,3.43,1.896,4.897,3.32c2.006,1.947,4.764,2.973,6.778,4.912c1.273,1.226,2.222,2.793,3.661,3.819
					c3.011,2.149,7.127,1.339,10.74,0.543c3.613-0.796,7.855-1.335,10.598,1.148c1.287,1.165,2.006,2.819,3.071,4.191
					c2.186,2.815,6.027,4.858,6.174,8.418c0.121,2.951-2.461,5.271-3.369,8.081c-0.347,1.075-0.446,2.22-0.82,3.285
					c-0.927,2.64-2.966,4.626-5.196,6.316c-4.019,3.046-4.92,8.947-3.482,13.78c1.438,4.833,4.739,8.856,7.961,12.735
					c4.124,4.965,8.29,9.971,13.372,13.95c1.653,1.294,3.461,2.501,5.522,2.895c2.058,0.394,4.17-0.057,6.252-0.293
					c4.876-0.552,10.336,0.335,13.559,4.036c5.237,6.014,1.966,15.589,4.798,23.044c0.615,1.618,1.518,3.124,2.027,4.778
					c0.691,2.246,0.624,4.642,0.751,6.989c0.414,7.646,2.936,14.989,5.533,22.203h36.065c-0.005-0.439-0.006-0.878,0.02-1.314
					c0.499-8.303,10.113-12.991,13.156-20.733c1.278-3.251,1.338-6.938,2.997-10.011c1.79-3.314,5.154-5.414,7.834-8.062
					c2.437-2.408,4.386-5.427,4.996-8.798c0.61-3.371-0.271-7.105-2.74-9.48c-1.459-1.403-3.428-2.335-4.446-4.085
					C465.34,337.29,467.617,333.182,470.549,330.947z"/>
				<path style="fill:#C4E1D9;" d="M317.186,219.91c1.043-0.332,2.159-0.32,3.247-0.432c1.948-0.201,3.852-0.814,5.551-1.787
					c1.132-0.648,2.229-1.474,3.525-1.629c0.841-0.1,1.688,0.095,2.535,0.108c1.887,0.028,3.723-0.854,5.603-0.679
					c0.923,0.086,1.915,0.523,2.237,1.393c0.303,0.82-0.081,1.719-0.457,2.508c-0.337,0.705-0.681,1.421-1.205,2.001
					c-0.525,0.579-1.265,1.012-2.046,0.984c-0.778-0.029-1.478-0.499-2.251-0.59c-2.175-0.257-3.799,2.452-5.986,2.355
					c-1.677-0.074-2.93-1.786-4.606-1.892c-1.132-0.072-2.154,0.606-3.213,1.011c-0.97,0.371-3.586,1.285-4.516,0.599
					C313.788,222.517,315.74,220.37,317.186,219.91z"/>
				<path style="fill:#C4E1D9;" d="M329.868,201.235c0.288,0.585,0.246,1.453-0.354,1.708c-0.159,0.067-0.335,0.08-0.507,0.092
					c-0.579,0.039-1.174,0.069-1.728-0.102c-0.747-0.23-1.336-0.795-1.895-1.341c-0.665-0.651-1.331-1.301-1.996-1.952
					c-0.618-0.605-1.285-1.33-1.217-2.192c0.028-0.352,0.179-0.682,0.328-1.002c0.43-0.923,0.86-1.847,1.29-2.77
					c0.145-0.31,0.322-0.651,0.646-0.76c0.487-0.164,0.97,0.305,1.142,0.789c0.172,0.484,0.183,1.029,0.448,1.469
					c0.567,0.94,2.096,1.091,2.411,2.143c0.227,0.758-0.179,1.481,0.186,2.22C328.924,200.146,329.556,200.602,329.868,201.235z"/>
				<path style="fill:#C4E1D9;" d="M249.621,402.959c0.62-3.416,0.637-7.069,0.577-10.525c-0.034-1.956-0.092-4.003-1.048-5.709
					c-1.583-2.827-5.098-3.883-7.446-6.116c-4.167-3.961-3.981-10.814-7.488-15.37c-2.16-2.806-5.55-4.5-7.583-7.4
					c-6.576-9.383,4.759-23.799-1.648-33.298c-2.351-3.485-6.489-5.198-10.011-7.492c-4.575-2.98-8.309-7.13-12.944-10.014
					c-4.636-2.885-10.843-4.317-15.462-1.406c-4.357,2.745-10.318,2.47-14.744-0.162c-2.424-1.442-4.475-3.723-7.25-4.226
					c-0.278-0.05-0.553-0.079-0.826-0.092c-0.124,2.672-0.194,5.358-0.194,8.061c0,34.596,10.243,66.795,27.848,93.749H249.621z"/>
				<path style="fill:#C4E1D9;" d="M411.796,155.526c-0.787,0.771-1.353,1.846-1.554,3.357c-0.993,7.447,12.96,11.115,16.34,16.155
					c1.933,2.883,2.415,6.614,4.64,9.278c3.82,4.574,10.894,4.169,16.286,6.705c3.442,1.619,6.144,4.429,9.024,6.913
					s6.24,4.772,10.038,4.956c1.032,0.05,2.086-0.121,3.08-0.464C454.093,182.869,434.358,166.789,411.796,155.526z"/>
				<path style="fill:#C4E1D9;" d="M345.146,206.303c1.289-0.239,2.522-0.847,3.833-0.821c1.594,0.032,3.048,1,4.64,1.092
					c0.808,0.046,1.633-0.134,2.419,0.055c0.787,0.189,1.534,0.974,1.269,1.738c-0.173,0.501-0.712,0.785-1.232,0.885
					c-0.52,0.1-1.06,0.066-1.578,0.178c-1.76,0.379-2.825,2.295-4.546,2.822c-1.352,0.415-2.807-0.118-4.057-0.78
					c-1.25-0.661-2.471-1.475-3.872-1.673c-0.925-0.13-1.864,0.02-2.798,0.015c-0.934-0.004-1.935-0.199-2.584-0.871
					c-0.393-0.407-0.588-1.13-0.166-1.507c0.211-0.188,0.509-0.228,0.784-0.295c1.315-0.32,1.67-1.4,3.064-1.188
					C341.957,206.203,343.478,206.613,345.146,206.303z"/>
			</g>
		</g>
		<g>
			<g>
				<path style="fill:#B6845A;" d="M392.303,402.959c-0.842-2.668-4.354-5.185-6.201-7.054c-0.434-0.439-0.886-0.889-1.459-1.122
					c-1.058-0.43-2.272-0.03-3.395-0.235c-2.017-0.367-3.249-2.534-5.195-3.18c-1.075-0.357-2.295-0.22-3.303-0.738
					c-0.927-0.476-1.507-1.419-2.298-2.097c-1.359-1.165-3.284-1.505-4.625-2.69c-1.701-1.504-2.483-4.323-4.728-4.666
					c-1.66-0.253-3.111,1.074-4.725,1.54c-1.021,0.295-2.132,0.245-3.116,0.646c-2.288,0.933-2.97,3.76-4.291,5.849
					c-2.505,3.962-7.52,5.359-12.08,6.444c-3.504,0.834-7.008,1.668-10.512,2.501c-0.945,0.225-1.915,0.46-2.715,1.012
					c-1.218,0.839-1.807,2.291-1.87,3.79H392.303z"/>
				<path style="fill:#93745A;" d="M410.592,402.959c-0.22-1.861-1.433-3.402-3.335-4.605c-1.619-1.023-3.422-1.679-4.941-2.869
					c-1.509-1.182-2.702-2.714-4.125-3.991c-1.614-1.449-3.714-2.63-5.857-2.297c-1.393,0.216-2.603,1.04-3.899,1.594
					c-2.758,1.179-5.86,1.122-8.828,1.553c-5.79,0.84-11.274,3.657-15.33,7.873c-0.603,0.627-1.198,1.326-1.371,2.179
					c-0.038,0.188-0.048,0.376-0.046,0.563H410.592z"/>
			</g>
			<path style="fill:#B6845A;" d="M255.93,402.959c-0.1-0.093-0.206-0.181-0.312-0.257c-4.881-3.505-11.181-4.97-17.107-3.978
				c-0.716,0.12-1.447,0.274-2.162,0.145c-1.302-0.236-2.239-1.332-3.234-2.204c-0.996-0.872-2.448-1.583-3.597-0.925
				c-0.294,0.168-0.564,0.424-0.902,0.437c-0.244,0.009-0.471-0.113-0.683-0.234c-2.16-1.237-4.502-2.851-6.912-2.226
				c-0.989,0.257-1.845,0.875-2.614,1.548c-1.386,1.214-2.57,2.655-3.502,4.243c-0.442,0.753-1.339,2.217-1.685,3.451H255.93z"/>
			<g>
				<path style="fill:#33BDA6;" d="M91.333,325.985c-17.677,35.161,0,47.842,0,47.842S109.01,361.146,91.333,325.985z"/>
				<path style="fill:#48586E;" d="M96.274,351.737c0.056-0.149-0.019-0.316-0.169-0.373c-0.15-0.054-0.316,0.019-0.372,0.169
					l-4.11,10.926v-12.32l2.561-6.807c0.056-0.149-0.019-0.316-0.169-0.373c-0.15-0.055-0.317,0.019-0.372,0.169l-2.02,5.37v-6.951
					c0-0.159-0.129-0.289-0.289-0.289c-0.16,0-0.289,0.13-0.289,0.289v11.096l-2.808-7.465c-0.056-0.15-0.224-0.224-0.372-0.169
					c-0.15,0.056-0.225,0.224-0.169,0.373l3.349,8.903v13.923l-4.111-10.927c-0.056-0.149-0.222-0.225-0.372-0.169
					c-0.15,0.056-0.225,0.224-0.169,0.372l4.652,12.364v25.626c0,0.159,0.129,0.289,0.289,0.289c0.16,0,0.289-0.13,0.289-0.289
					v-31.374L96.274,351.737z"/>
				<path style="fill:#249081;" d="M115.506,345.152c-12.801,25.463,0,34.646,0,34.646S128.307,370.615,115.506,345.152z"/>
				<path style="fill:#48586E;" d="M118.638,365.655c-0.135-0.086-0.314-0.042-0.397,0.095l-2.446,3.994v-8.019l1.969-3.215
					c0.083-0.137,0.041-0.314-0.096-0.397c-0.135-0.085-0.314-0.043-0.397,0.095l-1.476,2.41v-4.193
					c0-0.159-0.129-0.289-0.289-0.289c-0.16,0-0.289,0.13-0.289,0.289v8.495l-2.206-3.431c-0.087-0.135-0.265-0.175-0.4-0.087
					c-0.134,0.086-0.173,0.265-0.087,0.398l2.693,4.188v8.06l-3.301-5.135c-0.087-0.135-0.266-0.175-0.4-0.087
					c-0.134,0.086-0.173,0.264-0.087,0.398l3.788,5.892v20.36c0,0.159,0.129,0.289,0.289,0.289c0.16,0,0.289-0.13,0.289-0.289
					v-24.622l2.939-4.799C118.817,365.916,118.775,365.739,118.638,365.655z"/>
				<path style="fill:#249081;" d="M64.21,345.152c-12.801,25.463,0,34.646,0,34.646S77.011,370.615,64.21,345.152z"/>
				<path style="fill:#48586E;" d="M67.091,366.868c-0.14-0.08-0.315-0.032-0.394,0.107l-2.198,3.859v-9.527l1.802-3.164
					c0.079-0.139,0.031-0.315-0.108-0.394c-0.14-0.081-0.316-0.032-0.394,0.107l-1.3,2.282v-3.714c0-0.159-0.129-0.289-0.289-0.289
					c-0.16,0-0.289,0.13-0.289,0.289v7.701l-2.409-4.395c-0.076-0.14-0.254-0.193-0.392-0.114c-0.14,0.076-0.191,0.252-0.115,0.392
					l2.916,5.32v9.494l-3.23-5.893c-0.076-0.141-0.253-0.193-0.392-0.114c-0.14,0.076-0.191,0.252-0.115,0.392l3.737,6.818v19.452
					c0,0.159,0.129,0.289,0.289,0.289c0.16,0,0.289-0.13,0.289-0.289v-23.471l2.7-4.741
					C67.278,367.123,67.23,366.947,67.091,366.868z"/>
				<path style="fill:#93745A;" d="M130.649,402.959l0.302-0.039c-2.462-2.548-5.336-5.281-8.879-5.272
					c-0.787,0.002-1.576,0.144-2.358,0.055c-1.913-0.218-3.373-1.73-4.806-3.017c-1.433-1.286-3.326-2.491-5.168-1.928
					c-0.956,0.292-1.721,1.024-2.656,1.376c-1.573,0.592-3.325,0.029-5.004,0.101c-1.856,0.08-3.576,0.936-5.265,1.711
					c-0.355,0.163-0.735,0.327-1.123,0.275c-0.428-0.057-0.773-0.363-1.124-0.615c-2.485-1.782-5.914-1.109-8.83-0.189
					c-0.61,0.193-1.237,0.395-1.875,0.35c-0.532-0.038-1.036-0.245-1.51-0.49c-3.362-1.739-5.895-5.512-9.679-5.576
					c-2.414-0.04-4.539,1.504-6.861,2.167c-1.605,0.459-3.303,0.494-4.921,0.904c-2.418,0.613-4.634,2.113-5.949,4.233
					c-1.089,1.758-1.501,3.936-1.096,5.953H130.649z"/>
			</g>
			<g>
				<path style="fill:#93745A;" d="M598.831,402.959c0,0-4.571-3.594-10.04-7.885c-3.833-3.007-8.58-0.371-10.588,1.688
					s-16.977,6.197-16.977,6.197H598.831z"/>
				<g>
					<path style="fill:#33BDA6;" d="M619.398,341.197c-5.282-14.36-9.516-25.207-12.048-39.552
						c-2.532,14.345-6.766,25.192-12.048,39.552c-8.201,22.296,12.048,31.885,12.048,31.885S627.599,363.493,619.398,341.197z"/>
					<path style="fill:#249081;" d="M611.281,389.413c0,0,10.8-3.735,10.794-17.122
						C608.506,377.524,611.281,389.413,611.281,389.413z"/>
					<path style="fill:#249081;" d="M603.938,384.339c0,0-9.372-3.241-9.367-14.858
						C606.346,374.022,603.938,384.339,603.938,384.339z"/>
					<path style="fill:#48586E;" d="M617.848,378.982c-0.133-0.081-0.313-0.045-0.398,0.091l-9.81,15.582v-26.862l7.394-15.151
						c0.07-0.143,0.01-0.316-0.133-0.386c-0.143-0.071-0.317-0.01-0.386,0.133l-6.875,14.087v-10.828l5.476-11.221
						c0.07-0.143,0.01-0.316-0.133-0.386c-0.143-0.072-0.317-0.011-0.386,0.133l-4.956,10.157v-9.964l3.89-7.972
						c0.07-0.143,0.01-0.316-0.133-0.386c-0.143-0.071-0.317-0.011-0.386,0.133l-3.37,6.907v-10.091l2.539-5.204
						c0.07-0.143,0.01-0.316-0.133-0.386c-0.142-0.071-0.317-0.01-0.386,0.133l-2.02,4.14v-6.509c0-0.159-0.13-0.289-0.289-0.289
						c-0.159,0-0.289,0.13-0.289,0.289v6.509l-2.021-4.141c-0.069-0.143-0.244-0.203-0.386-0.133
						c-0.143,0.07-0.203,0.243-0.133,0.386l2.54,5.205v10.091l-3.371-6.908c-0.07-0.143-0.243-0.203-0.386-0.133
						c-0.143,0.07-0.203,0.243-0.133,0.386l3.891,7.972v9.964l-4.958-10.157c-0.069-0.143-0.244-0.204-0.386-0.133
						c-0.143,0.07-0.203,0.243-0.133,0.386l5.477,11.221v10.828l-6.875-14.087c-0.07-0.143-0.243-0.203-0.386-0.133
						c-0.143,0.07-0.203,0.243-0.133,0.386l7.394,15.151v20.963l-8.443-13.408c-0.086-0.137-0.264-0.173-0.398-0.091
						c-0.135,0.086-0.176,0.264-0.091,0.398l8.933,14.186v9.958c0,0.159,0.13,0.289,0.289,0.289c0.159,0,0.289-0.13,0.289-0.289
						v-4.059l10.3-16.36C618.024,379.246,617.983,379.068,617.848,378.982z"/>
				</g>
				<path style="fill:#B6845A;" d="M616.72,396.762c-7.302,1.146-7.484,2.242-9.857,1.146s-4.929-0.73-6.754-0.182
					c-1.825,0.548-4.381,2.434-16.429,5.233h43.811C627.491,402.959,624.022,395.615,616.72,396.762z"/>
			</g>
			<path style="fill:#B6845A;" d="M340.732,389.16c-0.612-0.409-0.924-1.272-0.599-1.932c0.163-0.33,0.453-0.577,0.735-0.814
				c0.96-0.805,5.064-4.05,4.844-0.709C345.585,387.646,342.642,390.438,340.732,389.16z"/>
			<path style="fill:#93745A;" d="M382.978,387.564c-0.225-0.216-0.533-0.32-0.83-0.416c-0.281-0.092-0.562-0.183-0.843-0.275
				c-0.622-0.203-1.282-0.408-1.92-0.263c-0.638,0.144-0.691,1.661-0.691,1.661c0.496,0.9,1.455,1.527,2.478,1.62
				c0.641,0.058,1.336-0.107,1.77-0.583C383.376,388.832,383.442,388.01,382.978,387.564z"/>
			<path style="fill:#93745A;" d="M403.61,391.989c-1.052-1.189-1.339-2.851-1.582-4.419c-0.075-0.484-0.15-0.979-0.056-1.46
				c0.095-0.48,0.395-0.95,0.858-1.109c0.414-0.142,0.883-0.009,1.242,0.24c0.36,0.249,0.632,0.603,0.897,0.951
				c0.527,0.69,1.062,1.393,1.366,2.207c0.401,1.074,0.369,2.255,0.332,3.401C406.582,394.462,404.842,393.381,403.61,391.989z"/>
			<path style="fill:#B6845A;" d="M241.563,393.965c-0.653-0.451-1.531-0.47-2.286-0.226c-0.755,0.245-1.41,0.722-2.03,1.217
				c-0.285,0.564-0.281,1.266,0.012,1.827c0,0,2.508,0.164,3.545-0.159c0.624-0.194,1.281-0.574,1.423-1.212
				C242.35,394.862,242.027,394.286,241.563,393.965z"/>
			<path style="fill:#93745A;" d="M81.44,390.911c-0.715-0.755-1.169-1.79-1.087-2.826c0.027-0.339,0.121-0.694,0.37-0.926
				c0.329-0.307,0.853-0.319,1.27-0.147c0.416,0.172,0.75,0.493,1.073,0.807c1.007,0.98,2.082,2.103,2.144,3.507
				c0.016,0.36-0.047,0.743-0.279,1.02C84.178,393.245,82,391.502,81.44,390.911z"/>
			<path style="fill:#93745A;" d="M101.445,389.238c-0.346-0.613-1.146-0.808-1.848-0.771c-1.352,0.072-2.754,0.964-2.963,2.302
				c-0.089,0.57,0.28,1.331,0.841,1.194l0.789-0.107c0.832-0.024,1.707-0.061,2.419-0.493
				C101.395,390.931,101.855,389.963,101.445,389.238z"/>
			<path style="fill:#93745A;" d="M125.239,395.067c-0.206-0.368-0.362-0.787-0.307-1.206c0.055-0.418,0.376-0.823,0.797-0.857
				c0.317-0.025,0.611,0.153,0.871,0.335c1.013,0.709,1.906,1.589,2.63,2.591c0.804,1.113,0.792,2.408-0.734,2.008
				C127.296,397.623,125.817,396.102,125.239,395.067z"/>
			<path style="fill:#B6845A;" d="M596.577,392.065c-0.788-0.956-1.648-1.852-2.57-2.678c-0.489-0.438-1.012-0.866-1.636-1.068
				c-0.625-0.201-1.377-0.13-1.841,0.335c-0.516,0.517-0.531,1.386-0.209,2.041c0.322,0.655,0.914,1.135,1.52,1.542
				c1.05,0.706,2.2,1.262,3.404,1.647l0.483,0.016c0.412-0.012,0.824-0.023,1.236-0.034
				C597.411,393.365,597.005,392.583,596.577,392.065z"/>
			<path style="fill:#93745A;" d="M627.268,395.206c-0.575-1.25-1.595-2.248-2.716-3.047c-0.404-0.288-0.85-0.564-1.346-0.584
				c-1.008-0.042-1.784,1.07-1.679,2.073c0.106,1.003,0.852,1.833,1.694,2.388c0.843,0.555,1.804,0.904,2.674,1.414l0.084-0.069
				c0.44,0.399,1.217,0.088,1.456-0.456C627.674,396.381,627.516,395.745,627.268,395.206z"/>
		</g>
		<g>
			<g>
				<g>
					
						<rect x="408.053" y="382.53" transform="matrix(0.2432 -0.97 0.97 0.2432 -54.9264 697.6729)" style="fill:#9A554B;" width="23.184" height="3.012"/>
					<path style="fill:#6E474B;" d="M450.228,392.284c-0.655,0-1.3-0.245-1.809-0.717l-20.37-18.916
						c-0.467-0.434-0.495-1.165-0.06-1.634c0.432-0.469,1.166-0.495,1.634-0.06l20.369,18.915c0.151,0.14,0.304,0.107,0.405,0.056
						c0.102-0.052,0.217-0.156,0.194-0.36l-3.554-30.958c-0.073-0.635,0.382-1.208,1.016-1.28c0.64-0.08,1.207,0.382,1.28,1.016
						l3.554,30.958c0.129,1.122-0.439,2.177-1.446,2.687C451.054,392.188,450.639,392.284,450.228,392.284z"/>
					<path style="fill:#9A554B;" d="M460.617,392.284c-0.656,0-1.301-0.245-1.81-0.718l-20.37-18.915
						c-0.467-0.434-0.495-1.165-0.06-1.634c0.432-0.469,1.166-0.495,1.634-0.06l20.37,18.915c0.151,0.141,0.304,0.107,0.404,0.056
						c0.102-0.052,0.217-0.156,0.194-0.36l-3.554-30.958c-0.074-0.635,0.382-1.208,1.016-1.28c0.635-0.08,1.207,0.382,1.28,1.016
						l3.554,30.958c0.129,1.122-0.439,2.178-1.447,2.687C461.441,392.188,461.026,392.284,460.617,392.284z"/>
					<path style="fill:#4B4360;" d="M423.185,396.265c0,3.643-2.954,6.597-6.597,6.597c-3.643,0-6.597-2.954-6.597-6.597
						c0-3.644,2.954-6.597,6.597-6.597C420.231,389.668,423.185,392.622,423.185,396.265z"/>
					<path style="fill:#A39EB3;" d="M420.136,396.265c0,1.96-1.589,3.548-3.548,3.548c-1.96,0-3.548-1.589-3.548-3.548
						c0-1.96,1.589-3.548,3.548-3.548C418.547,392.717,420.136,394.306,420.136,396.265z"/>
				</g>
				<g>
					<path style="fill:#F48663;" d="M514.92,253.209c-0.426-3.468-1.582-10.223-1.582-10.223s-2.846,1.144-6.53,0.856l0.415,7.298
						c0,0-12.961,16.794-15.243,18.072c-2.282,1.278-3.103,1.825-4.29,3.377c-1.186,1.552-1.78,3.742-2.054,6.252
						c-0.274,2.51-0.228,3.651-0.456,4.062c-0.228,0.411,0.228,0.958,0.685,0.776c0.456-0.182,1.962-1.415,2.008-2.054
						c0.046-0.639,1.46,0.502,1.871-0.228c0.411-0.73,1.323-0.228,1.552-1.187c0.228-0.958,1.369-0.228,1.369-1.323
						c0-1.095,1.324-0.685,1.552-1.415c0.228-0.73,0.685-1.232,0.867-2.419c0.183-1.187,18.259-16.234,20.219-19.07
						c0-0.001,0-0.001,0.001-0.002C515.15,254.958,515.018,254.004,514.92,253.209z"/>
					<path style="fill:#CC7863;" d="M513.338,242.986c0,0-2.846,1.144-6.53,0.856l0.098,1.726c1.569,0.537,4.009,1.117,7.027,1.008
						C513.607,244.561,513.338,242.986,513.338,242.986z"/>
					<path style="fill:#D07463;" d="M493.73,272.426c-0.391,0.373-1.477,0.316-1.751,0.346c-0.274,0.03-0.791,1.4-0.791,1.4
						s0,0-0.213-0.487c-0.213-0.487-0.712-0.689-1.235-0.445c-0.523,0.243-0.499,2.514-0.704,2.058
						c-0.206-0.456-0.591-0.519-0.677-0.487c-0.555,0.209-0.73,0.821-0.669,2.434c0.046,1.223,0.302,3.264,0.423,4.182
						c0.038,0,0.083,0.009,0.128,0.016l0.518-3.705c0,0,5.473-4.661,5.503-4.813C494.292,272.772,494.121,272.053,493.73,272.426z"
						/>
					<polygon style="fill:#6E474B;" points="465.336,330.328 464.191,330.16 469.211,295.883 469.36,295.745 495.056,271.892 
						495.841,272.738 470.295,296.454 					"/>
					<path style="fill:#FFD42C;" d="M486.001,279.794l1.187,1.403l9.402-8.505c0.45-0.407,0.478-1.105,0.061-1.547l0,0
						c-0.412-0.437-1.101-0.455-1.536-0.041L486.001,279.794z"/>
					<path style="fill:#F48663;" d="M488.481,275.571c-0.822,0.852-0.425,5.857-0.425,5.857s0.008,0.008,0.008,0.009
						c0.405-0.048,1.353,0.54,1.679-0.039c0.075-0.134,0.17-0.217,0.272-0.285l0,0C490.454,280.021,489.302,274.719,488.481,275.571
						z"/>
					<path style="fill:#F48663;" d="M490.015,281.112c0,0-1.2-7.276,0.097-7.549c0.939-0.198,1.932,4.138,1.581,6.146
						C491.341,281.717,490.015,281.112,490.015,281.112z"/>
					<path style="fill:#F48663;" d="M491.693,279.709c0,0-0.5-5.307,0-6.152c0.5-0.845,0.926-0.146,1.109,0.128
						c0.183,0.274,0.365,4.138,0.365,4.655C493.166,278.857,493.17,280.135,491.693,279.709z"/>
					<path style="fill:#F48663;" d="M494.262,276.473c0,0-0.091-2.417-0.517-2.606c-0.426-0.189-0.844,0.285-0.844,0.285
						s0.023,3.154,0.129,3.224C493.135,277.447,494.262,276.473,494.262,276.473z"/>
					<path style="fill:#D07463;" d="M493.121,273.97c-0.13,0.088-0.221,0.182-0.221,0.182s0.006,0.839,0.027,1.661l0.049,1.214
						c0,0.001,0,0.003,0,0.005C492.977,277.02,493.099,274.741,493.121,273.97z"/>
				</g>
				<g>
					<polygon style="fill:#F48663;" points="553.316,374.786 558.67,394.501 566.216,392.919 561.469,371.135 					"/>
					<polygon style="fill:#F48663;" points="514.433,374.803 513.52,399.016 520.457,396.996 523.101,372.899 					"/>
					<path style="fill:#4B4360;" d="M556.602,340.588c-1.947-11.318-5.355-18.62-4.503-26.287c0.852-7.667,6.937-33.71,2.397-50.951
						l-34.891,9.801c0,0-0.122,14.863-3.164,24.842c-3.042,9.979-2.434,13.518-2.434,18.26c0,4.741-1.4,60.937-1.4,60.937
						s7.059,2.646,11.622,0.273c0,0,0.487-7.302,1.947-15.456c1.46-8.154,3.772-33.719,3.285-41.995c0,0,1.19-4.063,4.26-9.484
						c0,0,13.752,43.933,18.498,65.656c0,0,5.476,1.917,12.231-2.099C564.451,374.086,558.549,351.906,556.602,340.588z"/>
					<path style="fill:#3C334C;" d="M533.045,303.988c0.464-5.294,1.476-15.797,2.274-25.374c0,0-5.37,21.749-5.005,38.485
						l0.032,0.444c0.675-1.706,1.765-4.169,3.376-7.014C533.37,308.704,532.879,305.891,533.045,303.988z"/>
					<path style="fill:#91632C;" d="M495.913,402.959h26.979c0,0,0.472-1.856,0-3.636c-0.472-1.78-0.38-3.697-1.795-3.97
						c-1.415-0.274-2.556,1.415-4.335,1.141c-1.78-0.274-1.643-1.506-3.058-1.415c-1.415,0.091-2.267,1.095-3.773,1.917
						c-1.506,0.822-8.108,2.617-10.709,3.164c-2.601,0.548-3.243,0.31-3.521,0.532C494.787,401.422,495.913,402.959,495.913,402.959
						z"/>
					<path style="fill:#75562C;" d="M495.349,401.377c-0.054,0.735,0.564,1.582,0.564,1.582h26.979c0,0,0.166-0.669,0.201-1.582
						H495.349z"/>
					<path style="fill:#91632C;" d="M541.998,402.959h8.304l19.281-5.58c0,0-0.063-1.914-1.011-3.492
						c-0.948-1.578-1.393-3.445-2.828-3.315c-1.435,0.13-2.062,2.069-3.847,2.301c-1.786,0.232-1.997-0.99-3.33-0.509
						c-1.334,0.481-2.577,1.601-3.796,2.809c-1.218,1.208-5.194,3.13-7.54,4.379c-2.347,1.249-4.662,1.23-4.868,1.521
						C541.689,402.028,541.998,402.959,541.998,402.959z"/>
					<path style="fill:#75562C;" d="M569.124,395.082c-4.879,1.662-19.094,6.295-19.094,6.295l-7.982,0.326
						c-0.23,0.696-0.05,1.256-0.05,1.256h8.305l19.281-5.58C569.583,397.379,569.547,396.293,569.124,395.082z"/>
				</g>
				<g>
					<path style="fill:#71A5EE;" d="M525.552,204.188c0,0,2.025,1.316,7.562,1.985c5.537,0.669,9.736,1.886,11.379,3.833
						c1.643,1.947,5.263,7.18,6.815,11.835c1.552,4.655,3.56,9.036,4.198,9.584c0.639,0.548,0.456,1.095-0.456,1.46
						c-0.913,0.365-4.777,1.704-4.777,1.704s-0.122,11.001,2.069,17.731c2.19,6.73,4.259,10.625,4.259,10.625
						s-3.286,3.164-12.048,6.207c-8.762,3.043-23.609,4.138-26.652,5.355c0,0,0.304-4.259-0.608-7.91
						c-0.913-3.651-1.947-9.918-2.373-13.387c-0.426-3.468-1.582-10.223-1.582-10.223s-4.381,1.765-9.31,0.365
						c0,0,1.521-2.799,1.339-6.085c-0.183-3.286-0.913-13.509-0.426-16.977c0.487-3.468,12.231-12.474,13.143-13.022
						C518.997,206.72,525.552,204.188,525.552,204.188z"/>
					<path style="fill:#5D8AD5;" d="M542.271,232.931l-3.103-11.181c0,0,3.742,19.589-7.623,28.451
						c-2.884,2.248,12.278-6.31,12.278-6.31l3.286-3.521l-3.712-4.99L542.271,232.931z"/>
					<path style="fill:#E5E8F1;" d="M526.16,212.531c0.775-1.682,1.818-5.195,1.84-7.366c-1.729-0.515-2.448-0.977-2.448-0.977
						s-6.555,2.533-7.468,3.08c-0.233,0.14-1.177,0.835-2.457,1.847c-0.236,2.108-0.254,5.62,1.909,7.165
						C520.731,218.561,525.109,214.813,526.16,212.531z"/>
					<path style="fill:#E5E8F1;" d="M555.506,231.425c-0.245-0.21-0.691-0.986-1.236-2.121c-3.43,2.002-11.999,3.627-11.999,3.627
						l0.776,3.377c4.609-0.639,7.226-1.719,7.226-1.719s3.864-1.339,4.777-1.704C555.963,232.52,556.145,231.973,555.506,231.425z"
						/>
					<path style="fill:#E5E8F1;" d="M505.213,239.707c-0.361,2.117-1.185,3.644-1.185,3.644c4.929,1.4,9.31-0.365,9.31-0.365
						l-0.73-4.199C512.607,238.788,509.173,240.104,505.213,239.707z"/>
					<path style="fill:#5D8AD5;" d="M511.421,228.778c0,0-0.433,8.965-1.634,15.013c2.13-0.235,3.55-0.805,3.55-0.805l-0.73-4.199
						L511.421,228.778z"/>
					<path style="fill:#CDD2E4;" d="M509.787,243.791c0.532-0.059,1.02-0.138,1.452-0.224c0.003-0.001,0.005-0.001,0.007-0.002
						c0.207-0.041,0.399-0.084,0.58-0.127c0.023-0.006,0.044-0.011,0.066-0.016c0.157-0.038,0.303-0.076,0.437-0.113
						c0.026-0.007,0.051-0.014,0.076-0.021c0.123-0.035,0.235-0.068,0.336-0.098c0.022-0.007,0.044-0.014,0.065-0.02
						c0.096-0.03,0.179-0.058,0.25-0.082c0.013-0.005,0.029-0.01,0.041-0.014c0.067-0.023,0.12-0.042,0.159-0.057
						c0.006-0.002,0.017-0.006,0.022-0.008c0.036-0.013,0.059-0.023,0.059-0.023l-0.73-4.199c0,0-0.822,0.314-2.121,0.589
						C510.289,240.905,510.059,242.423,509.787,243.791z"/>
				</g>
				<g>
					<path style="fill:#291500;" d="M523.469,194.642c0,0,2.464,0.456,2.647-1.141c0.183-1.597,0.091-2.419,0.593-3.742
						c0.502-1.323-0.502-2.829-0.593-3.97c-0.091-1.141-0.456-5.613-2.601-6.617c-2.145-1.004-5.111-2.647-6.663-2.099
						c-1.552,0.548-2.464,1.643-3.286,1.597c-0.821-0.046-4.336-0.684-5.842,0.411c-1.506,1.095-1.734,2.327-1.826,3.103
						c-0.091,0.776-0.502,1.643-1.095,2.282c-0.593,0.639-1.187,1.095-1.05,2.327c0.137,1.232,0.319,2.419,0.73,4.062
						c0.411,1.643,1.68,4.29,2.917,4.358c1.236,0.068,9.953-4.176,9.953-4.176l6.07,1.688L523.469,194.642z"/>
					<path style="fill:#F48663;" d="M523.378,196.832c0,0,2.008,7.484,2.647,8.488c0.639,1.004-1.004,8.032-4.564,9.401
						c-3.56,1.369-5.476-3.103-4.107-6.024c0,0-0.541-4.062-1.845-5.202C514.205,202.354,523.378,196.832,523.378,196.832z"/>
					<path style="fill:#F48663;" d="M506.594,193.287c0,0,3.093,8.702,7.611,9.067c4.518,0.365,8.139-2.307,8.899-4.883
						c0.821-2.784,0.091-6.48,0.091-6.48s0.913,0.228,1.186-1.323c0.274-1.552-0.867-4.153-1.552-4.427
						c-0.685-0.274-1.369-0.046-1.552,0.411c-0.182,0.456,0.365,2.829-0.046,3.514c-0.411,0.684-0.913,0.274-1.369-0.411
						c-0.456-0.684-1.506-0.913-2.099-1.917c-0.593-1.004-1.369-1.187-1.369-1.187s0.091,1.004-1.597,1.415
						c-1.688,0.411-2.875,0.091-3.377,0.228c-0.502,0.137,0,0.639-1.187,1.232c-1.186,0.593-3.24,0.182-3.423,0.319
						C506.629,188.983,507.643,191.964,506.594,193.287z"/>
					<path style="fill:#291500;" d="M508.026,196.476c0,0-0.119,0.63,0.063,1.314c0.183,0.685,0.776,0.685,1.095,2.236
						c0.319,1.552,0.685,2.784,2.054,3.058c1.369,0.274,1.415,1.415,2.693,1.643c1.278,0.228,3.742,0.457,4.883-0.274
						c1.141-0.73,0.365-1.576,1.552-2.066c1.186-0.49,2.693-0.946,3.194-3.137c0.502-2.191,0.228-7.302-0.548-7.621
						c-0.776-0.319-0.593,0.411-0.867,1.232c-0.274,0.821-0.548,1.643-1.734,1.506c-1.186-0.137-3.103,0.319-3.925,1.278
						c-0.822,0.958-0.847,1.106-1.42,1.106s-1.911,0.034-2.824,0.81c-0.913,0.776-1.597,0.776-2.282,0.32
						C509.276,197.426,508.026,196.476,508.026,196.476z"/>
					<path style="fill:#FFFFFF;" d="M517.919,197.628c0.352-0.218,0.705-0.466,1.115-0.521c0.204-0.027,0.435,0.007,0.568,0.163
						c0.132,0.155,0.13,0.391,0.049,0.578c-0.081,0.187-0.228,0.336-0.372,0.48c-0.577,0.58-1.166,1.165-1.878,1.568
						c-0.712,0.403-1.575,0.608-2.359,0.375c-1.052-0.314-1.039-1.155-0.076-1.477C516.002,198.449,516.974,198.214,517.919,197.628
						z"/>
					<path style="fill:#FFA62C;" d="M515.901,171.486c3.339-1.641,8.768,6.593,8.768,6.593l-22.397,7.158
						c0,0-1.493-6.538,1.462-9.793c0,0,1.45-1.765,4.614-1.582C511.512,174.044,515.901,171.486,515.901,171.486z"/>
					
						<rect x="499.713" y="180.852" transform="matrix(0.9525 -0.3044 0.3044 0.9525 -31.021 164.9745)" style="fill:#FFD42C;" width="27.718" height="2.243"/>
				</g>
				<g>
					<path style="fill:#F48663;" d="M550.273,234.589c0,0-2.443,0.997-6.733,1.641l0.952,5.661
						c-6.085,3.164-29.618,19.864-31.345,21.418c-1.727,1.554-7.456,4.691-8.182,5.417c-0.725,0.725-2.399,1.728-1.731,3.148
						c0.397,0.844-0.173,2.452-0.173,2.452s0,0,0.276,0.483c0.276,0.484,0.725,0.311,0.863,0.449
						c0.138,0.138,0.242,0.345,0.794,0.829c0.553,0.484,1.105-0.138,1.278,0.138c0.173,0.276,0.932,0.483,1.451,0.483
						c0.518,0,0.587-0.656,1.001-0.38c0.414,0.276,0.967,0.414,1.762-0.276c0.794-0.691,1.554-2.59,2.97-4.213
						c1.416-1.623,0.335-1.349,7.181-5.366c6.846-4.016,31.49-17.707,33.315-20.628c1.59-2.544-0.765-10.136-1.4-12.055
						C551.384,234.204,550.273,234.589,550.273,234.589z"/>
					<path style="fill:#CC7863;" d="M550.273,234.589c0,0-2.443,0.997-6.733,1.641l0.229,1.362c2.115-0.079,7.624-0.16,10.1,0.935
						c-0.458-2.059-1.043-3.915-1.315-4.737C551.384,234.204,550.273,234.589,550.273,234.589z"/>
				</g>
				<g>
					<polygon style="fill:#6E474B;" points="473.932,330.328 472.788,330.16 477.807,295.88 503.639,272.302 504.418,273.155 
						478.891,296.456 					"/>
					<path style="fill:#FFD42C;" d="M504.767,270.454c-0.069,0.041-0.143,0.07-0.204,0.128l-9.115,8.689l1.187,1.404l7.754-7.014
						C505.21,272.305,504.976,271.059,504.767,270.454z"/>
				</g>
				<g>
					<path style="fill:#FF554B;" d="M473.066,317.098l-100.96,27.307c0,0,7.025,39.4,55.615,31.816
						C471.062,369.457,479.079,345.407,473.066,317.098z"/>
					<path style="fill:#FFB8A8;" d="M473.066,317.098l-100.96,27.307c0,0,0.625,3.5,2.787,8.212l99.369-28.482
						C473.968,321.823,473.572,319.477,473.066,317.098z"/>
					<path style="fill:#93745A;" d="M458.837,314.531c-0.167-0.236-0.221-0.532-0.352-0.79c-0.46-0.91-1.678-1.086-2.695-1.012
						c-1.017,0.074-2.129,0.259-2.983-0.298c-0.42-0.274-0.932-0.725-1.332-0.422c-0.147,0.111-0.216,0.298-0.341,0.434
						c-0.443,0.481-1.225,0.109-1.792-0.217c-3.369-1.939-8.076-1.104-10.572,1.877c-0.659,0.787-1.28,1.767-2.289,1.955
						c-0.851,0.159-1.741-0.316-2.577-0.092c-1.166,0.313-1.702,1.825-2.873,2.118c-0.998,0.25-2.015-0.502-3.035-0.365
						c-0.495,0.067-0.938,0.339-1.33,0.647c-1.922,1.516-2.905,4.135-2.454,6.541c0.059,0.316,0.159,0.654,0.422,0.839
						c0.25,0.176,0.582,0.166,0.887,0.145c4.655-0.328,9.162-1.795,13.804-2.268c1.189-0.121,2.39-0.177,3.556-0.438
						c1.337-0.299,2.606-0.861,3.948-1.135c1.254-0.256,2.549-0.254,3.809-0.479c1.305-0.233,2.553-0.706,3.793-1.176
						c1.894-0.718,4.766-1.242,6.355-2.509C462.807,316.276,459.488,315.45,458.837,314.531z"/>
					<path style="fill:#93745A;" d="M407.823,322.406c0.367,0.103,0.717,0.276,1.095,0.32c1.376,0.159,2.377-1.367,3.733-1.65
						c1.285-0.269,2.589,0.634,3.883,0.413c0.723-0.124,1.388-0.593,2.12-0.54c1.14,0.083,1.777,1.322,2.191,2.387
						c0.097,0.248,0.195,0.516,0.133,0.775c-0.041,0.17-0.146,0.316-0.252,0.454c-1.623,2.121-3.972,3.675-6.559,4.339
						c-2.587,0.664-5.394,0.433-7.838-0.644c-1.381-0.609-2.765-2.047-2.312-3.707C404.429,323.046,406.353,321.995,407.823,322.406
						z"/>
					<path style="fill:#B6845A;" d="M439.223,320.239c-1.278,0.461-1.278,0.451-3.286,1.364c-2.008,0.913-4.564-0.183-7.102-1.095
						c-2.538-0.913-5.312,0.73-7.867,1.46c-2.556,0.73-3.103,1.643-4.199,2.738c-1.095,1.095-2.556,0.365-3.833,0
						c-1.278-0.365-2.191,1.278-3.468,2.008c-1.278,0.73-3.103-0.548-4.199-1.825c-1.095-1.278-2.738-2.556-6.207-2.008
						c-3.469,0.548-4.746,4.199-6.207,6.389c-1.46,2.191-4.381,1.095-6.207,2.373c-1.825,1.278-1.825,3.833-4.199,3.214
						c-2.373-0.62-3.468,0.437-3.651,3.358c-0.182,2.921-4.381,5.841-4.381,5.841l71.456-19.604
						C445.875,324.453,440.501,319.778,439.223,320.239z"/>
					<path style="fill:#CCA170;" d="M438.128,326.532c0,0,1.025-3.478,4.163-4.888c3.139-1.41,4.051-0.551,5.055-1.437
						s1.278-1.433,3.012-1.433s3.468,0.456,6.207,0c2.738-0.456,5.294-2.921,6.298-2.464c1.004,0.456,1.9,3.034,1.9,3.034
						L438.128,326.532z"/>
				</g>
			</g>
			<g>
				<path style="fill:#F08E71;" d="M302.71,228.357l5.502,5.983c0,0,2.933-3.343,7.235-6.276
					c4.302-2.933,15.594-12.955,16.523-14.275c0.929-1.32,1.662-2.591,2.64-2.884c0.978-0.293,1.32-0.391,1.271,0
					c-0.049,0.391-0.587,1.173-0.489,1.32c0.098,0.147,11.586,0.098,14.079-0.293c2.493-0.391,2.151,0.538,1.809,0.929
					c-0.342,0.391-2.835,1.369-6.062,1.857c-3.226,0.489-7.871,1.076-9.337,1.516c-1.466,0.44-15.229,20.646-25.124,25.6
					c0,0-1.616,1.108-3.181,0.652c-1.564-0.456-10.275-7.561-10.275-7.561L302.71,228.357z"/>
				<polygon style="fill:#F08E71;" points="268.663,373.432 264.752,398.461 272.052,397.81 276.519,373.432 				"/>
				<path style="fill:#291500;" d="M287.389,197.734c0,0,1.903-3.401,2.099-5.797c0.155-1.896-0.514-3.836-0.949-5.66
					c-0.341-1.432-0.722-3.395-2.157-4.153c-0.678-0.358-1.482-0.368-2.219-0.581c-1.399-0.403-2.496-1.513-3.865-2.008
					c-1.443-0.521-3.036-0.312-4.55-0.063c-1.218,0.201-2.501,0.455-3.421,1.279c-0.48,0.43-0.829,0.989-1.3,1.427
					c-0.817,0.76-1.93,1.1-2.88,1.684c-1.771,1.088-2.912,2.999-3.492,4.996c-1.26,4.336,0.16,8.926-1.565,13.149
					c-1.418,3.471-0.342,7.773-1.271,9.924c-0.929,2.151-2.689,2.982-3.324,5.182c-0.635,2.2-0.635,6.16,0.782,7.968
					c1.418,1.809,16.914-7.235,16.914-7.235l1.222-15.692L287.389,197.734z"/>
				<polygon style="fill:#F08E71;" points="316.114,375.648 319.109,398.461 311.552,399.765 308.293,376.43 				"/>
				<path style="fill:#4B4360;" d="M270.814,266.927c0,0-1.271,5.768,1.369,21.216c2.64,15.448,2.216,27.278,1.434,39.271
					c-0.782,11.993-7.3,49.016-7.3,49.016s5.964,2.249,11.635,1.467c0,0,4.791-27.278,7.137-39.01
					c2.346-11.733,6.648-37.544,6.648-37.544s3.324,9.386,4.693,15.839c1.369,6.453,10.559,55.143,10.559,63.355
					c0,0,7.235,0,10.559-2.347c0,0-6.453-47.321-7.235-60.227s-2.346-17.208-3.129-20.141s-11.341-36.591-11.341-36.591
					L270.814,266.927z"/>
				<path style="fill:#FF554B;" d="M283.26,208.947c0,0,6.277,1.029,9.748,4.255c3.471,3.226,6.942,11.423,10.853,14.486
					c0,0-2.933,6.062-5.997,8.93l-2.346-2.021c0,0,0.016,6.288-0.554,12.204c-0.57,5.916,2.819,16.606,2.819,16.606
					s-9.957,6.779-28.207,4.041c0,0,0.913-6.127-0.326-12.971c-1.238-6.844-2.281-11.602-2.412-16.295c0,0-5.997-1.304-11.015-4.563
					c0,0,3.78-7.691,4.758-11.407c0.978-3.715,2.281-6.714,2.933-7.496c0.652-0.782,9.093-5.671,11.162-6.16
					C276.745,208.069,283.26,208.947,283.26,208.947z"/>
				<path style="fill:#FFB8A8;" d="M280.217,217.673c2.563-0.487,6.063-6.768,5.774-8.07c-1.582-0.466-2.731-0.656-2.731-0.656
					s-6.515-0.878-8.584-0.389c-0.584,0.138-1.682,0.632-2.962,1.279c0.03,0.39,0.145,0.877,0.417,1.508
					C273.288,214.022,277.653,218.16,280.217,217.673z"/>
				<path style="fill:#FFB8A8;" d="M303.86,227.689c-0.526-0.412-1.043-0.922-1.554-1.495c-0.875,1.82-3.137,6.103-6.249,8.869l0,0
					l1.806,1.555C300.927,233.75,303.86,227.689,303.86,227.689z"/>
				<path style="fill:#FFB8A8;" d="M267.75,235.315c-3.902-0.138-8.409-2.696-10.739-4.199c-0.685,1.478-1.189,2.504-1.189,2.504
					c4.777,3.102,10.428,4.43,10.963,4.551L267.75,235.315z"/>
				<path style="fill:#B1554B;" d="M267.876,246.962c0.281-7.483,3.818-20.342,3.818-20.342s-5.268,11.464-4.856,11.562l0.593,6.056
					C267.563,245.115,267.711,246.021,267.876,246.962z"/>
				<path style="fill:#D08271;" d="M274.676,202.79c0,0,0.635,5.182,0,5.768c-0.636,0.587-1.173,0.342-1.564,0.88
					c-0.391,0.538,2.651,5.909,6.013,6.6c3.362,0.69,5.964-5.769,5.72-6.404c-0.244-0.635-1.662-0.196-1.809-1.076
					c-0.147-0.88,0.293-6.502,0.293-6.502L274.676,202.79z"/>
				<path style="fill:#249081;" d="M330.454,181.818c3.08,2.689,4.057,8.799,5.28,14.421c1.222,5.622,6.626,5.412,6.626,5.412
					C345.706,181.475,330.454,181.818,330.454,181.818z"/>
				<path style="fill:#33BDA6;" d="M352.208,189.15c-9.142,3.275-5.456,11.341-5.456,11.341c11.977-2.1,15.38-15.447,15.38-15.447
					S361.35,185.875,352.208,189.15z"/>
				<g>
					<path d="M342.187,210.567c-0.011,0-0.023-0.001-0.035-0.003c-0.094-0.019-0.154-0.111-0.134-0.205
						c0.027-0.133,2.614-13.42-6.222-24.178c-0.061-0.074-0.05-0.184,0.024-0.244c0.073-0.06,0.184-0.05,0.244,0.024
						c8.944,10.889,6.322,24.333,6.293,24.468C342.341,210.51,342.268,210.567,342.187,210.567z"/>
					<path d="M342.359,209.429c-0.012,0-0.025-0.001-0.037-0.004c-0.094-0.021-0.152-0.114-0.132-0.207
						c2.031-9.145,14.582-19.924,15.065-20.085c0.089-0.032,0.187,0.019,0.219,0.109c0.028,0.086-0.014,0.178-0.095,0.213
						c-0.755,0.438-12.881,10.97-14.85,19.837C342.51,209.374,342.439,209.429,342.359,209.429z"/>
				</g>
				<path style="fill:#F08E71;" d="M272.232,197.021c0,0,1.467,8.934,6.355,9.747c4.888,0.813,8.653-7.058,8.848-9.355
					c0.196-2.298,0.197-7.268,0.197-7.268s-2.217,0.49-3.619-1.009c-0.416-0.073-0.599-0.651-0.876-0.97
					c-0.032-0.037-0.069-0.074-0.117-0.083c-0.071-0.013-0.134,0.04-0.188,0.088c-0.582,0.515-1.348,0.819-2.124,0.841
					c-0.833,0.024-1.753-0.241-2.445,0.223c-0.472,0.317-0.689,0.887-1.009,1.357c-0.265,0.39-0.613,0.723-1.014,0.97
					c-0.534,0.329-1.195,0.542-1.502,1.089c-0.189,0.336-0.204,0.739-0.232,1.123c-0.052,0.727-0.167,1.455-0.409,2.142
					c-0.061,0.174-0.169,0.374-0.354,0.381c-0.068,0.003-0.133-0.023-0.194-0.053c-0.388-0.189-0.671-0.549-0.85-0.942
					c-0.179-0.393-0.265-0.82-0.349-1.243c-0.093-0.467-0.187-0.934-0.28-1.402c-0.077-0.385-0.689-0.538-1.064-0.422
					c-0.375,0.116-0.626,0.448-0.849,0.771c-0.68,0.985-0.303,3.135-0.185,3.376c0.202,0.411,0.439,0.839,0.842,1.058
					C271.218,197.658,272.079,197.453,272.232,197.021z"/>
				<path style="fill:#F08E71;" d="M301.449,263.948c1.369,0.228,1.401-0.521,1.108-0.978c-0.293-0.456-1.597-1.141-4.232-2.326
					c-2.635-1.185-5.252-2.367-4.633-2.4c0.619-0.033,1.369-0.424,1.369-0.554c0-0.13-0.619-0.75-1.564-1.005
					c-0.945-0.255-3.161-0.005-3.161-0.005c-1.238,0-2.803,0.326-9.386-4.172c-6.583-4.497-17.208-9.647-17.208-9.647
					c2.021-3.715,2.116-4.949,2.116-4.949c-4.31-1.111-8.857-3.573-8.857-3.573s-4.437,8.685-2.482,11.423
					c2.319,3.247,30.081,14.568,30.602,14.861c0.522,0.293,3.292,1.043,4.726,2.281c1.434,1.238,3.813,2.933,4.4,3.292
					c0.587,0.358,1.238,0.424,1.336-0.163c0.098-0.587-1.043-1.434-1.043-1.434s4.041,1.89,5.051,1.793
					c1.01-0.098,0.684-0.88,0.684-0.88s0.619,0.228,1.434,0.489c0.815,0.261,0.913-0.391,0.996-0.717
					C302.789,264.958,301.449,263.948,301.449,263.948z"/>
				<path style="fill:#93745A;" d="M337.004,212.292c0,0,0.881-3.343,3.277-3.881c2.395-0.538,3.618,3.824,3.618,3.824
					S338.57,212.614,337.004,212.292z"/>
				<path style="fill:#B6845A;" d="M340.451,212.422c0,0,1.345-3.033,4.18-3.571c2.835-0.538,4.508,3.123,4.508,3.123
					S342.968,212.57,340.451,212.422z"/>
				<path style="fill:#B1554B;" d="M295.517,234.598l2.346,2.021c0.261-0.244,0.52-0.518,0.777-0.803
					c-1.928-2.762-3.629-11.516-3.629-11.516C295.892,229.481,295.517,234.598,295.517,234.598z"/>
				<path style="fill:#D8BA99;" d="M297.529,233.565c-0.469,0.526-0.954,1.037-1.472,1.498l1.806,1.555
					c0.261-0.244,0.52-0.518,0.777-0.803C298.257,235.266,297.883,234.473,297.529,233.565z"/>
				<path style="fill:#3C334C;" d="M291.737,301.342c0,0,1.688,4.772,3.154,9.85c0.625-8.251,1.343-17.918,1.343-18.747
					c0-1.467-4.302-17.403-4.302-17.403s1.955,14.274,1.564,17.892C293.106,296.552,291.737,301.342,291.737,301.342z"/>
				<path style="fill:#FFD42C;" d="M290.629,400.384c0.713,0.446-0.684,2.575-0.684,2.575h-27.669c0,0-0.391-1.793,0.685-3.455
					c1.075-1.662,0.424-4.53,2.281-4.237c1.858,0.293,2.249,1.956,4.009,1.076c1.76-0.88,2.542-0.91,3.324-1.09
					c0.782-0.181,1.923,1.025,4.954,2.199C280.559,398.624,288.282,398.918,290.629,400.384z"/>
				<path style="fill:#87514C;" d="M290.629,400.384c0.713,0.446-0.684,2.575-0.684,2.575h-27.669c0,0-0.391-1.793,0.685-3.455
					c1.075-1.662,0.424-4.53,2.281-4.237c1.858,0.293,2.249,1.956,4.009,1.076c1.76-0.88,2.542-0.91,3.324-1.09
					c0.782-0.181,1.923,1.025,4.954,2.199C280.559,398.624,288.282,398.918,290.629,400.384z"/>
				<path style="fill:#87514C;" d="M336.716,400.384c0.713,0.446-0.684,2.575-0.684,2.575h-27.669c0,0-0.391-1.793,0.684-3.455
					c1.075-1.662,0.424-4.53,2.281-4.237c1.858,0.293,2.249,1.956,4.009,1.076c1.76-0.88,2.542-0.91,3.324-1.09
					c0.782-0.181,1.923,1.025,4.954,2.199C326.645,398.624,334.369,398.918,336.716,400.384z"/>
				<path style="fill:#60424C;" d="M308.362,402.959h27.669c0,0,1.382-2.106,0.691-2.566h-28.109
					C308.111,401.746,308.362,402.959,308.362,402.959z"/>
				<path style="fill:#60424C;" d="M262.273,402.959h27.669c0,0,1.381-2.106,0.691-2.566h-28.109
					C262.022,401.746,262.273,402.959,262.273,402.959z"/>
				<path style="fill:#FFFFFF;" d="M281.879,201.659c0.173-0.019,0.353-0.042,0.52,0.008c0.167,0.05,0.32,0.195,0.319,0.369
					c-0.001,0.195-0.182,0.337-0.352,0.434c-1.115,0.638-2.543,0.668-3.699,0.119c-0.281-0.133-1.256-0.622-0.859-1.028
					c0.296-0.302,1.104-0.042,1.442,0.024C280.116,201.755,281.005,201.756,281.879,201.659z"/>
			</g>
			<g>
				<path style="fill:#291500;" d="M166.625,216.349c0,0-1.028-0.471-1.819-2.723c-0.791-2.251-1.947-6.146-0.791-8.458
					c1.156-2.312,1.995-2.13,2.61-2.86c0.615-0.73,2.319-2.556,4.935-2.19c2.617,0.365,3.103,0.913,3.955,0.608
					c0.852-0.304,2.616-0.852,3.955-0.365c1.339,0.487,1.521,1.399,2.19,1.582c0.67,0.183,2.069,0.974,2.373,2.373
					c0.304,1.4,0.061,2.616,0.548,3.468c0.487,0.852,1.582,5.598,0,7.667c-1.582,2.069-2.775,5.288-5.16,3.861
					C177.036,217.886,166.625,216.349,166.625,216.349z"/>
				<path style="fill:#F48663;" d="M125.284,260.237c0,0-3.986,0.396-5.142-0.456c-1.156-0.852-2.312-2.191-2.86-2.312
					c-0.548-0.122-0.335,1.886-0.274,2.069c0.061,0.183,0.091,1.187,0.091,1.187s-3.468-0.548-4.168,0
					c-0.7,0.548-0.913,1.156-0.456,1.43c0.456,0.274-0.578,0.426-0.578,1.034s0.274,1.095,0.7,1.308c0.426,0.213,0,1.187,0.639,1.46
					c0.639,0.274,0.304,0.943,0.882,1.217c0.578,0.274,3.681,0.456,6.085-0.73c2.404-1.187,5.537-2.13,5.537-2.13L125.284,260.237z"
					/>
				<path style="fill:#F48663;" d="M240.017,229.65c-0.369,0-5.86,3.373-5.86,3.373s6.106-5.047,6.352-5.589
					c0.246-0.542-0.246-0.665-0.886-0.468c-0.64,0.197-6.402,5.269-6.402,5.269s4.826-4.875,5.171-5.318
					c0.345-0.443-0.345-0.739-0.788-0.591c-0.443,0.148-5.86,5.318-6.036,5.355c-0.176,0.037-0.046-0.406-0.009-0.776
					c0.037-0.369,0-1.994-0.96-1.034c-0.96,0.96-1.662,3.102-2.475,4.21c-0.812,1.108-5.983,4.654-5.983,4.654l1.231,4.284
					l6.278-4.038c0,0,3.299-1.92,4.358-2.511s4.53-2.979,4.9-3.324s0.394-0.813,0.123-0.837c-0.271-0.025-2.536,0.64-2.536,0.64
					s3.89-2.511,4.078-2.733C240.762,229.995,240.386,229.65,240.017,229.65z"/>
				<polygon style="fill:#F48663;" points="154.644,369.644 154.279,391.854 160.729,391.489 161.946,377.007 				"/>
				<path style="fill:#FFCC9A;" d="M178.923,224.884c0,0,8.215,2.434,10.466,3.833c2.251,1.4,8.641,22.636,9.188,23.457
					c0.548,0.821,22.362-14.239,24.735-15.79c2.373-1.552,2.373-1.552,2.373-1.552l2.829,5.203c0,0-28.751,22.545-31.946,21.723
					c-3.195-0.822-9.036-15.973-9.036-15.973s1.643,9.493,1.187,16.794c-0.456,7.302,1.369,9.279,1.095,10.07
					c-0.274,0.791-11.683,5.446-22.453,1.978c0,0-3.788-0.548-4.427-1.78c-0.639-1.232,0.167-5.613-0.32-8.534
					c-0.487-2.921-0.852-12.535-0.73-14.604c0,0-2.921,11.926-4.807,13.022c-1.886,1.095-17.16,3.59-32.859,3.468
					c0,0-0.183-6.024,0-6.815c0.183-0.791,15.03-1.278,20.75-2.617c5.72-1.339,6.632-1.582,6.998-2.738
					c0.365-1.156,6.572-22.271,9.614-24.826c2.043-1.716,9.006-3.773,9.006-3.773L178.923,224.884z"/>
				<path style="fill:#C87E63;" d="M179.166,218.677c0,0-0.791,5.416-0.243,6.207c0.548,0.791-1.886,5.902-5.172,5.355
					c-3.286-0.548-4.138-4.442-4.077-4.807c0.061-0.365,0.852-3.164,0.243-5.111C169.309,218.373,179.166,218.677,179.166,218.677z"
					/>
				<polygon style="fill:#F48663;" points="197.274,363.778 205.544,384.395 211.348,381.559 206.859,367.736 				"/>
				<path style="fill:#87514C;" d="M193.887,401.34l23.56-9.902c0,0-2.318-6.105-3.893-7.967c-1.575-1.863-2.457-4.314-2.687-4.861
					c-0.23-0.547-0.23-0.547-0.23-0.547l-7.026,2.953c0,0,1.751,3.224,0.251,6.132c-1.501,2.908-8.859,9.664-9.765,10.688
					C193.191,398.86,193.19,400.741,193.887,401.34z"/>
				<path style="fill:#60424C;" d="M193.401,399.663c-0.045,0.705,0.124,1.365,0.487,1.677l23.56-9.902c0,0-0.252-0.663-0.643-1.611
					L193.401,399.663z"/>
				<path style="fill:#A17D4C;" d="M202.723,395.745c-1.204-2.053-3.222-2.236-4.359-2.151c-1.994,2.015-3.842,3.761-4.267,4.242
					c-0.434,0.491-0.656,1.178-0.697,1.827L202.723,395.745z"/>
				<path style="fill:#F48663;" d="M167.453,208.546c-1.781-1.498,0.046,1.415-1.734,3.012c0,0,1.004,12.139,7.302,11.683
					c6.298-0.456,7.941-7.302,7.941-7.302s1.917,0.046,2.145-2.328c0.228-2.373-1.095-2.236-1.689-1.597c0,0-1.141,1.369-3.468,0
					c-1.039,0.046-1.48-1.735-2.515-1.64c-0.226,0.021-0.433,0.126-0.643,0.212c-0.901,0.371-1.936,0.406-2.86,0.097
					c-1.198-0.401-2.18-1.344-3.412-1.624C167.94,208.928,167.908,208.929,167.453,208.546z"/>
				<path style="fill:#FFFFFF;" d="M175.029,219.043c0.227-0.084,0.452-0.184,0.693-0.209c0.082-0.008,0.167-0.007,0.243,0.024
					c0.173,0.071,0.253,0.285,0.223,0.47c-0.03,0.185-0.145,0.344-0.269,0.484c-0.695,0.786-1.789,1.199-2.83,1.068
					c-0.394-0.049-0.804-0.189-1.041-0.508c-0.161-0.218-0.209-0.545-0.09-0.793c0.169-0.353,0.462-0.213,0.787-0.194
					C173.519,219.429,174.302,219.313,175.029,219.043z"/>
				<path style="fill:#71A5EE;" d="M190.423,289.688c0.31-8.782-0.868-14.915-1.232-16.573c-2.544,1.379-12.428,4.54-21.83,1.513
					c0,0-2.567-0.373-3.83-1.193c-0.047,1.535,0.088,3.748,0.088,3.748c-0.73,4.472-5.933,34.775-7.211,41.347
					c-1.278,6.572-3.195,63.527-3.195,63.527c3.012,0.73,9.34,1.186,9.34,1.186c1.947-12.9,3.219-64.102,6.282-69.635
					c5.005-9.043,6.861-17.835,6.861-17.835s1.582,11.561,1.582,16.186c0,4.625,1.704,12.292,4.381,17.646
					c2.677,5.355,19.472,46.124,19.472,46.124c4.625-0.243,7.91-2.556,7.91-2.556c-1.704-7.91-19.228-54.156-19.958-57.077
					C188.355,313.176,190.058,300.032,190.423,289.688z"/>
				<path style="fill:#5D80C1;" d="M188.03,285.686c-0.016,0-0.033-0.002-0.05-0.006c-5.197-1.316-7.004-6.823-7.022-6.878
					c-0.034-0.106,0.025-0.22,0.132-0.254c0.105-0.032,0.22,0.025,0.254,0.132c0.017,0.053,1.761,5.347,6.736,6.607
					c0.108,0.028,0.174,0.138,0.146,0.246C188.203,285.625,188.12,285.686,188.03,285.686z"/>
				<path style="fill:#5D8AD5;" d="M183.353,226.29l-1.337-0.674c0,1.035-0.416,49.543,0.679,51.021
					c1.308,1.765,1.643-1.552,1.643-1.552C182.969,268.878,183.353,226.29,183.353,226.29z"/>
				<path style="fill:#5D8AD5;" d="M166.516,226.798c0,0-1.376,34.412,0.419,49.098c0.176,1.441,1.739,1.504,1.521,0.152
					c-1.232-7.667-0.368-49.812-0.368-49.812L166.516,226.798z"/>
				<path style="fill:#DBA58F;" d="M161.885,249.71c-0.061,1.036,0,3.965,0.138,6.998l1.779-16.765L161.885,249.71z"/>
				<path style="fill:#DBA58F;" d="M185.708,237.388l1.826,8.397l3.575,8.205C189.48,248.503,185.708,237.388,185.708,237.388z"/>
				<path style="fill:#B26E63;" d="M117.701,261.593c0.057-0.383-0.307-0.675-0.759-0.892c-0.205-0.029-0.593-0.082-1.052-0.128
					c0.703,0.187,1.648,0.54,1.582,0.987c-0.031,0.216-0.676,0.366-1.611,0.455c-0.001,0-0.007,0-0.007,0
					c-0.001,0-0.001,0.001-0.002,0.001c-0.945,0.089-2.187,0.114-3.428,0.077c0.022,0.019,0.025,0.046,0.052,0.062
					c0.104,0.062,0.124,0.118,0.103,0.175c0.296,0.008,0.648,0.014,1.037,0.014c0.73,0,1.558-0.025,2.282-0.1
					c0.082-0.002,0.644-0.015,0.923,0.267c0.112,0.112,0.161,0.256,0.148,0.441c-0.039,0.583-2.497,1.467-4.166,1.932
					c0.011,0.075,0.02,0.152,0.026,0.234c0.612-0.17,2.543-0.735,3.625-1.374c0.107,0.012,0.834,0.115,0.834,0.814
					c0,0.508-2.101,1.303-3.675,1.77c0.032,0.071,0.059,0.144,0.081,0.219c0.768-0.228,2.138-0.669,3.017-1.165
					c0.014-0.002,0.028,0.001,0.041-0.006c0.041-0.023,0.089-0.008,0.12,0.008c0.071,0.041,0.142,0.139,0.142,0.247
					c0,0.1-0.194,0.472-0.194,0.472c0.26-0.146,0.425-0.364,0.425-0.471c0.001-0.172-0.098-0.34-0.242-0.431
					c0.313-0.214,0.516-0.432,0.516-0.643c0-0.6-0.432-0.88-0.797-0.988c0.279-0.2,0.463-0.403,0.476-0.601
					c0.017-0.252-0.055-0.461-0.215-0.621c-0.093-0.094-0.208-0.162-0.329-0.211C117.243,262.022,117.663,261.852,117.701,261.593z"
					/>
				<path style="fill:#854B4B;" d="M105.527,255.004c0,0,10.782-1.217,11.117-0.852s0.456,6.572,0.456,6.572l-1.608-0.144
					c0,0-0.05-4.922-0.202-4.983c-0.152-0.061-9.386,0.563-9.386,0.563L105.527,255.004z"/>
				<path style="fill:#854B4B;" d="M116.889,265.987c0,0,0.03,4.259,0.014,4.351c-0.016,0.091-7.105,1.726-7.105,1.726l-0.278-1.131
					l6.007-1.66v-2.505C115.527,266.768,116.647,266.535,116.889,265.987z"/>
				<polygon style="fill:#FF554B;" points="85.958,253.399 94.057,280.912 110.052,279.119 109.959,249.189 				"/>
				<polygon style="fill:#FFB8A8;" points="111.767,246.339 82.739,251.43 83.012,253.915 112.04,248.824 				"/>
				<polygon style="fill:#FFB8A8;" points="87.947,260.155 92.64,276.1 110.036,274.008 109.979,255.714 				"/>
				<polygon style="fill:#FF554B;" points="90.853,270.027 65.815,259.122 66.705,255.456 87.563,258.85 				"/>
				<path style="fill:#BE4B4B;" d="M109.959,249.189l-24.001,4.209l1.357,4.608c6.738-3.17,18.664-6.287,22.649-7.285
					L109.959,249.189z"/>
				<path style="fill:#BE4B4B;" d="M86.045,258.603c0.22,1.557,0.773,5.934,0.672,9.622l4.136,1.801l-3.29-11.177L86.045,258.603z"
					/>
				
					<rect x="62.396" y="256.044" transform="matrix(0.2358 -0.9718 0.9718 0.2358 -199.6426 259.9344)" style="fill:#FFB8A8;" width="6.128" height="1.734"/>
				<path style="fill:#BE4B4B;" d="M63.016,255.563c-0.603,1.451-0.518,3.167,0.949,3.831l1.22-5.026
					C65.185,254.367,63.619,254.112,63.016,255.563z"/>
				<path style="fill:#5D8AD5;" d="M170.792,309.763c3.537-7.534,4.906-13.99,4.906-13.99s0.061-8.914-3.773-13.843
					C171.925,281.93,172.191,299.254,170.792,309.763z"/>
				<path style="fill:#87514C;" d="M136.967,402.959h25.557c0,0,0.228-6.526-0.502-8.854c-0.73-2.327-0.593-4.929-0.593-5.522
					c0-0.593,0-0.593,0-0.593h-7.621c0,0,0.365,3.651-2.145,5.75c-2.51,2.099-11.911,5.477-13.143,6.07
					C137.287,400.403,136.557,402.137,136.967,402.959z"/>
				<path style="fill:#60424C;" d="M137.169,401.225c-0.314,0.633-0.415,1.306-0.201,1.734h25.557c0,0,0.024-0.708,0.031-1.734
					H137.169z"/>
				<path style="fill:#A17D4C;" d="M147.281,401.225c-0.315-2.36-2.104-3.309-3.185-3.672c-2.619,1.085-4.999,1.978-5.577,2.257
					c-0.591,0.284-1.061,0.832-1.35,1.415H147.281z"/>
			</g>
		</g>
	</g>
</g>
</svg>
