<?xml version="1.0" encoding="utf-8"?>
<!-- Generator: Adobe Illustrator 27.5.0, SVG Export Plug-In . SVG Version: 6.00 Build 0)  -->
<svg version="1.1" xmlns="http://www.w3.org/2000/svg" xmlns:xlink="http://www.w3.org/1999/xlink" x="0px" y="0px"
	 viewBox="0 0 750 500" style="enable-background:new 0 0 750 500;" xml:space="preserve">
<g id="BACKGROUND">
	<rect y="0.001" style="fill-rule:evenodd;clip-rule:evenodd;fill:#00000000;" width="750" height="500"/>
</g>
<g id="OBJECTS">
	<g>
		<path style="fill-rule:evenodd;clip-rule:evenodd;fill:#C8CFE9;" d="M123.666,44.967c-45.712,0-83.113,37.401-83.113,83.113l0,0
			c0,45.712,37.401,83.113,83.113,83.113l0,0c9.174,0,16.68,7.506,16.68,16.681l0,0c0,9.174-7.506,16.68-16.68,16.68H80.175
			c-22.3,0-40.546,18.245-40.546,40.547l0,0c0,22.3,18.246,40.546,40.546,40.546c19.287,0,35.066,15.779,35.066,35.065l0,0l0,0
			c0,35.189,28.791,63.98,63.979,63.98h19.126l0,0h351.747h74.681c45.714,0,83.114-37.4,83.114-83.114l0,0
			c0-45.712-37.403-83.113-83.114-83.113h-8.038c-9.173,0-16.679-7.506-16.679-16.68l0,0c0-9.174,7.506-16.68,16.679-16.68h54.116
			c22.301,0,40.548-18.246,40.548-40.546l0,0c0-22.275-18.203-40.505-40.471-40.546c-0.023,0-43.515-0.001-43.541-0.001
			c-19.286,0-35.065-15.779-35.065-35.065l0,0l0,0c0-35.188-28.791-63.979-63.979-63.979
			C465.905,44.967,186.104,44.967,123.666,44.967z"/>
		<g>
			<path style="fill-rule:evenodd;clip-rule:evenodd;fill:#5C65A8;" d="M110.301,244.554l63.991,17.413l77.925-21.206
				c1.039-0.282,3.568-0.057,5.621,0.501l76.2,20.736l101.653-27.661c1.038-0.282,3.569-0.058,5.621,0.501l41.842,11.386
				l60.845-9.234c0.957-0.144,4.376,0.137,7.602,0.626l48.774,7.402c1.518,7.641,8.294,13.447,16.362,13.447h8.038
				c24.39,0,46.411,10.648,61.651,27.523l-138.949,21.087c-0.957,0.145-4.378-0.136-7.602-0.625l-46.905-7.118l-53.499,14.557
				c-1.041,0.283-3.569,0.059-5.621-0.501l-76.201-20.734l-101.652,27.661c-1.04,0.283-3.568,0.058-5.621-0.501L153.305,293.4
				l-77.925,21.204c-1.04,0.282-3.568,0.058-5.621-0.501l-23.125-6.293c-4.417-6.489-7.005-14.311-7.005-22.709l0,0
				c0-22.302,18.246-40.547,40.546-40.547H110.301z"/>
			<path style="fill-rule:evenodd;clip-rule:evenodd;fill:#565DA2;" d="M40.682,275.927l58.403-14.848
				c1.049-0.266,3.703-0.027,5.899,0.53l69.018,17.545h87.713l45.83-11.65c1.049-0.267,3.703-0.028,5.899,0.53l43.743,11.12h31.933
				l65.487-16.647c1.051-0.267,3.705-0.027,5.9,0.53l63.401,16.117h155.583c9.326,8.192,16.82,18.426,21.764,29.984H588.152
				l-129.73,32.98c-1.049,0.268-3.702,0.028-5.898-0.529l-59.711-15.18l-81.456,20.707c-1.049,0.268-3.702,0.027-5.899-0.53
				l-112.874-28.695l-84.613,21.511c-6.426-8.349-16.509-13.755-27.796-13.755c-22.3,0-40.546-18.246-40.546-40.546l0,0
				C39.629,281.949,39.993,278.878,40.682,275.927z"/>
		</g>
		<g>
			<path style="fill-rule:evenodd;clip-rule:evenodd;fill:#FFFFFF;" d="M340.689,175.92c0-0.28,0.228-0.507,0.508-0.507
				c0.279,0,0.506,0.227,0.506,0.507v1.191h1.191c0.28,0,0.507,0.227,0.507,0.506c0,0.28-0.227,0.508-0.507,0.508h-1.191v1.191
				c0,0.28-0.228,0.507-0.506,0.507c-0.28,0-0.508-0.227-0.508-0.507v-1.191h-1.191c-0.28,0-0.506-0.228-0.506-0.508
				c0-0.28,0.227-0.506,0.506-0.506h1.191V175.92z"/>
			<path style="fill-rule:evenodd;clip-rule:evenodd;fill:#FFFFFF;" d="M374.394,228.417c-0.423,0-0.766-0.343-0.766-0.766
				c0-0.423,0.343-0.765,0.766-0.765h22.275l0,0c1.829,0,3.481-0.741,4.681-1.938c1.197-1.197,1.935-2.852,1.935-4.678
				c0-1.827-0.738-3.481-1.938-4.678c-1.197-1.197-2.85-1.938-4.679-1.938c-1.173,0-2.273,0.303-3.226,0.835
				c-0.985,0.552-1.817,1.351-2.412,2.318c-0.221,0.359-0.692,0.472-1.053,0.251c-0.36-0.222-0.472-0.692-0.251-1.053
				c0.727-1.183,1.755-2.167,2.975-2.849c1.176-0.658,2.531-1.034,3.967-1.034c2.25,0,4.288,0.912,5.762,2.387
				c1.476,1.475,2.386,3.511,2.386,5.761c0,2.249-0.91,4.286-2.386,5.76c-1.469,1.471-3.498,2.381-5.74,2.386h-0.021l0,0H374.394
				L374.394,228.417z M370.208,226.887c0.424,0,0.766,0.342,0.766,0.765c0,0.423-0.341,0.766-0.766,0.766h-2.497
				c-0.423,0-0.766-0.343-0.766-0.766c0-0.423,0.343-0.765,0.766-0.765H370.208z"/>
			<path style="fill-rule:evenodd;clip-rule:evenodd;fill:#6D79B6;" d="M387.841,232.649c-0.423,0-0.767,0.343-0.767,0.766
				c0,0.423,0.344,0.766,0.767,0.766h8.233l0,0c1.827,0,3.481,0.74,4.678,1.937c1.197,1.198,1.939,2.851,1.939,4.678
				c0,1.828-0.741,3.482-1.939,4.678c-1.196,1.198-2.851,1.938-4.678,1.938c-1.176,0-2.275-0.303-3.228-0.835
				c-0.985-0.552-1.817-1.351-2.412-2.317c-0.221-0.36-0.69-0.473-1.051-0.251c-0.36,0.221-0.474,0.692-0.251,1.053
				c0.728,1.182,1.752,2.166,2.973,2.848c1.178,0.659,2.53,1.034,3.969,1.034c2.25,0,4.285-0.912,5.761-2.386
				c1.474-1.475,2.385-3.512,2.385-5.761c0-2.249-0.911-4.285-2.385-5.76c-1.471-1.47-3.499-2.381-5.742-2.387h-0.019l0,0H387.841
				L387.841,232.649z M383.655,234.181c0.423,0,0.765-0.343,0.765-0.766c0-0.423-0.342-0.766-0.765-0.766h-2.498
				c-0.423,0-0.767,0.343-0.767,0.766c0,0.423,0.344,0.766,0.767,0.766H383.655z"/>
			<path style="fill-rule:evenodd;clip-rule:evenodd;fill:#6D79B6;" d="M346.193,74.276c0-0.28,0.228-0.508,0.508-0.508
				c0.28,0,0.507,0.228,0.507,0.508v1.191h1.191c0.28,0,0.506,0.227,0.506,0.507c0,0.28-0.227,0.506-0.506,0.506h-1.191v1.192
				c0,0.28-0.227,0.507-0.507,0.507c-0.28,0-0.508-0.227-0.508-0.507V76.48h-1.191c-0.28,0-0.507-0.227-0.507-0.506
				c0-0.28,0.227-0.507,0.507-0.507h1.191V74.276z"/>
			<path style="fill-rule:evenodd;clip-rule:evenodd;fill:#6D79B6;" d="M548.229,69.992c0-0.28,0.226-0.506,0.507-0.506
				c0.279,0,0.507,0.227,0.507,0.506v1.192h1.192c0.278,0,0.506,0.227,0.506,0.507c0,0.28-0.228,0.506-0.506,0.506h-1.192v1.191
				c0,0.28-0.227,0.508-0.507,0.508c-0.281,0-0.507-0.228-0.507-0.508v-1.191h-1.192c-0.278,0-0.506-0.227-0.506-0.506
				c0-0.28,0.227-0.507,0.506-0.507h1.192V69.992z"/>
			<path style="fill-rule:evenodd;clip-rule:evenodd;fill:#6D79B6;" d="M570.36,238.474c0-0.28,0.227-0.507,0.507-0.507
				c0.281,0,0.506,0.227,0.506,0.507v1.191h1.192c0.279,0,0.507,0.227,0.507,0.506c0,0.28-0.227,0.508-0.507,0.508h-1.192v1.191
				c0,0.28-0.225,0.507-0.506,0.507c-0.279,0-0.507-0.227-0.507-0.507v-1.191h-1.192c-0.278,0-0.507-0.227-0.507-0.508
				c0-0.28,0.229-0.506,0.507-0.506h1.192V238.474z"/>
			<path style="fill-rule:evenodd;clip-rule:evenodd;fill:#6D79B6;" d="M87.046,157.088c0-0.28,0.228-0.507,0.507-0.507
				c0.28,0,0.506,0.227,0.506,0.507v1.192h1.192c0.28,0,0.507,0.226,0.507,0.506c0,0.279-0.227,0.507-0.507,0.507H88.06v1.191
				c0,0.28-0.227,0.508-0.506,0.508c-0.279,0-0.507-0.228-0.507-0.508v-1.191h-1.191c-0.28,0-0.508-0.228-0.508-0.507
				c0-0.28,0.228-0.506,0.508-0.506h1.191V157.088z"/>
			<path style="fill-rule:evenodd;clip-rule:evenodd;fill:#6D79B6;" d="M82.049,84.27c0-0.28,0.228-0.507,0.508-0.507
				c0.28,0,0.507,0.227,0.507,0.507v1.192h1.191c0.28,0,0.507,0.227,0.507,0.507c0,0.28-0.227,0.506-0.507,0.506h-1.191v1.192
				c0,0.28-0.227,0.507-0.507,0.507c-0.28,0-0.508-0.227-0.508-0.507v-1.192h-1.191c-0.28,0-0.506-0.227-0.506-0.506
				c0-0.28,0.227-0.507,0.506-0.507h1.191V84.27z"/>
			<path style="fill-rule:evenodd;clip-rule:evenodd;fill:#6D79B6;" d="M314.068,63.567c0-0.28,0.228-0.508,0.508-0.508
				c0.28,0,0.506,0.228,0.506,0.508v1.191h1.191c0.28,0,0.507,0.227,0.507,0.507c0,0.28-0.227,0.506-0.507,0.506h-1.191v1.192
				c0,0.28-0.227,0.506-0.506,0.506c-0.28,0-0.508-0.227-0.508-0.506v-1.192h-1.191c-0.28,0-0.507-0.227-0.507-0.506
				c0-0.28,0.226-0.507,0.507-0.507h1.191V63.567z"/>
			<path style="fill-rule:evenodd;clip-rule:evenodd;fill:#FFFFFF;" d="M543.949,272.361c-0.423,0-0.765-0.343-0.765-0.766
				c0-0.422,0.342-0.765,0.765-0.765h22.277l0,0c1.826,0,3.481-0.741,4.678-1.938c1.196-1.197,1.936-2.851,1.936-4.679
				c0-1.826-0.739-3.48-1.936-4.678c-1.197-1.197-2.852-1.936-4.678-1.936c-1.177,0-2.275,0.303-3.228,0.835
				c-0.985,0.551-1.817,1.352-2.412,2.317c-0.221,0.358-0.692,0.472-1.051,0.251c-0.362-0.223-0.474-0.693-0.253-1.053
				c0.729-1.184,1.755-2.167,2.975-2.85c1.179-0.657,2.53-1.033,3.97-1.033c2.249,0,4.285,0.912,5.761,2.386
				c1.473,1.475,2.384,3.512,2.384,5.761c0,2.25-0.911,4.287-2.384,5.762c-1.472,1.47-3.5,2.381-5.742,2.385h-0.019l0,0H543.949
				L543.949,272.361z M539.764,270.831c0.423,0,0.765,0.343,0.765,0.765c0,0.423-0.342,0.766-0.765,0.766h-2.498
				c-0.423,0-0.767-0.343-0.767-0.766c0-0.422,0.344-0.765,0.767-0.765H539.764z"/>
			<path style="fill-rule:evenodd;clip-rule:evenodd;fill:#FFFFFF;" d="M343.069,273.312c0-0.28,0.227-0.508,0.507-0.508
				c0.28,0,0.506,0.228,0.506,0.508v1.19h1.192c0.279,0,0.506,0.227,0.506,0.507s-0.228,0.507-0.506,0.507h-1.192v1.191
				c0,0.28-0.227,0.507-0.506,0.507c-0.28,0-0.507-0.227-0.507-0.507v-1.191h-1.192c-0.28,0-0.507-0.227-0.507-0.507
				s0.227-0.507,0.507-0.507h1.192V273.312z"/>
			<path style="fill-rule:evenodd;clip-rule:evenodd;fill:#FFFFFF;" d="M183.154,146.236c0-0.279,0.227-0.507,0.507-0.507
				c0.28,0,0.506,0.228,0.506,0.507v1.192h1.192c0.28,0,0.507,0.227,0.507,0.507c0,0.28-0.227,0.506-0.507,0.506h-1.192v1.192
				c0,0.28-0.227,0.507-0.506,0.507c-0.28,0-0.507-0.227-0.507-0.507v-1.192h-1.191c-0.28,0-0.508-0.227-0.508-0.506
				c0-0.28,0.228-0.507,0.508-0.507h1.191V146.236z"/>
			<path style="fill-rule:evenodd;clip-rule:evenodd;fill:#FFFFFF;" d="M248.12,66.993c0-0.28,0.227-0.506,0.506-0.506
				c0.28,0,0.507,0.227,0.507,0.506v1.192h1.192c0.279,0,0.507,0.227,0.507,0.507c0,0.279-0.228,0.506-0.507,0.506h-1.192v1.191
				c0,0.28-0.227,0.508-0.507,0.508c-0.28,0-0.506-0.228-0.506-0.508v-1.191h-1.192c-0.28,0-0.506-0.228-0.506-0.506
				c0-0.28,0.227-0.507,0.506-0.507h1.192V66.993z"/>
			<path style="fill-rule:evenodd;clip-rule:evenodd;fill:#FFFFFF;" d="M470.145,72.704c0-0.28,0.225-0.507,0.506-0.507
				c0.279,0,0.507,0.227,0.507,0.507v1.192h1.192c0.279,0,0.507,0.227,0.507,0.507c0,0.28-0.227,0.506-0.507,0.506h-1.192V76.1
				c0,0.28-0.228,0.508-0.507,0.508c-0.281,0-0.506-0.228-0.506-0.508v-1.191h-1.192c-0.279,0-0.507-0.227-0.507-0.506
				c0-0.28,0.227-0.507,0.507-0.507h1.192V72.704z"/>
			<path style="fill-rule:evenodd;clip-rule:evenodd;fill:#FFFFFF;" d="M552.243,206.917c0-0.28,0.226-0.506,0.507-0.506
				c0.278,0,0.507,0.227,0.507,0.506v1.192h1.191c0.279,0,0.507,0.227,0.507,0.506c0,0.28-0.227,0.507-0.507,0.507h-1.191v1.192
				c0,0.279-0.229,0.507-0.507,0.507c-0.281,0-0.507-0.227-0.507-0.507v-1.192h-1.192c-0.278,0-0.507-0.227-0.507-0.507
				c0-0.28,0.228-0.506,0.507-0.506h1.192V206.917z"/>
		</g>
		<g>
			<path style="fill-rule:evenodd;clip-rule:evenodd;fill:#FFFFFF;" d="M589.056,159.871l-0.106,0.003
				c-0.067-2.075-1.771-3.736-3.862-3.736c-0.969,0-1.854,0.357-2.533,0.946c-0.615-3.071-3.328-5.385-6.581-5.385
				c-1.336,0-2.582,0.392-3.628,1.065l-0.416-0.273c-0.536-1.82-2.07-3.21-3.969-3.538c0.1-0.488,0.153-0.994,0.153-1.511
				c0-3.911-3.037-7.112-6.881-7.374c-1.118-4.537-5.213-7.903-10.093-7.903c-4.595,0-8.489,2.979-9.865,7.11
				c-0.527-0.141-1.081-0.216-1.652-0.216c-2.717,0-5.038,1.693-5.968,4.082c-0.583-0.208-1.211-0.322-1.868-0.322
				c-1.827,0-3.446,0.881-4.462,2.242c-1.802-1.713-4.239-2.763-6.923-2.763c-2.848,0-5.42,1.183-7.249,3.086
				c-0.474-1.516-1.892-2.617-3.563-2.617c-0.325,0-0.641,0.042-0.94,0.12c-0.354-4.711-4.288-8.423-9.089-8.423
				c-2.139,0-4.104,0.737-5.659,1.971c-1.268-1.07-2.897-1.729-4.676-1.772c-0.455-4.512-4.267-8.035-8.898-8.035
				c-1.977,0-3.802,0.642-5.282,1.727c-2.463-2.788-6.063-4.547-10.073-4.547c-7.421,0-13.438,6.017-13.438,13.437
				c0,0.491,0.028,0.978,0.079,1.457c-0.474-0.108-0.969-0.165-1.476-0.165c-1.599,0-3.065,0.566-4.213,1.506
				c-1.82-2.911-5.053-4.848-8.74-4.848c-4.499,0-8.327,2.885-9.729,6.907c-1.531-0.615-3.199-0.953-4.947-0.953
				c-7.206,0-13.069,5.738-13.274,12.893c-0.962-0.48-2.045-0.751-3.192-0.751c-3.552,0-6.5,2.589-7.06,5.983
				c-0.669-0.398-1.452-0.629-2.289-0.629c-2.001,0-3.697,1.314-4.272,3.128c-0.597-0.547-1.392-0.882-2.266-0.882
				c-1.855,0-3.355,1.502-3.355,3.356c0,1.853,1.501,3.355,3.355,3.355h6.537h9.35h14.794c0.548,0.069,1.105,0.105,1.673,0.105
				c0.565,0,1.12-0.036,1.666-0.105h164.881c2.136,0,3.865-1.73,3.865-3.864C592.921,161.603,591.191,159.871,589.056,159.871z"/>
			<path style="fill-rule:evenodd;clip-rule:evenodd;fill:#FFFFFF;" d="M347.75,122.26l-0.146,0.002
				c-0.094-2.827-2.415-5.09-5.264-5.09c-1.321,0-2.528,0.487-3.453,1.291c-0.839-4.187-4.534-7.341-8.967-7.341
				c-1.822,0-3.52,0.535-4.945,1.452l-0.567-0.372c-0.73-2.479-2.821-4.376-5.409-4.822c0.137-0.664,0.21-1.353,0.21-2.058
				c0-5.33-4.14-9.692-9.378-10.047c-1.521-6.184-7.102-10.771-13.754-10.771c-6.258,0-11.568,4.06-13.441,9.688
				c-0.719-0.192-1.473-0.294-2.252-0.294c-3.703,0-6.866,2.308-8.131,5.562c-0.794-0.282-1.652-0.438-2.546-0.438
				c-2.489,0-4.698,1.2-6.081,3.054c-2.456-2.333-5.778-3.766-9.434-3.766c-3.882,0-7.385,1.614-9.878,4.206
				c-0.647-2.067-2.577-3.565-4.857-3.565c-0.443,0-0.872,0.057-1.282,0.163c-0.48-6.419-5.841-11.479-12.384-11.479
				c-2.914,0-5.595,1.005-7.713,2.685c-1.729-1.458-3.946-2.356-6.371-2.413c-0.622-6.149-5.814-10.949-12.126-10.949
				c-2.692,0-5.18,0.874-7.197,2.352c-3.356-3.798-8.262-6.195-13.729-6.195c-10.111,0-18.309,8.199-18.309,18.31
				c0,0.671,0.037,1.333,0.107,1.985c-0.646-0.146-1.319-0.224-2.01-0.224c-2.18,0-4.178,0.771-5.741,2.052
				c-2.48-3.967-6.887-6.607-11.911-6.607c-6.132,0-11.345,3.932-13.258,9.413c-2.083-0.838-4.358-1.299-6.742-1.299
				c-9.818,0-17.809,7.819-18.088,17.57c-1.31-0.654-2.787-1.022-4.351-1.022c-4.841,0-8.856,3.528-9.62,8.152
				c-0.912-0.544-1.979-0.856-3.12-0.856c-2.728,0-5.039,1.792-5.82,4.262c-0.813-0.746-1.898-1.202-3.089-1.202
				c-2.525,0-4.574,2.047-4.574,4.572c0,2.526,2.049,4.574,4.574,4.574h8.91h12.74h20.16c0.748,0.093,1.507,0.142,2.279,0.142
				c0.769,0,1.528-0.049,2.273-0.142H347.75c2.908,0,5.267-2.359,5.267-5.267C353.017,124.619,350.658,122.26,347.75,122.26z"/>
			<path style="fill-rule:evenodd;clip-rule:evenodd;fill:#6D79B6;" d="M40.543,293.643c3.951,18.235,20.26,32.004,39.632,32.004
				c19.287,0,35.066,15.779,35.066,35.065l0,0l0,0c0,35.189,28.791,63.98,63.979,63.98h19.126l0,0h351.747h74.681
				c45.714,0,83.114-37.4,83.114-83.114l0,0c0-17.815-5.682-34.366-15.321-47.936H40.543z"/>
			<path style="fill-rule:evenodd;clip-rule:evenodd;fill:#565DA2;" d="M219.723,307.774c-0.234,0-0.422-0.188-0.422-0.422
				c0-0.232,0.188-0.421,0.422-0.421h352.668c0.232,0,0.421,0.188,0.421,0.421c0,0.233-0.188,0.422-0.421,0.422H219.723
				L219.723,307.774z M705.888,323.48c-0.063-0.281-0.127-0.563-0.192-0.844H416.76c-0.232,0-0.421,0.189-0.421,0.422
				c0,0.232,0.189,0.422,0.421,0.422H705.888L705.888,323.48z M308.071,321.526c-0.232,0-0.422-0.189-0.422-0.421
				c0-0.233,0.189-0.422,0.422-0.422h48.544c0.232,0,0.421,0.189,0.421,0.422c0,0.232-0.189,0.421-0.421,0.421H308.071
				L308.071,321.526z M189.025,314.913c-0.232,0-0.421-0.189-0.421-0.421c0-0.232,0.189-0.422,0.421-0.422h48.545
				c0.232,0,0.421,0.19,0.421,0.422c0,0.232-0.189,0.421-0.421,0.421H189.025L189.025,314.913z M484.583,362.745
				c-0.233,0-0.424-0.189-0.424-0.422c0-0.232,0.191-0.422,0.424-0.422h48.544c0.232,0,0.42,0.189,0.42,0.422
				c0,0.232-0.188,0.422-0.42,0.422H484.583L484.583,362.745z M634.503,309.917c-0.232,0-0.424-0.189-0.424-0.422
				c0-0.233,0.191-0.422,0.424-0.422h48.544c0.232,0,0.42,0.188,0.42,0.422c0,0.232-0.188,0.422-0.42,0.422H634.503L634.503,309.917
				z M628.077,369.17c-0.232,0-0.421-0.189-0.421-0.422c0-0.233,0.188-0.422,0.421-0.422h48.544c0.232,0,0.423,0.189,0.423,0.422
				c0,0.232-0.19,0.422-0.423,0.422H628.077L628.077,369.17z M609.516,333.475c-0.232,0-0.423-0.189-0.423-0.422
				c0-0.232,0.19-0.422,0.423-0.422h48.544c0.232,0,0.421,0.189,0.421,0.422c0,0.233-0.188,0.422-0.421,0.422H609.516
				L609.516,333.475z M244.71,374.168c-0.232,0-0.421-0.189-0.421-0.421c0-0.234,0.189-0.422,0.421-0.422h352.668
				c0.232,0,0.423,0.188,0.423,0.422c0,0.231-0.19,0.421-0.423,0.421H244.71L244.71,374.168z M338.23,346.326
				c-0.232,0-0.42-0.189-0.42-0.422c0-0.232,0.188-0.422,0.42-0.422h152.053h48.565h152.051c0.234,0,0.423,0.189,0.423,0.422
				c0,0.232-0.188,0.422-0.423,0.422H538.849h-48.565H338.23z"/>
			<path style="fill-rule:evenodd;clip-rule:evenodd;fill:#F7E5C3;" d="M80.175,325.647c19.287,0,35.066,15.779,35.066,35.065l0,0
				l0,0c0,35.189,28.791,63.98,63.979,63.98h19.126l0,0h351.747h74.681c28.71,0,54.138-14.754,69.083-37.052H491.194
				c-111.62,0-118.691-61.994-195.73-61.994C218.425,325.647,80.175,325.647,80.175,325.647z"/>
		</g>
		<g>
			<path style="fill-rule:evenodd;clip-rule:evenodd;fill:#A4CCBA;" d="M705.956,352.205c-0.146-0.324-0.303-0.639-0.458-0.957
				c-4.541,1.568-9.638,3.074-8.201,1.381c1.027-1.208,2.816-4.257,4.562-7.418c-6.165-8.486-15.18-14.343-24.131-19.629
				c-2.813,3.515-5.457,6.633-5.378,5.836c0.072-0.739,0.665-4.37,1.304-8.219c-14.557-8.478-27.747-16.281-26.667-32.579
				c0,0,0.084-0.541-0.519-0.601c-0.376-0.037-8.838,12.283-9.185,28.403c1.35,0.44,2.734,0.869,3.367,0.983
				c0.81,0.149-1.307,1.568-3.298,2.772c0.488,8.251,3.276,17.277,10.33,26.035c3-0.446,5.956-0.858,6.409-0.814
				c0.509,0.051-1.332,2.364-3.188,4.547c7.89,8.867,14.273,15.584,18.977,21.26c3.335-0.914,7.133-1.919,8.055-2.023
				c1.302-0.147-1.462,2.853-4.529,6.534c6.552,9.038,7.849,15.85,2.978,26.33c1.405-0.192,2.854-0.577,4.32-1.123
				c13.65-12.462,23.162-29.388,26.169-48.401C706.607,353.742,706.304,352.968,705.956,352.205z"/>
			<path style="fill-rule:evenodd;clip-rule:evenodd;fill:#7AA0AF;" d="M646.468,290.019c-0.376-0.037-8.838,12.283-9.185,28.403
				c1.35,0.44,2.734,0.869,3.367,0.983c0.81,0.149-1.307,1.568-3.298,2.772c0.488,8.251,3.276,17.277,10.33,26.035
				c3-0.446,5.956-0.858,6.409-0.814c0.509,0.051-1.332,2.364-3.188,4.547c7.89,8.867,14.273,15.584,18.977,21.26
				c3.335-0.914,7.133-1.919,8.055-2.023c1.302-0.147-1.462,2.853-4.529,6.534c6.526,9.002,7.839,15.796,3.033,26.206
				c35.591-23.973,16.618-46.328-12.238-62.712C635.135,324.71,646.468,290.019,646.468,290.019z"/>
			<path style="fill-rule:evenodd;clip-rule:evenodd;fill:#69819F;" d="M647.173,347.571c0.167,0.215,0.337,0.429,0.509,0.643
				l1.171-0.173C648.295,347.876,647.734,347.72,647.173,347.571L647.173,347.571z M652.982,349.408
				c-0.591,0.765-1.334,1.663-2.08,2.539c2.435,2.738,4.729,5.271,6.874,7.633c0.188-2.153,0.293-5.038,0.349-7.968
				C656.442,350.785,654.726,350.055,652.982,349.408L652.982,349.408z M659.703,361.702c3.967,4.361,7.369,8.119,10.176,11.505
				c2.656-0.727,5.605-1.514,7.163-1.857c-2.201-5.697-5.641-10.751-10.556-14.55c-0.342-0.264-0.688-0.515-1.034-0.766
				C663.449,358.172,661.285,360.374,659.703,361.702L659.703,361.702z M677.536,372.711c3.168,9.158,3.284,19.806,1.283,29.548
				c-0.767,0.554-1.555,1.109-2.382,1.665c4.806-10.41,3.493-17.204-3.033-26.206C675.073,375.714,676.653,373.914,677.536,372.711z
				"/>
			<path style="fill-rule:evenodd;clip-rule:evenodd;fill:#A4CCBA;" d="M665.58,364.108c-0.342-0.265-0.688-0.516-1.032-0.769
				c-3.99,4.257-8.607,8.762-8.024,6.13c0.416-1.878,0.611-6.167,0.695-10.55c-11.429-5.619-24.425-6.8-37.031-7.403
				c-1.03,5.365-2.101,10.213-2.468,9.313c-0.34-0.835-1.765-5.068-3.256-9.563c-20.433-0.854-39.017-1.762-47.092-19.871
				c0,0-0.217-0.629-0.897-0.351c-0.423,0.173-2.528,18.196,6.23,35.699c1.699-0.29,3.428-0.615,4.174-0.851
				c0.955-0.3-0.514,2.423-1.971,4.845c5.198,8.584,13.307,16.694,25.842,22.103c2.968-2.181,5.907-4.296,6.421-4.505
				c0.574-0.234-0.091,3.293-0.848,6.689c13.494,5.049,24.156,8.644,32.42,12.072c3.061-2.868,6.57-6.1,7.502-6.734
				c1.315-0.897,0.047,3.893-1.16,9.58c5.058,2.494,8.917,5.089,11.755,8.278c8.004-3.376,15.377-7.973,21.889-13.554
				C680.665,389.529,677.367,373.215,665.58,364.108z"/>
			<path style="fill-rule:evenodd;clip-rule:evenodd;fill:#7AA0AF;" d="M566.475,331.043c-0.423,0.173-2.528,18.196,6.23,35.699
				c1.699-0.29,3.428-0.615,4.174-0.851c0.955-0.3-0.514,2.423-1.971,4.845c5.198,8.584,13.307,16.694,25.842,22.103
				c2.968-2.181,5.907-4.296,6.421-4.505c0.574-0.234-0.091,3.293-0.848,6.689c13.494,5.049,24.156,8.644,32.42,12.072
				c3.061-2.868,6.57-6.1,7.502-6.734c1.315-0.897,0.047,3.893-1.16,9.58c5.058,2.494,8.917,5.089,11.755,8.278
				c5.217-2.2,10.165-4.921,14.782-8.092c0.972-25.016-25.889-33.204-57.105-34.166C573.96,374.711,566.475,331.043,566.475,331.043
				z"/>
			<path style="fill-rule:evenodd;clip-rule:evenodd;fill:#69819F;" d="M617.989,399.309c8.163,2.961,15.033,5.415,20.754,7.788
				c3.064-2.869,6.572-6.101,7.502-6.735c1.315-0.897,0.047,3.893-1.16,9.58c5.058,2.494,8.917,5.089,11.755,8.278
				c1.641-0.692,3.256-1.44,4.843-2.233c-0.908-9.89-9.963-21.942-23.622-21.833c-0.265,0.002-0.527,0.01-0.79,0.02
				c-0.686,2.895-1.613,6.08-2.173,4.872c-0.4-0.863-1.706-2.601-3.101-4.341C627.097,395.538,622.446,397.248,617.989,399.309z"/>
			<path style="fill-rule:evenodd;clip-rule:evenodd;fill:#A4CCBA;" d="M639.552,398.41c-0.265,0.002-0.527,0.012-0.792,0.02
				c-0.681,2.895-1.61,6.082-2.171,4.872c-0.399-0.863-1.705-2.601-3.1-4.341c-7.802,1.328-14.966,4.874-21.735,8.527
				c1.222,2.416,2.257,4.644,1.768,4.404c-0.453-0.221-2.582-1.438-4.836-2.736c-10.935,5.97-20.92,11.348-31.073,6.754
				c0,0-0.32-0.179-0.583,0.14c-0.126,0.151,2.648,4.669,8.549,8.644h39.195c5.099,0,10.096-0.468,14.947-1.359
				c0.642-2.022,1.376-4.256,1.646-4.776c0.384-0.738,1.26,1.399,2.449,3.917c6.458-1.529,12.631-3.817,18.42-6.763
				C659.456,407.022,651.169,398.318,639.552,398.41z"/>
			<path style="fill-rule:evenodd;clip-rule:evenodd;fill:#7AA0AF;" d="M577.03,416.049c-0.126,0.151,2.648,4.669,8.549,8.644
				h39.195c5.099,0,10.096-0.468,14.947-1.359c0.642-2.022,1.376-4.256,1.646-4.776c0.384-0.738,1.26,1.399,2.449,3.917
				c5.413-1.282,10.62-3.096,15.57-5.383c-6.77-13.371-24.727-8.241-42.567,1.71C595.264,430.823,577.03,416.049,577.03,416.049z"/>
		</g>
		<g>
			<path style="fill-rule:evenodd;clip-rule:evenodd;fill:#D3BBA7;" d="M57.123,455.034h583.055c8.343,0,15.17-6.826,15.17-15.17
				l0,0c0-8.344-6.827-15.171-15.17-15.171H57.123c-8.344,0-15.17,6.827-15.17,15.171l0,0
				C41.952,448.207,48.779,455.034,57.123,455.034z"/>
			<path style="fill-rule:evenodd;clip-rule:evenodd;fill:#D3BBA7;" d="M682.235,455.034h9.075c8.343,0,15.17-6.826,15.17-15.17l0,0
				c0-8.344-6.83-15.171-15.17-15.171h-9.075c-8.343,0-15.17,6.828-15.17,15.171l0,0
				C667.065,448.207,673.891,455.034,682.235,455.034z"/>
		</g>
		<g>
			<g>
				<path style="fill-rule:evenodd;clip-rule:evenodd;fill:#DC947C;" d="M432.553,397.559c0,0.49,0.163,4.487-0.163,5.466
					c-0.327,0.978-1.225,3.835-2.284,4.732c-1.061,0.897,2.853,3.835,4.895,4.977c2.04,1.143,3.263,1.387,6.77,1.143
					c3.509-0.245,4.978-0.49,5.466-1.143c0.49-0.652,2.937-3.998,2.937-3.998s-3.345-9.788-4.406-13.133
					C444.707,392.257,432.553,397.559,432.553,397.559z"/>
				<path style="fill-rule:evenodd;clip-rule:evenodd;fill:#BC4945;" d="M409.871,424.442c0,0,37.689,0,40.871,0
					c3.181,0,2.609-3.553,2.609-4.899c0,0-0.103-0.714-0.795-0.775c0,0,0.897-6.811,0-8.892c-0.899-2.079-2.082-3.181-4.162-2.202
					c-2.08,0.979-4.934,4.771-9.625,3.956c-4.69-0.815-7.137-4.976-9.178-5.384c-2.04-0.407-2.977,0.245-5.017,2.08
					c-2.038,1.836-6.159,5.466-9.464,5.914c-3.302,0.449-7.952,0.53-9.3,2.079c-1.346,1.55-0.53,4.65,0.734,5.466
					C406.546,421.785,405.812,424.442,409.871,424.442z"/>
				<path style="fill-rule:evenodd;clip-rule:evenodd;fill:#FFFFFF;" d="M409.871,424.442c0,0,37.689,0,40.871,0
					c3.181,0,2.609-3.553,2.609-4.899c0,0-0.103-0.714-0.795-0.775c-1.018,2.409-3.878,3.018-8.773,3.018
					c-4.895,0-37.238,0-37.238,0S405.812,424.442,409.871,424.442z"/>
				<path style="fill-rule:evenodd;clip-rule:evenodd;fill:#383260;" d="M491.196,332.203c0,0-44.431-11.429-47.938-11.999
					c-3.509-0.572-9.709,4.323-12.725,9.055c-0.851,1.332,1.201,70.034,1.304,70.255c0.978,2.12,14.129,2.139,15.759-1.183
					c1.683-3.436,9.193-36.849,9.286-43.638c0,0,34.598,17.685,36.883,19.317C496.049,375.641,507.104,341.501,491.196,332.203z"/>
			</g>
			<g>
				<path style="fill-rule:evenodd;clip-rule:evenodd;fill:#E8C6AB;" d="M289.387,362.431h43.192c2.307,0,4.194,1.887,4.194,4.194
					l0,0c0,2.308-1.887,4.195-4.194,4.195h-43.192c-2.307,0-4.195-1.888-4.195-4.195l0,0
					C285.192,364.318,287.08,362.431,289.387,362.431z"/>
				<g>
					<path style="fill-rule:evenodd;clip-rule:evenodd;fill:#443E6F;" d="M300.275,363.706h-2.419c-0.565,0-1.026-0.462-1.026-1.027
						v-10.879c0-0.564,0.461-1.027,1.026-1.027h2.419c0.565,0,1.027,0.463,1.027,1.027v10.879
						C301.303,363.244,300.84,363.706,300.275,363.706z"/>
					<path style="fill-rule:evenodd;clip-rule:evenodd;fill:#443E6F;" d="M329.432,355.074l-2.095,1.208
						c-0.489,0.284-1.12,0.114-1.403-0.375l-5.439-9.422c-0.284-0.489-0.114-1.12,0.375-1.403l2.095-1.209
						c0.489-0.282,1.12-0.113,1.403,0.376l5.44,9.423C330.091,354.161,329.921,354.792,329.432,355.074z"/>
					<path style="fill-rule:evenodd;clip-rule:evenodd;fill:#D28478;" d="M301.197,347.993h9.073l8.325-4.807
						c1.063-0.614,2.436-0.247,3.05,0.817l7.013,12.148c0.615,1.064,0.246,2.436-0.816,3.05l-12.155,7.018l-0.015-0.035l0,0
						c-0.318,0.19-0.693,0.302-1.089,0.302h-13.386c-1.172,0-2.131-0.958-2.131-2.131v-14.232
						C299.066,348.952,300.025,347.993,301.197,347.993z"/>
					<path style="fill-rule:evenodd;clip-rule:evenodd;fill:#C45B5D;" d="M305.774,347.993h4.496l4.854-2.802
						c-0.745,4.695-2.045,12.48-2.426,12.141C312.32,356.998,308.252,351.414,305.774,347.993z"/>
					<path style="fill-rule:evenodd;clip-rule:evenodd;fill:#C45B5D;" d="M325.661,355.431l-12.089,6.981l-0.015-0.036
						c-0.32,0.191-0.693,0.302-1.09,0.302h-11.164h-2.222c-0.005,0-0.009,0-0.015,0v1.027v0.649c0,1.173,0.958,2.131,2.131,2.131
						h13.386c0.396,0,0.771-0.111,1.089-0.302l0.015,0.035l12.155-7.018c1.063-0.614,1.431-1.986,0.816-3.05l-0.273-0.474
						l-1.623-2.813c0.261,0.956-0.141,2.012-1.037,2.528L325.661,355.431z"/>
				</g>
			</g>
			<g>
				<g>
					<path style="fill-rule:evenodd;clip-rule:evenodd;fill:#28214D;" d="M370.743,343.125c1.007,1.012,1.003,2.649-0.01,3.655
						c-1.012,1.008-2.65,1.002-3.656-0.011l-64.712-64.941l-0.114-0.123c-0.392-0.367-2.168-1.851-5.313-1.851h-33.442
						c-1.433,0-2.594-1.161-2.594-2.594c0-1.432,1.161-2.593,2.594-2.593h33.442c4.956,0,8.106,2.599,8.917,3.352
						c0.06,0.051,0.12,0.105,0.177,0.162L370.743,343.125z"/>
					<path style="fill-rule:evenodd;clip-rule:evenodd;fill:#C45B5D;" d="M174.848,402.404c0,0,1.261,0.386,1.403,1.366
						c0.139,0.982-0.245,7.64-0.176,9.532c0,0,1.333,0.245,1.193,2.139c0,0,4.591,1.717,5.361,2.697
						c0.771,0.982,1.052,3.189,0.631,4.066c0,0,0.386,0.799,0.386,1.297c0,0.497-0.21,1.191-1.752,1.191c-1.542,0-11.53,0-14.194,0
						c-2.663,0-5.257-1.298-6.658-3.471c-1.402-2.173-3.996-12.267-4.907-14.019c-0.315-0.608-0.816-1.492-1.358-2.477l-0.001-0.002
						l-0.003-0.006l-0.006-0.01l-0.017-0.031l-0.012-0.021c-0.236-0.446-1.438-2.929-0.147-5.065
						c1.424-2.357,3.832-5.404,5.601-6.386c1.768-0.982,4.863-1.13,5.943,0c1.081,1.129,2.456,5.649,2.456,5.649l3.785,2.444
						L174.848,402.404z"/>
					<path style="fill-rule:evenodd;clip-rule:evenodd;fill:#D28478;" d="M167.549,391.168c1.376,2.27,2.84,7.082,2.84,7.082
						l4.692,3.031c-1.185,1.384-2.945,2.262-4.912,2.262c-3.57,0-6.464-2.894-6.464-6.464
						C163.705,394.441,165.284,392.172,167.549,391.168z"/>
					<path style="fill-rule:evenodd;clip-rule:evenodd;fill:#FFFFFF;" d="M183.261,422.205c0,0,0.386,0.799,0.386,1.297
						c0,0.497-0.21,1.191-1.752,1.191c-1.542,0-11.53,0-14.194,0c-2.663,0-5.257-1.298-6.658-3.471
						c-1.402-2.173-3.996-12.267-4.907-14.019c-0.315-0.608-0.816-1.492-1.358-2.477l-0.001-0.002l-0.003-0.006l-0.006-0.01
						l-0.017-0.031l-0.012-0.021c-0.236-0.446-1.438-2.929-0.147-5.065c0.185-0.306,0.387-0.623,0.601-0.945
						c0.302,0.73,0.6,1.459,0.842,2.141c0.912,2.56,5.679,15.808,7.396,18.331c1.717,2.524,2.313,3.087,5.292,3.087
						C171.7,422.205,183.261,422.205,183.261,422.205z"/>
					<path style="fill-rule:evenodd;clip-rule:evenodd;fill:#D68982;" d="M252.421,399.431c1.05,4.403,2.09,8.956,3.124,13.699
						c0,0,0.289,1.464,2.041,1.464c1.753,0,7.23,0,9.202,0c1.972,0,2.535-1.747,2.271-3.546c-0.564-3.813-1.159-7.689-1.78-11.617
						H252.421z"/>
					<path style="fill-rule:evenodd;clip-rule:evenodd;fill:#373061;" d="M204.92,256.967
						c18.782,55.759,33.22,88.981,46.107,148.158c0,0,0.403,2.037,2.842,2.037c2.44,0,10.061,0,12.806,0
						c2.745,0,3.529-2.432,3.159-4.935c-6.993-47.327-17.433-101.604-26.922-151.957c-2.105-11.169-7.74-19.111-16.137-24.595
						C218.376,220.193,204.92,256.967,204.92,256.967z"/>
					<path style="fill-rule:evenodd;clip-rule:evenodd;fill:#443E6F;" d="M235.494,255.963
						c-11.44,0.262-17.597,12.059-19.918,21.053c-5.952,23.056-20.697,56.055-37.817,125.48c0,0-0.229,2.037-2.668,2.037
						c-0.26,0-12.641-6.809-12.387-10.938c2.928-47.327,11.395-92.974,16.559-143.325c1.146-11.169,6.097-19.111,14.025-24.595
						C201.215,220.193,235.494,255.963,235.494,255.963z"/>
					<path style="fill-rule:evenodd;clip-rule:evenodd;fill:#373061;" d="M235.494,255.963c-6.152,0.141-10.776,3.618-14.097,8.2
						c-21.335-2.115-33.927-14.362-40.193-22.823c2.332-6.643,6.458-11.773,12.084-15.664
						C201.215,220.193,235.494,255.963,235.494,255.963z"/>
					<path style="fill-rule:evenodd;clip-rule:evenodd;fill:#E6B5A3;" d="M351.15,330.786l-5.599-5.618c0,0-0.022-1.347-0.813-2.691
						c-0.791-1.346-1.463-0.356-1.463-0.356s-0.277-2.295-1.9-2.057c0,0-0.831-2.06-1.9-1.821c-1.069,0.237-0.198,4.037,0.079,5.104
						c0.277,1.069,1.069,0.831,1.069,0.831s0.395,2.177,1.344,2.255c0,0,0.515,2.018,1.781,2.691
						C345.015,329.796,350.357,331.101,351.15,330.786z"/>
					<path style="fill-rule:evenodd;clip-rule:evenodd;fill:#E6B5A3;" d="M330.04,265.523c0,0,17.364,41.278,18.947,44.444
						c1.582,3.166,6.251,11.397,8.072,13.691c1.819,2.295,6.26,7.839,6.458,8.313c0.199,0.476-2.078,1.493-3.779,0.108
						c-1.702-1.384-6.886-6.91-6.886-6.91s-0.107,3.237-0.622,3.91c-0.514,0.673-3.007,1.899-4.353,2.137
						c-1.346,0.237-2.652-0.753-1.938-2.137c0.711-1.385,2.335-1.978,2.335-1.978l0.158-3.837c0,0-3.68-2.494-3.798-5.383v-0.712
						l-5.62-5.895l-24.319-38.194c0,0,2.636-5.175,4.852-6.915C321.763,264.425,327.778,263,330.04,265.523z"/>
					<path style="fill-rule:evenodd;clip-rule:evenodd;fill:#C45B5D;" d="M292.484,188.409c0,0,9.19,2.233,11.396,4.274
						c2.207,2.039,10.287,15.828,10.92,18.993c0.633,3.165,3.482,19.626,5.223,25.324c1.741,5.698,6.014,13.612,6.49,15.353
						c0.475,1.742,2.216,7.281,2.216,7.281l-19.23,8.31c0,0-4.749-9.497-5.224-11.475c-0.474-1.979-3.563-13.216-4.67-15.273
						c-1.108-2.058-10.288-18.677-10.921-24.058C288.052,211.756,292.484,188.409,292.484,188.409z"/>
					<path style="fill-rule:evenodd;clip-rule:evenodd;fill:#954958;" d="M296.25,189.442c2.807,0.839,6.365,2.072,7.63,3.241
						c2.207,2.039,10.287,15.828,10.92,18.993c0.158,0.789,0.453,2.403,0.835,4.47l-8.921-5.51c0,0-2.31-1.507-4.118,1.606
						c-1.396,2.404-6.859,12.405-9.279,16.844c-2.272-4.688-4.345-9.491-4.633-11.948c-0.42-3.578,1.398-15.098,2.665-22.417
						C293.441,192.335,295.19,190.447,296.25,189.442z"/>
					<path style="fill-rule:evenodd;clip-rule:evenodd;fill:#E6B5A3;" d="M256.916,252.706h4.196c0,0,18.991,10.763,20.178,11.634
						c1.188,0.87,8.23,3.957,9.259,4.67c1.028,0.712,3.4,5.659,3.4,5.659h-2.533c0,0,0.223,1.433,0.461,1.947
						c0.237,0.514,2.613,3.239,2.613,3.239h0.87c0,0,0.768,2.805,0.253,3.122c-0.515,0.315-1.346,0.435-2.375,0.673
						c-1.03,0.236-2.889-1.069-2.889-1.069s-1.068,0.831-1.859,0.949c-0.791,0.12-2.375-0.395-2.375-0.395s-1.068,0.555-1.938,0.831
						c-0.87,0.278-2.176-0.197-2.176-0.197s-1.86,0.594-2.612,0.554c-0.751-0.039-4.432-2.808-5.58-4.629
						c-1.147-1.819-2.296-6.133-2.533-6.606c-0.237-0.476-18.677-7.914-18.677-7.914L256.916,252.706z"/>
					<path style="fill-rule:evenodd;clip-rule:evenodd;fill:#E6B5A3;" d="M305.354,175.778l-5.848,2.559
						c0,0-3.767,0.052-6.102-0.698c-2.335-0.752-5.54,4.352-5.54,4.352l1.977,21.605c0,0,9.022-3.403,12.423-3.167
						c3.403,0.238,4.809,1.162,5.887,2.836c0,0,9.471-17.229,9.229-20.879C317.14,178.736,305.354,175.778,305.354,175.778z"/>
					<path style="fill-rule:evenodd;clip-rule:evenodd;fill:#D2887A;" d="M305.354,175.778l-5.848,2.559
						c0,0-0.387,0.005-0.988-0.012l6.699,22.622c1.411,0.474,2.241,1.24,2.935,2.318c0,0,9.471-17.229,9.229-20.879
						C317.14,178.736,305.354,175.778,305.354,175.778z"/>
					<path style="fill-rule:evenodd;clip-rule:evenodd;fill:#C45B5D;" d="M301.24,200.448c-8.319-1.121-8.388-21.831-4.711-22.242
						c0,0-2.553-0.975-3.229-1.014c-0.678-0.04-12.352-6.829-28.333-5.767c-35.012,2.325-51.735,33.094-75.475,54.001
						c0,0-1.351,1.345-1.4,2.295c0,0,0.235,1.345,1.618,2.374c11.306,8.408,30.924,57.604,66.029,12.039
						c2.051-2.662,3.871-5.946,4.762-6.418c2.387-1.266,24.813-11.396,28.85-13.453c4.039-2.058,11.384-13.452,11.494-14.561
						c0.11-1.107-0.041-4.402-0.041-4.402S301.182,200.95,301.24,200.448z"/>
					<path style="fill-rule:evenodd;clip-rule:evenodd;fill:#954958;" d="M219.598,259.611c9.733,4.001,21.609,1.384,36.141-17.478
						c2.051-2.662,3.871-5.946,4.762-6.418c0.645-0.342,2.755-1.333,5.568-2.634l-16.399-0.047l-18.837-24.601
						c0,0-16.917,29.22-19.126,31.631c-2.21,2.41-0.603,7.431,2.41,11.449C215.468,253.313,217.627,256.568,219.598,259.611z"/>
					<path style="fill-rule:evenodd;clip-rule:evenodd;fill:#C45B5D;" d="M259.846,182.349c0,0,16.146,11.079,9.814,21.525
						c-6.331,10.447-20.971,34.504-21.209,35.374c0,0,1.124,1.203,0.079,3.64l9.461,7.245c0,0-7.359,7.36-9.258,14.958
						c0,0-0.243,0.708-1.034,0.393c-0.791-0.317-8.272-1.464-11.437-4.472c-3.165-3.007-7.358-6.806-11.792-9.575
						c-4.432-2.769-6.251-4.353-6.568-8.309c-0.316-3.957-0.712-6.411,0.238-8.469c0.949-2.057,7.438-11.078,11.553-22.474
						C233.81,200.791,234.6,173.409,259.846,182.349z"/>
					<path style="fill-rule:evenodd;clip-rule:evenodd;fill:#FFFFFF;" d="M255.573,247.244c0,0,2.453,2.058,4.273,2.928
						c1.821,0.87,1.267,2.533,1.267,2.533s-6.411,5.46-7.202,13.69c0,0-1.028,1.503-2.137,1.582
						c-1.107,0.08-3.165-1.582-4.827-1.582c-1.663,0-2.391-1.676-2.391-1.676C244,259.128,252.699,245.27,255.573,247.244z"/>
					<path style="fill-rule:evenodd;clip-rule:evenodd;fill:#FFFFFF;" d="M328.639,257.038c0,0,0.855,3.435,1.917,5.397
						c1.061,1.962-0.516,3.088-0.516,3.088s-9.284,0.712-15.345,7.558c0,0-1.898,0.675-2.94,0.025
						c-1.042-0.649-1.801-3.475-3.287-4.556c-1.486-1.081-1.047-3.053-1.047-3.053C310.562,260.136,327.354,253.403,328.639,257.038
						z"/>
					<path style="fill-rule:evenodd;clip-rule:evenodd;fill:#E6B5A3;" d="M348.204,190.397c-0.703,1.117-3.653,5.369-9.273,7.971
						c-6.513,3.015-9.182,4.827-9.528,8.077c0,0-0.204,0.724-1.099,0.873c-0.896,0.148-2.791-0.317-3.982-1.657
						c0,0-3.844,1.697-6.485,2.862c-2.64,1.164-5.663,1.304-8.461-2.741c-2.797-4.045-6.754-16.797,1.925-22.88
						c8.681-6.083,9.197-4.987,9.197-4.987s23.004,2.064,23.769,2.785c0.765,0.723,8.1,5.87,8.1,5.87L348.204,190.397z"/>
					<path style="fill-rule:evenodd;clip-rule:evenodd;fill:#383260;" d="M355.172,171.661c0,0,3.942,12.538,2.412,16.968
						c-1.531,4.429-7.506,13.711-18.25,11.141c0,0-1.282-0.857-1.854-1.699c-0.572-0.842-0.466-1.339-0.11-1.583
						c0.355-0.244,5.524-0.517,7.533-2.855c-9.509,3.544-20.289-5.252-24.229-13.458l-9.017-0.066c0,0-5.756,3.998-11.873-0.558
						c0,0-0.27-0.809,0.022-1.489c0.293-0.681,9.124-15.746,9.681-16.697c0,0-0.347-4.678,0.629-6.343
						c0.975-1.665,11.768-11.531,22.731-9.153S350.907,157.947,355.172,171.661z"/>
					<path style="fill-rule:evenodd;clip-rule:evenodd;fill:#443E6F;" d="M355.172,171.661c0,0,2.166,6.887,2.663,12.256
						c-19.813,4.177-34.579-13.512-38.964-35.602c1.276-0.658,2.648-1.254,4.088-1.727c4.467,15.571,16.626,28.299,31.82,23.844
						C354.913,170.838,355.043,171.248,355.172,171.661z"/>
					<path style="fill-rule:evenodd;clip-rule:evenodd;fill:#E6B5A3;" d="M320.577,181.904c8.618-8.449,0.031-14.795-5.775-10.403
						c-5.805,4.392-3.502,11.4-3.502,11.4l5.918,2.825L320.577,181.904z"/>
					<path style="fill-rule:evenodd;clip-rule:evenodd;fill:#383260;" d="M331.469,195.085L331.469,195.085
						c-0.446-0.771-1.441-1.038-2.212-0.591l-1.829,1.056c-0.77,0.445-1.038,1.441-0.591,2.212l0,0
						c0.445,0.771,1.441,1.038,2.211,0.592l1.83-1.057C331.648,196.853,331.914,195.857,331.469,195.085z"/>
					<path style="fill-rule:evenodd;clip-rule:evenodd;fill:#D2887A;" d="M323.244,196.182c-0.995-1.721-3.196-2.31-4.918-1.315
						c-1.721,0.995-2.31,3.196-1.315,4.917c0.995,1.721,3.197,2.312,4.918,1.317C323.648,200.107,324.238,197.904,323.244,196.182z"
						/>
					<path style="fill-rule:evenodd;clip-rule:evenodd;fill:#383260;" d="M332.236,191.994c-0.228-0.145-0.296-0.449-0.152-0.678
						c0.145-0.229,0.448-0.297,0.677-0.152c0.007,0.005,2.836,1.703,2.843,4.747c0.001,0.27-0.218,0.491-0.489,0.492
						c-0.271,0.001-0.491-0.218-0.493-0.489C334.617,193.423,332.242,191.997,332.236,191.994z"/>
					<path style="fill-rule:evenodd;clip-rule:evenodd;fill:#443E6F;" d="M287.576,424.478c0,0-31.899,0-34.591,0
						c-2.692,0-2.208-3.289-2.208-4.535c0,0,0.086-0.66,0.672-0.717c0,0-0.76-6.304,0-8.228c0.759-1.926,1.762-2.944,3.522-2.038
						c1.761,0.905,4.176,4.415,8.148,3.66c3.969-0.754,6.041-4.604,7.766-4.981c1.727-0.378,2.521,0.227,4.247,1.926
						c1.726,1.697,5.212,5.057,8.009,5.472c2.796,0.414,6.732,0.49,7.871,1.924c1.14,1.434,0.449,4.303-0.622,5.058
						C290.391,422.018,291.012,424.478,287.576,424.478z"/>
					<path style="fill-rule:evenodd;clip-rule:evenodd;fill:#383260;" d="M289.585,424.478c0,0-33.907,0-36.6,0
						c-2.692,0-2.208-3.289-2.208-4.535c0,0,0.086-0.66,0.672-0.717c0.861,2.228,3.282,2.792,7.424,2.792c4.143,0,31.518,0,31.518,0
						C291.506,421.851,293.02,424.478,289.585,424.478z"/>
					<path style="fill-rule:evenodd;clip-rule:evenodd;fill:#C45B5D;" d="M176.279,404.332c0,0,0.087-1.279-1.156-1.82
						c-1.242-0.541-5.899-1.662-5.548,2.255C169.926,408.684,176.279,404.332,176.279,404.332z"/>
					
						<path style="fill-rule:evenodd;clip-rule:evenodd;fill:none;stroke:#954958;stroke-width:0.7087;stroke-linecap:round;stroke-linejoin:round;stroke-miterlimit:2.6131;" d="
						M293.299,177.191c0,0-6.344,18.871,7.512,26.258"/>
					
						<line style="fill-rule:evenodd;clip-rule:evenodd;fill:none;stroke:#954958;stroke-width:0.7087;stroke-linecap:round;stroke-linejoin:round;stroke-miterlimit:2.6131;" x1="248.53" y1="242.889" x2="241.434" y2="238.705"/>
					
						<line style="fill-rule:evenodd;clip-rule:evenodd;fill:none;stroke:#954958;stroke-width:0.7087;stroke-linecap:round;stroke-linejoin:round;stroke-miterlimit:2.6131;" x1="248.451" y1="239.249" x2="246.757" y2="237.299"/>
				</g>
				<g>
					<path style="fill-rule:evenodd;clip-rule:evenodd;fill:#FFFFFF;" d="M420.712,333.796c0,0-6.007,0.394-11.791,6.295
						c-5.786,5.902-9.567,15.149-25.368,22.627c-15.798,7.476-21.361,6.689-23.809,11.214c-2.448,4.525-0.667,9.248,1.558,10.428
						c0,0-10.904,19.675-12.239,24.594c-1.335,4.918-4.673,15.739,11.125,15.739c15.799,0,43.392,0,58.299,0
						c14.908,0,33.6-5.114,27.369-21.052c-6.23-15.937-16.911-35.218-18.691-41.119
						C425.386,356.619,429.613,333.599,420.712,333.796z"/>
					<path style="fill-rule:evenodd;clip-rule:evenodd;fill:#CBD8F0;" d="M420.715,333.796c0,0-6.01,0.393-11.794,6.295
						c-5.786,5.902-9.567,15.149-25.368,22.627c-15.798,7.476-21.36,6.689-23.809,11.214c-2.448,4.525-0.667,9.247,1.558,10.429
						c0,0-0.49,0.884-1.274,2.321c4.892,1.996,20.713,7.015,39.016-2.304c15.668-7.977,24.265-17.667,27.94-22.632
						C425.699,354.846,429.265,333.607,420.715,333.796z"/>
					<path style="fill-rule:evenodd;clip-rule:evenodd;fill:#FFFFFF;" d="M420.712,333.796c0,0-6.007,0.394-11.791,6.295
						c-5.786,5.902-9.567,15.149-25.368,22.627c-15.798,7.476-21.361,6.689-23.809,11.214c-2.448,4.525-0.667,9.248,1.558,10.428
						c32.71,15.052,60.747-31.873,62.859-40.726c1.996-8.358-2.101-9.653-2.565-9.773
						C421.316,333.813,421.023,333.789,420.712,333.796z"/>
					<path style="fill-rule:evenodd;clip-rule:evenodd;fill:#443E6F;" d="M377.202,381.148c8.419-1.325,16.019-6.787,21.687-12.182
						c5.131-4.887,9.637-10.578,13.342-16.382c1.759-2.753,4.9-7.926,5.64-11.02c1.534-6.433-3.397-1.942-5.865,0.576
						c-1.39,1.417-2.614,3.014-3.818,4.557c-1.605,2.059-3.212,4.093-4.992,6.04c-5.082,5.559-10.959,9.738-18.091,13.113
						c-5.213,2.467-10.342,4.469-15.83,6.369c-1.133,0.393-4.501,1.463-5.329,2.25c-0.137,0.13-0.237,0.282-0.324,0.442
						C359.934,381.732,372.728,381.852,377.202,381.148z"/>
					<path style="fill-rule:evenodd;clip-rule:evenodd;fill:#28214D;" d="M364.322,342.884c-0.666-0.681-0.652-1.773,0.028-2.438
						c0.681-0.666,1.773-0.653,2.438,0.028l15.415,15.659c0.667,0.68,0.653,1.772-0.028,2.438c-0.681,0.665-1.772,0.652-2.438-0.028
						L364.322,342.884z"/>
					<g>
						<path style="fill-rule:evenodd;clip-rule:evenodd;fill:#C45B5D;" d="M394.631,339.276l11.98-4.857
							c2.03-0.823,4.366,0.165,5.189,2.196l4.009,9.884c-1.185,2.261-2.598,4.551-3.578,6.087
							c-3.065,4.805-6.684,9.534-10.751,13.792c-0.221-0.283-0.404-0.599-0.546-0.946l-8.498-20.964
							C391.61,342.435,392.598,340.099,394.631,339.276z"/>
						<path style="fill-rule:evenodd;clip-rule:evenodd;fill:#373061;" d="M394.457,339.637l12.528-5.08
							c0.727-0.295,1.083-1.131,0.787-1.858l-0.002-0.001c-0.293-0.728-1.129-1.08-1.857-0.785l-12.531,5.079
							c-0.727,0.295-1.08,1.13-0.785,1.858l0,0C392.893,339.578,393.729,339.932,394.457,339.637z"/>
						<path style="fill-rule:evenodd;clip-rule:evenodd;fill:#C45B5D;" d="M396.228,341.173l9.119-3.697
							c1.548-0.627,3.325,0.125,3.953,1.672l4.452,10.983c-0.553,0.923-1.08,1.766-1.521,2.454c-2.247,3.522-4.79,7.002-7.59,10.286
							c-1.46,0.399-3.033-0.351-3.614-1.786l-6.472-15.961C393.93,343.579,394.68,341.8,396.228,341.173z"/>
						<path style="fill-rule:evenodd;clip-rule:evenodd;fill:#954958;" d="M404.255,345.812c2.877-1.167,6.155,0.221,7.322,3.099
							c1.169,2.878-0.219,6.157-3.098,7.323c-2.877,1.167-6.156-0.221-7.323-3.099C399.99,350.257,401.378,346.978,404.255,345.812z
							"/>
					</g>
					<path style="fill-rule:evenodd;clip-rule:evenodd;fill:#E9BB77;" d="M377.142,368.591l33.487-13.577
						c-3.377,4.952-7.327,9.75-11.74,13.952c-5.668,5.395-13.268,10.857-21.687,12.182c-0.397,0.063-0.858,0.117-1.367,0.162
						l-1.994-4.917C372.603,373.339,374.088,369.83,377.142,368.591z"/>
					<g>
						<path style="fill-rule:evenodd;clip-rule:evenodd;fill:#373061;" d="M390.706,366.316L390.706,366.316
							c0.279-0.281,0.736-0.283,1.018-0.004l4.82,4.785c-0.36,0.314-0.728,0.625-1.102,0.934l-4.734-4.697
							C390.427,367.054,390.427,366.597,390.706,366.316z"/>
						<path style="fill-rule:evenodd;clip-rule:evenodd;fill:#373061;" d="M397.336,366.491v0.001
							c0.281,0.279,0.284,0.737,0.005,1.019l-5.392,5.431c-0.278,0.281-0.736,0.283-1.018,0.005v-0.001
							c-0.281-0.278-0.283-0.737-0.005-1.018l5.392-5.431C396.598,366.214,397.055,366.212,397.336,366.491z"/>
						<path style="fill-rule:evenodd;clip-rule:evenodd;fill:#373061;" d="M389.266,360.936l1.975-1.989l1.989,1.975
							c1.095,1.086,1.102,2.87,0.017,3.965l-1.975,1.99l-1.991-1.975C388.185,363.815,388.178,362.032,389.266,360.936z"/>
						<path style="fill-rule:evenodd;clip-rule:evenodd;fill:#373061;" d="M385.314,364.916l-1.976,1.99l1.992,1.976
							c1.095,1.086,2.877,1.079,3.965-0.016l1.975-1.989l-1.991-1.975C388.185,363.815,386.402,363.822,385.314,364.916z"/>
						<path style="fill-rule:evenodd;clip-rule:evenodd;fill:#373061;" d="M389.925,365.542c0.737-0.742,1.936-0.747,2.68-0.011
							c0.741,0.737,0.746,1.938,0.01,2.68c-0.737,0.742-1.935,0.747-2.68,0.01C389.193,367.483,389.189,366.284,389.925,365.542z"/>
					</g>
					<path style="fill-rule:evenodd;clip-rule:evenodd;fill:#28214D;" d="M402.193,365.62c-1.966-2.031-3.935-4.062-5.91-6.081
						c-1.801-1.84-4.196-2.771-6.6-2.794c-2.417-0.023-4.846,0.866-6.702,2.667l-0.032,0.031c-1.848,1.81-2.779,4.201-2.806,6.608
						c-0.022,2.433,0.874,4.884,2.685,6.777l4.527,4.738c-1.064,0.576-2.154,1.104-3.266,1.573l-3.755-3.929
						c-2.452-2.565-3.668-5.892-3.633-9.194c0.032-3.292,1.309-6.563,3.839-9.041l0.045-0.046c2.528-2.449,5.83-3.66,9.116-3.629
						c3.298,0.031,6.579,1.308,9.047,3.829c1.917,1.971,3.83,3.942,5.742,5.915C403.743,363.918,402.977,364.778,402.193,365.62z"/>
					<g>
						<path style="fill-rule:evenodd;clip-rule:evenodd;fill:#7AA0AF;" d="M369.007,355.856l0.838,0.608l0.426,1.356
							c0,0,0.862,2.568,3.242,1.821l0.535,1.969l-4.848,0.229l-4.109,2.583l-0.688-1.922c2.381-0.747,1.62-3.347,1.62-3.347
							l-0.427-1.356l0.341-0.979l1.671-0.048L369.007,355.856z"/>
						<path style="fill-rule:evenodd;clip-rule:evenodd;fill:#A4CCBA;" d="M364.954,355.751l4.249-1.334
							c0.562-0.177,1.167,0.139,1.345,0.701l0,0c0.177,0.563-0.139,1.169-0.703,1.346l-4.249,1.334
							c-0.562,0.177-1.167-0.14-1.344-0.703l0,0C364.076,356.533,364.392,355.927,364.954,355.751z"/>
						<path style="fill-rule:evenodd;clip-rule:evenodd;fill:#A4CCBA;" d="M364.403,362.501l9.11-2.859
							c2.141-0.671,4.442,0.53,5.113,2.669l5.304,16.896c-2.166,0.9-4.415,1.577-6.728,1.941c-2.629,0.413-8.127,0.541-11.471-0.805
							l-3.997-12.728C361.063,365.475,362.265,363.174,364.403,362.501z"/>
						<path style="fill-rule:evenodd;clip-rule:evenodd;fill:#A4CCBA;" d="M366.195,365.027l7.291-2.289
							c1.713-0.538,3.556,0.423,4.092,2.136l4.699,14.97c-1.65,0.585-3.347,1.032-5.075,1.305c-2.144,0.337-6.195,0.484-9.43-0.202
							l-3.713-11.828C363.521,367.406,364.482,365.565,366.195,365.027z"/>
						<path style="fill-rule:evenodd;clip-rule:evenodd;fill:#A4CCBA;" d="M369.924,367.011L369.924,367.011
							c2.094-0.657,4.346,0.518,5.003,2.612l2.881,9.173c0.234,0.754,0.234,1.527,0.039,2.24c-0.216,0.039-0.43,0.077-0.646,0.111
							c-1.624,0.256-4.342,0.402-6.97,0.159l-0.04-0.12l-2.879-9.172C366.653,369.921,367.829,367.669,369.924,367.011z"/>
					</g>
				</g>
				<g>
					<path style="fill-rule:evenodd;clip-rule:evenodd;fill:#CBD8F0;" d="M393.514,402.655l2.763-4.489
						c0.049-0.149,0.109-0.468-0.103-0.813l-2.96-4.815v-0.002c-0.012-0.02-0.212-0.32-0.411,0.005l-4.32,7.015
						c-0.135,0.219-0.065,0.508,0.153,0.643l4.234,2.608C393.088,402.941,393.379,402.873,393.514,402.655z"/>
					<path style="fill-rule:evenodd;clip-rule:evenodd;fill:#CBD8F0;" d="M398.4,399.678l-4.838-7.869
						c-0.072-0.118-0.035-0.272,0.081-0.343l5.28-0.965c0.297-0.055,0.727-0.069,0.834,0.104l3.674,5.979
						c0.128,0.172,0.318,0.223,0.507,0.108c0.369-0.229,0.739-0.456,1.108-0.684c0.093-0.056,0.204-0.049,0.288,0.019
						c0.084,0.067,0.114,0.174,0.079,0.276l-1.729,5.018c-0.365,1.054-0.119,0.864-1.226,0.712l-5.205-0.715
						c-0.106-0.015-0.188-0.09-0.212-0.194c-0.021-0.106,0.023-0.208,0.114-0.264c0.369-0.229,0.741-0.456,1.111-0.684
						C398.456,400.062,398.496,399.87,398.4,399.678z"/>
					<path style="fill-rule:evenodd;clip-rule:evenodd;fill:#CBD8F0;" d="M401.479,404.25l2.296,4.746
						c0.101,0.12,0.337,0.344,0.741,0.35l5.652,0.096l0,0c0.023,0,0.384-0.006,0.216-0.35l-3.588-7.415
						c-0.111-0.232-0.393-0.329-0.623-0.218l-4.478,2.167C401.466,403.738,401.368,404.018,401.479,404.25z"/>
					<path style="fill-rule:evenodd;clip-rule:evenodd;fill:#CBD8F0;" d="M401.238,409.85l9.235,0.157
						c0.137,0.002,0.246,0.116,0.243,0.253l-2.026,4.969c-0.113,0.281-0.332,0.65-0.536,0.647l-7.017-0.119
						c-0.213,0.015-0.359,0.147-0.362,0.367c-0.009,0.435-0.016,0.869-0.023,1.303c-0.002,0.108-0.067,0.199-0.169,0.232
						c-0.103,0.035-0.209,0.004-0.275-0.081l-3.3-4.157c-0.692-0.874-0.665-0.565,0.058-1.416l3.402-4.003
						c0.069-0.082,0.179-0.11,0.279-0.071c0.1,0.038,0.162,0.13,0.16,0.236c-0.007,0.435-0.014,0.869-0.022,1.304
						C400.883,409.691,401.025,409.83,401.238,409.85z"/>
					<path style="fill-rule:evenodd;clip-rule:evenodd;fill:#CBD8F0;" d="M395.51,409.765l-5.271-0.15
						c-0.153,0.032-0.46,0.14-0.653,0.495l-2.689,4.972v0.001c-0.012,0.02-0.172,0.342,0.209,0.354l8.233,0.233
						c0.258,0.009,0.475-0.196,0.481-0.453l0.142-4.972C395.97,409.99,395.766,409.773,395.51,409.765z"/>
					<path style="fill-rule:evenodd;clip-rule:evenodd;fill:#CBD8F0;" d="M390.573,407.032l-4.397,8.123
						c-0.065,0.121-0.216,0.166-0.337,0.101l-3.475-4.089c-0.197-0.23-0.425-0.596-0.327-0.775l3.339-6.172
						c0.087-0.196,0.035-0.387-0.157-0.491c-0.382-0.207-0.765-0.414-1.146-0.62c-0.095-0.052-0.144-0.151-0.127-0.257
						c0.016-0.106,0.093-0.188,0.197-0.207l5.21-1.011c1.097-0.213,0.809-0.331,1.229,0.703l1.984,4.866
						c0.04,0.099,0.017,0.208-0.064,0.279c-0.079,0.071-0.191,0.085-0.284,0.033c-0.383-0.206-0.765-0.413-1.147-0.619
						C390.878,406.79,390.689,406.853,390.573,407.032z"/>
				</g>
			</g>
			<path style="fill-rule:evenodd;clip-rule:evenodd;fill:#BC4945;" d="M556.048,398.753c0,0-1.469,0.449-1.632,1.59
				c-0.165,1.143,0.283,8.892,0.202,11.093c0,0-1.55,0.286-1.388,2.489c0,0-5.345,1.997-6.239,3.14
				c-0.899,1.142-1.225,3.712-0.736,4.732c0,0-0.446,0.93-0.446,1.509s0.244,1.387,2.038,1.387c1.794,0,13.418,0,16.518,0
				c3.101,0,6.119-1.51,7.751-4.039c1.631-2.529,4.647-14.275,5.709-16.315c0.367-0.706,0.951-1.735,1.581-2.881l0.002-0.002
				l0.005-0.007l0.005-0.012l0.021-0.036l0.014-0.025c0.274-0.52,1.674-3.407,0.172-5.895c-1.659-2.743-4.459-6.288-6.519-7.432
				c-2.057-1.143-5.658-1.314-6.916,0c-1.259,1.315-2.858,6.574-2.858,6.574l-4.403,2.846L556.048,398.753z"/>
			<path style="fill-rule:evenodd;clip-rule:evenodd;fill:#383260;" d="M472.387,236.628c0,0-8.191,3.909-7.588,17.523
				c0.605,13.616,11.755,20.951,13.598,28.487c1.843,7.538-4.683,10.367-4.683,10.367l13.081,8.459l23.181-35.367L472.387,236.628z"
				/>
			<path style="fill-rule:evenodd;clip-rule:evenodd;fill:#DC947C;" d="M554.674,399.691l2.687,1.209c0,0,4.701-0.389,8.45-0.54
				c3.748-0.151,4.196-5.371,3.443-8.083c-0.755-2.712-1.282-3.905-4.28-4.761c-2.998-0.854-7.398-0.022-7.398,0.341
				C557.579,388.22,554.674,399.691,554.674,399.691z"/>
			<path style="fill-rule:evenodd;clip-rule:evenodd;fill:#FFFFFF;" d="M546.255,421.797c0,0-0.446,0.93-0.446,1.509
				s0.244,1.387,2.038,1.387c1.794,0,13.418,0,16.518,0c3.101,0,6.119-1.51,7.751-4.039c1.631-2.529,4.647-14.275,5.709-16.315
				c0.367-0.706,0.951-1.735,1.581-2.881l0.002-0.002l0.005-0.007l0.005-0.012l0.021-0.036l0.014-0.025
				c0.274-0.52,1.674-3.407,0.172-5.895c-0.216-0.355-0.45-0.725-0.699-1.1c-0.351,0.851-0.697,1.698-0.98,2.492
				c-1.063,2.979-6.607,18.397-8.606,21.332c-1.999,2.938-2.693,3.593-6.161,3.593C559.712,421.797,546.255,421.797,546.255,421.797
				z"/>
			<path style="fill-rule:evenodd;clip-rule:evenodd;fill:#443E6F;" d="M530.233,338.256l4.576,5.373c0,0,2.972,14.979-2.975,24.354
				c-5.945,9.376-12.348,25.61-12.348,25.61s40.929-7.775,41.956-7.775c1.029,0,5.145,6.631,3.547,14.292
				c0,0-0.03,1.709-1.487,2.858c-1.458,1.149-44.819,18.864-44.819,18.864s-6.06,2.859-12.919,2.859c-6.859,0-10.406,0-12.692,0
				c-2.287,0-9.375-3.544-8.462-15.434c0.916-11.892,8.462-41.391,8.462-44.362c0-2.973-3.082-15.321-3.082-15.321l6.284-22.181
				L530.233,338.256z"/>
			<path style="fill-rule:evenodd;clip-rule:evenodd;fill:#373061;" d="M530.233,338.256l4.576,5.373c0,0,1.643,8.294,0.037,16.401
				c-1.854-7.98-14.45-14.582-18.54-15.827c-4.62-1.405-6.429-1.305-7.935-0.401c-1.306,0.782-12.4,16.175-15.349,20.286
				c-0.394-3.929-3.033-14.513-3.033-14.513l6.284-22.181L530.233,338.256z"/>
			<path style="fill-rule:evenodd;clip-rule:evenodd;fill:#E9BB77;" d="M473.527,293.323c-0.457,3.43,10.746,24.925,11.435,28.355
				c0.686,3.43,2.855,20.58,3.199,26.868c0.049,0.903-0.435,2.655,0.438,4.177c12.997,22.643,30.866,16.668,41.033,5.039
				c3.943-4.508,5.97-12.048,7.236-15.848c0.342-1.028-8.004-29.497-8.461-32.012c-0.458-2.516-1.374-45.048-16.008-54.424
				C491.304,241.964,475.466,278.783,473.527,293.323z"/>
			<path style="fill-rule:evenodd;clip-rule:evenodd;fill:#DF9F6B;" d="M473.53,293.819c0.418,4.622,10.771,24.564,11.432,27.857
				c0.686,3.432,2.855,20.582,3.197,26.87c0.074,1.334,0.23,2.848,0.488,4.245l31.293-87.659
				c-2.898-6.166-5.993-9.134-11.392-12.697l-14.638,20.061L483,277.49L473.53,293.819z"/>
			<path style="fill-rule:evenodd;clip-rule:evenodd;fill:#E9BB77;" d="M497.982,261.178c0,0-6.365-0.369-11.118,8.053
				c-8.219,14.564-13.378,37.739-18.254,40.147c-0.699,0.347-29.832,8.227-31.693,8.733c-1.859,0.507-5.631,6.802-5.984,7.531
				c0,0,6.166,6.402,4.987,14.562c0,0,6.028,2.979,15.115,1.191c9.088-1.789,31.837-12.711,34.147-14.215
				c2.116-1.38,24.668-40.327,26.258-44.456C513.142,278.306,513.898,262.659,497.982,261.178z"/>
			<path style="fill-rule:evenodd;clip-rule:evenodd;fill:#E3AB84;" d="M486.544,228.847c0,0,9.739,12.55,22.995,16.737
				c0,0,2.35,9.119-3.593,13.669c-5.942,4.55-15.983,2.296-15.983,2.296l-7.33-8.821L486.544,228.847z"/>
			<path style="fill-rule:evenodd;clip-rule:evenodd;fill:#E6B5A3;" d="M455.541,221.928c0,0-4.104,4.363-0.205,12.377
				c3.902,8.014,6.47,11.136,3.86,15.228c0,0-0.313,0.718,0.263,1.11c0.576,0.393,2.584,0.962,3.748,1.444
				c1.165,0.482,5.722,6.071,8.331,7.694c2.61,1.623,7.815-0.361,11.792-5.999c3.977-5.638,6.273-18.776,4.228-23.718
				C485.512,225.123,464.281,219.07,455.541,221.928z"/>
			<path style="fill-rule:evenodd;clip-rule:evenodd;fill:#D2887A;" d="M475.956,259.9c2.378-0.83,5.08-2.866,7.374-6.117
				c2.68-3.8,4.595-11.002,4.934-16.81l-5.828,0.838L475.956,259.9z"/>
			<path style="fill-rule:evenodd;clip-rule:evenodd;fill:#D2887A;" d="M469.64,241.756c-1.777,0.786-2.582,2.864-1.796,4.641
				c0.785,1.778,2.863,2.581,4.641,1.796c1.777-0.786,2.582-2.864,1.796-4.641C473.495,241.776,471.415,240.971,469.64,241.756z"/>
			<path style="fill-rule:evenodd;clip-rule:evenodd;fill:#383260;" d="M464.014,235.92c-1.265-0.013-2.603,0.444-3.335,1.528
				c-0.172,0.251-0.516,0.317-0.767,0.146c-0.251-0.169-0.318-0.515-0.148-0.766c0.915-1.35,2.679-2.077,4.278-2.01
				c0.304,0.008,0.543,0.263,0.536,0.567C464.569,235.69,464.315,235.929,464.014,235.92z"/>
			<path style="fill-rule:evenodd;clip-rule:evenodd;fill:#383260;" d="M463.358,239.019L463.358,239.019
				c0.283-0.133,0.593-0.152,0.876-0.078c0.077-0.063,0.197-0.191,0.207-0.39c0.005-0.115,0.1-0.204,0.216-0.199
				c0.114,0.006,0.202,0.102,0.197,0.216c-0.009,0.234-0.106,0.414-0.213,0.543l0.016,0.007c0.14-0.112,0.286-0.28,0.352-0.53
				c0.027-0.11,0.139-0.178,0.251-0.15c0.111,0.028,0.176,0.141,0.148,0.251c-0.07,0.28-0.216,0.489-0.374,0.643l0.002,0.002
				c0.175-0.093,0.347-0.233,0.481-0.443c0.063-0.097,0.191-0.125,0.288-0.063c0.095,0.062,0.123,0.19,0.061,0.287
				c-0.138,0.216-0.307,0.375-0.482,0.491l-0.244,0.159l0.665,1.427c0.302,0.649,0.016,1.429-0.632,1.73l-0.003,0.001
				c-0.648,0.301-1.427,0.018-1.728-0.633l-0.719-1.541C462.424,240.1,462.708,239.321,463.358,239.019z"/>
			<path style="fill-rule:evenodd;clip-rule:evenodd;fill:#383260;" d="M451.679,223.813c-0.04-0.155,0.051-0.311,0.204-0.351
				c0.156-0.04,0.311,0.052,0.353,0.207c0.012,0.049,4.292,17.291,22.729,8.717c0.145-0.067,0.316-0.005,0.384,0.14
				c0.067,0.145,0.005,0.317-0.142,0.384C456.141,241.777,451.69,223.864,451.679,223.813z"/>
			<path style="fill-rule:evenodd;clip-rule:evenodd;fill:#383260;" d="M475.461,232.097c0,0-8.261,4.013-16.318-0.149
				c-8.059-4.161-11.594-11.095-5.614-18.137c5.979-7.042,20.773-16.865,34.986-8.694c0.565,0.324,1.097,0.659,1.604,1.003l0,0
				c2.85,1.819,9.431,7.353,15.665,14.871c26.172,31.569-3.448,57.433-21.721,38.292c-3.658-3.832-3.02-11.47-2.013-14.871
				c1.936-6.547-0.951-9.231-0.951-9.231c-0.406-0.672-0.627-1.527-0.696-2.517l-0.465,0.554
				C478.624,232.737,477.142,232.36,475.461,232.097z"/>
			<path style="fill-rule:evenodd;clip-rule:evenodd;fill:#E6B5A3;" d="M474.864,233.796c-0.453-9.728,13.192-2.993,6.647,5.424
				C481.511,239.22,476.266,239.332,474.864,233.796z"/>
			<path style="fill-rule:evenodd;clip-rule:evenodd;fill:#443E6F;" d="M489.161,205.501c-8.085,6.882-22.803,16.422-36.983,10.151
				c-1.053,1.693-1.577,3.366-1.641,4.981c4.153,3.015,9.688,5.427,17.03,6.096c16.441,1.498,27.824-4.453,34.101-10.386
				c-4.829-5.122-9.326-8.803-11.55-10.223l0,0C489.81,205.91,489.491,205.705,489.161,205.501z"/>
			
				<line style="fill-rule:evenodd;clip-rule:evenodd;fill:none;stroke:#373061;stroke-width:0.7087;stroke-linecap:round;stroke-linejoin:round;stroke-miterlimit:2.6131;" x1="519.487" y1="393.594" x2="517.21" y2="400.546"/>
			<g>
				<path style="fill-rule:evenodd;clip-rule:evenodd;fill:#DC947C;" d="M413.467,329.609l-0.781-0.199l-4.306,0.779
					c0,0-0.802,0.09-1.873,0.781c-1.072,0.691-6.271,3.993-6.271,3.993s-0.423,0.379-0.155,0.936
					c0.267,0.558,2.522,0.625,3.569,0.246c1.048-0.38,2.788-1.963,2.788-1.963l3.347-1.049L413.467,329.609z"/>
				<polygon style="fill-rule:evenodd;clip-rule:evenodd;fill:#C45B5D;" points="413.467,329.609 412.686,329.41 408.791,330.115 
					407.348,333.898 409.785,333.134 				"/>
				<path style="fill-rule:evenodd;clip-rule:evenodd;fill:#4A878D;" d="M428.839,345.925l-2.396,5.671c0,0-0.827,1.568-2.575,0.829
					c-1.745-0.737-8.159-3.449-11.615-4.909c-3.453-1.46-6.017-3.037-9.063-6.241c-3.045-3.204-2.354-4.61-5.728-6.037
					c-3.375-1.426-6.463-2.731-6.463-2.731l0.29-2.452l1.555-1.918c0,0,3.091,1.306,6.466,2.732
					c3.374,1.426,3.901-0.049,8.321-0.098c4.42-0.05,7.337,0.691,10.792,2.151c3.454,1.46,9.868,4.171,11.615,4.909
					c1.748,0.739,1.199,2.424,1.199,2.424L428.839,345.925z"/>
				<path style="fill-rule:evenodd;clip-rule:evenodd;fill:#255156;" d="M420.936,333.984l9.103,3.848
					c1.748,0.739,1.199,2.425,1.199,2.425l-0.365,0.858l-15.551-5.784L420.936,333.984z"/>
				<polygon style="fill-rule:evenodd;clip-rule:evenodd;fill:#255156;" points="396.093,334.66 391.934,332.901 394.192,328.706 
					396.741,329.784 				"/>
				<path style="fill-rule:evenodd;clip-rule:evenodd;fill:#443E6F;" d="M407.638,345.096l5.831-13.799
					c1.683,0.363,3.254,0.906,4.954,1.625l8.023,3.391l-6.17,14.594l-8.022-3.391C410.555,346.797,409.069,346.051,407.638,345.096z
					"/>
				<polygon style="fill-rule:evenodd;clip-rule:evenodd;fill:#383260;" points="420.936,333.984 426.445,336.313 425.293,339.04 
					415.321,335.331 				"/>
				<path style="fill-rule:evenodd;clip-rule:evenodd;fill:#443E6F;" d="M394.275,333.891l1.848-4.37
					c0.118-0.279-0.014-0.604-0.295-0.723l-3.098-1.311c-0.281-0.119-0.606,0.014-0.726,0.294l-1.845,4.37
					c-0.119,0.28,0.014,0.605,0.293,0.724l3.1,1.31C393.832,334.303,394.157,334.17,394.275,333.891z"/>
				<path style="fill-rule:evenodd;clip-rule:evenodd;fill:#DC947C;" d="M433.387,333.069c-3.153,1.161-4.747,2.39-6.992,2.656
					c-1.58,0.188-3.953-0.573-5.366-0.113c0,0-3.837,1.695-4.685,2.319c-0.849,0.625-2.678,0.536-3.168-0.088
					c0,0-1.561,0.847-2.767,0.803c-1.204-0.045-1.339-0.446-1.339-1.071c0,0-1.159,1.34-2.185,1.161
					c-1.026-0.18-1.831-0.76-1.385-1.785c0.446-1.027,6.158-6.65,7.229-7.943c1.071-1.293,2.989-0.803,2.989-0.803
					s0.58-0.4,2.498,0.045c0,0,1.294-0.001,2.277,0.133c0.98,0.134,3.256-0.179,3.792-0.179c0.535,0,2.945-1.739,2.945-1.739
					S432.273,327.802,433.387,333.069z"/>
				
					<path style="fill-rule:evenodd;clip-rule:evenodd;fill:none;stroke:#C45B5D;stroke-width:0.5669;stroke-linecap:round;stroke-linejoin:round;stroke-miterlimit:2.6131;" d="
					M413.176,337.843c0,0,4.597-5.513,5.132-6.361"/>
				
					<line style="fill-rule:evenodd;clip-rule:evenodd;fill:none;stroke:#C45B5D;stroke-width:0.5669;stroke-linecap:round;stroke-linejoin:round;stroke-miterlimit:2.6131;" x1="409.069" y1="337.575" x2="413.846" y2="331.081"/>
				
					<path style="fill-rule:evenodd;clip-rule:evenodd;fill:none;stroke:#C45B5D;stroke-width:0.5669;stroke-linecap:round;stroke-linejoin:round;stroke-miterlimit:2.6131;" d="
					M420.248,336.102c0,0,1.764-1.295,2.923-0.871"/>
				<path style="fill-rule:evenodd;clip-rule:evenodd;fill:#FFFFFF;" d="M434.323,321.786l-2.633,0.964
					c-2.19,0.894-4.676,2.811-6.411,4.155c0,0,4.473,0.565,4.961,10.077c0,0,0.793,3.066,1.383,3.031
					c0.591-0.034,4.829-0.314,4.829-0.314S442.066,331.958,434.323,321.786z"/>
			</g>
			<g>
				<g>
					<path style="fill-rule:evenodd;clip-rule:evenodd;fill:#A4CCBA;" d="M191.091,358.962c0,0,13.138,36.087,14.222,46.398
						c1.083,10.31-5.46,19.332-22.537,19.332c-17.076,0-69.598,0-69.598,0s-10.07-1.448-12.658-12.08
						c-2.587-10.634,22.385-35.62,18.331-50.192L191.091,358.962z"/>
					<path style="fill-rule:evenodd;clip-rule:evenodd;fill:#7AA0AF;" d="M191.091,358.962c0,0,0.499,1.371,1.309,3.647
						c-2.617,2.766-7.301,5.841-15.542,6.961c-13.533,1.839-48.184,4.37-59.46,5.17c1.685-4.492,2.454-8.724,1.454-12.32
						L191.091,358.962z"/>
					<path style="fill-rule:evenodd;clip-rule:evenodd;fill:#A4CCBA;" d="M129.673,347.202c0,0,14.064,2.382,22.555,0
						c8.492-2.382,12.051-6.928,23.81-7.895c11.76-0.967,19.156,12.406,15.054,19.655c-4.101,7.25-14.788,5.96-34.121,5.96
						c-19.333,0-19.816,0-32.061,0C112.667,364.922,113.022,343.012,129.673,347.202z"/>
					<path style="fill-rule:evenodd;clip-rule:evenodd;fill:#443E6F;" d="M129.296,349.826c-3.794-0.953-7.384-0.401-9.027,2.896
						c-0.952,1.912-1.153,5.225,0.683,7.214c0.917,0.995,2.142,1.289,3.338,1.289c10.686,0,21.373,0,32.059,0
						c6.694,0,13.717,0.327,20.311-0.072c3.34-0.203,7.62-0.663,10.027-2.809c0.569-0.508,1.034-1.099,1.412-1.767
						c0.254-0.45,0.445-0.938,0.575-1.45c0.724-2.852-0.408-6.357-2.475-8.923c-2.484-3.085-5.885-4.471-9.448-4.178
						c-5.897,0.484-9.663,1.939-14.64,4.336c-2.815,1.357-5.527,2.594-8.613,3.46c-6.57,1.843-16.735,1.278-23.928,0.061
						C129.475,349.868,129.393,349.851,129.296,349.826z"/>
					<path style="fill-rule:evenodd;clip-rule:evenodd;fill:#E9BB77;" d="M131.301,347.326h40.546c3.31,0,6.019,2.707,6.019,6.019
						v7.724c-0.412,0.034-0.815,0.06-1.205,0.085c-6.594,0.399-13.617,0.072-20.311,0.072h-31.068v-7.881
						C125.282,350.033,127.99,347.326,131.301,347.326z"/>
					<g>
						<path style="fill-rule:evenodd;clip-rule:evenodd;fill:#464075;" d="M146.628,348.471v0.001c0.32,0.32,0.32,0.843,0,1.162
							l-11.59,11.591h-2.325l12.752-12.754C145.786,348.152,146.307,348.152,146.628,348.471z"/>
						<path style="fill-rule:evenodd;clip-rule:evenodd;fill:#464075;" d="M146.398,356.043L146.398,356.043
							c-0.321,0.32-0.844,0.32-1.163,0l-6.179-6.179c-0.32-0.319-0.32-0.843,0-1.163h0.001c0.32-0.319,0.842-0.319,1.162,0
							l6.179,6.179C146.717,355.201,146.717,355.723,146.398,356.043z"/>
						<path style="fill-rule:evenodd;clip-rule:evenodd;fill:#464075;" d="M152.776,346.85l2.265,2.265l-2.265,2.264
							c-1.245,1.246-3.281,1.246-4.527,0l-2.265-2.264l2.265-2.265C149.495,345.605,151.531,345.605,152.776,346.85z"/>
						<path style="fill-rule:evenodd;clip-rule:evenodd;fill:#464075;" d="M148.249,342.324l-2.265-2.265l-2.264,2.265
							c-1.246,1.244-1.246,3.281,0,4.526l2.264,2.265l2.265-2.265C149.495,345.605,149.495,343.568,148.249,342.324z"/>
						<path style="fill-rule:evenodd;clip-rule:evenodd;fill:#464075;" d="M147.515,347.585c0.845,0.845,0.845,2.215,0,3.06
							c-0.845,0.845-2.215,0.845-3.06,0c-0.845-0.845-0.845-2.215,0-3.06C145.3,346.74,146.67,346.74,147.515,347.585z"/>
						<path style="fill-rule:evenodd;clip-rule:evenodd;fill:#464075;" d="M142.665,359.776L142.665,359.776
							c-0.319,0.319-0.842,0.319-1.162,0l-6.179-6.179c-0.319-0.32-0.319-0.843,0-1.162h0.001c0.319-0.321,0.842-0.321,1.162,0
							l6.179,6.178C142.985,358.932,142.985,359.456,142.665,359.776z"/>
						<path style="fill-rule:evenodd;clip-rule:evenodd;fill:#464075;" d="M135.486,361.225l-3.895-3.896
							c-0.32-0.319-0.32-0.842,0-1.161l0,0c0.321-0.321,0.843-0.321,1.163,0l5.058,5.058H135.486z"/>
						<path style="fill-rule:evenodd;clip-rule:evenodd;fill:#464075;" d="M128.021,361.225l-0.163-0.164
							c-0.319-0.319-0.319-0.843,0-1.162l0,0c0.32-0.319,0.842-0.319,1.163,0l1.325,1.326H128.021z"/>
					</g>
					<g>
						<path style="fill-rule:evenodd;clip-rule:evenodd;fill:#6D79B6;" d="M162.783,333.675h12.991c2.203,0,4.004,1.801,4.004,4.004
							v22.733c0,0.302-0.034,0.595-0.098,0.879c-5.662,0.167-11.545-0.066-17.193-0.066h-3.626
							c-0.054-0.263-0.083-0.534-0.083-0.813v-22.733C158.777,335.476,160.58,333.675,162.783,333.675z"/>
						<path style="fill-rule:evenodd;clip-rule:evenodd;fill:#565DA2;" d="M162.484,333.945h13.587c0.789,0,1.434-0.646,1.434-1.434
							l0,0c0-0.789-0.645-1.435-1.434-1.435h-13.587c-0.788,0-1.434,0.646-1.434,1.435l0,0
							C161.05,333.299,161.696,333.945,162.484,333.945z"/>
						<path style="fill-rule:evenodd;clip-rule:evenodd;fill:#FFFFFF;" d="M169.278,343.396c3.121,0,5.651,2.529,5.651,5.65
							c0,3.121-2.53,5.65-5.651,5.65c-3.121,0-5.65-2.529-5.65-5.65C163.628,345.925,166.157,343.396,169.278,343.396z"/>
					</g>
				</g>
				<g>
					<path style="fill-rule:evenodd;clip-rule:evenodd;fill:#FFFFFF;" d="M146.721,394.244l3.589-5.828
						c0.064-0.192,0.142-0.607-0.133-1.055l-3.843-6.253l-0.001-0.001c-0.017-0.025-0.275-0.417-0.534,0.006l-5.61,9.108
						c-0.175,0.284-0.086,0.659,0.198,0.833l5.499,3.389C146.171,394.617,146.546,394.528,146.721,394.244z"/>
					<path style="fill-rule:evenodd;clip-rule:evenodd;fill:#FFFFFF;" d="M153.066,390.38l-6.28-10.218
						c-0.094-0.152-0.046-0.353,0.105-0.445l6.854-1.254c0.388-0.069,0.946-0.089,1.085,0.139l4.771,7.762
						c0.165,0.224,0.413,0.289,0.657,0.14c0.48-0.295,0.961-0.591,1.441-0.886c0.118-0.073,0.264-0.064,0.372,0.023
						c0.109,0.087,0.15,0.227,0.104,0.357l-2.246,6.516c-0.473,1.368-0.153,1.123-1.589,0.926l-6.759-0.929
						c-0.138-0.019-0.245-0.117-0.273-0.254c-0.029-0.136,0.028-0.27,0.147-0.343c0.48-0.295,0.961-0.591,1.441-0.886
						C153.14,390.879,153.192,390.628,153.066,390.38z"/>
					<path style="fill-rule:evenodd;clip-rule:evenodd;fill:#FFFFFF;" d="M157.066,396.316l2.981,6.162
						c0.129,0.158,0.436,0.446,0.961,0.455l7.339,0.124h0.001c0.03,0,0.498-0.007,0.282-0.453l-4.66-9.629
						c-0.145-0.301-0.51-0.428-0.81-0.282l-5.814,2.814C157.047,395.651,156.921,396.016,157.066,396.316z"/>
					<path style="fill-rule:evenodd;clip-rule:evenodd;fill:#FFFFFF;" d="M156.751,403.589l11.993,0.202
						c0.179,0.004,0.322,0.151,0.318,0.33l-2.632,6.451c-0.149,0.365-0.433,0.845-0.699,0.841l-9.109-0.155
						c-0.278,0.019-0.467,0.192-0.472,0.478c-0.009,0.563-0.019,1.129-0.029,1.692c-0.002,0.14-0.087,0.257-0.22,0.301
						c-0.131,0.045-0.27,0.005-0.358-0.104l-4.283-5.398c-0.9-1.136-0.865-0.734,0.074-1.838l4.42-5.199
						c0.089-0.105,0.23-0.142,0.36-0.093c0.131,0.049,0.213,0.17,0.21,0.308c-0.009,0.565-0.02,1.129-0.029,1.692
						C156.292,403.383,156.476,403.562,156.751,403.589z"/>
					<path style="fill-rule:evenodd;clip-rule:evenodd;fill:#FFFFFF;" d="M149.314,403.479l-6.842-0.194
						c-0.2,0.041-0.597,0.181-0.848,0.643l-3.493,6.454v0.001c-0.014,0.027-0.225,0.445,0.271,0.459l10.692,0.305
						c0.333,0.01,0.614-0.256,0.624-0.589l0.184-6.456C149.912,403.769,149.647,403.489,149.314,403.479z"/>
					<path style="fill-rule:evenodd;clip-rule:evenodd;fill:#FFFFFF;" d="M142.905,399.928l-5.709,10.549
						c-0.084,0.156-0.282,0.215-0.439,0.13l-4.511-5.31c-0.256-0.3-0.551-0.773-0.424-1.007l4.336-8.013
						c0.112-0.255,0.045-0.502-0.207-0.638c-0.496-0.27-0.993-0.538-1.487-0.807c-0.124-0.066-0.187-0.196-0.167-0.334
						c0.021-0.137,0.121-0.242,0.258-0.269l6.765-1.313c1.422-0.275,1.049-0.429,1.597,0.913l2.576,6.318
						c0.052,0.13,0.02,0.27-0.084,0.363c-0.104,0.094-0.248,0.11-0.371,0.044c-0.496-0.269-0.991-0.537-1.487-0.806
						C143.3,399.616,143.057,399.696,142.905,399.928z"/>
				</g>
			</g>
		</g>
	</g>
</g>
</svg>
