<?xml version="1.0" encoding="utf-8"?>
<!-- Generator: Adobe Illustrator 27.5.0, SVG Export Plug-In . SVG Version: 6.00 Build 0)  -->
<svg version="1.1" xmlns="http://www.w3.org/2000/svg" xmlns:xlink="http://www.w3.org/1999/xlink" x="0px" y="0px"
	 viewBox="0 0 750 500" style="enable-background:new 0 0 750 500;" xml:space="preserve">
<g id="BACKGROUND">
	<g>
		<g>
			<rect x="0" y="0" style="fill:#ececec;" width="750" height="500"/>
			<rect x="0" y="283.544" style="fill:#E5A264;" width="750" height="216.456"/>
			<g>
				<defs>
					<rect id="SVGID_1_" x="0" y="180.645" width="750" height="319.355"/>
				</defs>
				<clipPath id="SVGID_00000132078209080561248710000007830371890042073494_">
					<use xlink:href="#SVGID_1_"  style="overflow:visible;"/>
				</clipPath>
				<path style="clip-path:url(#SVGID_00000132078209080561248710000007830371890042073494_);fill:#D9ECEB;" d="M-45.286,260.947
					c0,0,15.566-43.638,62.265-46.229c46.698-2.591,67.823,14.54,117.606,8.141c56.333-7.241,65.883-51.323,156.167-56.687
					c90.284-5.364,65.634,31.947,196.019,40.15c83.033,5.224,114.078-21.543,183.987-25.24
					c121.751-6.44,124.529,79.866,124.529,79.866H-45.286z"/>
				<g style="clip-path:url(#SVGID_00000132078209080561248710000007830371890042073494_);">
					<rect x="-86.641" y="282.655" style="fill:#F7ECCB;" width="1084.016" height="238.081"/>
					<g>
						<path style="fill:#A1D9DA;" d="M1072.273,322.066c-247.189-24.042-496.477-1.064-744.675-9.911
							c-148.475-5.292-298.786-21.843-444.448,7.406l28.827-62.333c166.902-21.099,335.972-25.002,503.669-11.626
							c48.189,3.844,96.302,9.111,144.622,10.568c81.295,2.451,162.514-5.898,243.835-7.215
							c88.484-1.432,177.101,5.488,264.289,20.639L1072.273,322.066z"/>
					</g>
					<g>
						<path style="fill:#CDF6F6;" d="M328.851,293.357c-145.7-5.193-293.166-21.223-436.273,5.819l-9.427,20.385
							c145.662-29.249,295.972-12.698,444.447-7.406c248.198,8.847,497.486-14.131,744.675,9.911l-1.408-19.049
							C824.547,279.396,576.158,302.172,328.851,293.357z"/>
					</g>
					<g>
						<path style="fill:#E2D0A3;" d="M-107.93,436.378c88.078,13.475,177.316-39.934,264.568-21.87
							c27.929,5.782,54.246,18.743,82.593,21.892c17.725,1.969,35.638,0.02,53.31-2.375c62.976-8.533,125.874-22.776,189.324-19.165
							c38.634,2.199,76.65,11.002,115.265,13.504c34.179,2.215,68.458-0.527,102.702-1.247
							c106.367-2.235,212.197,15.044,318.55,17.88c20.844,0.556,46.515-2.449,54.428-21.741c1.787-4.357,2.205-9.827-0.889-13.378
							c-2.464-2.828-6.452-3.684-10.165-4.214c-23.889-3.414-48.152-0.051-72.135,2.628c-39.91,4.457-80.033,7.014-120.186,7.661
							c-42.418,0.682-84.892-0.77-127.097-5.074c-35.712-3.643-71.457-9.334-107.305-7.461c-22.219,1.161-44.295,5.226-66.541,4.807
							c-32.336-0.609-63.794-10.657-96.039-13.154c-37.763-2.924-75.444,4.555-113.153,8.103
							c-102.002,9.596-205.152-9.595-307.078,0.779c-56.572,5.758-111.786,20.532-166.712,35.253"/>
					</g>
				</g>
			</g>
		</g>
		<g>
			
				<ellipse transform="matrix(0.0133 -0.9999 0.9999 0.0133 177.5869 335.4581)" style="fill:#F4E1B0;" cx="258.776" cy="77.743" rx="21.677" ry="21.677"/>
			<g>
				<path style="fill:#FFFFFF;" d="M506.711,92.327c0,0,18.612-21.555,36.665-21.544c11.899,0.007,6.07,16.991,15.935,16.233
					c9.865-0.759,11.888-6.829,20.741-7.082c8.853-0.253,9.865,8.329,16.441,7.882c6.576-0.447,10.371-2.9,17.453-2.9
					c7.082,0,7.588,6.147,13.912,7.412H506.711z"/>
				<path style="fill:#FFFFFF;" d="M112.84,108.548c0,0,15.17-15.625,23.665-16.08c8.495-0.455,7.281,11.681,12.136,11.226
					s14.982-9.542,24.662-7.13c6.49,1.617,5.678,11.681,5.223,11.984C178.07,108.851,112.84,108.548,112.84,108.548z"/>
			</g>
		</g>
	</g>
	<g>
		<g>
			<g>
				<path style="fill:#FCB453;" d="M409.064,416.144c-0.088-0.26-0.128-0.535-0.011-0.812c0.113-0.272,0.397-0.53,0.817-0.643
					c0.416-0.111,0.954-0.084,1.496,0.219c0.526,0.285,1.136,0.937,1.268,1.981l0.194,1.535l-2.354,0.94
					c-0.365,0.146-0.838,0.265-1.575,0.155c-0.763-0.099-2.077-0.692-2.558-2.111c-0.175-0.454-0.207-1.038-0.105-1.448
					c0.046-0.23,0.117-0.408,0.198-0.567c0.083-0.174,0.172-0.301,0.263-0.413c0.375-0.454,0.758-0.633,1.123-0.739
					c0.37-0.097,0.761-0.115,1.165-0.014c0.426,0.087,0.894,0.412,1.03,0.778c0.124,0.35,0.016,0.588-0.126,0.701
					c-0.138,0.128-0.308,0.177-0.485,0.208l-0.264,0.043c-0.092,0.016-0.196,0.048-0.125,0.029c0.07-0.028,0.124-0.047,0.146-0.076
					c0.008-0.007-0.035,0.034-0.02,0.18c0.006,0.147,0.087,0.318,0.132,0.38c0.038,0.057-0.012-0.033-0.146-0.109
					c-0.13-0.091-0.289-0.061-0.198-0.081l0.363-0.21l-0.016,0.01c-0.018,0.014-0.01,0.007-0.01,0.007s0.042-0.041,0.077-0.104
					c0.084-0.134,0.208-0.431,0.279-0.889c0.031-0.199,0.058-0.462,0.073-0.707c-0.003,0.008,0.012,0.019,0.032,0.033
					c0.041,0.029,0.115,0.067,0.206,0.113l-0.453,2.433c-0.027-0.013-0.19,0.068-0.218,0.112c-0.038,0.046,0.009-0.006,0.023-0.076
					c0.018-0.069,0.013-0.128,0.01-0.147C409.279,416.703,409.148,416.384,409.064,416.144z"/>
			</g>
			<g>
				<path style="fill:#FCB453;" d="M393.843,441.934c-0.655-0.255-1.198-0.795-1.119-1.613c0.059-0.798,0.801-1.654,1.813-1.842
					c1.008-0.208,2.018,0.305,2.374,1.022c0.382,0.728,0.082,1.432-0.428,1.916c-0.252,0.255-0.524,0.476-0.735,0.705l-0.147,0.17
					l-0.095,0.128l-0.034,0.062c-0.066,0.099-0.09,0.405-0.071,0.41c0.015-0.012-0.122-0.285-0.22-0.352l-0.055-0.044l-0.136-0.083
					l-0.2-0.102C394.508,442.177,394.173,442.075,393.843,441.934z"/>
			</g>
			<g>
				<path style="fill:#FCB453;" d="M357.338,409.672c-0.371-0.61-0.511-1.303-0.262-1.926c0.236-0.618,0.87-1.129,1.662-1.211
					c0.793-0.084,1.519,0.285,1.878,0.841c0.373,0.558,0.38,1.265,0.143,1.939c-0.238,0.68-0.604,1.242-0.86,1.673
					c-0.269,0.427-0.435,0.71-0.618,0.727c-0.183,0.022-0.403-0.221-0.755-0.583C358.186,410.762,357.711,410.288,357.338,409.672z"
					/>
			</g>
			<g>
				<path style="fill:#FCB453;" d="M377.139,395.917c-0.507,1.122-1.557,1.779-2.51,1.646l1.765-4.738
					c0.16,0,0.322,0.023,0.482,0.07c1.108,0.329,1.673,1.714,1.263,3.092c-0.41,1.378-1.639,2.229-2.747,1.9
					c-0.16-0.048-0.308-0.117-0.442-0.204l1.765-4.738C377.445,393.574,377.646,394.796,377.139,395.917z"/>
			</g>
			<g>
				<path style="fill:#FCB453;" d="M313.831,414.875c0.061,0.168,0.116,0.338,0.084,0.518c-0.016,0.089-0.053,0.18-0.118,0.263
					c0.003,0.087-0.309,0.171-0.616,0.046c-0.322-0.145-0.479-0.279-0.643-0.59c-0.034-0.063-0.066-0.171-0.084-0.205l-0.055-0.084
					c-0.035-0.06-0.066-0.126-0.092-0.199c-0.045-0.182-0.095-0.228-0.137-0.323c-0.043-0.086-0.068-0.204-0.107-0.26
					c-0.266-0.597-0.321-1.049-0.117-1.346c0.422-0.605,1.701-0.218,2.678,0.837c0.98,1.055,1.706,1.974,1.591,2.144
					c-0.033,0.046-0.115,0.041-0.241-0.005c-0.031-0.014-0.064-0.029-0.1-0.045c-0.033-0.018-0.005,0.005-0.092-0.046
					c-0.081-0.043-0.164-0.088-0.251-0.134c-0.345-0.166-0.637-0.312-0.91-0.415c-0.511-0.229-0.867-0.219-0.829-0.19
					c-0.003,0.005,0.008-0.088-0.009-0.12c-0.006-0.019-0.014-0.032-0.019-0.041C313.751,414.65,313.809,414.816,313.831,414.875z"
					/>
			</g>
			<g>
				<path style="fill:#FCB453;" d="M265.476,435.929c-1.276-0.665-2.155-1.501-1.964-1.867c0.191-0.367,1.38-0.125,2.655,0.54
					c1.275,0.664,2.154,1.5,1.963,1.867C267.94,436.835,266.751,436.593,265.476,435.929z"/>
			</g>
			<g>
				<path style="fill:#FCB453;" d="M241.239,421.266c1.264-0.687,2.504-0.846,2.772-0.355c0.267,0.491-0.54,1.447-1.804,2.134
					c-1.263,0.687-2.504,0.846-2.771,0.354C239.169,422.908,239.976,421.953,241.239,421.266z"/>
			</g>
			<g>
				<path style="fill:#FCB453;" d="M264.304,467.903c-1.264,0.688-2.432,0.979-2.61,0.651c-0.178-0.328,0.701-1.15,1.965-1.838
					c1.263-0.687,2.432-0.979,2.61-0.651C266.446,466.394,265.567,467.217,264.304,467.903z"/>
			</g>
		</g>
		<g>
			<g>
				<path style="fill:#FCB453;" d="M704.396,440.767c-0.035-0.273-0.02-0.55,0.149-0.798c0.165-0.244,0.494-0.442,0.928-0.469
					c0.43-0.026,0.951,0.106,1.423,0.51c0.46,0.384,0.929,1.143,0.852,2.192l-0.113,1.543l-2.494,0.456
					c-0.387,0.071-0.874,0.094-1.574-0.159c-0.729-0.248-1.899-1.089-2.091-2.574c-0.082-0.48,0.001-1.058,0.183-1.44
					c0.091-0.217,0.196-0.377,0.306-0.517c0.116-0.154,0.228-0.261,0.34-0.353c0.458-0.371,0.868-0.47,1.246-0.503
					c0.382-0.022,0.769,0.038,1.145,0.216c0.4,0.17,0.795,0.581,0.856,0.966c0.052,0.368-0.1,0.58-0.262,0.662
					c-0.161,0.098-0.337,0.113-0.516,0.109l-0.267-0.01c-0.094-0.003-0.201,0.008-0.128,0.003c0.074-0.014,0.13-0.022,0.158-0.046
					c0.009-0.005-0.041,0.026-0.055,0.172c-0.023,0.145,0.023,0.329,0.054,0.399c0.026,0.063-0.006-0.034-0.122-0.136
					c-0.11-0.115-0.272-0.117-0.178-0.119l0.397-0.134l-0.018,0.006c-0.021,0.01-0.011,0.005-0.011,0.005s0.049-0.032,0.096-0.086
					c0.108-0.115,0.288-0.381,0.449-0.816c0.069-0.189,0.148-0.442,0.211-0.679c-0.004,0.007,0.008,0.021,0.025,0.039
					c0.035,0.036,0.099,0.089,0.18,0.152l-0.924,2.296c-0.023-0.018-0.2,0.029-0.235,0.066c-0.046,0.037,0.01-0.004,0.038-0.07
					c0.032-0.064,0.039-0.123,0.039-0.142C704.497,441.358,704.432,441.02,704.396,440.767z"/>
			</g>
			<g>
				<path style="fill:#FCB453;" d="M684.383,463.043c-0.591-0.38-1.018-1.016-0.778-1.802c0.215-0.771,1.112-1.463,2.141-1.447
					c1.029-0.005,1.919,0.698,2.126,1.47c0.231,0.789-0.202,1.42-0.798,1.794c-0.298,0.2-0.607,0.363-0.86,0.545l-0.178,0.138
					l-0.118,0.106l-0.045,0.054c-0.084,0.084-0.168,0.379-0.151,0.387c0.017-0.008-0.063-0.304-0.147-0.389l-0.045-0.054
					l-0.117-0.108l-0.176-0.14C684.987,463.413,684.679,463.247,684.383,463.043z"/>
			</g>
			<g>
				<path style="fill:#FCB453;" d="M654.967,424.209c-0.243-0.672-0.244-1.378,0.124-1.94c0.353-0.56,1.076-0.935,1.869-0.859
					c0.794,0.074,1.433,0.579,1.674,1.195c0.255,0.621,0.122,1.315-0.243,1.929c-0.368,0.619-0.837,1.098-1.174,1.47
					c-0.348,0.366-0.566,0.61-0.749,0.59c-0.183-0.015-0.352-0.296-0.625-0.721C655.583,425.445,655.211,424.886,654.967,424.209z"
					/>
			</g>
			<g>
				<path style="fill:#FCB453;" d="M677.094,414.634c-0.718,1-1.877,1.437-2.786,1.118l2.666-4.296
					c0.157,0.031,0.311,0.086,0.458,0.164c1.021,0.542,1.302,2.01,0.628,3.281c-0.674,1.27-2.047,1.861-3.068,1.32
					c-0.147-0.078-0.279-0.175-0.393-0.288l2.666-4.296C677.857,412.398,677.812,413.635,677.094,414.634z"/>
			</g>
			<g>
				<path style="fill:#FCB453;" d="M611.289,420.719c0.027,0.177,0.046,0.354-0.02,0.525c-0.033,0.084-0.087,0.166-0.168,0.235
					c-0.015,0.086-0.337,0.106-0.613-0.077c-0.287-0.206-0.414-0.368-0.514-0.705c-0.021-0.068-0.031-0.18-0.042-0.217l-0.037-0.094
					c-0.022-0.065-0.04-0.137-0.051-0.214c-0.008-0.187-0.048-0.242-0.07-0.344c-0.025-0.092-0.026-0.214-0.054-0.276
					c-0.143-0.637-0.108-1.091,0.151-1.343c0.533-0.509,1.71,0.122,2.46,1.35c0.752,1.228,1.282,2.273,1.137,2.416
					c-0.042,0.039-0.121,0.017-0.236-0.052c-0.027-0.02-0.057-0.041-0.089-0.064c-0.029-0.024-0.006,0.004-0.081-0.063
					c-0.071-0.058-0.144-0.119-0.219-0.181c-0.306-0.231-0.563-0.432-0.811-0.586c-0.456-0.325-0.806-0.386-0.775-0.35
					c-0.004,0.004,0.026-0.085,0.015-0.12c-0.003-0.02-0.007-0.034-0.011-0.044C611.255,420.483,611.279,420.656,611.289,420.719z"
					/>
			</g>
			<g>
				<path style="fill:#FCB453;" d="M559.729,431.81c-1.119-0.904-1.816-1.897-1.556-2.218c0.26-0.322,1.377,0.15,2.497,1.053
					c1.119,0.903,1.815,1.896,1.555,2.218C561.965,433.185,560.847,432.713,559.729,431.81z"/>
			</g>
			<g>
				<path style="fill:#FCB453;" d="M538.865,412.65c1.375-0.424,2.622-0.335,2.787,0.199c0.165,0.535-0.815,1.312-2.19,1.736
					c-1.373,0.424-2.621,0.335-2.786-0.2C536.511,413.851,537.491,413.074,538.865,412.65z"/>
			</g>
			<g>
				<path style="fill:#FCB453;" d="M552.266,462.924c-1.375,0.424-2.578,0.479-2.688,0.123c-0.11-0.356,0.915-0.989,2.289-1.413
					c1.374-0.424,2.577-0.479,2.687-0.123C554.665,461.867,553.64,462.5,552.266,462.924z"/>
			</g>
		</g>
		<g>
			<g>
				<path style="fill:#FCB453;" d="M207.761,429.408c-0.035-0.273-0.02-0.55,0.149-0.798c0.165-0.244,0.494-0.442,0.928-0.469
					c0.43-0.026,0.951,0.106,1.423,0.51c0.46,0.384,0.929,1.143,0.852,2.192L211,432.386l-2.494,0.456
					c-0.386,0.071-0.874,0.094-1.574-0.159c-0.729-0.248-1.899-1.089-2.091-2.574c-0.082-0.48,0.001-1.058,0.183-1.44
					c0.091-0.217,0.196-0.377,0.306-0.517c0.116-0.154,0.228-0.261,0.34-0.353c0.457-0.371,0.868-0.471,1.246-0.503
					c0.382-0.022,0.769,0.038,1.145,0.216c0.4,0.17,0.795,0.581,0.856,0.966c0.052,0.368-0.1,0.58-0.262,0.662
					c-0.161,0.098-0.337,0.113-0.516,0.109l-0.267-0.01c-0.093-0.003-0.201,0.008-0.128,0.003c0.074-0.014,0.13-0.022,0.158-0.046
					c0.009-0.005-0.041,0.026-0.055,0.172c-0.024,0.145,0.023,0.329,0.054,0.399c0.026,0.063-0.006-0.034-0.122-0.136
					c-0.11-0.115-0.272-0.117-0.178-0.119l0.398-0.134l-0.018,0.006c-0.02,0.009-0.011,0.004-0.011,0.004s0.049-0.032,0.096-0.086
					c0.108-0.115,0.288-0.381,0.449-0.816c0.069-0.189,0.148-0.442,0.211-0.678c-0.004,0.007,0.008,0.021,0.025,0.039
					c0.035,0.036,0.099,0.089,0.18,0.151l-0.924,2.296c-0.023-0.018-0.2,0.029-0.235,0.066c-0.046,0.037,0.01-0.004,0.038-0.07
					c0.032-0.064,0.039-0.123,0.039-0.142C207.861,429.999,207.796,429.66,207.761,429.408z"/>
			</g>
			<g>
				<path style="fill:#FCB453;" d="M187.748,451.684c-0.591-0.379-1.018-1.016-0.778-1.802c0.215-0.77,1.112-1.463,2.141-1.447
					c1.029-0.005,1.919,0.698,2.126,1.47c0.231,0.789-0.202,1.42-0.798,1.794c-0.298,0.2-0.607,0.363-0.86,0.545l-0.178,0.138
					l-0.118,0.107l-0.046,0.054c-0.084,0.084-0.168,0.379-0.151,0.387c0.017-0.008-0.063-0.304-0.147-0.389l-0.045-0.054
					l-0.117-0.108l-0.176-0.14C188.351,452.054,188.043,451.888,187.748,451.684z"/>
			</g>
			<g>
				<path style="fill:#FCB453;" d="M158.331,412.849c-0.243-0.672-0.244-1.378,0.124-1.94c0.353-0.56,1.076-0.935,1.869-0.859
					c0.794,0.074,1.433,0.579,1.675,1.195c0.256,0.621,0.122,1.315-0.243,1.929c-0.368,0.619-0.837,1.098-1.174,1.47
					c-0.348,0.366-0.566,0.61-0.749,0.59c-0.184-0.015-0.352-0.296-0.625-0.721C158.947,414.086,158.576,413.527,158.331,412.849z"
					/>
			</g>
			<g>
				<path style="fill:#FCB453;" d="M180.459,403.275c-0.718,1-1.877,1.437-2.786,1.118l2.666-4.296
					c0.157,0.031,0.311,0.086,0.459,0.164c1.021,0.542,1.302,2.01,0.628,3.281c-0.674,1.27-2.047,1.861-3.068,1.32
					c-0.147-0.078-0.279-0.175-0.393-0.288l2.666-4.296C181.221,401.039,181.176,402.276,180.459,403.275z"/>
			</g>
			<g>
				<path style="fill:#FCB453;" d="M114.654,409.359c0.027,0.177,0.046,0.354-0.02,0.525c-0.033,0.085-0.087,0.166-0.168,0.235
					c-0.015,0.086-0.337,0.106-0.613-0.077c-0.287-0.206-0.414-0.368-0.514-0.705c-0.021-0.068-0.031-0.181-0.042-0.217
					l-0.037-0.094c-0.022-0.065-0.04-0.137-0.051-0.214c-0.008-0.187-0.048-0.242-0.07-0.344c-0.025-0.093-0.026-0.214-0.054-0.276
					c-0.143-0.637-0.108-1.091,0.151-1.343c0.533-0.509,1.71,0.122,2.46,1.35c0.752,1.228,1.282,2.273,1.136,2.416
					c-0.042,0.039-0.12,0.017-0.236-0.052c-0.027-0.02-0.057-0.041-0.089-0.064c-0.029-0.024-0.006,0.004-0.081-0.063
					c-0.071-0.058-0.144-0.119-0.219-0.181c-0.306-0.231-0.563-0.432-0.811-0.586c-0.456-0.325-0.806-0.386-0.775-0.35
					c-0.004,0.004,0.026-0.085,0.015-0.12c-0.003-0.02-0.007-0.034-0.011-0.044C114.619,409.123,114.643,409.297,114.654,409.359z"
					/>
			</g>
			<g>
				<path style="fill:#FCB453;" d="M63.094,420.451c-1.119-0.904-1.816-1.897-1.556-2.218c0.26-0.322,1.377,0.15,2.497,1.053
					c1.118,0.903,1.815,1.896,1.555,2.218C65.33,421.826,64.212,421.354,63.094,420.451z"/>
			</g>
			<g>
				<path style="fill:#FCB453;" d="M42.229,401.291c1.375-0.424,2.622-0.335,2.787,0.199c0.165,0.535-0.815,1.312-2.19,1.736
					c-1.374,0.424-2.621,0.335-2.786-0.2C39.875,402.492,40.856,401.715,42.229,401.291z"/>
			</g>
			<g>
				<path style="fill:#FCB453;" d="M55.631,451.565c-1.375,0.424-2.578,0.479-2.688,0.123c-0.11-0.356,0.915-0.989,2.289-1.413
					c1.374-0.424,2.577-0.479,2.687-0.123C58.029,450.508,57.004,451.14,55.631,451.565z"/>
			</g>
		</g>
	</g>
	<g>
		<g>
			<path style="fill:none;stroke:#649195;stroke-width:1.4529;stroke-miterlimit:10;" d="M107.851,324.548
				c0,0,6.002-27.348-3.632-36.985c-4.598-4.6-9.258-3.426-12.875-0.943c-2.499,1.716-6.056,0.081-5.936-2.77
				c0.455-10.822-0.096-27.03-6.719-30.988c-11.313-6.761-18.604-1.176-21.208,29.544c-0.012,0.142-3.125,13.964-10.936,4.189
				c-20.957-26.225-21.321,38.088-21.321,38.088"/>
			<g>
				<path style="opacity:0.91;fill:#649195;" d="M89.157,324.684"/>
				<path style="fill:#1AA89A;" d="M45.19,324.208c-3.241-5.1-9.398-15.219-4.631-20.545c4.1-4.581,12.513,4.261,19.423,9.059
					c1.3,0.903,2.637-1.313,1.974-3.063c-4.401-11.604-13.776-39.544-4.258-44.834c7.957-4.422,15.006,12.788,18.889,25.045
					c0.91,2.872,4.021,2.677,4.696-0.31c1.63-7.215,4.092-10.57,5.866-12.113c1.273-1.108,2.899-1.245,4.247-0.308
					c9.198,6.394,9.503,36.711,9.292,47.068"/>
			</g>
		</g>
		<path style="fill:#E2D0A3;" d="M4.058,347.953c1.16-3.323,6.422-36.791,38.264-28.797c31.842,7.994,78.848-19.937,97.4-2.215
			c18.552,17.721,10.436,29.905,10.436,29.905L4.058,347.953z"/>
	</g>
	<g>
		<g>
			<path style="fill:#1AA89A;" d="M709.54,412.579c0,0-13.354-12.21-6.868-23.656c6.486-11.446,9.539-9.92,4.579-19.841
				c-4.96-9.92-3.815-12.591,3.052-21.748c6.868-9.157,0-21.367,7.249-27.471c7.25-6.105,28.998-14.117,19.459-2.289
				c-9.539,11.828-17.17,12.21-12.973,26.708c4.197,14.499,12.21,28.998,1.526,34.721c-10.683,5.723-0.763,17.551-4.197,27.471
				C717.934,416.395,709.54,412.579,709.54,412.579z"/>
			<path style="fill:none;stroke:#388280;stroke-width:1.0483;stroke-miterlimit:10;" d="M719.46,406.474
				c1.232-1.456,1.526-9.157,7.25-13.354c5.723-4.197,6.105-4.579,6.486-14.88c0.382-10.302,6.486-16.025,9.539-27.471
				c3.052-11.447-1.526-22.13-7.249-13.354c-5.723,8.776-6.868,9.539-8.013,20.222c-1.145,10.683-4.197,5.723-9.157,18.314
				C713.356,388.541,706.869,421.355,719.46,406.474z"/>
		</g>
		<g>
			<path style="fill:#E2D0A3;" d="M706.602,403.844c-13.571-3.07-25.289,10.493-30.91,19.018l59.855,0.222
				c-1.362-8.741-4.367-15.684-9.628-19.754c-14.678-11.355-27.869,8.131-33.755,19.754"/>
		</g>
	</g>
</g>
<g id="OBJECTS">
	<g>
		<g>
			<g>
				<g>
					<g>
						<g>
							<path style="fill:#3FB0BB;" d="M467.858,394.62c-0.156-2.318-0.231-4.698-0.994-6.843c-0.629-1.77-1.859-3.357-3.386-3.931
								c-1.173-0.536-2.522-0.644-3.847-0.386c-1.978,6.423-4.089,12.803-7.044,18.712c-3.585,7.166-7.076,14.846-11.974,20.933
								c-3.882,4.824-8.118,6.126-13.352,8.982c-0.258,2.27-0.811,7.03-1.197,9.281c-1.246,7.264-6.626,12.693-8.558,19.753
								c-0.353,1.291-0.579,2.733-0.103,3.966c0.391,1.011,1.191,1.715,1.99,2.317c3.511,2.647,7.631,4.191,11.814,4.427
								c3.266,0.185,6.527-0.411,9.759-1.005c7.517-1.381,15.034-2.761,22.551-4.142c1.103-0.202,2.262-0.434,3.129-1.255
								c0.788-0.746,1.22-1.874,1.625-2.959c1.504-4.028,3.014-8.078,3.942-12.334C476.171,431.966,469.111,413.287,467.858,394.62z
								"/>
						</g>
						<g>
							<path style="fill:#2E6ABA;" d="M463.164,396.857c0.015,4.078-0.019,8.372-1.851,11.918c-1.756,3.399-4.892,5.588-7.454,8.293
								c-3.46,3.655-5.904,8.311-9.057,12.289c-3.153,3.978-7.439,7.426-12.22,7.311c-2.51-0.06-5.412-1.813-5.322-4.584
								c0.045-1.387,0.841-2.595,1.652-3.656c4.461-5.831,10.486-10.299,13.771-17.013c1.167-2.385,1.967-5.02,3.51-7.128
								c1.134-1.55,2.622-2.746,3.773-4.28c3.19-4.254,3.387-10.495,6.461-14.852c0.951-1.348,2.353-2.545,3.889-2.363
								c1.536,0.182,4.274,7.651,3.213,8.894"/>
						</g>
						<g>
							<defs>
								<path id="SVGID_00000054948237401226128250000015540563384594157232_" d="M467.858,394.62
									c-0.156-2.318-0.231-4.698-0.994-6.843c-0.629-1.77-1.859-3.357-3.386-3.931c-1.173-0.536-2.522-0.644-3.847-0.386
									c-1.978,6.423-4.089,12.803-7.044,18.712c-3.585,7.166-7.076,14.846-11.974,20.933c-3.882,4.824-8.118,6.126-13.352,8.982
									c-0.258,2.27-0.811,7.03-1.197,9.281c-1.246,7.264-6.626,12.693-8.558,19.753c-0.353,1.291-0.579,2.733-0.103,3.966
									c0.391,1.011,1.191,1.715,1.99,2.317c3.511,2.647,7.631,4.191,11.814,4.427c3.266,0.185,6.527-0.411,9.759-1.005
									c7.517-1.381,15.034-2.761,22.551-4.142c1.103-0.202,2.262-0.434,3.129-1.255c0.788-0.746,1.22-1.874,1.625-2.959
									c1.504-4.028,3.014-8.078,3.942-12.334C476.171,431.966,469.111,413.287,467.858,394.62z"/>
							</defs>
							<clipPath id="SVGID_00000010296478661291632330000009539621949393653397_">
								<use xlink:href="#SVGID_00000054948237401226128250000015540563384594157232_"  style="overflow:visible;"/>
							</clipPath>
							<g style="opacity:0.42;clip-path:url(#SVGID_00000010296478661291632330000009539621949393653397_);">
								<path style="fill:#2E6ABA;" d="M424.212,482.256c-2.318-1.571-2.888-5.407-1.895-8.319c0.993-2.912,3.153-5.053,5.356-6.852
									c5.828-4.758,12.554-8.01,19.553-9.454c1.807-0.373,3.738-0.681,5.145-2.058c4.108-4.024,0.243-12.427,2.919-17.845
									c1.366-2.765,4.124-4.091,6.181-6.197c5.1-5.221,5.24-14.211,7.56-21.64c0.962-3.081,3.408-6.495,6.019-5.294
									c2.125,0.977,2.501,4.232,2.545,6.897c0.235,14.068,0.471,28.136,0.706,42.204c0.078,4.688,0.1,9.645-1.922,13.708
									c-2.247,4.515-6.615,7.035-10.945,8.355c-14.172,4.321-30.784-1.133-42.743,8.75"/>
							</g>
						</g>
					</g>
					<g>
						<path style="fill:#FDD8D8;" d="M468.099,381.592c0,0,0.736,1.953-0.381,3.642c0,0,0.25,1.701-0.76,2.837
							c0,0,0.192,0.645-0.362,1.529c-0.393,0.627-1.152,0.949-1.902,0.89c-1.23-0.097-3.334-0.445-4.463-1.682
							c-0.263-0.289-0.342-0.69-0.198-1.049c0.115-0.288,0.058-0.463,0.473-0.604c0,0-0.758-0.51-0.685-1.227
							c0.073-0.717,0.504-1.047,1.027-1.164c0,0-1.933,0.109-1.199-2.26C460.383,380.136,468.099,381.592,468.099,381.592z"/>
					</g>
				</g>
				<g>
					<g>
						<g>
							<g>
								<g>
									<g>
										<defs>
											<path id="XMLID_12_" d="M530.765,411.121l-9.609,8.735c0,0,16.154,17.418,17.655,20.809l-9.704,10.332
												c-12.34,0.274-3.821,6.87,0.53,5.281c6.403-2.339,11.634-7.684,16.336-8.565c6.676-1.251,7.88-6.486,6.169-9.137
												C547.229,430.968,530.765,411.121,530.765,411.121z"/>
										</defs>
										<use xlink:href="#XMLID_12_"  style="overflow:visible;fill:#F2BDBE;"/>
										<clipPath id="XMLID_00000077284081356613354530000011732913930607239573_">
											<use xlink:href="#XMLID_12_"  style="overflow:visible;"/>
										</clipPath>
									</g>
								</g>
							</g>
							<path style="fill:#D83017;" d="M548.375,433.259c-6.708-8.996-17.61-22.137-17.61-22.137l-9.609,8.735
								c0,0,10.174,10.971,15.122,17.193L548.375,433.259z"/>
						</g>
						<g>
							<g>
								<path d="M521.018,321.551c-0.133-0.256-0.263-0.511-0.409-0.775c-6.664-11.985-22.829-6.827-25.481,4.057l21.189,11.156
									c1.935,1.753,4.661,2.611,7.439,2.066c4.613-0.904,7.607-5.313,6.688-9.846C529.563,323.87,525.416,320.998,521.018,321.551
									z"/>
								<g>
									<g>
										<g>
											<path style="fill:#FDD8D8;" d="M515.41,328.093l11.456,16.561c2.162,3.026,1.62,7.198-1.237,9.521l0,0
												c-3.3,2.683-8.229,1.771-10.414-1.927l-9.682-16.126L515.41,328.093z"/>
										</g>
									</g>
									<g>
										<g>
											<path style="fill:#111010;" d="M512.073,347.013l-1.469-2.346c0,0,5.363-2.027,6.396-8.748
												C517,335.919,517.975,341.805,512.073,347.013z"/>
										</g>
									</g>
								</g>
								<g>
									<g>
										<g>
											<path style="fill:#FDD8D8;" d="M505.718,316.537c0.87-0.023,1.763,0.089,2.666,0.355
												c8.073,2.378,9.999,14.217,7.61,21.271c-1.322,3.904-4.576,7.105-8.629,7.6c-5.928,0.725-10.453-4.113-12.102-9.67
												c-1.228-4.141-1.037-8.762,0.842-12.563C497.984,319.733,501.602,316.642,505.718,316.537z"/>
										</g>
									</g>
									<g>
										<g>
											<path style="fill:#FDD8D8;" d="M516.166,334.199c1.428,0.445,3.256-0.032,4.274-1.134
												c1.018-1.101,1.418-2.833,1.012-4.383c-0.364-1.391-1.421-2.635-2.724-2.917c-1.303-0.282-2.901,0.617-3.151,2.009
												L516.166,334.199z"/>
										</g>
									</g>
									<path style="fill:none;stroke:#D67374;stroke-width:0.6262;stroke-linecap:round;stroke-miterlimit:10;" d="
										M517.769,330.947c0.766-0.307,1.191-1.038,0.95-1.633c-0.181-0.446-0.685-0.69-1.248-0.654"/>
									<g>
										<path style="fill:#D67374;" d="M500.49,335.763l-1.34-0.632l-0.01-0.011l-0.392-0.436l0.399-0.147
											c0.235-0.087,0.484-0.328,0.683-0.599c0.203-0.273,0.377-0.581,0.523-0.904c-0.033,0.354-0.098,0.709-0.211,1.062
											c-0.117,0.35-0.266,0.714-0.614,1.027l0.007-0.582l0.014,0.005l1.076,1.018L500.49,335.763z"/>
									</g>
									<g>
										<path style="fill:#D67374;" d="M499.597,337.72c0.964,0.291,1.875,0.319,2.552-0.152c0.359-0.207,0.624-0.572,0.921-0.918
											l0.807-1.202c-0.007,0.253-0.059,0.496-0.09,0.752c-0.06,0.245-0.149,0.486-0.24,0.727
											c-0.234,0.458-0.528,0.926-1.011,1.232c-0.471,0.306-1.071,0.431-1.605,0.322
											C500.396,338.388,499.932,338.097,499.597,337.72z"/>
									</g>
									<path style="fill:none;stroke:#222C44;stroke-width:0.524;stroke-linecap:round;stroke-miterlimit:10;" d="
										M503.136,329.152c0,0,0.104,3.175,1.769,2.827c1.665-0.347,1.375-3.484,1.375-3.484"/>
									<path style="fill:none;stroke:#222C44;stroke-width:0.524;stroke-linecap:round;stroke-miterlimit:10;" d="
										M495.144,330.247c0,0,0.14,2.728,1.426,2.46c1.287-0.269,1.004-2.967,1.004-2.967"/>
								</g>
								<path d="M516.167,320.673c-2.85-3.653-7.495-5.523-12.173-4.423c-0.35,0.082-0.683,0.178-0.999,0.282
									c-0.245-0.007-0.557,0.014-0.966,0.074c-4.578,0.674-8.111,9.658-6.515,8.361c0.721-0.585,1.408-1.628,1.906-2.5
									c0.331,1.013,1.336,1.755,2.424,1.86c1.337,0.13,2.7-0.512,3.8-1.392c0.566-0.453,1.091-0.976,1.723-1.318
									c0.633-0.342,1.427-0.472,1.997-0.103c0.983,0.636,0.728,2.202,1.258,3.261c0.338,0.675,1.149,1.403,2.563,1.092
									c1.868-0.411,1.916,5.451,3.678,2.942c0.865-1.232,3.548-5.153,1.95-7.29C516.601,321.235,516.385,320.952,516.167,320.673z
									"/>
							</g>
							<g>
								<g>
									<g>
										<g>
											<g>
												<path style="fill:#FDC4C5;" d="M526.41,354.728c-0.022-0.027-0.043-0.053-0.064-0.079
													c-2.233-2.712-6.236-3.117-9.029-0.985l-28.747,21.949l-5.424-32.79l-9.754-0.167c0,0-0.604,47.145,10.728,50.462
													c9.95,2.912,32.763-13.683,45.048-24.964c2.473-2.271,2.833-6.039,0.846-8.746
													C528.85,357.821,527.653,356.256,526.41,354.728z"/>
												<path style="fill:#FDC4C5;" d="M474.556,353.251c2.788-0.177,5.575-0.386,8.36-0.613
													c-0.028-0.437-0.047-0.856-0.047-1.23l0.097-3.285c0,0,1.928-6.632,4.686-8.15c-0.154-0.435-0.763-1.002-1.375-0.9
													c-2.406,0.401-3.775,2.656-3.775,2.656s-1.799-11.261-2.742-10.742c-0.944,0.519-0.649,6.475-0.649,6.475
													s-1.425-8.975-2.175-8.172c-0.289,0.31,0,0-0.017,7.91c0,0-2.177-6.818-2.602-5.552
													c-0.534,1.59,0.162,6.862,0.162,6.862s-1.747-5.253-2.037-4.206c-0.29,1.047,2.017,15.38,2.017,15.38
													S474.581,351.192,474.556,353.251z"/>
											</g>
										</g>
									</g>
									<path style="fill:#1AA89A;" d="M489.997,371.444l21.756,17.185c0,0,28.073-23.052,20.762-31.992
										C525.204,347.699,515.332,347.45,489.997,371.444z"/>
								</g>
								<g>
									<path style="fill:#1AA89A;" d="M514.865,352.675c0.731-2.267,10.378-6.326,10.378-6.326
										c2.195-0.796,4.578-0.915,6.831-0.305c6.474,1.753,19.607,7.388,28.089,25.087c12.651,26.395,1.314,40.864,1.314,40.864
										s-19.391,0.052-27.341-18.773C534.137,393.222,509.752,368.526,514.865,352.675z"/>
									<g>
										<g>
											<g>
												<path style="fill:#FDC4C5;" d="M534.137,393.222l-37.961-19.867c-14.538-7.968-20.297,4.19-14.218,22.427l16.911,44.439
													l12.204-1.246l-9.269-35.1l12.931,12.805c0,0,17.692,16.102,32.948,10.345c15.256-5.757,16.983-22.452,16.983-22.452
													L534.137,393.222z"/>
											</g>
											<g>
												<g>
													<g>
														<defs>
															<path id="XMLID_11_" d="M507.429,425.477l-12.305,4.151c0,0,5.169,14.802,5.185,18.51l-13.032,5.576
																c-10.1,0.49-4.514,5.217-1.632,5.05c7.642-0.442,16.233-3.085,20.894-2.007c6.618,1.53,8.422-2.074,7.917-5.189
																C513.005,442.628,507.429,425.477,507.429,425.477z"/>
														</defs>
														<use xlink:href="#XMLID_11_"  style="overflow:visible;fill:#FDC4C5;"/>
														<clipPath id="XMLID_00000101094531438524935200000005990658320754240190_">
															<use xlink:href="#XMLID_11_"  style="overflow:visible;"/>
														</clipPath>
													</g>
												</g>
											</g>
										</g>
										<g>
											<path style="fill:#FB441F;" d="M534.137,393.222l-37.961-19.867c-14.538-7.968-20.297,4.19-14.218,22.427l16.911,44.439
												l12.204-1.246l-9.269-35.1l12.931,12.805c0,0,17.692,16.102,32.948,10.345c15.256-5.757,16.983-22.452,16.983-22.452
												L534.137,393.222z"/>
										</g>
									</g>
								</g>
							</g>
						</g>
					</g>
					<g>
						<g>
							<g>
								<g>
									<path style="fill:#FDD8D8;" d="M465.205,390.61l3.676-9.036l32.537,6.779l19.683-32.091
										c0.455-0.742,1.007-1.412,1.649-1.999c0.036-0.033,0.073-0.066,0.11-0.1c7.575-6.908,19.173,1.785,14.635,10.977
										c-6.183,12.522-16.469,27.305-21.357,33.682C508.953,408.192,465.205,390.61,465.205,390.61z"/>
									<path style="fill:#FDD8D8;" d="M476.787,384.932l-3.028-1.276c0,0-5.489-4.192-5.909-7.312
										c-0.461-0.013-1.21,0.35-1.336,0.957c-0.494,2.389,1.114,4.479,1.114,4.479s-2.188-0.468-4.613-0.896
										c-0.123,3.007-0.67,6.052-1.207,8.944c4.428,1.067,10.334,2.324,10.334,2.324s1.451,0.43,3.361,1.197
										c0.841-2.664,1.653-5.338,2.446-8.018C477.533,385.201,477.136,385.068,476.787,384.932z"/>
								</g>
							</g>
						</g>
						<path style="fill:#1AA89A;" d="M505.126,377.98l25.896,9.901c0,0,16.503-28.435,6.855-34.782
							C528.23,346.752,522.136,347.513,505.126,377.98z"/>
					</g>
				</g>
			</g>
			<g>
				<path style="fill:#902225;" d="M477.265,361.084c0,0,6.107-23.001,5.511-27.308c-0.518-3.739,1.321-11.794,1.815-13.852
					c0.384-0.052,0.948-0.255,0.665-1.013c-0.413-1.109,0.053-1.609,0.053-1.609s0.624-0.625-0.043-1.093
					c-0.491-0.345-1.496-0.623-1.991-0.746c-0.491-0.139-1.501-0.396-2.099-0.34c-0.811,0.076-0.579,0.928-0.579,0.928
					s0.156,0.666-0.753,1.423c-0.622,0.519-0.233,0.974,0.075,1.21c-0.592,2.032-2.991,9.938-5.296,12.928
					c-2.654,3.444-8.761,26.445-8.761,26.445s1.775,2.16,5.325,2.931C474.652,362.079,477.265,361.084,477.265,361.084z"/>
				<g>
					<path style="fill:#FDD8D8;" d="M473.321,334.039c0,0-2.691-1.099-3.575,2.505c0,0,0.322,2.147,4.909,3.705
						c0.541,0.184,1.162-0.159,1.406-0.77l0,0c0.222-0.555,0.067-1.168-0.368-1.457l-2.856-1.819L473.321,334.039z"/>
					<path style="fill:#FDD8D8;" d="M469.745,336.544c0,0-1.269,1.147-1.108,2.798c0,0-0.824,1.146-0.53,2.354
						c0,0-0.383,0.398-0.32,1.251c0.044,0.605,0.467,1.125,1.028,1.364c0.92,0.392,2.562,0.929,3.842,0.452
						c0.298-0.111,0.507-0.374,0.54-0.69c0.026-0.253,0.134-0.359-0.111-0.618c0,0,0.737-0.087,0.957-0.637
						c0.219-0.55,0.035-0.953-0.296-1.234c0,0,1.346,0.806,1.718-1.197C475.837,338.384,469.745,336.544,469.745,336.544z"/>
				</g>
			</g>
		</g>
		<g>
			<path style="fill:#FFFFFF;" d="M434.368,456.551c-0.122-0.376-0.36-0.87-0.82-1.4l0.608-0.532l-2.774,0.262l-1.006,3.044
				l0.627-0.549c0.283,0.24,2.322,2.021,2.206,3.475l1.141-3.179C434.477,457.313,434.486,456.914,434.368,456.551z"/>
			<path style="fill:#FFFFFF;" d="M429.833,459.465l0.515,3.166l1.807-0.375c0.344-0.071,0.623-0.352,0.717-0.726
				c0.139-0.552,0.104-1.402-0.619-2.321L429.833,459.465z"/>
			<path style="fill:#FFFFFF;" d="M428.276,455.414l-0.731-0.357c0.058-0.39,0.518-3.223,1.73-3.793l-3.066,0.375
				c-0.346,0.042-0.668,0.221-0.901,0.508c-0.242,0.296-0.523,0.761-0.729,1.461l-0.708-0.346l1.511,2.595L428.276,455.414z"/>
			<path style="fill:#FFFFFF;" d="M430.887,451.636c-0.218-0.304-0.573-0.445-0.915-0.362c-0.504,0.123-1.164,0.556-1.557,1.697
				l1.34,2.25l2.278-1.991L430.887,451.636z"/>
			<path style="fill:#FFFFFF;" d="M427.1,459.418c-0.336,0.133-2.79,1.064-3.828,0.166l1.786,2.79
				c0.202,0.315,0.499,0.54,0.838,0.627c0.351,0.09,0.854,0.137,1.505-0.003l0.072,0.855l1.309-2.726l-1.757-2.591L427.1,459.418z"
				/>
			<path style="fill:#FFFFFF;" d="M425.034,459.587l1.121-2.393l-2.675-1.241l-0.698,1.887c-0.133,0.359-0.072,0.772,0.16,1.063
				C423.283,459.332,423.945,459.762,425.034,459.587z"/>
		</g>
	</g>
	<g>
		<g>
			<g>
				<g>
					<defs>
						<path id="XMLID_17_" d="M104.335,462.477c-6.423-3.724-9.371-2.998-9.371-2.998l0.37-3.541l0.043-0.413l0.37-3.541
							c0,0,2.735,1.32,9.789-0.997c0.744-0.244,1.469-0.529,2.195-0.824c1.366-0.555,5.644-1.883,13.481-0.85
							c6.952,0.917,17.167,1.892,22.428,2.374c1.878,0.172,3.25,1.846,3.054,3.722l-0.524,5.021l-0.126,1.204l-0.524,5.021
							c-0.196,1.876-1.884,3.23-3.757,3.011c-5.247-0.615-15.443-1.771-22.435-2.311c-7.882-0.608-11.793-2.792-13.015-3.617
							C105.663,463.298,105.013,462.87,104.335,462.477z"/>
					</defs>
					<use xlink:href="#XMLID_17_"  style="overflow:visible;fill:#E5F3FB;"/>
					<clipPath id="XMLID_00000091736682485308200490000004403121573685699495_">
						<use xlink:href="#XMLID_17_"  style="overflow:visible;"/>
					</clipPath>
					<path style="clip-path:url(#XMLID_00000091736682485308200490000004403121573685699495_);fill:#CCE2EB;" d="M92.358,455.418
						c0,0,9.253,0.209,16.561,3.529c0.017,0.008,0.034,0.016,0.052,0.024c5.715,2.673,11.867,4.3,18.174,4.488l15.421,0.461
						c0,0,2.995-0.437,5.124-4.419l-1.267,12.131l-55.156-5.76L92.358,455.418z"/>
				</g>
				<polygon style="fill:#FB441F;" points="96.196,459.735 97.062,451.834 93.227,451.425 92.362,459.327 				"/>
			</g>
		</g>
		<g>
			<g>
				<g>
					<defs>
						<path id="XMLID_1_" d="M321.809,441.062c6.045,4.311,9.049,3.865,9.049,3.865l-0.701,3.491l-0.082,0.407l-0.701,3.491
							c0,0-2.599-1.571-9.839,0.073c-0.764,0.174-1.512,0.389-2.262,0.614c-1.412,0.424-5.796,1.345-13.501-0.42
							c-6.836-1.566-16.913-3.496-22.106-4.471c-1.854-0.348-3.062-2.143-2.691-3.992l0.994-4.949l0.238-1.187l0.994-4.949
							c0.371-1.849,2.179-3.039,4.023-2.645c5.166,1.105,15.208,3.214,22.118,4.408c7.79,1.346,11.479,3.888,12.618,4.824
							C320.564,440.12,321.171,440.608,321.809,441.062z"/>
					</defs>
					<use xlink:href="#XMLID_1_"  style="overflow:visible;fill:#E5F3FB;"/>
					<clipPath id="XMLID_00000083795820756946304780000015562074016033492385_">
						<use xlink:href="#XMLID_1_"  style="overflow:visible;"/>
					</clipPath>
					<path style="clip-path:url(#XMLID_00000083795820756946304780000015562074016033492385_);fill:#CCE2EB;" d="M333.071,449.215
						c0,0-9.193-1.077-16.156-5.069c-0.016-0.009-0.033-0.019-0.049-0.029c-5.439-3.198-11.411-5.396-17.672-6.176l-15.309-1.908
						c0,0-3.022,0.153-5.516,3.918l2.401-11.958l54.371,10.916L333.071,449.215z"/>
				</g>
				<polygon style="fill:#FB441F;" points="329.654,444.557 328.05,452.342 331.83,453.109 333.434,445.323 				"/>
			</g>
		</g>
		<g>
			<g>
				<g>
					<defs>
						<path id="XMLID_2_" d="M652.528,457.389c-6.879-2.793-9.698-1.663-9.698-1.663l-0.127-3.558l-0.015-0.415l-0.127-3.558
							c0,0,2.892,0.926,9.554-2.351c0.703-0.346,1.381-0.729,2.058-1.122c1.276-0.74,5.326-2.651,13.231-2.72
							c7.012-0.061,17.263-0.518,22.54-0.774c1.884-0.091,3.475,1.375,3.543,3.26l0.18,5.045l0.043,1.21l0.18,5.045
							c0.067,1.885-1.415,3.461-3.301,3.505c-5.282,0.122-15.539,0.398-22.538,0.838c-7.89,0.496-12.067-1.122-13.392-1.769
							C653.957,458.017,653.254,457.684,652.528,457.389z"/>
					</defs>
					<use xlink:href="#XMLID_2_"  style="overflow:visible;fill:#E5F3FB;"/>
					<clipPath id="XMLID_00000004510084818104415470000011137112010771315081_">
						<use xlink:href="#XMLID_2_"  style="overflow:visible;"/>
					</clipPath>
					<path style="clip-path:url(#XMLID_00000004510084818104415470000011137112010771315081_);fill:#CCE2EB;" d="M639.684,452.068
						c0,0,9.192-1.083,16.891,1.187c0.018,0.005,0.036,0.011,0.055,0.016c6.032,1.85,12.351,2.604,18.622,1.913l15.335-1.692
						c0,0,2.905-0.849,4.458-5.09l0.436,12.189l-55.421,1.981L639.684,452.068z"/>
				</g>
				<polygon style="fill:#FB441F;" points="644.086,455.808 643.843,447.863 639.989,447.993 640.232,455.938 				"/>
			</g>
		</g>
		<path style="fill:#902225;" d="M369.955,386.568c0,0,23.613,2.963,27.8,1.794c3.636-1.015,11.865-0.275,13.971-0.062
			c0.103,0.374,0.379,0.905,1.093,0.523c1.043-0.558,1.602-0.164,1.602-0.164s0.703,0.534,1.078-0.189
			c0.276-0.533,0.417-1.566,0.471-2.073c0.072-0.505,0.191-1.54,0.055-2.125c-0.184-0.793-0.998-0.449-0.998-0.449
			s-0.639,0.244-1.511-0.555c-0.598-0.547-0.996-0.1-1.189,0.237c-2.093-0.314-10.25-1.63-13.522-3.512
			c-3.769-2.167-27.382-5.13-27.382-5.13s-1.902,2.048-2.189,5.67C368.618,384.112,369.955,386.568,369.955,386.568z"/>
	</g>
	<g>
		<g>
			<g>
				<g>
					<g>
						<path style="fill:#F3B5B3;" d="M570.435,227.207l32.718,3.957c1.694,0.32,5.517,5.272,5.624,6.95l0,0
							c0.001,0.025,0.003,0.049,0.004,0.074c0.128,2.82-2.746,4.887-5.562,4.222l-34.007-10.492L570.435,227.207z"/>
						<path style="fill:#FFFFFF;" d="M612.206,243.245l-13.73-13.296c0,0,4.465-16.063,15.37-28.779
							c2.261-2.637,4-1.139,7.466-0.503l0,0c5.594,1.026,8.38,6.848,6.111,11.932C623.96,220.356,612.206,243.245,612.206,243.245z"
							/>
					</g>
					
						<line style="fill:none;stroke:#197F84;stroke-width:3;stroke-linecap:round;stroke-miterlimit:10;" x1="518.787" y1="263.25" x2="689.911" y2="149.122"/>
				</g>
				<g>
					<path style="fill:#FDD8D8;" d="M575.147,223.695c0,0-1.874-2.222-4.33,0.56c0,0-0.711,2.051,2.629,5.56
						c0.394,0.414,1.103,0.398,1.603-0.03l0,0c0.454-0.389,0.601-1.004,0.35-1.461l-1.686-2.936L575.147,223.695z"/>
					<path style="fill:#FDD8D8;" d="M570.817,224.255c0,0-1.657,0.427-2.28,1.964c0,0-1.262,0.633-1.562,1.839
						c0,0-0.524,0.175-0.864,0.959c-0.242,0.556-0.108,1.213,0.278,1.685c0.633,0.774,1.839,2.012,3.193,2.183
						c0.316,0.04,0.623-0.096,0.799-0.36c0.141-0.212,0.285-0.256,0.189-0.599c0,0,0.694,0.265,1.143-0.12
						c0.45-0.385,0.473-0.828,0.311-1.231c0,0,0.818,1.339,2.077-0.263C575.359,228.711,570.817,224.255,570.817,224.255z"/>
				</g>
			</g>
			<g>
				<g>
					<g>
						<g>
							<g>
								<polygon style="fill:#DFA253;" points="682.95,168.979 702.233,157.21 692.812,131.872 673.992,144.885 								"/>
								<g>
									
										<line style="fill:none;stroke:#C48037;stroke-width:0.822;stroke-miterlimit:10;" x1="700.907" y1="153.644" x2="682.666" y2="165.69"/>
									
										<line style="fill:none;stroke:#C48037;stroke-width:0.822;stroke-miterlimit:10;" x1="699.499" y1="149.857" x2="681.258" y2="161.903"/>
									
										<line style="fill:none;stroke:#C48037;stroke-width:0.822;stroke-miterlimit:10;" x1="698.091" y1="146.07" x2="679.85" y2="158.116"/>
									
										<line style="fill:none;stroke:#C48037;stroke-width:0.822;stroke-miterlimit:10;" x1="696.683" y1="142.283" x2="678.442" y2="154.329"/>
									
										<line style="fill:none;stroke:#C48037;stroke-width:0.822;stroke-miterlimit:10;" x1="695.275" y1="138.496" x2="677.034" y2="150.542"/>
									
										<line style="fill:none;stroke:#C48037;stroke-width:0.822;stroke-miterlimit:10;" x1="693.867" y1="134.709" x2="675.626" y2="146.755"/>
								</g>
							</g>
							<path style="fill:#3FB0BB;" d="M671.08,145.4l8.69,23.375c0.523,1.407,2.087,2.123,3.494,1.6l2.907-1.081l-10.584-28.468
								l-2.906,1.081C671.273,142.429,670.557,143.993,671.08,145.4z"/>
						</g>
					</g>
				</g>
			</g>
		</g>
		<g>
			<g>
				<g>
					<g>
						<g>
							<path style="fill:#FADFC4;" d="M624.734,193.235c0,0,9.102-2.307,9.694-11.172c0.523-7.83-5.257-13.494-11.032-14.003
								C623.396,168.06,611.848,190.391,624.734,193.235z"/>
						</g>
						<g>
							<g>
								<g>
									<g>
										<g>
											<g>
												<path style="fill:#F3B5B3;" d="M622.132,169.02c0.714,0.266,1.402,0.646,2.047,1.155
													c5.767,4.547,3.403,14.709-0.877,19.611c-2.369,2.713-6.073,4.23-9.528,3.308c-5.054-1.349-7.123-6.719-6.619-11.732
													c0.376-3.735,2.064-7.394,4.852-9.843C614.792,169.073,618.754,167.763,622.132,169.02z"/>
											</g>
										</g>
										<g>
											<g>
												<path style="fill:#F3B5B3;" d="M624.757,186.649c1.012,0.824,2.655,1.035,3.847,0.48c1.192-0.555,2.091-1.819,2.276-3.2
													c0.166-1.239-0.28-2.585-1.244-3.237c-0.964-0.652-2.56-0.448-3.225,0.591L624.757,186.649z"/>
											</g>
										</g>
										<g>
											<g>
												<path style="fill:#F3B5B3;" d="M625.788,183.301l0.747,17.475c0.188,3.225-2.168,6.038-5.375,6.419l0,0
													c-3.705,0.44-6.935-2.515-6.825-6.244l0.366-16.332L625.788,183.301z"/>
											</g>
										</g>
										<g>
											<g>
												<path style="fill:#1E1C1C;" d="M614.453,195.649l0.008-2.404c0,0,4.928,0.998,8.842-3.459
													C623.303,189.786,621.271,194.561,614.453,195.649z"/>
											</g>
										</g>
									</g>
									<path style="fill:#FADFC4;" d="M627.426,180.486c-6.257,0.295-12.352-3.325-16.023-8.4c0,0,5.193-6.003,13.881-3.651
										C632.485,170.385,627.426,180.486,627.426,180.486z"/>
									<path style="fill:none;stroke:#1E1C1C;stroke-width:0.5356;stroke-linecap:round;stroke-miterlimit:10;" d="
										M627.138,184.553c0.723,0.002,1.312-0.448,1.313-1.006c0.001-0.418-0.327-0.778-0.797-0.933"/>
									<g>
										<g>
											<path style="fill:#1E1C1C;" d="M611.913,184.8l-1.019-0.782l-0.007-0.011l-0.225-0.351l0.316-0.081
												c0.133-0.034,0.322-0.182,0.477-0.335c0.159-0.158,0.31-0.333,0.455-0.514c0.288-0.365,0.557-0.751,0.807-1.151
												c-0.171,0.44-0.364,0.872-0.585,1.296c-0.113,0.211-0.233,0.42-0.373,0.624c-0.149,0.2-0.288,0.409-0.585,0.572
												l0.091-0.432l0.011,0.007l0.767,1.031c0.03,0.04,0.022,0.098-0.019,0.128C611.99,184.825,611.945,184.824,611.913,184.8z
												"/>
										</g>
										<g>
											<path style="fill:#1E1C1C;" d="M610.794,186.33c0.38,0.211,0.76,0.384,1.143,0.447c0.382,0.059,0.751,0.03,1.091-0.114
												c0.354-0.12,0.644-0.395,0.961-0.643c0.295-0.282,0.565-0.599,0.876-0.913c-0.058,0.211-0.149,0.408-0.225,0.617
												c-0.102,0.194-0.226,0.377-0.342,0.569c-0.279,0.348-0.612,0.689-1.069,0.866c-0.447,0.178-0.971,0.191-1.405,0.012
												C611.387,187.003,611.026,186.704,610.794,186.33z"/>
										</g>
										<g>
											<path style="fill:#1E1C1C;" d="M615.469,179.635c-0.037,0.546-0.024,1.117,0.097,1.622
												c0.114,0.527,0.422,0.879,0.883,0.781c0.443-0.028,0.781-0.464,1.017-0.929c0.23-0.477,0.398-1.017,0.507-1.551
												l0.002-0.008c0.019-0.092,0.109-0.152,0.201-0.133c0.085,0.017,0.142,0.094,0.136,0.178
												c-0.039,0.591-0.158,1.164-0.395,1.724c-0.233,0.527-0.663,1.159-1.402,1.25c-0.337,0.044-0.739-0.047-0.998-0.323
												c-0.255-0.266-0.358-0.588-0.411-0.89c-0.105-0.611-0.046-1.194,0.079-1.77c0.017-0.078,0.094-0.127,0.171-0.11
												c0.071,0.015,0.118,0.08,0.113,0.151L615.469,179.635z"/>
										</g>
										<g>
											<path style="fill:#1E1C1C;" d="M608.415,179.229c-0.017,0.458,0.002,0.933,0.089,1.359
												c0.094,0.443,0.299,0.756,0.622,0.679c0.32-0.016,0.58-0.4,0.756-0.796c0.173-0.406,0.305-0.859,0.396-1.306l0.002-0.008
												c0.019-0.092,0.109-0.152,0.201-0.133c0.083,0.017,0.139,0.092,0.136,0.174c-0.02,0.497-0.1,0.98-0.274,1.46
												c-0.087,0.24-0.212,0.473-0.384,0.691c-0.172,0.215-0.447,0.411-0.765,0.449c-0.307,0.048-0.678-0.091-0.862-0.353
												c-0.185-0.25-0.261-0.519-0.292-0.774c-0.065-0.514-0.016-1,0.089-1.484c0.017-0.078,0.094-0.127,0.172-0.11
												c0.069,0.015,0.116,0.078,0.114,0.146L608.415,179.229z"/>
										</g>
									</g>
								</g>
							</g>
						</g>
					</g>
				</g>
			</g>
			<g>
				<g>
					<g>
						<g>
							<g>
								<defs>
									<path id="XMLID_16_" d="M611.906,348.741l-10.358-3.185c0,0-0.15,10.411-0.136,13.791l-11.878,5.082
										c-9.205,0.447-4.114,4.755-1.487,4.603c6.965-0.403,11.562-2.274,15.81-1.291c6.032,1.395,9.091-2.377,8.63-5.216
										C611.166,354.376,611.906,348.741,611.906,348.741z"/>
								</defs>
								<use xlink:href="#XMLID_16_"  style="overflow:visible;fill:#F3B5B3;"/>
								<clipPath id="XMLID_00000148646894974481986030000002034206734359124135_">
									<use xlink:href="#XMLID_16_"  style="overflow:visible;"/>
								</clipPath>
							</g>
						</g>
					</g>
					<g>
						<g>
							<path style="fill:#169182;" d="M637.011,260.883l10.188,35.734l35.172,46.462l-20.641,14.109l-31.441-41.454
								c-2.177-2.683-3.962-5.647-5.304-8.807l-8.844-20.822L637.011,260.883z"/>
						</g>
						<g>
							<path style="fill:#1AA89A;" d="M635.922,252.501l-24.087-4.801c0,5.699-12.861,43.618-17.213,54.853
								c-1.3,3.357-2.192,6.845-2.657,10.404l-2.288,40.794l26.421,0.382l3.747-39.34L634.066,284
								C646.357,264.313,635.922,252.501,635.922,252.501z"/>
						</g>
					</g>
				</g>
				<g>
					<g>
						<path style="fill:#FFFFFF;" d="M627.171,194.025c0,0,15.927,43.364,14.998,64.85l-40.778,4.306c0,0,3.039-41.285,8.75-55.552
							l3.704-6.46L627.171,194.025z"/>
					</g>
					<g>
						<path style="fill:#FB441F;" d="M608.255,175.768c0,0,5.373-10.37,16.051-9.671c9.992,0.654,9.936,12.178,9.936,12.178
							L608.255,175.768z"/>
						
							<line style="fill:none;stroke:#141212;stroke-width:1.3;stroke-linecap:round;stroke-miterlimit:10;" x1="598.991" y1="175.07" x2="634.242" y2="178.275"/>
					</g>
				</g>
			</g>
		</g>
		<g>
			<g>
				<g>
					<g>
						<g>
							<path style="fill:#3FB0BB;" d="M651.879,268.65c2.293,0.173,2.859,3.255,2.757,5.552
								c-0.936,21.244-3.396,42.422-7.354,63.315c-1.14,6.018-2.348,12.526,0.319,18.04c2.407,4.976,7.657,8.133,13.078,9.208
								c5.422,1.075,11.036,0.333,16.452-0.774c6.197-1.267,12.774-3.327,16.487-8.448c4.203-5.797,3.471-13.85,1.135-20.618
								c-2.336-6.769-6.074-13.078-7.489-20.098c-0.764-3.794-0.87-7.841-2.78-11.206c-1.305-2.299-3.343-4.072-5.239-5.913
								c-4.945-4.801-9.152-10.361-12.428-16.425c-1.657-3.067-3.121-6.323-5.57-8.805c-2.449-2.482-6.219-4.05-9.474-2.801"/>
						</g>
						<g>
							<defs>
								<path id="SVGID_00000038372520138579227980000007815989070160173217_" d="M651.879,268.65
									c2.293,0.173,2.859,3.255,2.757,5.552c-0.936,21.244-3.396,42.422-7.354,63.315c-1.14,6.018-2.348,12.526,0.319,18.04
									c2.407,4.976,7.657,8.133,13.078,9.208c5.422,1.075,11.036,0.333,16.452-0.774c6.197-1.267,12.774-3.327,16.487-8.448
									c4.203-5.797,3.471-13.85,1.135-20.618c-2.336-6.769-6.074-13.078-7.489-20.098c-0.764-3.794-0.87-7.841-2.78-11.206
									c-1.305-2.299-3.343-4.072-5.239-5.913c-4.945-4.801-9.152-10.361-12.428-16.425c-1.657-3.067-3.121-6.323-5.57-8.805
									c-2.449-2.482-6.219-4.05-9.474-2.801"/>
							</defs>
							<clipPath id="SVGID_00000127004019461119607350000005537077670315006380_">
								<use xlink:href="#SVGID_00000038372520138579227980000007815989070160173217_"  style="overflow:visible;"/>
							</clipPath>
							<g style="clip-path:url(#SVGID_00000127004019461119607350000005537077670315006380_);">
								<g>
									<path style="fill:#89E9ED;" d="M652.515,255.904c-2.658,5.144-5.396,10.845-4.106,16.49
										c1.091,4.776,4.863,8.457,6.834,12.943c1.525,3.47,1.956,7.392,3.844,10.679c2.042,3.556,5.554,5.976,8.95,8.274
										c3.278,2.218,6.639,4.475,10.469,5.472c3.83,0.997,8.288,0.508,11.139-2.237c3.265-3.144,3.575-8.45,1.944-12.679
										c-1.631-4.229-4.834-7.629-7.981-10.891c-9.808-10.165-19.852-20.165-31.022-28.812"/>
								</g>
								<g style="opacity:0.42;">
									<path style="fill:#2E6ABA;" d="M706.014,303.827c-3.145-3.443-9.088-2.232-12.575,0.866
										c-3.486,3.098-5.467,7.519-8.391,11.152c-3.099,3.852-7.299,6.808-11.97,8.425c-2.301,0.797-4.791,1.317-6.663,2.873
										c-1.873,1.556-2.786,4.642-1.119,6.417c2.326,2.477,7.474,0.538,9.237,3.442c2.324,3.827-5.284,7.076-5.15,11.552
										c0.061,2.07,1.825,3.722,2.201,5.759c0.43,2.335-1.013,4.541-2.017,6.692c-2.385,5.112-2.366,11.33,0.234,16.335
										c2.6,5.006,7.78,8.632,13.395,9.162c7.067,0.667,13.786-3.322,18.965-8.177c16.21-15.194,21.701-40.735,13.167-61.249
										c-2.151-5.172-5.208-10.133-9.717-13.457"/>
								</g>
								<g style="opacity:0.5;">
									<path style="fill:#2E6ABA;" d="M653.922,253.092c-2.658,5.144-5.396,10.845-4.106,16.49
										c1.091,4.777,4.863,8.457,6.834,12.943c1.525,3.471,1.956,7.392,3.844,10.679c2.042,3.556,5.554,5.976,8.95,8.274
										c3.278,2.218,6.639,4.475,10.469,5.472c3.83,0.997,8.288,0.508,11.139-2.237c3.265-3.144,3.575-8.45,1.944-12.679
										c-1.631-4.229-4.834-7.629-7.981-10.891c-9.808-10.165-19.852-20.165-31.022-28.812"/>
								</g>
							</g>
						</g>
					</g>
					<path style="fill:#3FB0BB;" d="M654.589,268.332c0,0-11.264-0.834-12.376,4.033c-1.112,4.867,1.669,8.9,5.145,4.728
						c3.477-4.172,5.702-5.702,8.205-3.755S654.589,268.332,654.589,268.332z"/>
				</g>
				<g>
					<g>
						<g>
							<path style="fill:#F3B5B3;" d="M650.869,266.037l-11.655-30.036c-0.499-1.608,2.218-7.212,3.692-8.085l0,0
								c2.167-1.283,5.58-0.739,5.58-0.739l10.029,37.735L650.869,266.037z"/>
						</g>
						<g>
							<path style="fill:#FFFFFF;" d="M649.256,229.342l-10.042,6.658c0,0-12.202-14.765-18.333-24.832
								c-1.799-2.955-1.537-6.684,0.634-9.391l0,0c3.503-4.37,9.796-3.856,13.69,0.188
								C644.206,211.312,649.256,229.342,649.256,229.342z"/>
						</g>
					</g>
					<path style="fill:#F3B5B3;" d="M651.019,266.261l-0.499-2.853c-0.055-0.266,7.453,0.072,7.453,0.072s4.646,11.891,4.582,12.846
						c-0.064,0.955-2.504-3.27-2.504-3.27s1.535,4.428,1.356,5.895c-0.143,1.168-3.231-4.332-3.231-4.332
						c0.638,2.306,2.09,6.51,1.387,6.832c-0.88,0.403-3.326-6.669-3.326-6.669s1.31,5.09,0.588,5.705
						c-0.723,0.616-4.272-8.788-4.272-8.788s-0.782,2.189-2.788,2.962c-0.51,0.197-1.137-0.185-1.347-0.533
						C650.531,272.329,651.019,266.261,651.019,266.261z"/>
				</g>
			</g>
			<g>
				<g>
					<g>
						<defs>
							<path id="XMLID_31_" d="M688.966,344.621c0.578,0.667,0.877,1.287,1.031,1.759c0.149,0.456,0.138,0.958-0.024,1.409
								l-1.433,3.995c0.145-1.828-2.416-4.065-2.772-4.366l-0.788,0.689l1.264-3.825l3.486-0.329L688.966,344.621z"/>
						</defs>
						<use xlink:href="#XMLID_31_"  style="overflow:visible;fill:#FFFFFF;"/>
						<clipPath id="XMLID_00000027582000760289462650000012841857083694887099_">
							<use xlink:href="#XMLID_31_"  style="overflow:visible;"/>
						</clipPath>
					</g>
					<path style="fill:#FFFFFF;" d="M687.34,349.72l-3.041,0.322l0.647,3.978l2.271-0.471c0.432-0.09,0.783-0.443,0.901-0.913
						C688.293,351.943,688.249,350.875,687.34,349.72z"/>
				</g>
				<g>
					<g>
						<path style="fill:#FFFFFF;" d="M677.697,342.683c0.259-0.879,0.613-1.463,0.916-1.836c0.293-0.36,0.698-0.585,1.132-0.638
							l3.852-0.471c-1.523,0.716-2.101,4.275-2.174,4.765l0.919,0.449l-3.638,0.557l-1.898-3.26L677.697,342.683z"/>
						<path id="XMLID_29_" style="fill:#FFFFFF;" d="M682.519,341.883l1.684,2.828l2.862-2.501l-1.441-2.003
							c-0.274-0.382-0.72-0.56-1.149-0.455C683.841,339.906,683.011,340.45,682.519,341.883z"/>
					</g>
					<g>
						<defs>
							<path id="XMLID_26_" d="M681.244,354.481c-0.819,0.176-1.45,0.117-1.891,0.004c-0.426-0.109-0.8-0.392-1.053-0.788
								l-2.244-3.505c1.304,1.128,4.388-0.042,4.81-0.209l-0.093-1.109l2.207,3.256l-1.645,3.426L681.244,354.481z"/>
						</defs>
						<use xlink:href="#XMLID_26_"  style="overflow:visible;fill:#FFFFFF;"/>
						<clipPath id="XMLID_00000081644103651732573370000008079139191317801609_">
							<use xlink:href="#XMLID_26_"  style="overflow:visible;"/>
						</clipPath>
					</g>
					<path style="fill:#FFFFFF;" d="M678.27,350.195l1.409-3.007l-3.362-1.559L675.439,348c-0.167,0.451-0.091,0.97,0.201,1.335
						C676.07,349.875,676.902,350.414,678.27,350.195z"/>
				</g>
			</g>
		</g>
	</g>
	<g>
		<g>
			<g>
				<path style="fill:#C3644E;" d="M305.796,211.863l-22.654,5.334c0,0,8.675,49.861,7.672,52.141l-32.41,36.795
					c0,0-3.2,4.697-9.613,9.895c-2.234,1.811-2.463,6.662,2.965,9.638c3.823,2.096,6.007,6.553,10.935,11.491
					c1.858,1.862,8.526,2.039,1.956-4.424l-5.477-11.7c1.595-1.772,5.447-6.196,7.586-8.657l37.733-28.573
					C317.228,273.362,305.796,211.863,305.796,211.863z"/>
				<path style="fill:#E83518;" d="M295.462,261.293c0,0,15.623,6.088,16.726,1.54c1.807-7.456-1.878-27.809-1.878-27.809
					l-3.934-2.498l-2.857,9.27l-7.202,9.794L295.462,261.293z"/>
			</g>
			<g>
				<path style="fill:#D27054;" d="M307.26,345.097l-11.289-4.83l0.06-125.895l-15.521-1.016c0,0-10.32,14.055-8.972,32.68
					l13.371,92.162c-0.121,1.523-0.308,3.193-0.601,4.995c-0.461,2.838,2.599,6.61,8.63,5.215c4.248-0.982,8.845,0.889,15.81,1.291
					C311.373,349.852,316.465,345.544,307.26,345.097z"/>
				<g>
					<path style="fill:#FB441F;" d="M269.84,261.173c1.233,6.867,26.751,0.342,26.751,0.342l0.913-11.038l8.471-12.38l-2.72-5.34
						l-29.493-3.062C273.761,229.695,266.934,244.982,269.84,261.173z"/>
					<polyline style="fill:none;stroke:#A2493A;stroke-miterlimit:10;" points="296.239,289.958 296.621,251.78 303.884,241.66 
											"/>
				</g>
			</g>
		</g>
		<g>
			<g>
				<g>
					<path style="fill:#C3644E;" d="M311.975,216.348L311.975,216.348c-2.434,2.758-0.406,6.955,1.587,8.8l25.261,16.82l5.015-5.476
						l-23.644-22.748C317.817,212.07,313.899,214.168,311.975,216.348z"/>
					<polygon style="fill:#C3644E;" points="338.822,241.968 346.58,247.372 346.461,238.576 343.838,236.492 338.497,237.15 					
						"/>
					<g>
						<g>
							
								<line style="fill:none;stroke:#197F84;stroke-width:3;stroke-linecap:round;stroke-miterlimit:10;" x1="344.596" y1="330.211" x2="344.596" y2="222.208"/>
							<g>
								<g>
									<polygon style="fill:#DFA253;" points="330.724,330.427 335.036,352.602 362.068,352.602 356.43,330.427 									"/>
									<g>
										
											<line style="fill:none;stroke:#C48037;stroke-width:0.822;stroke-miterlimit:10;" x1="338.84" y1="352.602" x2="333.905" y2="331.306"/>
										
											<line style="fill:none;stroke:#C48037;stroke-width:0.822;stroke-miterlimit:10;" x1="342.88" y1="352.602" x2="337.946" y2="331.306"/>
										
											<line style="fill:none;stroke:#C48037;stroke-width:0.822;stroke-miterlimit:10;" x1="346.92" y1="352.602" x2="341.986" y2="331.306"/>
										
											<line style="fill:none;stroke:#C48037;stroke-width:0.822;stroke-miterlimit:10;" x1="350.96" y1="352.602" x2="346.026" y2="331.306"/>
										
											<line style="fill:none;stroke:#C48037;stroke-width:0.822;stroke-miterlimit:10;" x1="355.001" y1="352.602" x2="350.066" y2="331.306"/>
										
											<line style="fill:none;stroke:#C48037;stroke-width:0.822;stroke-miterlimit:10;" x1="359.041" y1="352.602" x2="354.107" y2="331.306"/>
									</g>
								</g>
								<path style="fill:#3FB0BB;" d="M356.962,327.518h-24.938c-1.501,0-2.717,1.217-2.717,2.717v3.101h30.372v-3.101
									C359.679,328.734,358.462,327.518,356.962,327.518z"/>
							</g>
						</g>
					</g>
					<g>
						<g>
							<g>
								<path style="fill:#3FB0BB;" d="M342.453,240.365c1.521,0.115,1.896,2.159,1.829,3.683
									c-0.621,14.092-2.252,28.139-4.878,41.998c-0.756,3.992-1.557,8.309,0.212,11.966c1.596,3.301,5.079,5.395,8.675,6.108
									c3.596,0.713,7.321,0.221,10.913-0.514c4.11-0.84,8.473-2.207,10.936-5.604c2.788-3.845,2.302-9.187,0.753-13.676
									c-1.549-4.49-4.029-8.675-4.967-13.331c-0.507-2.516-0.577-5.201-1.844-7.433c-0.865-1.525-2.217-2.701-3.475-3.922
									c-3.28-3.185-6.07-6.873-8.244-10.895c-1.099-2.035-2.07-4.194-3.694-5.84c-1.624-1.646-4.125-2.686-6.284-1.858"/>
							</g>
							<g>
								<defs>
									<path id="SVGID_00000147191529889043060260000002510189648103690408_" d="M342.385,241.046
										c1.364,0.682,1.965,1.478,1.897,3.002c-0.621,14.092-2.252,28.139-4.878,41.998c-0.756,3.992-1.557,8.309,0.212,11.966
										c1.596,3.301,5.079,5.395,8.675,6.108c3.596,0.713,7.321,0.221,10.913-0.514c4.11-0.84,8.473-2.207,10.936-5.604
										c2.788-3.845,2.302-9.187,0.753-13.676c-1.549-4.49-4.029-8.675-4.967-13.331c-0.507-2.516-0.577-5.201-1.844-7.433
										c-0.865-1.525-2.217-2.701-3.475-3.922c-3.28-3.185-6.07-6.873-8.244-10.895c-1.099-2.035-2.07-4.194-3.694-5.84
										c-1.624-1.646-4.056-3.367-6.215-2.539C342.453,240.365,341.836,240.772,342.385,241.046z"/>
								</defs>
								<clipPath id="SVGID_00000150074413297654469990000008885742670740466064_">
									<use xlink:href="#SVGID_00000147191529889043060260000002510189648103690408_"  style="overflow:visible;"/>
								</clipPath>
								<g style="clip-path:url(#SVGID_00000150074413297654469990000008885742670740466064_);">
									<g>
										<path style="fill:#89E9ED;" d="M342.876,231.911c-1.763,3.412-3.579,7.194-2.724,10.938
											c0.724,3.168,3.225,5.61,4.533,8.585c1.012,2.302,1.297,4.903,2.55,7.083c1.355,2.359,3.684,3.964,5.937,5.488
											c2.174,1.471,4.404,2.968,6.944,3.629s5.497,0.337,7.388-1.484c2.166-2.085,2.372-5.605,1.29-8.41
											c-1.082-2.805-3.206-5.06-5.294-7.224c-6.505-6.743-13.168-13.376-20.577-19.111"/>
									</g>
									<g style="opacity:0.42;">
										<path style="fill:#2E6ABA;" d="M378.362,263.699c-2.086-2.284-6.028-1.48-8.341,0.574
											c-2.313,2.055-3.626,4.987-5.566,7.397c-2.056,2.555-4.841,4.516-7.94,5.588c-1.526,0.528-3.178,0.874-4.42,1.906
											c-1.242,1.032-1.848,3.079-0.742,4.256c1.543,1.643,4.957,0.357,6.127,2.283c1.541,2.539-3.505,4.694-3.416,7.663
											c0.041,1.373,1.211,2.469,1.46,3.82c0.285,1.548-0.672,3.012-1.338,4.439c-1.582,3.391-1.569,7.515,0.156,10.835
											c1.725,3.32,5.16,5.726,8.885,6.077c4.688,0.443,9.145-2.204,12.58-5.424c10.752-10.079,14.394-27.02,8.734-40.627
											c-1.427-3.431-3.454-6.721-6.445-8.926"/>
									</g>
									<g style="opacity:0.5;">
										<path style="fill:#2E6ABA;" d="M343.809,230.045c-1.763,3.412-3.579,7.194-2.724,10.938
											c0.724,3.168,3.225,5.61,4.533,8.585c1.012,2.302,1.297,4.903,2.549,7.083c1.355,2.358,3.684,3.964,5.937,5.488
											c2.174,1.471,4.404,2.968,6.944,3.629c2.541,0.661,5.497,0.337,7.388-1.484c2.166-2.085,2.371-5.605,1.29-8.41
											c-1.082-2.805-3.206-5.06-5.294-7.224c-6.506-6.743-13.168-13.376-20.577-19.111"/>
									</g>
								</g>
							</g>
						</g>
						<g>
							<path style="fill:#C3644E;" d="M345.488,235.621c0,0,3.454-0.433,3.357,4.038c0,0-1.039,2.396-6.827,2.767
								c-0.683,0.044-1.295-0.551-1.387-1.338l0,0c-0.084-0.715,0.286-1.38,0.878-1.579l3.868-1.218L345.488,235.621z"/>
							<path style="fill:#C3644E;" d="M348.844,239.658c0,0,1.111,1.733,0.412,3.603c0,0,0.597,1.592-0.118,2.904
								c0,0,0.319,0.584-0.018,1.556c-0.239,0.69-0.89,1.161-1.613,1.263c-1.185,0.167-3.251,0.275-4.583-0.682
								c-0.311-0.223-0.47-0.594-0.41-0.972c0.048-0.303-0.043-0.46,0.32-0.684c0,0-0.826-0.333-0.909-1.042
								c-0.083-0.709,0.255-1.12,0.726-1.343c0,0-1.807,0.514-1.615-1.931C341.229,239.884,348.844,239.658,348.844,239.658z"/>
						</g>
					</g>
				</g>
				<g>
					<path style="fill:#FFFFFF;" d="M368.722,287.734c-0.122-0.376-0.36-0.87-0.82-1.4l0.608-0.532l-2.774,0.262l-1.006,3.044
						l0.627-0.549c0.283,0.24,2.322,2.021,2.206,3.475l1.141-3.179C368.831,288.496,368.84,288.097,368.722,287.734z"/>
					<path style="fill:#FFFFFF;" d="M364.187,290.648l0.515,3.166l1.807-0.375c0.344-0.071,0.623-0.352,0.717-0.726
						c0.139-0.552,0.104-1.402-0.619-2.321L364.187,290.648z"/>
					<path style="fill:#FFFFFF;" d="M362.63,286.597l-0.731-0.357c0.058-0.39,0.518-3.223,1.73-3.793l-3.066,0.375
						c-0.346,0.042-0.668,0.221-0.901,0.508c-0.242,0.296-0.523,0.761-0.729,1.461l-0.708-0.346l1.511,2.595L362.63,286.597z"/>
					<path style="fill:#FFFFFF;" d="M365.241,282.819c-0.218-0.304-0.573-0.445-0.915-0.362c-0.504,0.123-1.164,0.556-1.557,1.697
						l1.34,2.25l2.278-1.991L365.241,282.819z"/>
					<path style="fill:#FFFFFF;" d="M361.454,290.601c-0.336,0.133-2.79,1.064-3.828,0.167l1.786,2.79
						c0.202,0.315,0.499,0.54,0.838,0.627c0.351,0.09,0.854,0.137,1.505-0.003l0.072,0.855l1.309-2.726l-1.757-2.591
						L361.454,290.601z"/>
					<path style="fill:#FFFFFF;" d="M359.388,290.77l1.121-2.393l-2.675-1.241l-0.698,1.887c-0.133,0.359-0.072,0.772,0.16,1.063
						C357.637,290.515,358.299,290.944,359.388,290.77z"/>
				</g>
			</g>
			<g>
				<path style="fill:#C3644E;" d="M319.218,197.255l3.688,22.27c0.682,3.403-0.91,6.447-4.331,7.033l0,0
					c-3.099,0.531-6.101-1.357-6.965-4.38l-6.169-21.894L319.218,197.255z"/>
				<g>
					<path style="fill:#1AA89A;" d="M322.465,210.592l-3.95-23.775c-0.918-4.641-6.476-7.479-9.965-7.186l0,0
						c-5.021,0.635-8.149,5.103-7.389,10.107l4.199,25.153L322.465,210.592z"/>
				</g>
			</g>
		</g>
		<g>
			<path style="fill:#141212;" d="M295.272,171.164c0,0-10.883-9.67-3.481-22.212c5.084-8.614,21.332-4.919,21.114,4.107"/>
			<g>
				<g>
					<g>
						<g>
							<path style="fill:#DE7958;" d="M300.277,147.025c-0.783,0.225-1.546,0.575-2.274,1.065
								c-6.511,4.38-4.812,15.398-0.646,20.967c2.305,3.082,6.13,4.997,9.886,4.293c5.494-1.03,8.132-6.586,7.998-11.968
								c-0.1-4.01-1.604-8.045-4.376-10.879C308.095,147.672,303.978,145.957,300.277,147.025z"/>
						</g>
					</g>
					<g>
						<g>
							<path style="fill:#DE7958;" d="M296.06,165.597c-1.145,0.796-2.912,0.889-4.138,0.202c-1.225-0.687-2.081-2.107-2.167-3.593
								c-0.077-1.333,0.506-2.732,1.586-3.349c1.08-0.617,2.764-0.271,3.389,0.889L296.06,165.597z"/>
						</g>
					</g>
					<g>
						<g>
							<path style="fill:#DE7958;" d="M295.231,161.947l-2.204,18.56c-0.46,3.421,1.823,6.609,5.21,7.273l0,0
								c3.912,0.768,7.592-2.121,7.776-6.103l0.926-17.433L295.231,161.947z"/>
						</g>
					</g>
					<g>
						<g>
							<path style="fill:#111010;" d="M306.314,176.017l0.185-2.563c0,0-5.332,0.666-9.142-4.398
								C297.357,169.056,299.137,174.308,306.314,176.017z"/>
						</g>
					</g>
					<path style="fill:none;stroke:#9B4332;stroke-width:0.4485;stroke-miterlimit:10;" d="M293.693,163.172
						c-0.771-0.056-1.361-0.583-1.319-1.177c0.032-0.446,0.411-0.803,0.924-0.93"/>
					<g>
						<g>
							<path style="fill:#9B4332;" d="M309.841,164.621l1.015-1.082l0.013-0.008l0.049,0.367c-0.362-0.232-0.574-0.554-0.751-0.874
								c-0.173-0.324-0.304-0.661-0.403-1.005c0.167,0.315,0.363,0.615,0.587,0.881c0.221,0.264,0.487,0.501,0.762,0.6l0.275,0.099
								l-0.227,0.268l-0.01,0.012l-1.21,0.858L309.841,164.621z"/>
						</g>
					</g>
					<g>
						<path style="fill:#1D0301;" d="M314.066,160.653c-0.016,0.489-0.425,0.873-0.913,0.857c-0.489-0.016-0.873-0.425-0.857-0.913
							c0.016-0.489,0.425-0.873,0.914-0.857C313.698,159.755,314.081,160.164,314.066,160.653z"/>
						<path style="fill:#1D0301;" d="M306.376,161.083c-0.016,0.489-0.425,0.873-0.914,0.857c-0.489-0.016-0.873-0.425-0.857-0.913
							c0.016-0.489,0.425-0.873,0.914-0.857C306.008,160.185,306.392,160.594,306.376,161.083z"/>
					</g>
				</g>
				<g>
					<g>
						<g>
							<defs>
								<path id="XMLID_13_" d="M310.821,166.297l-4.481,0.136c0,0,0.077,1.794,2.358,1.813
									C310.601,168.262,310.821,166.297,310.821,166.297z"/>
							</defs>
							<use xlink:href="#XMLID_13_"  style="overflow:visible;fill:#1D0301;"/>
							<clipPath id="XMLID_00000069397465133477882650000011197975872135217293_">
								<use xlink:href="#XMLID_13_"  style="overflow:visible;"/>
							</clipPath>
							<path style="clip-path:url(#XMLID_00000069397465133477882650000011197975872135217293_);fill:#FC7EC8;" d="M306.169,169.676
								c0.421,0.861,1.461,1.218,2.322,0.797c0.861-0.421,1.218-1.461,0.797-2.322c-0.421-0.861-1.461-1.218-2.322-0.797
								C306.105,167.775,305.748,168.814,306.169,169.676z"/>
						</g>
					</g>
					<g>
						
							<path style="fill:none;stroke:#FFFFFF;stroke-width:0.4485;stroke-linecap:round;stroke-linejoin:round;stroke-miterlimit:10;" d="
							M308.871,160.375c0.029,2.306-1.776,4.198-4.032,4.227c-2.256,0.029-4.109-1.817-4.139-4.122
							c-0.03-2.306,1.776-4.198,4.032-4.227C306.988,156.223,308.841,158.069,308.871,160.375z"/>
						
							<path style="fill:none;stroke:#FFFFFF;stroke-width:0.4485;stroke-linecap:round;stroke-linejoin:round;stroke-miterlimit:10;" d="
							M318.003,160.227c0.028,2.214-1.516,4.029-3.45,4.054c-1.934,0.025-3.524-1.75-3.552-3.964
							c-0.028-2.214,1.516-4.029,3.45-4.054C316.384,156.238,317.975,158.013,318.003,160.227z"/>
						
							<path style="fill:none;stroke:#FFFFFF;stroke-width:0.4485;stroke-linecap:round;stroke-linejoin:round;stroke-miterlimit:10;" d="
							M308.871,160.375c0,0,0.89-1.055,2.13-0.058"/>
						
							<line style="fill:none;stroke:#FFFFFF;stroke-width:0.4485;stroke-linecap:round;stroke-linejoin:round;stroke-miterlimit:10;" x1="300.7" y1="160.479" x2="294.234" y2="159.205"/>
					</g>
				</g>
			</g>
			<path style="fill:#141212;" d="M298.623,150.79c-1.174-1.375-2.694-1.377-2.175,1.042c0.546,2.55,2.379,7.403-2.862,6.995
				c0,0-4.146-12.465,6.082-14.333c3.2-0.584,7.833,0.723,10.374,2.753c0.035,0.028,0.071,0.057,0.106,0.085
				c3.466,2.821,1.021,8.479-3.409,7.89C304.085,154.87,301.113,153.707,298.623,150.79z"/>
		</g>
		<g>
			<path style="fill:#1AA89A;" d="M312.103,179.999l-5.531-2.56c-8.408,3.977-12.384-2.613-12.384-2.613l-8.796-0.037
				l-10.285,24.505c0,0-9.263,28.953-4.247,36.712c3.234,5.003,12.196,3.938,21.999,3.956c6.676,0.012,15.841,3.109,19.016,0.585
				c9.919-7.885,5.348-50.857,5.348-50.857L312.103,179.999z"/>
			
				<line style="fill:none;stroke:#323365;stroke-width:0.8537;stroke-miterlimit:10;" x1="317.492" y1="194.352" x2="318.441" y2="213.138"/>
		</g>
		<g>
			<g>
				
					<line style="fill:none;stroke:#197F84;stroke-width:3;stroke-linecap:round;stroke-miterlimit:10;" x1="295.067" y1="246.965" x2="326.007" y2="341.766"/>
				<g>
					<polygon style="fill:#2C2C5F;" points="323.147,340.132 323.147,352.602 335.036,352.602 332.611,340.132 					"/>
					<polygon style="opacity:0.5;fill:#2E6ABA;" points="315.8,340.132 315.8,352.602 335.036,352.602 334.391,349.287 
						325.549,340.132 					"/>
				</g>
			</g>
			<g>
				<path style="fill:#D27054;" d="M273.775,212.927l9.374-15.434l-13.094-6.929c0,0-12.225,14.245-10.22,24.269
					c0.849,4.245,28.762,35.057,28.762,35.057l6.66-4.851L273.775,212.927z"/>
				<g>
					<g>
						<path style="fill:#1AA89A;" d="M276.887,208.577l11.861-19.706c2.328-4.118,3.847-15.54-4.238-13.968
							c-12.224,2.377-22.764,26.102-22.764,26.102L276.887,208.577z"/>
					</g>
					
						<line style="fill:none;stroke:#323365;stroke-width:0.8537;stroke-miterlimit:10;" x1="279.456" y1="209.004" x2="286.654" y2="195.161"/>
				</g>
			</g>
			<path style="fill:#D27054;" d="M288.598,249.891c0,0,7.115,10.941,11.108,9.405c3.994-1.536,3.542-8.002-4.448-14.256
				C289.773,240.747,288.598,249.891,288.598,249.891z"/>
		</g>
	</g>
	<g>
		<g>
			<g>
				<g>
					<path style="fill:#3FB0BB;" d="M197.872,369.627c2.293,0.173,2.859,3.255,2.757,5.552c-0.936,21.244-3.396,42.422-7.354,63.315
						c-1.14,6.018-2.348,12.526,0.319,18.04c2.407,4.976,7.657,8.133,13.079,9.208c5.422,1.075,11.036,0.333,16.452-0.774
						c6.197-1.267,12.774-3.327,16.487-8.448c4.203-5.797,3.471-13.85,1.135-20.618c-2.336-6.769-6.074-13.078-7.489-20.098
						c-0.764-3.794-0.87-7.841-2.78-11.206c-1.305-2.299-3.343-4.072-5.239-5.913c-4.945-4.801-9.152-10.361-12.428-16.425
						c-1.657-3.067-3.121-6.323-5.57-8.805c-2.449-2.482-6.218-4.05-9.473-2.801"/>
				</g>
				<g>
					<defs>
						<path id="SVGID_00000032638416652176929270000014756636800366252713_" d="M197.872,369.627
							c2.293,0.173,2.859,3.255,2.757,5.552c-0.936,21.244-3.396,42.422-7.354,63.315c-1.14,6.018-2.348,12.526,0.319,18.04
							c2.407,4.976,7.657,8.133,13.079,9.208c5.422,1.075,11.036,0.333,16.452-0.774c6.197-1.267,12.774-3.327,16.487-8.448
							c4.203-5.797,3.471-13.85,1.135-20.618c-2.336-6.769-6.074-13.078-7.489-20.098c-0.764-3.794-0.87-7.841-2.78-11.206
							c-1.305-2.299-3.343-4.072-5.239-5.913c-4.945-4.801-9.152-10.361-12.428-16.425c-1.657-3.067-3.121-6.323-5.57-8.805
							c-2.449-2.482-6.218-4.05-9.473-2.801"/>
					</defs>
					<clipPath id="SVGID_00000066482549810456708080000009823258803543226784_">
						<use xlink:href="#SVGID_00000032638416652176929270000014756636800366252713_"  style="overflow:visible;"/>
					</clipPath>
					<g style="clip-path:url(#SVGID_00000066482549810456708080000009823258803543226784_);">
						<g>
							<path style="fill:#89E9ED;" d="M198.509,356.881c-2.658,5.144-5.396,10.845-4.106,16.49
								c1.091,4.777,4.863,8.457,6.834,12.943c1.525,3.47,1.956,7.392,3.844,10.679c2.042,3.556,5.554,5.976,8.95,8.274
								c3.278,2.218,6.639,4.475,10.469,5.472c3.83,0.997,8.288,0.508,11.139-2.237c3.265-3.144,3.575-8.45,1.944-12.679
								c-1.631-4.229-4.834-7.629-7.981-10.891c-9.808-10.165-19.852-20.165-31.022-28.812"/>
						</g>
						<g style="opacity:0.42;">
							<path style="fill:#2E6ABA;" d="M252.007,404.804c-3.145-3.443-9.088-2.232-12.575,0.866
								c-3.486,3.098-5.467,7.519-8.391,11.152c-3.099,3.852-7.299,6.808-11.97,8.425c-2.301,0.796-4.791,1.317-6.663,2.873
								c-1.873,1.556-2.786,4.642-1.119,6.417c2.326,2.477,7.474,0.537,9.237,3.442c2.324,3.828-5.284,7.076-5.151,11.552
								c0.062,2.07,1.826,3.722,2.201,5.759c0.43,2.335-1.013,4.541-2.017,6.692c-2.384,5.112-2.365,11.33,0.235,16.335
								c2.6,5.006,7.779,8.632,13.395,9.162c7.067,0.667,13.786-3.322,18.965-8.177c16.21-15.194,21.7-40.735,13.167-61.249
								c-2.152-5.172-5.208-10.133-9.717-13.457"/>
						</g>
						<g style="opacity:0.5;">
							<path style="fill:#2E6ABA;" d="M199.915,354.068c-2.658,5.144-5.396,10.845-4.106,16.49
								c1.091,4.776,4.863,8.457,6.833,12.943c1.525,3.47,1.956,7.392,3.844,10.679c2.042,3.556,5.554,5.976,8.95,8.274
								c3.278,2.218,6.639,4.475,10.469,5.472c3.83,0.997,8.288,0.508,11.139-2.237c3.265-3.144,3.575-8.45,1.944-12.679
								c-1.631-4.229-4.834-7.629-7.981-10.891c-9.808-10.165-19.852-20.165-31.022-28.812"/>
						</g>
					</g>
				</g>
			</g>
			<g>
				<path style="fill:#FFFFFF;" d="M237.122,445.889c-0.122-0.376-0.36-0.87-0.82-1.4l0.608-0.532l-2.774,0.262l-1.006,3.044
					l0.627-0.549c0.283,0.24,2.322,2.021,2.206,3.475l1.141-3.179C237.231,446.651,237.24,446.252,237.122,445.889z"/>
				<path style="fill:#FFFFFF;" d="M232.587,448.803l0.515,3.166l1.807-0.375c0.344-0.071,0.623-0.352,0.717-0.726
					c0.139-0.552,0.104-1.402-0.619-2.321L232.587,448.803z"/>
				<path style="fill:#FFFFFF;" d="M231.03,444.752l-0.731-0.357c0.058-0.39,0.518-3.223,1.73-3.793l-3.066,0.375
					c-0.346,0.042-0.668,0.221-0.901,0.508c-0.242,0.296-0.523,0.761-0.729,1.461l-0.708-0.346l1.511,2.595L231.03,444.752z"/>
				<path style="fill:#FFFFFF;" d="M233.641,440.974c-0.218-0.304-0.573-0.445-0.915-0.362c-0.504,0.123-1.164,0.557-1.557,1.697
					l1.34,2.25l2.278-1.991L233.641,440.974z"/>
				<path style="fill:#FFFFFF;" d="M229.854,448.756c-0.336,0.133-2.79,1.064-3.828,0.167l1.786,2.79
					c0.202,0.315,0.499,0.54,0.838,0.627c0.351,0.09,0.854,0.137,1.505-0.003l0.072,0.855l1.309-2.726l-1.757-2.591L229.854,448.756
					z"/>
				<path style="fill:#FFFFFF;" d="M227.788,448.925l1.121-2.393l-2.675-1.241l-0.699,1.887c-0.133,0.359-0.072,0.772,0.16,1.063
					C226.037,448.67,226.699,449.099,227.788,448.925z"/>
			</g>
		</g>
		<g>
			<g>
				<g>
					<g>
						<g>
							<g>
								<g>
									<defs>
										<path id="XMLID_78_" d="M153.144,423.985c0,0,2.946,12.342,13.909,9.317l12.273,6.997
											c2.129,1.214,7.462,2.478,9.803,3.203c2.53,0.783-1.223,3.915-3.525,3.908c0,0-29.566-1.106-33.872-1.86
											C146.597,444.651,150.975,439.44,153.144,423.985z"/>
									</defs>
									<use xlink:href="#XMLID_78_"  style="overflow:visible;fill:#EA9292;"/>
									<clipPath id="XMLID_00000134234577747659953340000010514253313659889579_">
										<use xlink:href="#XMLID_78_"  style="overflow:visible;"/>
									</clipPath>
								</g>
							</g>
						</g>
					</g>
					<g>
						<path style="fill:#EA9292;" d="M110.97,363.916l47.219-5.065c3.788-0.033,9.186-1.376,14.039-1.827
							c4.904-0.456,9.039,3.604,9.898,8.573l-15.624,70.221l-14.836,0.427l5.027-51.082l-36.8,6.255L110.97,363.916z"/>
					</g>
					<path style="fill:#E83518;" d="M132.959,390.619c0,0,16.516,0.93,20.12-2.376c5.998-5.503,6.996-31.799,6.996-31.799
						l-28.301,3.18L132.959,390.619z"/>
				</g>
				<g>
					<g>
						<g>
							<g>
								<g>
									<defs>
										<path id="XMLID_79_" d="M75.195,417.246c0,0,9.107,14.23-16.102,11.208l-8.184,12.888c7.4,5.313-5.196,3.54-4.743,0.949
											c2.637-15.106,4.522-32.26,8.538-28.84C59.826,417.815,75.195,417.246,75.195,417.246z"/>
									</defs>
									<use xlink:href="#XMLID_79_"  style="overflow:visible;fill:#F69D9A;"/>
									<clipPath id="XMLID_00000081624648544011855090000004038988279654804670_">
										<use xlink:href="#XMLID_79_"  style="overflow:visible;"/>
									</clipPath>
								</g>
							</g>
						</g>
						<g>
							<path style="fill:#F69D9A;" d="M99.942,357.276c0,0-11.431,9.043-5.305,26.751c6.126,17.708,12.424,32.324,12.424,32.324
								l-42.871,0.515l-5.097,11.588c0,0,73.217,17.811,76.627,11.37c4.496-8.493-2.858-63.608-2.858-63.608L99.942,357.276z"/>
						</g>
					</g>
					<path style="fill:#FB441F;" d="M99.067,407.444l38.787,0.159c4.837-7.947-1.715-28.952-1.715-28.952l-37.88-21.202
						c0,0-6.537,4.307-7.614,17.729c-0.234,2.911-0.147,5.83,0.224,8.716c0.517,4.023,1.686,7.935,3.247,11.678L99.067,407.444z"/>
				</g>
			</g>
			<g>
				<g>
					<g>
						<g>
							<g>
								<path style="fill:#EA9292;" d="M219.653,346.555c-0.049-0.402-0.054-0.778-0.022-1.129
									c-2.346,0.735-4.423,1.464-4.423,1.464s1.359-2.327,0.548-4.685c-0.206-0.599-1.013-0.871-1.478-0.797
									c-0.021,3.217-5.042,8.177-5.042,8.177l-2.904,1.686c-0.277,0.15,5.624,6.561,5.624,6.561s4.577-1.55,8.65-3.023
									C220.301,352.057,219.985,349.306,219.653,346.555z"/>
								<g>
									<g>
										<path style="fill:#EA9292;" d="M155.116,336.258c0,0,7.713,18.776,15.212,28.376c11.042,14.135,46.298-9.636,46.298-9.636
											l-3.345-7.655c0,0-27.525,9.31-28.077,8.336c-4.601-8.122-16.199-24.897-16.199-24.897L155.116,336.258z"/>
									</g>
								</g>
							</g>
						</g>
						<path style="fill:#FFFFFF;" d="M182.22,346.763c0,0-18.099,9.03-18.18,8.554s-22.727-34.353-13.659-39.648
							C159.449,310.373,182.22,346.763,182.22,346.763z"/>
					</g>
					<g>
						<g>
							<polygon style="fill:#EA9292;" points="208.905,349.523 215.134,341.001 220.508,357.113 209.898,358.335 							"/>
							<g>
								<g>
									<defs>
										<path id="XMLID_15_" d="M216.86,328.455c2.993-6.795,1.946-9.645,1.946-9.645l3.561-0.023l0.415-0.003l3.561-0.023
											c0,0-1.01,2.864,2.07,9.619c0.325,0.713,0.688,1.402,1.061,2.091c0.702,1.297,2.494,5.402,2.332,13.305
											c-0.144,7.011,0.013,17.271,0.114,22.553c0.036,1.885-1.477,3.434-3.363,3.446l-5.048,0.033l-1.211,0.008l-5.048,0.033
											c-1.886,0.012-3.419-1.516-3.407-3.402c0.033-5.283,0.057-15.544-0.178-22.553c-0.265-7.901,1.474-12.029,2.16-13.335
											C216.191,329.865,216.544,329.172,216.86,328.455z"/>
									</defs>
									<use xlink:href="#XMLID_15_"  style="overflow:visible;fill:#E5F3FB;"/>
									<clipPath id="XMLID_00000136377261681770994790000015201160469882432144_">
										<use xlink:href="#XMLID_15_"  style="overflow:visible;"/>
									</clipPath>
									<path style="clip-path:url(#XMLID_00000136377261681770994790000015201160469882432144_);fill:#CCE2EB;" d="
										M222.555,315.772c0,0,0.813,9.22-1.681,16.849c-0.006,0.018-0.012,0.036-0.018,0.054
										c-2.026,5.975-2.965,12.269-2.456,18.558l1.243,15.378c0,0,0.764,2.928,4.957,4.605l-12.196,0.079l-0.359-55.455
										L222.555,315.772z"/>
								</g>
								<polygon style="fill:#FB441F;" points="218.688,320.063 226.637,320.052 226.619,316.196 218.671,316.207 								"/>
							</g>
						</g>
						<g>
							<path style="fill:#F59F9D;" d="M231.958,341.994c0,0,3.454-0.432,3.353,4.01c0,0-1.041,2.382-6.829,2.754
								c-0.683,0.044-1.294-0.546-1.386-1.328l0,0c-0.083-0.711,0.287-1.371,0.879-1.569l3.869-1.213L231.958,341.994z"/>
							<path style="fill:#F59F9D;" d="M235.311,346.004c0,0,1.11,1.721,0.409,3.58c0,0,0.596,1.581-0.12,2.886
								c0,0,0.318,0.58-0.019,1.546c-0.24,0.686-0.89,1.155-1.613,1.257c-1.185,0.167-3.251,0.276-4.582-0.674
								c-0.311-0.222-0.47-0.59-0.41-0.966c0.048-0.301-0.043-0.457,0.321-0.68c0,0-0.825-0.331-0.908-1.035
								c-0.082-0.704,0.256-1.113,0.727-1.335c0,0-1.807,0.512-1.613-1.918C227.696,346.233,235.311,346.004,235.311,346.004z"/>
						</g>
					</g>
				</g>
				<g>
					<g>
						<g>
							<path d="M148.095,299.877c0,0,0.544,4.942,3.347,7.615c-0.001-0.283,1.627-8.576,1.627-8.576L148.095,299.877z"/>
							<g>
								<g>
									<g>
										<g>
											<g>
												<path style="fill:#F7A19F;" d="M160.337,281.862c-0.936,0.103-1.876,0.352-2.802,0.768
													c-8.283,3.715-8.509,16.61-4.854,23.776c2.023,3.967,6.007,6.9,10.428,6.835c6.465-0.095,10.564-5.911,11.468-12.073
													c0.674-4.592-0.249-9.487-2.853-13.262C169.122,284.135,164.766,281.371,160.337,281.862z"/>
											</g>
										</g>
										<g>
											<g>
												<path style="fill:#F7A19F;" d="M151.883,302.207c-1.461,0.683-3.495,0.442-4.757-0.583
													c-1.262-1.024-1.959-2.811-1.765-4.522c0.175-1.535,1.114-3.015,2.466-3.506c1.352-0.491,3.205,0.233,3.689,1.68
													L151.883,302.207z"/>
											</g>
										</g>
										<g>
											<g>
												<path style="fill:#F7A19F;" d="M151.654,297.882l-6.157,20.727c-1.196,3.81,0.781,7.892,4.512,9.315l0,0
													c4.309,1.644,9.072-0.927,10.063-5.431l4.478-19.692L151.654,297.882z"/>
											</g>
										</g>
										<g>
											<g>
												<path style="fill:#111010;" d="M161.527,316.1l0.714-2.885c0,0-6.209-0.288-9.559-6.81
													C152.682,306.405,153.68,312.742,161.527,316.1z"/>
											</g>
										</g>
									</g>
									<g>
										<g>
											<path id="XMLID_68_" style="fill:#222C44;" d="M162.878,299.584c-0.015-0.014-0.029-0.029-0.044-0.043
												c-0.27-0.405-0.956-0.068-0.684,0.341c0.512,0.77,1.784,0.209,1.271-0.644c-0.501-0.831-1.797-0.124-1.344,0.741
												c0.452,0.865,1.827,0.052,1.187-0.727c-0.648-0.788-1.644,0.374-0.804,0.971
												C162.86,300.508,163.278,299.868,162.878,299.584L162.878,299.584z"/>
										</g>
										<path id="XMLID_67_" style="fill:#222C44;" d="M165.356,296.606c-1.548-0.465-3.172-0.783-4.784-0.912
											c-0.713-0.057-0.771,1.054-0.056,1.111c1.521,0.121,3.039,0.421,4.5,0.86C165.7,297.87,166.044,296.813,165.356,296.606
											L165.356,296.606z"/>
										<g>
											<path id="XMLID_66_" style="fill:#222C44;" d="M172.54,300.031c-0.015-0.014-0.029-0.029-0.044-0.043
												c-0.269-0.405-0.956-0.068-0.684,0.341c0.512,0.77,1.784,0.209,1.271-0.644c-0.501-0.831-1.797-0.124-1.344,0.741
												c0.452,0.865,1.827,0.051,1.187-0.727c-0.648-0.788-1.644,0.374-0.804,0.971
												C172.523,300.956,172.941,300.316,172.54,300.031L172.54,300.031z"/>
										</g>
										<g>
											<g>
												<path style="fill:#E57F7E;" d="M167.715,303.653l1.215-1.029l0.016-0.005l-0.024,0.616
													c-0.357-0.353-0.502-0.752-0.613-1.135c-0.106-0.386-0.161-0.772-0.181-1.156c0.14,0.357,0.313,0.698,0.518,1.004
													c0.201,0.302,0.457,0.577,0.709,0.687l0.415,0.181l-0.439,0.436l-0.012,0.011l-1.472,0.606
													c-0.065,0.027-0.14-0.004-0.167-0.07C167.658,303.747,167.674,303.688,167.715,303.653z"/>
											</g>
											<g>
												<path style="fill:#E57F7E;" d="M167.715,303.653l1.215-1.029l0.016-0.005l-0.024,0.616
													c-0.357-0.353-0.502-0.752-0.613-1.135c-0.106-0.386-0.161-0.772-0.181-1.156c0.14,0.357,0.313,0.698,0.518,1.004
													c0.201,0.302,0.457,0.577,0.709,0.687l0.415,0.181l-0.439,0.436l-0.012,0.011l-1.472,0.606
													c-0.065,0.027-0.14-0.004-0.167-0.07C167.658,303.747,167.674,303.688,167.715,303.653z"/>
											</g>
										</g>
										<path id="XMLID_65_" style="fill:#222C44;" d="M170.067,296.894c1.419-0.177,2.894-0.2,4.346-0.045
											c0.642,0.069,0.613,1.139-0.03,1.07c-1.37-0.146-2.75-0.122-4.088,0.045C169.667,298.042,169.437,296.973,170.067,296.894
											L170.067,296.894z"/>
									</g>
									<path style="fill:none;stroke:#E57F7E;stroke-width:0.6621;stroke-linecap:round;stroke-miterlimit:10;" d="
										M149.659,298.977c-0.868-0.215-1.438-0.932-1.272-1.601c0.124-0.502,0.627-0.835,1.236-0.879"/>
								</g>
							</g>
							<path d="M160.507,313.326c-3.489-1.063-10.344-4.688-9.277-16.678l2.412-1.477c0,0,3.824,12.257,20.142,9.155
								c0,0-2.319,8.752-9.769,9.406C162.835,313.835,161.641,313.671,160.507,313.326z"/>
							<path style="fill:#FFFFFF;" d="M165.186,305.944l3.213,0.442C168.399,306.386,166.574,308.904,165.186,305.944z"/>
							<path d="M157.22,287.572c0,0,9.223-5.115,15.483,1.711c0,0-3.701-9.612-12.322-9.341c-8.621,0.27-11.935,8.371-12.553,13.655
								c0,0,2.823-0.448,3.689,1.68l-0.286,1.371c0,0,1.855,2.202,1.854,1.919C153.084,298.284,160.025,291.659,157.22,287.572z"/>
							<path d="M157.22,287.572c0,0,8.933,5.038,16.404,3.989c0,0-1.183-7.504-11.121-8.196
								C152.564,282.673,157.22,287.572,157.22,287.572z"/>
						</g>
					</g>
					<g>
						<g>
							<g>
								<path style="fill:#FB441F;" d="M147.355,310.54l12.128,19.51l1.335-10.839l-12.086-11.846
									c-0.566-0.598-1.571-0.164-1.523,0.659L147.355,310.54z"/>
								<g>
									<g>
										<path style="fill:#FFFFFF;" d="M147.37,310.918c0,0-16.466,9.465-24.66,17.332c-12.73,12.222-24.452,29.199-24.452,29.199
											s-0.042,7.452,9.254,13.097c6.421,3.899,20.698,5.957,28.626,8.105c0,0,20.562-31.91,25.255-54.337L147.37,310.918z"/>
										<polygon style="opacity:0.38;fill:#0F0B1C;" points="151.883,352.309 141.578,344.786 136.139,378.651 										"/>
									</g>
								</g>
							</g>
						</g>
					</g>
					<g>
						<g>
							<g>
								<g>
									<path style="fill:#F69D9A;" d="M190.559,370.323l-3.312,0.552c-0.312,0.043,2.945,8.124,2.945,8.124
										s9.878-0.633,10.824-0.051c6.473,3.983,10.473-4.57,2.888-8.265c-3.884-1.892-6.806-0.774-6.806-0.774
										s2.093-1.698,2.167-4.189c0.019-0.634-0.64-1.172-1.101-1.268C197.008,367.455,190.559,370.323,190.559,370.323z"/>
									<g>
										<g>
											<path style="fill:#F69D9A;" d="M138.296,335.519c0,0,4.44,28.651,10.356,39.3c5.311,9.56,46.91,3.176,46.91,3.176
												l-0.427-8.342c0,0-29.04-1.007-29.212-2.113c-0.59-3.79-1.5-9.459-2.367-14.822c-1.369-8.471-13.759-19.183-22.34-19.057
												L138.296,335.519z"/>
										</g>
									</g>
								</g>
							</g>
							<path style="fill:#FFFFFF;" d="M167.24,361.543c-0.632-0.124-23.992,6.582-23.899,6.108s-16.98-44.566,3.601-53.421
								C156.588,310.078,167.24,361.543,167.24,361.543z"/>
						</g>
						
							<line style="fill:none;stroke:#EEE9E9;stroke-linecap:round;stroke-miterlimit:10;" x1="160.926" y1="327.186" x2="167.24" y2="361.543"/>
					</g>
				</g>
			</g>
		</g>
	</g>
</g>
</svg>
